G04 #@! TF.GenerationSoftware,KiCad,Pcbnew,(6.0.6-0)*
G04 #@! TF.CreationDate,2022-10-18T15:41:35-04:00*
G04 #@! TF.ProjectId,gscartsw2VGA,67736361-7274-4737-9732-5647412e6b69,1*
G04 #@! TF.SameCoordinates,Original*
G04 #@! TF.FileFunction,Legend,Top*
G04 #@! TF.FilePolarity,Positive*
%FSLAX46Y46*%
G04 Gerber Fmt 4.6, Leading zero omitted, Abs format (unit mm)*
G04 Created by KiCad (PCBNEW (6.0.6-0)) date 2022-10-18 15:41:35*
%MOMM*%
%LPD*%
G01*
G04 APERTURE LIST*
G04 Aperture macros list*
%AMRoundRect*
0 Rectangle with rounded corners*
0 $1 Rounding radius*
0 $2 $3 $4 $5 $6 $7 $8 $9 X,Y pos of 4 corners*
0 Add a 4 corners polygon primitive as box body*
4,1,4,$2,$3,$4,$5,$6,$7,$8,$9,$2,$3,0*
0 Add four circle primitives for the rounded corners*
1,1,$1+$1,$2,$3*
1,1,$1+$1,$4,$5*
1,1,$1+$1,$6,$7*
1,1,$1+$1,$8,$9*
0 Add four rect primitives between the rounded corners*
20,1,$1+$1,$2,$3,$4,$5,0*
20,1,$1+$1,$4,$5,$6,$7,0*
20,1,$1+$1,$6,$7,$8,$9,0*
20,1,$1+$1,$8,$9,$2,$3,0*%
G04 Aperture macros list end*
%ADD10C,0.304800*%
%ADD11C,1.801600*%
%ADD12C,4.167600*%
%ADD13RoundRect,0.050800X-0.850000X0.850000X-0.850000X-0.850000X0.850000X-0.850000X0.850000X0.850000X0*%
%ADD14RoundRect,0.050800X-1.000000X-1.500000X1.000000X-1.500000X1.000000X1.500000X-1.000000X1.500000X0*%
G04 APERTURE END LIST*
D10*
X164515428Y-87053142D02*
X166039428Y-86545142D01*
X164515428Y-86037142D01*
X164588000Y-84730857D02*
X164515428Y-84876000D01*
X164515428Y-85093714D01*
X164588000Y-85311428D01*
X164733142Y-85456571D01*
X164878285Y-85529142D01*
X165168571Y-85601714D01*
X165386285Y-85601714D01*
X165676571Y-85529142D01*
X165821714Y-85456571D01*
X165966857Y-85311428D01*
X166039428Y-85093714D01*
X166039428Y-84948571D01*
X165966857Y-84730857D01*
X165894285Y-84658285D01*
X165386285Y-84658285D01*
X165386285Y-84948571D01*
X165604000Y-84077714D02*
X165604000Y-83352000D01*
X166039428Y-84222857D02*
X164515428Y-83714857D01*
X166039428Y-83206857D01*
%LPC*%
D11*
X164130000Y-98345000D03*
X164130000Y-96055000D03*
X164130000Y-93765000D03*
X164130000Y-91475000D03*
X164130000Y-89185000D03*
X162150000Y-97200000D03*
X162150000Y-94910000D03*
X162150000Y-92620000D03*
X162150000Y-90330000D03*
X162150000Y-88040000D03*
X160170000Y-98345000D03*
X160170000Y-96055000D03*
X160170000Y-93765000D03*
X160170000Y-91475000D03*
D12*
X162150000Y-106260000D03*
X162150000Y-81270000D03*
D13*
X160170000Y-89185000D03*
D14*
X153043324Y-103821881D03*
X149243324Y-103821881D03*
X145443324Y-103821881D03*
X141643324Y-103821881D03*
X137843324Y-103821881D03*
X134043324Y-103821881D03*
X130243324Y-103821881D03*
X126443324Y-103821881D03*
X122643324Y-103821881D03*
X118843324Y-103821881D03*
M02*
