G04 #@! TF.GenerationSoftware,KiCad,Pcbnew,(6.0.6-0)*
G04 #@! TF.CreationDate,2022-10-18T15:41:35-04:00*
G04 #@! TF.ProjectId,gscartsw2VGA,67736361-7274-4737-9732-5647412e6b69,1*
G04 #@! TF.SameCoordinates,Original*
G04 #@! TF.FileFunction,Copper,L1,Top*
G04 #@! TF.FilePolarity,Positive*
%FSLAX46Y46*%
G04 Gerber Fmt 4.6, Leading zero omitted, Abs format (unit mm)*
G04 Created by KiCad (PCBNEW (6.0.6-0)) date 2022-10-18 15:41:35*
%MOMM*%
%LPD*%
G01*
G04 APERTURE LIST*
G04 #@! TA.AperFunction,ComponentPad*
%ADD10C,1.700000*%
G04 #@! TD*
G04 #@! TA.AperFunction,ComponentPad*
%ADD11C,4.066000*%
G04 #@! TD*
G04 #@! TA.AperFunction,ComponentPad*
%ADD12R,1.700000X1.700000*%
G04 #@! TD*
G04 #@! TA.AperFunction,SMDPad,CuDef*
%ADD13R,2.000000X3.000000*%
G04 #@! TD*
G04 #@! TA.AperFunction,ViaPad*
%ADD14C,0.700000*%
G04 #@! TD*
G04 #@! TA.AperFunction,Conductor*
%ADD15C,0.250000*%
G04 #@! TD*
G04 APERTURE END LIST*
D10*
X164130000Y-98345000D03*
X164130000Y-96055000D03*
X164130000Y-93765000D03*
X164130000Y-91475000D03*
X164130000Y-89185000D03*
X162150000Y-97200000D03*
X162150000Y-94910000D03*
X162150000Y-92620000D03*
X162150000Y-90330000D03*
X162150000Y-88040000D03*
X160170000Y-98345000D03*
X160170000Y-96055000D03*
X160170000Y-93765000D03*
X160170000Y-91475000D03*
D11*
X162150000Y-106260000D03*
X162150000Y-81270000D03*
D12*
X160170000Y-89185000D03*
D13*
X153043324Y-103821881D03*
X149243324Y-103821881D03*
X145443324Y-103821881D03*
X141643324Y-103821881D03*
X137843324Y-103821881D03*
X134043324Y-103821881D03*
X130243324Y-103821881D03*
X126443324Y-103821881D03*
X122643324Y-103821881D03*
X118843324Y-103821881D03*
D14*
X122160000Y-102690000D03*
X126360000Y-99190000D03*
X158490000Y-90490000D03*
X158490000Y-93260000D03*
X130300000Y-99750000D03*
X137740000Y-101090000D03*
X143560000Y-101390000D03*
X159790000Y-100280000D03*
X129000000Y-100960000D03*
X132810000Y-100960000D03*
X125490000Y-100350000D03*
X158090000Y-95960000D03*
X156530000Y-96960000D03*
X154059998Y-100160000D03*
X155820000Y-103840000D03*
D15*
X165020000Y-100280000D02*
X159790000Y-100280000D01*
X166090000Y-94410000D02*
X166090000Y-99210000D01*
X165430000Y-93750000D02*
X166090000Y-94410000D01*
X166090000Y-99210000D02*
X165020000Y-100280000D01*
X164320000Y-93750000D02*
X165430000Y-93750000D01*
X164110000Y-93540000D02*
X164320000Y-93750000D01*
X129000000Y-100960000D02*
X132810000Y-100960000D01*
X124995026Y-100350000D02*
X125490000Y-100350000D01*
X118820000Y-101690000D02*
X120160000Y-100350000D01*
X120160000Y-100350000D02*
X124995026Y-100350000D01*
X118820000Y-103850000D02*
X118820000Y-101690000D01*
X158090000Y-98110000D02*
X158090000Y-95960000D01*
X154850000Y-101350000D02*
X158090000Y-98110000D01*
X151060000Y-101350000D02*
X154850000Y-101350000D01*
X149243324Y-103166676D02*
X151060000Y-101350000D01*
X154059998Y-99990002D02*
X154059998Y-100160000D01*
X156530000Y-97520000D02*
X154059998Y-99990002D01*
X156530000Y-96960000D02*
X156530000Y-97520000D01*
X155820000Y-103840000D02*
X152980000Y-103840000D01*
X128370000Y-98990000D02*
X126460000Y-100900000D01*
X150510000Y-98990000D02*
X128370000Y-98990000D01*
X155730000Y-93770000D02*
X150510000Y-98990000D01*
X155730000Y-90910000D02*
X155730000Y-93770000D01*
X157450000Y-89190000D02*
X155730000Y-90910000D01*
X159915000Y-89190000D02*
X157450000Y-89190000D01*
X126460000Y-100900000D02*
X126460000Y-103870000D01*
X160170000Y-88935000D02*
X159915000Y-89190000D01*
X156900000Y-93810000D02*
X150910000Y-99800000D01*
X156900000Y-92590000D02*
X156900000Y-93810000D01*
X134130000Y-100730000D02*
X134130000Y-103900000D01*
X157610000Y-91880000D02*
X156900000Y-92590000D01*
X150910000Y-99800000D02*
X135060000Y-99800000D01*
X159515000Y-91880000D02*
X157610000Y-91880000D01*
X135060000Y-99800000D02*
X134130000Y-100730000D01*
X159905000Y-91490000D02*
X159515000Y-91880000D01*
X141710000Y-101660000D02*
X141710000Y-103870000D01*
X142800000Y-100570000D02*
X141710000Y-101660000D01*
X160170000Y-93840000D02*
X159370000Y-94640000D01*
X151360000Y-100570000D02*
X142800000Y-100570000D01*
X159370000Y-94640000D02*
X157290000Y-94640000D01*
X157290000Y-94640000D02*
X151360000Y-100570000D01*
G04 #@! TA.AperFunction,Conductor*
G36*
X166991280Y-78528982D02*
G01*
X167018300Y-78575782D01*
X167019500Y-78589500D01*
X167019500Y-108880500D01*
X167001018Y-108931280D01*
X166954218Y-108958300D01*
X166940500Y-108959500D01*
X156509500Y-108959500D01*
X156458720Y-108941018D01*
X156431700Y-108894218D01*
X156430500Y-108880500D01*
X156430500Y-106260000D01*
X159951793Y-106260000D01*
X159970599Y-106546924D01*
X160026695Y-106828938D01*
X160119122Y-107101217D01*
X160246297Y-107359103D01*
X160247731Y-107361250D01*
X160247735Y-107361256D01*
X160358715Y-107527349D01*
X160406045Y-107598184D01*
X160595633Y-107814367D01*
X160811816Y-108003955D01*
X160813964Y-108005390D01*
X161048743Y-108162265D01*
X161048749Y-108162269D01*
X161050896Y-108163703D01*
X161308783Y-108290878D01*
X161311235Y-108291710D01*
X161311239Y-108291712D01*
X161578602Y-108382470D01*
X161581062Y-108383305D01*
X161863076Y-108439401D01*
X162150000Y-108458207D01*
X162436924Y-108439401D01*
X162718938Y-108383305D01*
X162721398Y-108382470D01*
X162988761Y-108291712D01*
X162988765Y-108291710D01*
X162991217Y-108290878D01*
X163249104Y-108163703D01*
X163251251Y-108162269D01*
X163251257Y-108162265D01*
X163486036Y-108005390D01*
X163488184Y-108003955D01*
X163704367Y-107814367D01*
X163893955Y-107598184D01*
X163941285Y-107527349D01*
X164052265Y-107361256D01*
X164052269Y-107361250D01*
X164053703Y-107359103D01*
X164180878Y-107101217D01*
X164273305Y-106828938D01*
X164329401Y-106546924D01*
X164348207Y-106260000D01*
X164329401Y-105973076D01*
X164273305Y-105691062D01*
X164213964Y-105516249D01*
X164181712Y-105421239D01*
X164181710Y-105421235D01*
X164180878Y-105418783D01*
X164053703Y-105160897D01*
X164052269Y-105158750D01*
X164052265Y-105158744D01*
X163895390Y-104923964D01*
X163893955Y-104921816D01*
X163704367Y-104705633D01*
X163488184Y-104516045D01*
X163322589Y-104405398D01*
X163251257Y-104357735D01*
X163251251Y-104357731D01*
X163249104Y-104356297D01*
X162991217Y-104229122D01*
X162988765Y-104228290D01*
X162988761Y-104228288D01*
X162721398Y-104137530D01*
X162721397Y-104137530D01*
X162718938Y-104136695D01*
X162436924Y-104080599D01*
X162150000Y-104061793D01*
X161863076Y-104080599D01*
X161581062Y-104136695D01*
X161578603Y-104137530D01*
X161578602Y-104137530D01*
X161311239Y-104228288D01*
X161311235Y-104228290D01*
X161308783Y-104229122D01*
X161050897Y-104356297D01*
X161048750Y-104357731D01*
X161048744Y-104357735D01*
X160882651Y-104468715D01*
X160811816Y-104516045D01*
X160595633Y-104705633D01*
X160406045Y-104921816D01*
X160404610Y-104923964D01*
X160247735Y-105158744D01*
X160247731Y-105158750D01*
X160246297Y-105160897D01*
X160119122Y-105418783D01*
X160118290Y-105421235D01*
X160118288Y-105421239D01*
X160086036Y-105516249D01*
X160026695Y-105691062D01*
X159970599Y-105973076D01*
X159951793Y-106260000D01*
X156430500Y-106260000D01*
X156430500Y-105405198D01*
X156430904Y-105398785D01*
X156434000Y-105390718D01*
X156431024Y-105364997D01*
X156430500Y-105355917D01*
X156430500Y-105350446D01*
X156429363Y-105345816D01*
X156429293Y-105345238D01*
X156427737Y-105336585D01*
X156426035Y-105321876D01*
X156426035Y-105321875D01*
X156424936Y-105312380D01*
X156419735Y-105304728D01*
X156419359Y-105303504D01*
X156418699Y-105302401D01*
X156416492Y-105293416D01*
X156400385Y-105275146D01*
X156394306Y-105267309D01*
X156385985Y-105255065D01*
X156385983Y-105255063D01*
X156380609Y-105247156D01*
X156372454Y-105242784D01*
X156371554Y-105241874D01*
X156370461Y-105241204D01*
X156364341Y-105234262D01*
X156355415Y-105230836D01*
X156355414Y-105230835D01*
X156341601Y-105225533D01*
X156332580Y-105221402D01*
X156317509Y-105213321D01*
X156317506Y-105213320D01*
X156311109Y-105209890D01*
X156308022Y-105209500D01*
X156305198Y-105209500D01*
X156298785Y-105209096D01*
X156290718Y-105206000D01*
X156265853Y-105208877D01*
X156264997Y-105208976D01*
X156255917Y-105209500D01*
X154282824Y-105209500D01*
X154232044Y-105191018D01*
X154205024Y-105144218D01*
X154203824Y-105130500D01*
X154203824Y-104441646D01*
X154222306Y-104390866D01*
X154231302Y-104381759D01*
X154255048Y-104361330D01*
X154259481Y-104357785D01*
X154355771Y-104286305D01*
X154364194Y-104280846D01*
X154380843Y-104271503D01*
X154463801Y-104224946D01*
X154475202Y-104219692D01*
X154500384Y-104210434D01*
X154592479Y-104176575D01*
X154604584Y-104173190D01*
X154619242Y-104170325D01*
X154755961Y-104143601D01*
X154766658Y-104142260D01*
X154822268Y-104139116D01*
X154968302Y-104130860D01*
X154981125Y-104127740D01*
X154999802Y-104125500D01*
X155104304Y-104125500D01*
X155122162Y-104127545D01*
X155136085Y-104130776D01*
X155145137Y-104131063D01*
X155193824Y-104132607D01*
X155199875Y-104133032D01*
X155233500Y-104136695D01*
X155245262Y-104137976D01*
X155252538Y-104139115D01*
X155285296Y-104145820D01*
X155293149Y-104147853D01*
X155318700Y-104155898D01*
X155326002Y-104158601D01*
X155335910Y-104162834D01*
X155350632Y-104169125D01*
X155356154Y-104171742D01*
X155385377Y-104187004D01*
X155388440Y-104188691D01*
X155425540Y-104210208D01*
X155426155Y-104210568D01*
X155471260Y-104237275D01*
X155471416Y-104237366D01*
X155471495Y-104237413D01*
X155471588Y-104237467D01*
X155471667Y-104237513D01*
X155473207Y-104238404D01*
X155474385Y-104239085D01*
X155525845Y-104268169D01*
X155526013Y-104268261D01*
X155526076Y-104268297D01*
X155528602Y-104269691D01*
X155528742Y-104269768D01*
X155529113Y-104269968D01*
X155529313Y-104270073D01*
X155529350Y-104270093D01*
X155531158Y-104271044D01*
X155532030Y-104271503D01*
X155532107Y-104271543D01*
X155532150Y-104271565D01*
X155560851Y-104286307D01*
X155584389Y-104298397D01*
X155586477Y-104299185D01*
X155586680Y-104299275D01*
X155588637Y-104300176D01*
X155593282Y-104302391D01*
X155597964Y-104305508D01*
X155737541Y-104349116D01*
X155787056Y-104350023D01*
X155878120Y-104351692D01*
X155878121Y-104351692D01*
X155883747Y-104351795D01*
X156024829Y-104313332D01*
X156149445Y-104236818D01*
X156153218Y-104232650D01*
X156153220Y-104232648D01*
X156243799Y-104132577D01*
X156243800Y-104132576D01*
X156247576Y-104128404D01*
X156311335Y-103996805D01*
X156318132Y-103956409D01*
X156335090Y-103855610D01*
X156335090Y-103855607D01*
X156335596Y-103852601D01*
X156335750Y-103840000D01*
X156315020Y-103695246D01*
X156312691Y-103690123D01*
X156256827Y-103567257D01*
X156256826Y-103567255D01*
X156254495Y-103562129D01*
X156250820Y-103557864D01*
X156250818Y-103557861D01*
X156162716Y-103455615D01*
X156159041Y-103451350D01*
X156093052Y-103408578D01*
X156041054Y-103374874D01*
X156041051Y-103374872D01*
X156036332Y-103371814D01*
X155966283Y-103350865D01*
X155901621Y-103331526D01*
X155901619Y-103331526D01*
X155896233Y-103329915D01*
X155823711Y-103329472D01*
X155755630Y-103329056D01*
X155755628Y-103329056D01*
X155750005Y-103329022D01*
X155609404Y-103369206D01*
X155604645Y-103372209D01*
X155604642Y-103372210D01*
X155603268Y-103373077D01*
X155590142Y-103379738D01*
X155588122Y-103380536D01*
X155584390Y-103381602D01*
X155532052Y-103408485D01*
X155529289Y-103409938D01*
X155528878Y-103410159D01*
X155525827Y-103411841D01*
X155474386Y-103440914D01*
X155471494Y-103442587D01*
X155426386Y-103469296D01*
X155425856Y-103469606D01*
X155388418Y-103491320D01*
X155385352Y-103493009D01*
X155356154Y-103508257D01*
X155350624Y-103510877D01*
X155326003Y-103521397D01*
X155318700Y-103524101D01*
X155293149Y-103532146D01*
X155285296Y-103534179D01*
X155252538Y-103540884D01*
X155245262Y-103542023D01*
X155235083Y-103543132D01*
X155199875Y-103546967D01*
X155193825Y-103547392D01*
X155157442Y-103548546D01*
X155136083Y-103549224D01*
X155132449Y-103550037D01*
X155132450Y-103550037D01*
X155121022Y-103552594D01*
X155103772Y-103554500D01*
X154999163Y-103554500D01*
X154979358Y-103551977D01*
X154968399Y-103549139D01*
X154901549Y-103545323D01*
X154770110Y-103537819D01*
X154759260Y-103536441D01*
X154611298Y-103507126D01*
X154598935Y-103503610D01*
X154485142Y-103460977D01*
X154473433Y-103455458D01*
X154377291Y-103400090D01*
X154368586Y-103394276D01*
X154275781Y-103322974D01*
X154271095Y-103319078D01*
X154230008Y-103282140D01*
X154204601Y-103234446D01*
X154203824Y-103223391D01*
X154203824Y-102306075D01*
X154194511Y-102259257D01*
X154159038Y-102206167D01*
X154105948Y-102170694D01*
X154098319Y-102169176D01*
X154098318Y-102169176D01*
X154074383Y-102164415D01*
X154059130Y-102161381D01*
X152027518Y-102161381D01*
X152012265Y-102164415D01*
X151988330Y-102169176D01*
X151988329Y-102169176D01*
X151980700Y-102170694D01*
X151927610Y-102206167D01*
X151892137Y-102259257D01*
X151882824Y-102306075D01*
X151882824Y-105130500D01*
X151864342Y-105181280D01*
X151817542Y-105208300D01*
X151803824Y-105209500D01*
X150482824Y-105209500D01*
X150432044Y-105191018D01*
X150405024Y-105144218D01*
X150403824Y-105130500D01*
X150403824Y-102454966D01*
X150423520Y-102402773D01*
X150457502Y-102364161D01*
X150459858Y-102361484D01*
X150466297Y-102350773D01*
X150478143Y-102335615D01*
X151155119Y-101658639D01*
X151204095Y-101635801D01*
X151210980Y-101635500D01*
X154798526Y-101635500D01*
X154803255Y-101635847D01*
X154807571Y-101637329D01*
X154854799Y-101635556D01*
X154857762Y-101635500D01*
X154876552Y-101635500D01*
X154880129Y-101634834D01*
X154882172Y-101634645D01*
X154886469Y-101634367D01*
X154906563Y-101633613D01*
X154906565Y-101633613D01*
X154913853Y-101633339D01*
X154925442Y-101628360D01*
X154942155Y-101623283D01*
X154947384Y-101622309D01*
X154947388Y-101622308D01*
X154954559Y-101620972D01*
X154977045Y-101607112D01*
X154987310Y-101601780D01*
X154989094Y-101601014D01*
X155011574Y-101591355D01*
X155016215Y-101587543D01*
X155021606Y-101582152D01*
X155036014Y-101570763D01*
X155038886Y-101568993D01*
X155038889Y-101568990D01*
X155045098Y-101565163D01*
X155062500Y-101542278D01*
X155069523Y-101534235D01*
X156330059Y-100273699D01*
X159274288Y-100273699D01*
X159277557Y-100298695D01*
X159287892Y-100377726D01*
X159293249Y-100418695D01*
X159352143Y-100552542D01*
X159355765Y-100556851D01*
X159426834Y-100641398D01*
X159446236Y-100664479D01*
X159567964Y-100745508D01*
X159573338Y-100747187D01*
X159694889Y-100785163D01*
X159707541Y-100789116D01*
X159757056Y-100790023D01*
X159848120Y-100791692D01*
X159848121Y-100791692D01*
X159853747Y-100791795D01*
X159994829Y-100753332D01*
X160004306Y-100747513D01*
X160018431Y-100741300D01*
X160018269Y-100740890D01*
X160021882Y-100739462D01*
X160025612Y-100738397D01*
X160049094Y-100726336D01*
X160077829Y-100711576D01*
X160077900Y-100711539D01*
X160077970Y-100711503D01*
X160080886Y-100709968D01*
X160081257Y-100709768D01*
X160081397Y-100709691D01*
X160083923Y-100708297D01*
X160083986Y-100708261D01*
X160084154Y-100708169D01*
X160133312Y-100680386D01*
X160135471Y-100679166D01*
X160135493Y-100679153D01*
X160135614Y-100679085D01*
X160138505Y-100677412D01*
X160183613Y-100650703D01*
X160184143Y-100650393D01*
X160221581Y-100628679D01*
X160224647Y-100626990D01*
X160253845Y-100611742D01*
X160259375Y-100609122D01*
X160283996Y-100598602D01*
X160291299Y-100595898D01*
X160316850Y-100587853D01*
X160324703Y-100585820D01*
X160357461Y-100579115D01*
X160364737Y-100577976D01*
X160374916Y-100576867D01*
X160410124Y-100573032D01*
X160416175Y-100572607D01*
X160458097Y-100571278D01*
X160473915Y-100570776D01*
X160488976Y-100567406D01*
X160506226Y-100565500D01*
X164968526Y-100565500D01*
X164973255Y-100565847D01*
X164977571Y-100567329D01*
X165024799Y-100565556D01*
X165027762Y-100565500D01*
X165046552Y-100565500D01*
X165050129Y-100564834D01*
X165052172Y-100564645D01*
X165056469Y-100564367D01*
X165076563Y-100563613D01*
X165076565Y-100563613D01*
X165083853Y-100563339D01*
X165095442Y-100558360D01*
X165112155Y-100553283D01*
X165117384Y-100552309D01*
X165117388Y-100552308D01*
X165124559Y-100550972D01*
X165147045Y-100537112D01*
X165157310Y-100531780D01*
X165164693Y-100528608D01*
X165181574Y-100521355D01*
X165186215Y-100517543D01*
X165191606Y-100512152D01*
X165206014Y-100500763D01*
X165208886Y-100498993D01*
X165208889Y-100498990D01*
X165215098Y-100495163D01*
X165232500Y-100472278D01*
X165239523Y-100464235D01*
X166255476Y-99448282D01*
X166259071Y-99445178D01*
X166263171Y-99443174D01*
X166295331Y-99408505D01*
X166297388Y-99406370D01*
X166310654Y-99393104D01*
X166312716Y-99390098D01*
X166314010Y-99388541D01*
X166316852Y-99385305D01*
X166330540Y-99370549D01*
X166335502Y-99365200D01*
X166340174Y-99353490D01*
X166348406Y-99338073D01*
X166351415Y-99333687D01*
X166351417Y-99333683D01*
X166355541Y-99327671D01*
X166358010Y-99317270D01*
X166361640Y-99301972D01*
X166365129Y-99290941D01*
X166372846Y-99271598D01*
X166372846Y-99271597D01*
X166374914Y-99266414D01*
X166375500Y-99260437D01*
X166375500Y-99252813D01*
X166377635Y-99234572D01*
X166378414Y-99231289D01*
X166378414Y-99231288D01*
X166380099Y-99224188D01*
X166376222Y-99195702D01*
X166375500Y-99185048D01*
X166375500Y-94461474D01*
X166375847Y-94456745D01*
X166377329Y-94452429D01*
X166375556Y-94405201D01*
X166375500Y-94402238D01*
X166375500Y-94383448D01*
X166374834Y-94379871D01*
X166374645Y-94377828D01*
X166374367Y-94373531D01*
X166373613Y-94353437D01*
X166373613Y-94353435D01*
X166373339Y-94346147D01*
X166368360Y-94334558D01*
X166363283Y-94317845D01*
X166362309Y-94312616D01*
X166362308Y-94312612D01*
X166360972Y-94305441D01*
X166347112Y-94282955D01*
X166341780Y-94272690D01*
X166333555Y-94253547D01*
X166331355Y-94248426D01*
X166327543Y-94243785D01*
X166322152Y-94238394D01*
X166310763Y-94223986D01*
X166308993Y-94221114D01*
X166308990Y-94221111D01*
X166305163Y-94214902D01*
X166282279Y-94197500D01*
X166274235Y-94190477D01*
X165926404Y-93842646D01*
X165917996Y-93832725D01*
X165909789Y-93821244D01*
X165905705Y-93815530D01*
X165884593Y-93795709D01*
X165801709Y-93717896D01*
X165799920Y-93716162D01*
X165668282Y-93584524D01*
X165665178Y-93580929D01*
X165663174Y-93576829D01*
X165628505Y-93544669D01*
X165626370Y-93542612D01*
X165613104Y-93529346D01*
X165610098Y-93527284D01*
X165608541Y-93525990D01*
X165605305Y-93523148D01*
X165590549Y-93509460D01*
X165585200Y-93504498D01*
X165573487Y-93499825D01*
X165558075Y-93491596D01*
X165547672Y-93484459D01*
X165521973Y-93478361D01*
X165510942Y-93474872D01*
X165486414Y-93465086D01*
X165480437Y-93464500D01*
X165478499Y-93464500D01*
X165477597Y-93464456D01*
X165440429Y-93453064D01*
X165427558Y-93445243D01*
X165427526Y-93445223D01*
X165427431Y-93445166D01*
X165427372Y-93445131D01*
X165427314Y-93445096D01*
X165425886Y-93444248D01*
X165424629Y-93443501D01*
X165424209Y-93443257D01*
X165421067Y-93441477D01*
X165326368Y-93389191D01*
X165326361Y-93389187D01*
X165325540Y-93388734D01*
X165325554Y-93388709D01*
X165324633Y-93388162D01*
X165324602Y-93388219D01*
X165234071Y-93338945D01*
X165231831Y-93337678D01*
X165166975Y-93299589D01*
X165146433Y-93287525D01*
X165142252Y-93284891D01*
X165056610Y-93227071D01*
X165051666Y-93223445D01*
X165007544Y-93188376D01*
X164959271Y-93150007D01*
X164954597Y-93145984D01*
X164854212Y-93052514D01*
X164850229Y-93048805D01*
X164847619Y-93046923D01*
X164843485Y-93043727D01*
X164700778Y-92925669D01*
X164700776Y-92925668D01*
X164697798Y-92923204D01*
X164523479Y-92828950D01*
X164334172Y-92770350D01*
X164137089Y-92749636D01*
X164133243Y-92749986D01*
X164133242Y-92749986D01*
X164085487Y-92754332D01*
X163939735Y-92767596D01*
X163936028Y-92768687D01*
X163753338Y-92822456D01*
X163753335Y-92822457D01*
X163749629Y-92823548D01*
X163574010Y-92915359D01*
X163571003Y-92917777D01*
X163571001Y-92917778D01*
X163561192Y-92925665D01*
X163419570Y-93039532D01*
X163292189Y-93191339D01*
X163290327Y-93194727D01*
X163290325Y-93194729D01*
X163235573Y-93294322D01*
X163196720Y-93364996D01*
X163195551Y-93368680D01*
X163195551Y-93368681D01*
X163192574Y-93378065D01*
X163136800Y-93553889D01*
X163114710Y-93750823D01*
X163121057Y-93826414D01*
X163129353Y-93925200D01*
X163131292Y-93948297D01*
X163185915Y-94138790D01*
X163276498Y-94315045D01*
X163399590Y-94470348D01*
X163550504Y-94598786D01*
X163553878Y-94600672D01*
X163553880Y-94600673D01*
X163581877Y-94616320D01*
X163723490Y-94695465D01*
X163727152Y-94696655D01*
X163727157Y-94696657D01*
X163849241Y-94736324D01*
X163911960Y-94756702D01*
X163915797Y-94757160D01*
X163915799Y-94757160D01*
X164104892Y-94779708D01*
X164104895Y-94779708D01*
X164108735Y-94780166D01*
X164306320Y-94764963D01*
X164497190Y-94711671D01*
X164572687Y-94673535D01*
X164581623Y-94669693D01*
X164603021Y-94662018D01*
X164603024Y-94662017D01*
X164606675Y-94660707D01*
X164649773Y-94634831D01*
X164654812Y-94632050D01*
X164674073Y-94622321D01*
X164677116Y-94619943D01*
X164677120Y-94619941D01*
X164681754Y-94616320D01*
X164689725Y-94610844D01*
X164730955Y-94586089D01*
X164731415Y-94585813D01*
X164739252Y-94580803D01*
X164739701Y-94580498D01*
X164739893Y-94580368D01*
X164739924Y-94580346D01*
X164740332Y-94580069D01*
X164747781Y-94574698D01*
X164774747Y-94554095D01*
X164867925Y-94482904D01*
X164867951Y-94482884D01*
X164868134Y-94482744D01*
X164872100Y-94479617D01*
X164872308Y-94479448D01*
X164872344Y-94479419D01*
X164872421Y-94479356D01*
X164872431Y-94479348D01*
X164872647Y-94479172D01*
X164876709Y-94475758D01*
X164988503Y-94378691D01*
X164990034Y-94377345D01*
X165091395Y-94287124D01*
X165094127Y-94284802D01*
X165179801Y-94215246D01*
X165187594Y-94209668D01*
X165251550Y-94169522D01*
X165267640Y-94161802D01*
X165302907Y-94149562D01*
X165329304Y-94145197D01*
X165336217Y-94145240D01*
X165345843Y-94145301D01*
X165374733Y-94150970D01*
X165408995Y-94164702D01*
X165429127Y-94176482D01*
X165512516Y-94243585D01*
X165519395Y-94247417D01*
X165536812Y-94260570D01*
X165781361Y-94505119D01*
X165804199Y-94554095D01*
X165804500Y-94560980D01*
X165804500Y-99059020D01*
X165786018Y-99109800D01*
X165781361Y-99114881D01*
X164924881Y-99971361D01*
X164875905Y-99994199D01*
X164869020Y-99994500D01*
X160505699Y-99994500D01*
X160487839Y-99992455D01*
X160477696Y-99990101D01*
X160477695Y-99990101D01*
X160473917Y-99989224D01*
X160457782Y-99988712D01*
X160416174Y-99987392D01*
X160410124Y-99986967D01*
X160374916Y-99983132D01*
X160364737Y-99982023D01*
X160357461Y-99980884D01*
X160324703Y-99974179D01*
X160316850Y-99972146D01*
X160291299Y-99964101D01*
X160283996Y-99961398D01*
X160273647Y-99956976D01*
X160259360Y-99950871D01*
X160253849Y-99948259D01*
X160224610Y-99932990D01*
X160221580Y-99931322D01*
X160184244Y-99909667D01*
X160183793Y-99909403D01*
X160138505Y-99882587D01*
X160135614Y-99880914D01*
X160128408Y-99876841D01*
X160084366Y-99851950D01*
X160084154Y-99851830D01*
X160083986Y-99851738D01*
X160083923Y-99851702D01*
X160081397Y-99850308D01*
X160081359Y-99850287D01*
X160081257Y-99850231D01*
X160080886Y-99850031D01*
X160077968Y-99848495D01*
X160025610Y-99821602D01*
X160023517Y-99820812D01*
X160021448Y-99819894D01*
X160021496Y-99819785D01*
X160016216Y-99817117D01*
X160016161Y-99817236D01*
X160011061Y-99814879D01*
X160006332Y-99811814D01*
X159909615Y-99782889D01*
X159871621Y-99771526D01*
X159871619Y-99771526D01*
X159866233Y-99769915D01*
X159793711Y-99769472D01*
X159725630Y-99769056D01*
X159725628Y-99769056D01*
X159720005Y-99769022D01*
X159579404Y-99809206D01*
X159514855Y-99849933D01*
X159462443Y-99883003D01*
X159455732Y-99887237D01*
X159452011Y-99891450D01*
X159452010Y-99891451D01*
X159362658Y-99992622D01*
X159358932Y-99996841D01*
X159296786Y-100129209D01*
X159274288Y-100273699D01*
X156330059Y-100273699D01*
X157394396Y-99209362D01*
X159487909Y-99209362D01*
X159488854Y-99212891D01*
X159488965Y-99213000D01*
X159639863Y-99313827D01*
X159646204Y-99317270D01*
X159825297Y-99394214D01*
X159832161Y-99396444D01*
X160022274Y-99439463D01*
X160029425Y-99440404D01*
X160224191Y-99448057D01*
X160231408Y-99447678D01*
X160424304Y-99419710D01*
X160431321Y-99418025D01*
X160615896Y-99355371D01*
X160622488Y-99352436D01*
X160792552Y-99257195D01*
X160798503Y-99253105D01*
X160843929Y-99215325D01*
X160849651Y-99205514D01*
X160848803Y-99200580D01*
X160179851Y-98531628D01*
X160169557Y-98526828D01*
X160163263Y-98528514D01*
X159492709Y-99199068D01*
X159487909Y-99209362D01*
X157394396Y-99209362D01*
X158255476Y-98348282D01*
X158259071Y-98345178D01*
X158263171Y-98343174D01*
X158284948Y-98319698D01*
X159065903Y-98319698D01*
X159078651Y-98514201D01*
X159079780Y-98521328D01*
X159127759Y-98710243D01*
X159130172Y-98717057D01*
X159211773Y-98894066D01*
X159215380Y-98900313D01*
X159299487Y-99019322D01*
X159308816Y-99025794D01*
X159312795Y-99025428D01*
X159983372Y-98354851D01*
X159987759Y-98345443D01*
X160351828Y-98345443D01*
X160353514Y-98351737D01*
X161021566Y-99019789D01*
X161031860Y-99024589D01*
X161036695Y-99023294D01*
X161078105Y-98973503D01*
X161082195Y-98967552D01*
X161177436Y-98797488D01*
X161180371Y-98790896D01*
X161243025Y-98606321D01*
X161244710Y-98599304D01*
X161272864Y-98405127D01*
X161273260Y-98400486D01*
X161274652Y-98347327D01*
X161274500Y-98342685D01*
X161273410Y-98330823D01*
X163114710Y-98330823D01*
X163131292Y-98528297D01*
X163132356Y-98532006D01*
X163183263Y-98709540D01*
X163185915Y-98718790D01*
X163276498Y-98895045D01*
X163399590Y-99050348D01*
X163550504Y-99178786D01*
X163553878Y-99180672D01*
X163553880Y-99180673D01*
X163592615Y-99202321D01*
X163723490Y-99275465D01*
X163727152Y-99276655D01*
X163727157Y-99276657D01*
X163841557Y-99313827D01*
X163911960Y-99336702D01*
X163915797Y-99337160D01*
X163915799Y-99337160D01*
X164104892Y-99359708D01*
X164104895Y-99359708D01*
X164108735Y-99360166D01*
X164306320Y-99344963D01*
X164497190Y-99291671D01*
X164612240Y-99233555D01*
X164670619Y-99204066D01*
X164670621Y-99204065D01*
X164674073Y-99202321D01*
X164792494Y-99109800D01*
X164827190Y-99082693D01*
X164827192Y-99082691D01*
X164830232Y-99080316D01*
X164877610Y-99025428D01*
X164957196Y-98933228D01*
X164957200Y-98933223D01*
X164959720Y-98930303D01*
X164961626Y-98926947D01*
X164961630Y-98926942D01*
X165038914Y-98790896D01*
X165057604Y-98757996D01*
X165064183Y-98738220D01*
X165118935Y-98573630D01*
X165118936Y-98573625D01*
X165120156Y-98569958D01*
X165144993Y-98373351D01*
X165145389Y-98345000D01*
X165127395Y-98161486D01*
X165126428Y-98151621D01*
X165126428Y-98151620D01*
X165126051Y-98147777D01*
X165068774Y-97958065D01*
X165066963Y-97954660D01*
X165066961Y-97954654D01*
X164977551Y-97786500D01*
X164975739Y-97783092D01*
X164968919Y-97774729D01*
X164880894Y-97666801D01*
X164850490Y-97629522D01*
X164838723Y-97619787D01*
X164700773Y-97505665D01*
X164700772Y-97505664D01*
X164697798Y-97503204D01*
X164679979Y-97493569D01*
X164606168Y-97453660D01*
X164523479Y-97408950D01*
X164334172Y-97350350D01*
X164137089Y-97329636D01*
X164133243Y-97329986D01*
X164133242Y-97329986D01*
X164085487Y-97334332D01*
X163939735Y-97347596D01*
X163936028Y-97348687D01*
X163753338Y-97402456D01*
X163753335Y-97402457D01*
X163749629Y-97403548D01*
X163574010Y-97495359D01*
X163571003Y-97497777D01*
X163571001Y-97497778D01*
X163563208Y-97504044D01*
X163419570Y-97619532D01*
X163336522Y-97718505D01*
X163301349Y-97760423D01*
X163292189Y-97771339D01*
X163290327Y-97774727D01*
X163290325Y-97774729D01*
X163260763Y-97828503D01*
X163196720Y-97944996D01*
X163136800Y-98133889D01*
X163114710Y-98330823D01*
X161273410Y-98330823D01*
X161256545Y-98147288D01*
X161255230Y-98140195D01*
X161233843Y-98064362D01*
X161467909Y-98064362D01*
X161468854Y-98067891D01*
X161468965Y-98068000D01*
X161619863Y-98168827D01*
X161626204Y-98172270D01*
X161805297Y-98249214D01*
X161812161Y-98251444D01*
X162002274Y-98294463D01*
X162009425Y-98295404D01*
X162204191Y-98303057D01*
X162211408Y-98302678D01*
X162404304Y-98274710D01*
X162411321Y-98273025D01*
X162595896Y-98210371D01*
X162602488Y-98207436D01*
X162772552Y-98112195D01*
X162778503Y-98108105D01*
X162823929Y-98070325D01*
X162829651Y-98060514D01*
X162828803Y-98055580D01*
X162159851Y-97386628D01*
X162149557Y-97381828D01*
X162143263Y-97383514D01*
X161472709Y-98054068D01*
X161467909Y-98064362D01*
X161233843Y-98064362D01*
X161210552Y-97981776D01*
X161214557Y-97927885D01*
X161252265Y-97889177D01*
X161279357Y-97881663D01*
X161292795Y-97880428D01*
X161963372Y-97209851D01*
X161967759Y-97200443D01*
X162331828Y-97200443D01*
X162333514Y-97206737D01*
X163001566Y-97874789D01*
X163011860Y-97879589D01*
X163016695Y-97878294D01*
X163058105Y-97828503D01*
X163062195Y-97822552D01*
X163157436Y-97652488D01*
X163160371Y-97645896D01*
X163223025Y-97461321D01*
X163224710Y-97454304D01*
X163252864Y-97260127D01*
X163253260Y-97255486D01*
X163254652Y-97202327D01*
X163254500Y-97197685D01*
X163236545Y-97002288D01*
X163235230Y-96995195D01*
X163182321Y-96807592D01*
X163179736Y-96800858D01*
X163093525Y-96626037D01*
X163089756Y-96619887D01*
X163019915Y-96526358D01*
X163010418Y-96520132D01*
X163006139Y-96520638D01*
X162336628Y-97190149D01*
X162331828Y-97200443D01*
X161967759Y-97200443D01*
X161968172Y-97199557D01*
X161966486Y-97193263D01*
X161298622Y-96525399D01*
X161288328Y-96520599D01*
X161283842Y-96521801D01*
X161225749Y-96595490D01*
X161221826Y-96601531D01*
X161131065Y-96774039D01*
X161128304Y-96780703D01*
X161070502Y-96966857D01*
X161069002Y-96973919D01*
X161046092Y-97167481D01*
X161045903Y-97174698D01*
X161058651Y-97369201D01*
X161059780Y-97376327D01*
X161107956Y-97566020D01*
X161102542Y-97619787D01*
X161063834Y-97657495D01*
X161040673Y-97663918D01*
X161026139Y-97665638D01*
X160356628Y-98335149D01*
X160351828Y-98345443D01*
X159987759Y-98345443D01*
X159988172Y-98344557D01*
X159986486Y-98338263D01*
X159318622Y-97670399D01*
X159308328Y-97665599D01*
X159303842Y-97666801D01*
X159245749Y-97740490D01*
X159241826Y-97746531D01*
X159151065Y-97919039D01*
X159148304Y-97925703D01*
X159090502Y-98111857D01*
X159089002Y-98118919D01*
X159066092Y-98312481D01*
X159065903Y-98319698D01*
X158284948Y-98319698D01*
X158295331Y-98308505D01*
X158297388Y-98306370D01*
X158310654Y-98293104D01*
X158312716Y-98290098D01*
X158314010Y-98288541D01*
X158316852Y-98285305D01*
X158330540Y-98270549D01*
X158335502Y-98265200D01*
X158340175Y-98253487D01*
X158348404Y-98238075D01*
X158355541Y-98227672D01*
X158361639Y-98201973D01*
X158365129Y-98190938D01*
X158374914Y-98166414D01*
X158375500Y-98160437D01*
X158375500Y-98152807D01*
X158377635Y-98134566D01*
X158378413Y-98131287D01*
X158380098Y-98124188D01*
X158376222Y-98095709D01*
X158375500Y-98085055D01*
X158375500Y-97483635D01*
X159489652Y-97483635D01*
X159490705Y-97488928D01*
X160160149Y-98158372D01*
X160170443Y-98163172D01*
X160176737Y-98161486D01*
X160846761Y-97491462D01*
X160851561Y-97481168D01*
X160850056Y-97475551D01*
X160845165Y-97471029D01*
X160839445Y-97466640D01*
X160674590Y-97362625D01*
X160668167Y-97359353D01*
X160487121Y-97287122D01*
X160480200Y-97285072D01*
X160289024Y-97247045D01*
X160281854Y-97246292D01*
X160086952Y-97243739D01*
X160079752Y-97244306D01*
X159887653Y-97277315D01*
X159880675Y-97279185D01*
X159697805Y-97346649D01*
X159691298Y-97349753D01*
X159523782Y-97449414D01*
X159517938Y-97453660D01*
X159495115Y-97473677D01*
X159489652Y-97483635D01*
X158375500Y-97483635D01*
X158375500Y-96675696D01*
X158377545Y-96657836D01*
X158379899Y-96647693D01*
X158380776Y-96643915D01*
X158381913Y-96608068D01*
X158382607Y-96586175D01*
X158383032Y-96580124D01*
X158387976Y-96534740D01*
X158389116Y-96527453D01*
X158395820Y-96494703D01*
X158397853Y-96486850D01*
X158405898Y-96461299D01*
X158408601Y-96453996D01*
X158419128Y-96429360D01*
X158421743Y-96423842D01*
X158437009Y-96394610D01*
X158438683Y-96391570D01*
X158460312Y-96354278D01*
X158460596Y-96353793D01*
X158487412Y-96308505D01*
X158489085Y-96305614D01*
X158518169Y-96254154D01*
X158519768Y-96251257D01*
X158519968Y-96250886D01*
X158521503Y-96247970D01*
X158521539Y-96247900D01*
X158521576Y-96247829D01*
X158547371Y-96197609D01*
X158548397Y-96195612D01*
X158561654Y-96160480D01*
X158562202Y-96158308D01*
X158562250Y-96158155D01*
X158566530Y-96147363D01*
X158581335Y-96116805D01*
X158584375Y-96098739D01*
X158594119Y-96040823D01*
X159154710Y-96040823D01*
X159171292Y-96238297D01*
X159225915Y-96428790D01*
X159316498Y-96605045D01*
X159439590Y-96760348D01*
X159590504Y-96888786D01*
X159763490Y-96985465D01*
X159767152Y-96986655D01*
X159767157Y-96986657D01*
X159889241Y-97026324D01*
X159951960Y-97046702D01*
X159955797Y-97047160D01*
X159955799Y-97047160D01*
X160144892Y-97069708D01*
X160144895Y-97069708D01*
X160148735Y-97070166D01*
X160346320Y-97054963D01*
X160537190Y-97001671D01*
X160643171Y-96948136D01*
X160710619Y-96914066D01*
X160710621Y-96914065D01*
X160714073Y-96912321D01*
X160838927Y-96814774D01*
X160867190Y-96792693D01*
X160867192Y-96792691D01*
X160870232Y-96790316D01*
X160898707Y-96757327D01*
X160997196Y-96643228D01*
X160997200Y-96643223D01*
X160999720Y-96640303D01*
X161001626Y-96636947D01*
X161001630Y-96636942D01*
X161086433Y-96487660D01*
X161097604Y-96467996D01*
X161103916Y-96449022D01*
X161140637Y-96338635D01*
X161469652Y-96338635D01*
X161470705Y-96343928D01*
X162140149Y-97013372D01*
X162150443Y-97018172D01*
X162156737Y-97016486D01*
X162826761Y-96346462D01*
X162831561Y-96336168D01*
X162830056Y-96330551D01*
X162825165Y-96326029D01*
X162819445Y-96321640D01*
X162654590Y-96217625D01*
X162648167Y-96214353D01*
X162467121Y-96142122D01*
X162460200Y-96140072D01*
X162269024Y-96102045D01*
X162261854Y-96101292D01*
X162066952Y-96098739D01*
X162059752Y-96099306D01*
X161867653Y-96132315D01*
X161860675Y-96134185D01*
X161677805Y-96201649D01*
X161671298Y-96204753D01*
X161503782Y-96304414D01*
X161497938Y-96308660D01*
X161475115Y-96328677D01*
X161469652Y-96338635D01*
X161140637Y-96338635D01*
X161158935Y-96283630D01*
X161158936Y-96283625D01*
X161160156Y-96279958D01*
X161184993Y-96083351D01*
X161185389Y-96055000D01*
X161183999Y-96040823D01*
X163114710Y-96040823D01*
X163131292Y-96238297D01*
X163185915Y-96428790D01*
X163276498Y-96605045D01*
X163399590Y-96760348D01*
X163550504Y-96888786D01*
X163723490Y-96985465D01*
X163727152Y-96986655D01*
X163727157Y-96986657D01*
X163849241Y-97026324D01*
X163911960Y-97046702D01*
X163915797Y-97047160D01*
X163915799Y-97047160D01*
X164104892Y-97069708D01*
X164104895Y-97069708D01*
X164108735Y-97070166D01*
X164306320Y-97054963D01*
X164497190Y-97001671D01*
X164603171Y-96948136D01*
X164670619Y-96914066D01*
X164670621Y-96914065D01*
X164674073Y-96912321D01*
X164798927Y-96814774D01*
X164827190Y-96792693D01*
X164827192Y-96792691D01*
X164830232Y-96790316D01*
X164858707Y-96757327D01*
X164957196Y-96643228D01*
X164957200Y-96643223D01*
X164959720Y-96640303D01*
X164961626Y-96636947D01*
X164961630Y-96636942D01*
X165046433Y-96487660D01*
X165057604Y-96467996D01*
X165063916Y-96449022D01*
X165118935Y-96283630D01*
X165118936Y-96283625D01*
X165120156Y-96279958D01*
X165144993Y-96083351D01*
X165145389Y-96055000D01*
X165126051Y-95857777D01*
X165068774Y-95668065D01*
X165066963Y-95664660D01*
X165066961Y-95664654D01*
X164977551Y-95496500D01*
X164975739Y-95493092D01*
X164968919Y-95484729D01*
X164852930Y-95342514D01*
X164850490Y-95339522D01*
X164838415Y-95329532D01*
X164700773Y-95215665D01*
X164700772Y-95215664D01*
X164697798Y-95213204D01*
X164679979Y-95203569D01*
X164553085Y-95134958D01*
X164523479Y-95118950D01*
X164334172Y-95060350D01*
X164137089Y-95039636D01*
X164133243Y-95039986D01*
X164133242Y-95039986D01*
X164085487Y-95044332D01*
X163939735Y-95057596D01*
X163936028Y-95058687D01*
X163753338Y-95112456D01*
X163753335Y-95112457D01*
X163749629Y-95113548D01*
X163574010Y-95205359D01*
X163571003Y-95207777D01*
X163571001Y-95207778D01*
X163561192Y-95215665D01*
X163419570Y-95329532D01*
X163292189Y-95481339D01*
X163290327Y-95484727D01*
X163290325Y-95484729D01*
X163218517Y-95615348D01*
X163196720Y-95654996D01*
X163136800Y-95843889D01*
X163114710Y-96040823D01*
X161183999Y-96040823D01*
X161166051Y-95857777D01*
X161108774Y-95668065D01*
X161106963Y-95664660D01*
X161106961Y-95664654D01*
X161017551Y-95496500D01*
X161015739Y-95493092D01*
X161008919Y-95484729D01*
X160892930Y-95342514D01*
X160890490Y-95339522D01*
X160878415Y-95329532D01*
X160740773Y-95215665D01*
X160740772Y-95215664D01*
X160737798Y-95213204D01*
X160719979Y-95203569D01*
X160593085Y-95134958D01*
X160563479Y-95118950D01*
X160374172Y-95060350D01*
X160177089Y-95039636D01*
X160173243Y-95039986D01*
X160173242Y-95039986D01*
X160125487Y-95044332D01*
X159979735Y-95057596D01*
X159976028Y-95058687D01*
X159793338Y-95112456D01*
X159793335Y-95112457D01*
X159789629Y-95113548D01*
X159614010Y-95205359D01*
X159611003Y-95207777D01*
X159611001Y-95207778D01*
X159601192Y-95215665D01*
X159459570Y-95329532D01*
X159332189Y-95481339D01*
X159330327Y-95484727D01*
X159330325Y-95484729D01*
X159258517Y-95615348D01*
X159236720Y-95654996D01*
X159176800Y-95843889D01*
X159154710Y-96040823D01*
X158594119Y-96040823D01*
X158605090Y-95975610D01*
X158605090Y-95975607D01*
X158605596Y-95972601D01*
X158605750Y-95960000D01*
X158591101Y-95857708D01*
X158585818Y-95820816D01*
X158585817Y-95820814D01*
X158585020Y-95815246D01*
X158524495Y-95682129D01*
X158520820Y-95677864D01*
X158520818Y-95677861D01*
X158432716Y-95575615D01*
X158429041Y-95571350D01*
X158388812Y-95545275D01*
X158311054Y-95494874D01*
X158311051Y-95494872D01*
X158306332Y-95491814D01*
X158236282Y-95470864D01*
X158171621Y-95451526D01*
X158171619Y-95451526D01*
X158166233Y-95449915D01*
X158093711Y-95449472D01*
X158025630Y-95449056D01*
X158025628Y-95449056D01*
X158020005Y-95449022D01*
X157879404Y-95489206D01*
X157755732Y-95567237D01*
X157752011Y-95571450D01*
X157752010Y-95571451D01*
X157669695Y-95664654D01*
X157658932Y-95676841D01*
X157596786Y-95809209D01*
X157574288Y-95953699D01*
X157575018Y-95959280D01*
X157591530Y-96085548D01*
X157593249Y-96098695D01*
X157619412Y-96158155D01*
X157621499Y-96162898D01*
X157625152Y-96173022D01*
X157631602Y-96195610D01*
X157633379Y-96199069D01*
X157655433Y-96242006D01*
X157658495Y-96247968D01*
X157660031Y-96250886D01*
X157660120Y-96251051D01*
X157660129Y-96251068D01*
X157660144Y-96251096D01*
X157660164Y-96251132D01*
X157660231Y-96251257D01*
X157661830Y-96254154D01*
X157690914Y-96305614D01*
X157692587Y-96308505D01*
X157719282Y-96353589D01*
X157719574Y-96354088D01*
X157741320Y-96391581D01*
X157743009Y-96394647D01*
X157758257Y-96423845D01*
X157760877Y-96429375D01*
X157771397Y-96453996D01*
X157774101Y-96461299D01*
X157782146Y-96486850D01*
X157784179Y-96494703D01*
X157790883Y-96527453D01*
X157792023Y-96534740D01*
X157796967Y-96580124D01*
X157797392Y-96586174D01*
X157799224Y-96643917D01*
X157800037Y-96647550D01*
X157802594Y-96658978D01*
X157804500Y-96676228D01*
X157804500Y-97959020D01*
X157786018Y-98009800D01*
X157781361Y-98014881D01*
X154754881Y-101041361D01*
X154705905Y-101064199D01*
X154699020Y-101064500D01*
X151111474Y-101064500D01*
X151106745Y-101064153D01*
X151102429Y-101062671D01*
X151055202Y-101064444D01*
X151052238Y-101064500D01*
X151033448Y-101064500D01*
X151029871Y-101065166D01*
X151027828Y-101065355D01*
X151023531Y-101065633D01*
X151003437Y-101066387D01*
X151003435Y-101066387D01*
X150996147Y-101066661D01*
X150984558Y-101071640D01*
X150967845Y-101076717D01*
X150962616Y-101077691D01*
X150962612Y-101077692D01*
X150955441Y-101079028D01*
X150936354Y-101090793D01*
X150932955Y-101092888D01*
X150922690Y-101098220D01*
X150898426Y-101108645D01*
X150893785Y-101112457D01*
X150888394Y-101117848D01*
X150873986Y-101129237D01*
X150871114Y-101131007D01*
X150871111Y-101131010D01*
X150864902Y-101134837D01*
X150860486Y-101140645D01*
X150847500Y-101157722D01*
X150840477Y-101165765D01*
X150071919Y-101934323D01*
X150057054Y-101945992D01*
X150046006Y-101952699D01*
X149888018Y-102097526D01*
X149867301Y-102116517D01*
X149861426Y-102121401D01*
X149829370Y-102145515D01*
X149781882Y-102161381D01*
X148227518Y-102161381D01*
X148212265Y-102164415D01*
X148188330Y-102169176D01*
X148188329Y-102169176D01*
X148180700Y-102170694D01*
X148127610Y-102206167D01*
X148092137Y-102259257D01*
X148082824Y-102306075D01*
X148082824Y-105130500D01*
X148064342Y-105181280D01*
X148017542Y-105208300D01*
X148003824Y-105209500D01*
X146772324Y-105209500D01*
X146721544Y-105191018D01*
X146694524Y-105144218D01*
X146693324Y-105130500D01*
X146693324Y-103960811D01*
X146689440Y-103950140D01*
X146683796Y-103946881D01*
X144207254Y-103946881D01*
X144196583Y-103950765D01*
X144193324Y-103956409D01*
X144193324Y-105130500D01*
X144174842Y-105181280D01*
X144128042Y-105208300D01*
X144114324Y-105209500D01*
X142882824Y-105209500D01*
X142832044Y-105191018D01*
X142805024Y-105144218D01*
X142803824Y-105130500D01*
X142803824Y-103682951D01*
X144193324Y-103682951D01*
X144197208Y-103693622D01*
X144202852Y-103696881D01*
X145304394Y-103696881D01*
X145315065Y-103692997D01*
X145318324Y-103687353D01*
X145318324Y-103682951D01*
X145568324Y-103682951D01*
X145572208Y-103693622D01*
X145577852Y-103696881D01*
X146679394Y-103696881D01*
X146690065Y-103692997D01*
X146693324Y-103687353D01*
X146693324Y-102301143D01*
X146692566Y-102293446D01*
X146680337Y-102231966D01*
X146674497Y-102217868D01*
X146627885Y-102148108D01*
X146617097Y-102137320D01*
X146547337Y-102090708D01*
X146533239Y-102084868D01*
X146471759Y-102072639D01*
X146464062Y-102071881D01*
X145582254Y-102071881D01*
X145571583Y-102075765D01*
X145568324Y-102081409D01*
X145568324Y-103682951D01*
X145318324Y-103682951D01*
X145318324Y-102085811D01*
X145314440Y-102075140D01*
X145308796Y-102071881D01*
X144422586Y-102071881D01*
X144414889Y-102072639D01*
X144353409Y-102084868D01*
X144339311Y-102090708D01*
X144269551Y-102137320D01*
X144258763Y-102148108D01*
X144212151Y-102217868D01*
X144206311Y-102231966D01*
X144194082Y-102293446D01*
X144193324Y-102301143D01*
X144193324Y-103682951D01*
X142803824Y-103682951D01*
X142803824Y-102306075D01*
X142794511Y-102259257D01*
X142759038Y-102206167D01*
X142705948Y-102170694D01*
X142698319Y-102169176D01*
X142698318Y-102169176D01*
X142674383Y-102164415D01*
X142659130Y-102161381D01*
X142090979Y-102161381D01*
X142040199Y-102142899D01*
X142013179Y-102096099D01*
X142012098Y-102086712D01*
X142012029Y-102085446D01*
X142000858Y-101881986D01*
X141999889Y-101877980D01*
X141997717Y-101869007D01*
X141995500Y-101850424D01*
X141995500Y-101810980D01*
X142013982Y-101760200D01*
X142018639Y-101755119D01*
X142895119Y-100878639D01*
X142944095Y-100855801D01*
X142950980Y-100855500D01*
X151308526Y-100855500D01*
X151313255Y-100855847D01*
X151317571Y-100857329D01*
X151364799Y-100855556D01*
X151367762Y-100855500D01*
X151386552Y-100855500D01*
X151390129Y-100854834D01*
X151392172Y-100854645D01*
X151396469Y-100854367D01*
X151416563Y-100853613D01*
X151416565Y-100853613D01*
X151423853Y-100853339D01*
X151435442Y-100848360D01*
X151452155Y-100843283D01*
X151457384Y-100842309D01*
X151457388Y-100842308D01*
X151464559Y-100840972D01*
X151487045Y-100827112D01*
X151497310Y-100821780D01*
X151511908Y-100815508D01*
X151521574Y-100811355D01*
X151526215Y-100807543D01*
X151531606Y-100802152D01*
X151546014Y-100790763D01*
X151548886Y-100788993D01*
X151548889Y-100788990D01*
X151555098Y-100785163D01*
X151572500Y-100762278D01*
X151579523Y-100754235D01*
X152180059Y-100153699D01*
X153544286Y-100153699D01*
X153545016Y-100159280D01*
X153562050Y-100289540D01*
X153563247Y-100298695D01*
X153622141Y-100432542D01*
X153625763Y-100436851D01*
X153705559Y-100531780D01*
X153716234Y-100544479D01*
X153837962Y-100625508D01*
X153843336Y-100627187D01*
X153971714Y-100667296D01*
X153977539Y-100669116D01*
X154027054Y-100670023D01*
X154118118Y-100671692D01*
X154118119Y-100671692D01*
X154123745Y-100671795D01*
X154264827Y-100633332D01*
X154372770Y-100567055D01*
X154384650Y-100559761D01*
X154389443Y-100556818D01*
X154393216Y-100552650D01*
X154393218Y-100552648D01*
X154483797Y-100452577D01*
X154483798Y-100452576D01*
X154487574Y-100448404D01*
X154551333Y-100316805D01*
X154555319Y-100293116D01*
X154575088Y-100175610D01*
X154575088Y-100175607D01*
X154575594Y-100172601D01*
X154575748Y-100160000D01*
X154575315Y-100156978D01*
X154575117Y-100153935D01*
X154575295Y-100153923D01*
X154574912Y-100143345D01*
X154575159Y-100141887D01*
X154574365Y-100113834D01*
X154573733Y-100091537D01*
X154573733Y-100091529D01*
X154573727Y-100091326D01*
X154573652Y-100089175D01*
X154573292Y-100080460D01*
X154571524Y-100037696D01*
X154571484Y-100036499D01*
X154570426Y-99996065D01*
X154570423Y-99992051D01*
X154571113Y-99964076D01*
X154571609Y-99956976D01*
X154573551Y-99940132D01*
X154575291Y-99930421D01*
X154577734Y-99920427D01*
X154581217Y-99909615D01*
X154581334Y-99909326D01*
X154585147Y-99899882D01*
X154590056Y-99889838D01*
X154590136Y-99889701D01*
X154599037Y-99874349D01*
X154604409Y-99866271D01*
X154623022Y-99841702D01*
X154627972Y-99835791D01*
X154655778Y-99805701D01*
X154655780Y-99805699D01*
X154658281Y-99802992D01*
X154666115Y-99790482D01*
X154677207Y-99776551D01*
X156624717Y-97829041D01*
X156632692Y-97822070D01*
X156648614Y-97809935D01*
X156648617Y-97809932D01*
X156651702Y-97807581D01*
X156691715Y-97762258D01*
X156695077Y-97758681D01*
X156695476Y-97758282D01*
X156699071Y-97755178D01*
X156703171Y-97753174D01*
X156735331Y-97718505D01*
X156737388Y-97716370D01*
X156750654Y-97703104D01*
X156752716Y-97700098D01*
X156754010Y-97698541D01*
X156756852Y-97695305D01*
X156770540Y-97680549D01*
X156775502Y-97675200D01*
X156779317Y-97665638D01*
X156780177Y-97663483D01*
X156788405Y-97648074D01*
X156791412Y-97643690D01*
X156791413Y-97643689D01*
X156795540Y-97637672D01*
X156797475Y-97629522D01*
X156801638Y-97611977D01*
X156805127Y-97600946D01*
X156812846Y-97581598D01*
X156812846Y-97581597D01*
X156814914Y-97576414D01*
X156815500Y-97570437D01*
X156815500Y-97562808D01*
X156817635Y-97544567D01*
X156818413Y-97541288D01*
X156820098Y-97534188D01*
X156818071Y-97519297D01*
X156819802Y-97489116D01*
X156820412Y-97486722D01*
X156820963Y-97484499D01*
X156821764Y-97481168D01*
X156830773Y-97443675D01*
X156831849Y-97439662D01*
X156839982Y-97412286D01*
X156842986Y-97403929D01*
X156850347Y-97386592D01*
X156855823Y-97375998D01*
X156865244Y-97360723D01*
X156865429Y-97360423D01*
X156872853Y-97350291D01*
X156897310Y-97321953D01*
X156913419Y-97298301D01*
X156920136Y-97289767D01*
X156953799Y-97252577D01*
X156953800Y-97252576D01*
X156957576Y-97248404D01*
X157021335Y-97116805D01*
X157025321Y-97093116D01*
X157045090Y-96975610D01*
X157045090Y-96975607D01*
X157045596Y-96972601D01*
X157045750Y-96960000D01*
X157025020Y-96815246D01*
X157013685Y-96790316D01*
X156966827Y-96687257D01*
X156966826Y-96687255D01*
X156964495Y-96682129D01*
X156960820Y-96677864D01*
X156960818Y-96677861D01*
X156872716Y-96575615D01*
X156869041Y-96571350D01*
X156806897Y-96531070D01*
X156751054Y-96494874D01*
X156751051Y-96494872D01*
X156746332Y-96491814D01*
X156654430Y-96464329D01*
X156611621Y-96451526D01*
X156611619Y-96451526D01*
X156606233Y-96449915D01*
X156533711Y-96449472D01*
X156465630Y-96449056D01*
X156465628Y-96449056D01*
X156460005Y-96449022D01*
X156319404Y-96489206D01*
X156195732Y-96567237D01*
X156192011Y-96571450D01*
X156192010Y-96571451D01*
X156128010Y-96643917D01*
X156098932Y-96676841D01*
X156036786Y-96809209D01*
X156014288Y-96953699D01*
X156033249Y-97098695D01*
X156054200Y-97146309D01*
X156064051Y-97168698D01*
X156066689Y-97175539D01*
X156075540Y-97202104D01*
X156077459Y-97205471D01*
X156087602Y-97223270D01*
X156088830Y-97225709D01*
X156089875Y-97227387D01*
X156092143Y-97232542D01*
X156093393Y-97234028D01*
X156093743Y-97235690D01*
X156094451Y-97235287D01*
X156098210Y-97241884D01*
X156098458Y-97242295D01*
X156098471Y-97242317D01*
X156102146Y-97248404D01*
X156102507Y-97249002D01*
X156103141Y-97249995D01*
X156103410Y-97250393D01*
X156103422Y-97250412D01*
X156107522Y-97256489D01*
X156107540Y-97256514D01*
X156107816Y-97256924D01*
X156139006Y-97300730D01*
X156141588Y-97304257D01*
X156141953Y-97304742D01*
X156144528Y-97308075D01*
X156144700Y-97308292D01*
X156144722Y-97308320D01*
X156176743Y-97348687D01*
X156177586Y-97349750D01*
X156177829Y-97350055D01*
X156186334Y-97360725D01*
X156203531Y-97411953D01*
X156180417Y-97465825D01*
X154271476Y-99374766D01*
X154257943Y-99385608D01*
X154245095Y-99393761D01*
X154242288Y-99396439D01*
X154242282Y-99396443D01*
X154192984Y-99443462D01*
X154189842Y-99446302D01*
X154142303Y-99487008D01*
X154138708Y-99489909D01*
X154097436Y-99521255D01*
X154093812Y-99523848D01*
X154055381Y-99549737D01*
X154052467Y-99551607D01*
X154012952Y-99575732D01*
X154011494Y-99576601D01*
X153967876Y-99601915D01*
X153967139Y-99602345D01*
X153920102Y-99629968D01*
X153917784Y-99631355D01*
X153917487Y-99631536D01*
X153915599Y-99632704D01*
X153915531Y-99632747D01*
X153866214Y-99663716D01*
X153866132Y-99663768D01*
X153866067Y-99663809D01*
X153866002Y-99663851D01*
X153865939Y-99663891D01*
X153864163Y-99665037D01*
X153862787Y-99665924D01*
X153862347Y-99666215D01*
X153859313Y-99668270D01*
X153805382Y-99705680D01*
X153801890Y-99708169D01*
X153801426Y-99708509D01*
X153801222Y-99708662D01*
X153799085Y-99710272D01*
X153798000Y-99711089D01*
X153744344Y-99752585D01*
X153742741Y-99754147D01*
X153742733Y-99754154D01*
X153741832Y-99755033D01*
X153734625Y-99760715D01*
X153730492Y-99764232D01*
X153725730Y-99767237D01*
X153628930Y-99876841D01*
X153613580Y-99909536D01*
X153589254Y-99961350D01*
X153566784Y-100009209D01*
X153555038Y-100084645D01*
X153546245Y-100141120D01*
X153544286Y-100153699D01*
X152180059Y-100153699D01*
X157385119Y-94948639D01*
X157434095Y-94925801D01*
X157440980Y-94925500D01*
X158833560Y-94925500D01*
X158847188Y-94926684D01*
X158863329Y-94929511D01*
X158863331Y-94929511D01*
X158867150Y-94930180D01*
X158871026Y-94930091D01*
X158871030Y-94930091D01*
X159036904Y-94926271D01*
X159036958Y-94926269D01*
X159037235Y-94926263D01*
X159037560Y-94926251D01*
X159037571Y-94926251D01*
X159038385Y-94926222D01*
X159041523Y-94926109D01*
X159042115Y-94926080D01*
X159046285Y-94925823D01*
X159046581Y-94925801D01*
X159047712Y-94925717D01*
X159053568Y-94925500D01*
X159318526Y-94925500D01*
X159323255Y-94925847D01*
X159327571Y-94927329D01*
X159374799Y-94925556D01*
X159377762Y-94925500D01*
X159396552Y-94925500D01*
X159400129Y-94924834D01*
X159402172Y-94924645D01*
X159406469Y-94924367D01*
X159426563Y-94923613D01*
X159426565Y-94923613D01*
X159433853Y-94923339D01*
X159445442Y-94918360D01*
X159462155Y-94913283D01*
X159467384Y-94912309D01*
X159467388Y-94912308D01*
X159474559Y-94910972D01*
X159497045Y-94897112D01*
X159499527Y-94895823D01*
X161134710Y-94895823D01*
X161151292Y-95093297D01*
X161205915Y-95283790D01*
X161296498Y-95460045D01*
X161419590Y-95615348D01*
X161570504Y-95743786D01*
X161743490Y-95840465D01*
X161747152Y-95841655D01*
X161747157Y-95841657D01*
X161869241Y-95881324D01*
X161931960Y-95901702D01*
X161935797Y-95902160D01*
X161935799Y-95902160D01*
X162124892Y-95924708D01*
X162124895Y-95924708D01*
X162128735Y-95925166D01*
X162326320Y-95909963D01*
X162517190Y-95856671D01*
X162621235Y-95804114D01*
X162690619Y-95769066D01*
X162690621Y-95769065D01*
X162694073Y-95767321D01*
X162803361Y-95681936D01*
X162847190Y-95647693D01*
X162847192Y-95647691D01*
X162850232Y-95645316D01*
X162878707Y-95612327D01*
X162977196Y-95498228D01*
X162977200Y-95498223D01*
X162979720Y-95495303D01*
X162981626Y-95491947D01*
X162981630Y-95491942D01*
X163075695Y-95326356D01*
X163077604Y-95322996D01*
X163078824Y-95319329D01*
X163138935Y-95138630D01*
X163138936Y-95138625D01*
X163140156Y-95134958D01*
X163142323Y-95117809D01*
X163152147Y-95040040D01*
X163164993Y-94938351D01*
X163165389Y-94910000D01*
X163146051Y-94712777D01*
X163088774Y-94523065D01*
X163086963Y-94519660D01*
X163086961Y-94519654D01*
X163000295Y-94356661D01*
X162995739Y-94348092D01*
X162988919Y-94339729D01*
X162887392Y-94215246D01*
X162870490Y-94194522D01*
X162865601Y-94190477D01*
X162720773Y-94070665D01*
X162720772Y-94070664D01*
X162717798Y-94068204D01*
X162699979Y-94058569D01*
X162607387Y-94008505D01*
X162543479Y-93973950D01*
X162354172Y-93915350D01*
X162157089Y-93894636D01*
X162153243Y-93894986D01*
X162153242Y-93894986D01*
X162138419Y-93896335D01*
X161959735Y-93912596D01*
X161956028Y-93913687D01*
X161773338Y-93967456D01*
X161773335Y-93967457D01*
X161769629Y-93968548D01*
X161594010Y-94060359D01*
X161591003Y-94062777D01*
X161591001Y-94062778D01*
X161581192Y-94070665D01*
X161439570Y-94184532D01*
X161312189Y-94336339D01*
X161310327Y-94339727D01*
X161310325Y-94339729D01*
X161233530Y-94479419D01*
X161216720Y-94509996D01*
X161156800Y-94698889D01*
X161140541Y-94843842D01*
X161135164Y-94891780D01*
X161134710Y-94895823D01*
X159499527Y-94895823D01*
X159507310Y-94891780D01*
X159509094Y-94891014D01*
X159531574Y-94881355D01*
X159536215Y-94877543D01*
X159541606Y-94872152D01*
X159555978Y-94860785D01*
X159556725Y-94860324D01*
X159581725Y-94850292D01*
X159675616Y-94830258D01*
X159677403Y-94829900D01*
X159749353Y-94816355D01*
X159777305Y-94811093D01*
X159780909Y-94810500D01*
X159887823Y-94795452D01*
X159892284Y-94794953D01*
X159953858Y-94789830D01*
X160015441Y-94784706D01*
X160019914Y-94784463D01*
X160165338Y-94780677D01*
X160184276Y-94777684D01*
X160190548Y-94776949D01*
X160346320Y-94764963D01*
X160537190Y-94711671D01*
X160642035Y-94658710D01*
X160710619Y-94624066D01*
X160710624Y-94624063D01*
X160714073Y-94622321D01*
X160853126Y-94513681D01*
X160867190Y-94502693D01*
X160867192Y-94502691D01*
X160870232Y-94500316D01*
X160906969Y-94457756D01*
X160997196Y-94353228D01*
X160997200Y-94353223D01*
X160999720Y-94350303D01*
X161001626Y-94346947D01*
X161001630Y-94346942D01*
X161095695Y-94181356D01*
X161097604Y-94177996D01*
X161104034Y-94158666D01*
X161158935Y-93993630D01*
X161158936Y-93993625D01*
X161160156Y-93989958D01*
X161162323Y-93972809D01*
X161172147Y-93895040D01*
X161184993Y-93793351D01*
X161185389Y-93765000D01*
X161166939Y-93576829D01*
X161166428Y-93571621D01*
X161166428Y-93571620D01*
X161166051Y-93567777D01*
X161142612Y-93490141D01*
X161140867Y-93484362D01*
X161467909Y-93484362D01*
X161468854Y-93487891D01*
X161468965Y-93488000D01*
X161619863Y-93588827D01*
X161626204Y-93592270D01*
X161805297Y-93669214D01*
X161812161Y-93671444D01*
X162002274Y-93714463D01*
X162009425Y-93715404D01*
X162204191Y-93723057D01*
X162211408Y-93722678D01*
X162404304Y-93694710D01*
X162411321Y-93693025D01*
X162595896Y-93630371D01*
X162602488Y-93627436D01*
X162772552Y-93532195D01*
X162778503Y-93528105D01*
X162823929Y-93490325D01*
X162829651Y-93480514D01*
X162828803Y-93475580D01*
X162159851Y-92806628D01*
X162149557Y-92801828D01*
X162143263Y-92803514D01*
X161472709Y-93474068D01*
X161467909Y-93484362D01*
X161140867Y-93484362D01*
X161117068Y-93405536D01*
X161108774Y-93378065D01*
X161106963Y-93374660D01*
X161106961Y-93374654D01*
X161017551Y-93206500D01*
X161015739Y-93203092D01*
X161008919Y-93194729D01*
X160892930Y-93052514D01*
X160890490Y-93049522D01*
X160887361Y-93046933D01*
X160740773Y-92925665D01*
X160740772Y-92925664D01*
X160737798Y-92923204D01*
X160719979Y-92913569D01*
X160647359Y-92874304D01*
X160563479Y-92828950D01*
X160374172Y-92770350D01*
X160177089Y-92749636D01*
X160173243Y-92749986D01*
X160173242Y-92749986D01*
X160125487Y-92754332D01*
X159979735Y-92767596D01*
X159976028Y-92768687D01*
X159793338Y-92822456D01*
X159793335Y-92822457D01*
X159789629Y-92823548D01*
X159614010Y-92915359D01*
X159611003Y-92917777D01*
X159611001Y-92917778D01*
X159601192Y-92925665D01*
X159459570Y-93039532D01*
X159332189Y-93191339D01*
X159330327Y-93194727D01*
X159330325Y-93194729D01*
X159275573Y-93294322D01*
X159236720Y-93364996D01*
X159235551Y-93368681D01*
X159200356Y-93479629D01*
X159197447Y-93487369D01*
X159187795Y-93509459D01*
X159186965Y-93513250D01*
X159181661Y-93537468D01*
X159179793Y-93544450D01*
X159177968Y-93550203D01*
X159177966Y-93550214D01*
X159176800Y-93553889D01*
X159175927Y-93561670D01*
X159174593Y-93569743D01*
X159158893Y-93641439D01*
X159157550Y-93648253D01*
X159157379Y-93649228D01*
X159156309Y-93656201D01*
X159154301Y-93671444D01*
X159137951Y-93795548D01*
X159137926Y-93795734D01*
X159137503Y-93799234D01*
X159137453Y-93799688D01*
X159137132Y-93802887D01*
X159137100Y-93803239D01*
X159137099Y-93803251D01*
X159125577Y-93930549D01*
X159124863Y-93938439D01*
X159114769Y-94043174D01*
X159113209Y-94059357D01*
X159112598Y-94064148D01*
X159105702Y-94107614D01*
X159097601Y-94158666D01*
X159095232Y-94169032D01*
X159076841Y-94230201D01*
X159069604Y-94246952D01*
X159054746Y-94272690D01*
X159053763Y-94274392D01*
X159037535Y-94294201D01*
X159024459Y-94305706D01*
X159001348Y-94319852D01*
X158965860Y-94333898D01*
X158944858Y-94339029D01*
X158917665Y-94341821D01*
X158848324Y-94348942D01*
X158848320Y-94348943D01*
X158844968Y-94349287D01*
X158836810Y-94351572D01*
X158815502Y-94354500D01*
X157341473Y-94354500D01*
X157336744Y-94354153D01*
X157332428Y-94352671D01*
X157285201Y-94354444D01*
X157282237Y-94354500D01*
X157263448Y-94354500D01*
X157259871Y-94355166D01*
X157257828Y-94355355D01*
X157253531Y-94355633D01*
X157233437Y-94356387D01*
X157233435Y-94356387D01*
X157226147Y-94356661D01*
X157214558Y-94361640D01*
X157197845Y-94366717D01*
X157192616Y-94367691D01*
X157192612Y-94367692D01*
X157185441Y-94369028D01*
X157170345Y-94378333D01*
X157162955Y-94382888D01*
X157152690Y-94388220D01*
X157128426Y-94398645D01*
X157123785Y-94402457D01*
X157118394Y-94407848D01*
X157103986Y-94419237D01*
X157101114Y-94421007D01*
X157101111Y-94421010D01*
X157094902Y-94424837D01*
X157090486Y-94430645D01*
X157077500Y-94447722D01*
X157070477Y-94455765D01*
X151264881Y-100261361D01*
X151215905Y-100284199D01*
X151209020Y-100284500D01*
X142851474Y-100284500D01*
X142846745Y-100284153D01*
X142842429Y-100282671D01*
X142795202Y-100284444D01*
X142792238Y-100284500D01*
X142773448Y-100284500D01*
X142769871Y-100285166D01*
X142767828Y-100285355D01*
X142763531Y-100285633D01*
X142743437Y-100286387D01*
X142743435Y-100286387D01*
X142736147Y-100286661D01*
X142724558Y-100291640D01*
X142707845Y-100296717D01*
X142702616Y-100297691D01*
X142702612Y-100297692D01*
X142695441Y-100299028D01*
X142687628Y-100303844D01*
X142672955Y-100312888D01*
X142662690Y-100318220D01*
X142638426Y-100328645D01*
X142633786Y-100332457D01*
X142628397Y-100337846D01*
X142613990Y-100349235D01*
X142604902Y-100354837D01*
X142596710Y-100365610D01*
X142587497Y-100377726D01*
X142580474Y-100385769D01*
X141544524Y-101421718D01*
X141540929Y-101424822D01*
X141536829Y-101426826D01*
X141531869Y-101432173D01*
X141504669Y-101461495D01*
X141502612Y-101463630D01*
X141489346Y-101476896D01*
X141487284Y-101479902D01*
X141485990Y-101481459D01*
X141483149Y-101484694D01*
X141464498Y-101504800D01*
X141461795Y-101511576D01*
X141459825Y-101516513D01*
X141451596Y-101531925D01*
X141444459Y-101542328D01*
X141442775Y-101549426D01*
X141438361Y-101568027D01*
X141434872Y-101579058D01*
X141425086Y-101603586D01*
X141424500Y-101609563D01*
X141424500Y-101617193D01*
X141422365Y-101635432D01*
X141419902Y-101645812D01*
X141420886Y-101653042D01*
X141420886Y-101653043D01*
X141423778Y-101674291D01*
X141424500Y-101684945D01*
X141424500Y-101850849D01*
X141421979Y-101870645D01*
X141419139Y-101881617D01*
X141418919Y-101885486D01*
X141418918Y-101885489D01*
X141407954Y-102077864D01*
X141406568Y-102088760D01*
X141404778Y-102097772D01*
X141376757Y-102143978D01*
X141327292Y-102161381D01*
X140627518Y-102161381D01*
X140612265Y-102164415D01*
X140588330Y-102169176D01*
X140588329Y-102169176D01*
X140580700Y-102170694D01*
X140527610Y-102206167D01*
X140492137Y-102259257D01*
X140482824Y-102306075D01*
X140482824Y-105130500D01*
X140464342Y-105181280D01*
X140417542Y-105208300D01*
X140403824Y-105209500D01*
X139172324Y-105209500D01*
X139121544Y-105191018D01*
X139094524Y-105144218D01*
X139093324Y-105130500D01*
X139093324Y-103960811D01*
X139089440Y-103950140D01*
X139083796Y-103946881D01*
X136607254Y-103946881D01*
X136596583Y-103950765D01*
X136593324Y-103956409D01*
X136593324Y-105130500D01*
X136574842Y-105181280D01*
X136528042Y-105208300D01*
X136514324Y-105209500D01*
X135282824Y-105209500D01*
X135232044Y-105191018D01*
X135205024Y-105144218D01*
X135203824Y-105130500D01*
X135203824Y-103682951D01*
X136593324Y-103682951D01*
X136597208Y-103693622D01*
X136602852Y-103696881D01*
X137704394Y-103696881D01*
X137715065Y-103692997D01*
X137718324Y-103687353D01*
X137718324Y-103682951D01*
X137968324Y-103682951D01*
X137972208Y-103693622D01*
X137977852Y-103696881D01*
X139079394Y-103696881D01*
X139090065Y-103692997D01*
X139093324Y-103687353D01*
X139093324Y-102301143D01*
X139092566Y-102293446D01*
X139080337Y-102231966D01*
X139074497Y-102217868D01*
X139027885Y-102148108D01*
X139017097Y-102137320D01*
X138947337Y-102090708D01*
X138933239Y-102084868D01*
X138871759Y-102072639D01*
X138864062Y-102071881D01*
X137982254Y-102071881D01*
X137971583Y-102075765D01*
X137968324Y-102081409D01*
X137968324Y-103682951D01*
X137718324Y-103682951D01*
X137718324Y-102085811D01*
X137714440Y-102075140D01*
X137708796Y-102071881D01*
X136822586Y-102071881D01*
X136814889Y-102072639D01*
X136753409Y-102084868D01*
X136739311Y-102090708D01*
X136669551Y-102137320D01*
X136658763Y-102148108D01*
X136612151Y-102217868D01*
X136606311Y-102231966D01*
X136594082Y-102293446D01*
X136593324Y-102301143D01*
X136593324Y-103682951D01*
X135203824Y-103682951D01*
X135203824Y-102306075D01*
X135194511Y-102259257D01*
X135159038Y-102206167D01*
X135105948Y-102170694D01*
X135098319Y-102169176D01*
X135098318Y-102169176D01*
X135074383Y-102164415D01*
X135059130Y-102161381D01*
X134509563Y-102161381D01*
X134458783Y-102142899D01*
X134431763Y-102096099D01*
X134430687Y-102086809D01*
X134430611Y-102085446D01*
X134420860Y-101911767D01*
X134417735Y-101898910D01*
X134415500Y-101880252D01*
X134415500Y-100880980D01*
X134433982Y-100830200D01*
X134438639Y-100825119D01*
X135155119Y-100108639D01*
X135204095Y-100085801D01*
X135210980Y-100085500D01*
X150858526Y-100085500D01*
X150863255Y-100085847D01*
X150867571Y-100087329D01*
X150914799Y-100085556D01*
X150917762Y-100085500D01*
X150936552Y-100085500D01*
X150940129Y-100084834D01*
X150942172Y-100084645D01*
X150946469Y-100084367D01*
X150966563Y-100083613D01*
X150966565Y-100083613D01*
X150973853Y-100083339D01*
X150985442Y-100078360D01*
X151002155Y-100073283D01*
X151007384Y-100072309D01*
X151007388Y-100072308D01*
X151014559Y-100070972D01*
X151037045Y-100057112D01*
X151047310Y-100051780D01*
X151065031Y-100044166D01*
X151071574Y-100041355D01*
X151076215Y-100037543D01*
X151081606Y-100032152D01*
X151096014Y-100020763D01*
X151098886Y-100018993D01*
X151098889Y-100018990D01*
X151105098Y-100015163D01*
X151122500Y-99992278D01*
X151129523Y-99984235D01*
X157065476Y-94048282D01*
X157069071Y-94045178D01*
X157073171Y-94043174D01*
X157105331Y-94008505D01*
X157107388Y-94006370D01*
X157120654Y-93993104D01*
X157122716Y-93990098D01*
X157124010Y-93988541D01*
X157126852Y-93985305D01*
X157140540Y-93970549D01*
X157145502Y-93965200D01*
X157148206Y-93958423D01*
X157150177Y-93953483D01*
X157158405Y-93938074D01*
X157161412Y-93933690D01*
X157161413Y-93933689D01*
X157165540Y-93927672D01*
X157168465Y-93915350D01*
X157171638Y-93901977D01*
X157175127Y-93890946D01*
X157182846Y-93871598D01*
X157182846Y-93871597D01*
X157184914Y-93866414D01*
X157185500Y-93860437D01*
X157185500Y-93852808D01*
X157187635Y-93834567D01*
X157188413Y-93831288D01*
X157190098Y-93824188D01*
X157187249Y-93803251D01*
X157186222Y-93795709D01*
X157185500Y-93785055D01*
X157185500Y-92740980D01*
X157203982Y-92690200D01*
X157208639Y-92685119D01*
X157299060Y-92594698D01*
X161045903Y-92594698D01*
X161058651Y-92789201D01*
X161059780Y-92796328D01*
X161107759Y-92985243D01*
X161110172Y-92992057D01*
X161191773Y-93169066D01*
X161195380Y-93175313D01*
X161279487Y-93294322D01*
X161288816Y-93300794D01*
X161292795Y-93300428D01*
X161963372Y-92629851D01*
X161967759Y-92620443D01*
X162331828Y-92620443D01*
X162333514Y-92626737D01*
X163001566Y-93294789D01*
X163011860Y-93299589D01*
X163016695Y-93298294D01*
X163058105Y-93248503D01*
X163062195Y-93242552D01*
X163157436Y-93072488D01*
X163160371Y-93065896D01*
X163223025Y-92881321D01*
X163224710Y-92874304D01*
X163252864Y-92680127D01*
X163253260Y-92675486D01*
X163254652Y-92622327D01*
X163254500Y-92617685D01*
X163236545Y-92422288D01*
X163235230Y-92415195D01*
X163182321Y-92227592D01*
X163179736Y-92220858D01*
X163093525Y-92046037D01*
X163089756Y-92039887D01*
X163019915Y-91946358D01*
X163010418Y-91940132D01*
X163006139Y-91940638D01*
X162336628Y-92610149D01*
X162331828Y-92620443D01*
X161967759Y-92620443D01*
X161968172Y-92619557D01*
X161966486Y-92613263D01*
X161298622Y-91945399D01*
X161288328Y-91940599D01*
X161283842Y-91941801D01*
X161225749Y-92015490D01*
X161221826Y-92021531D01*
X161131065Y-92194039D01*
X161128304Y-92200703D01*
X161070502Y-92386857D01*
X161069002Y-92393919D01*
X161046092Y-92587481D01*
X161045903Y-92594698D01*
X157299060Y-92594698D01*
X157705119Y-92188639D01*
X157754095Y-92165801D01*
X157760980Y-92165500D01*
X158538170Y-92165500D01*
X158556666Y-92167696D01*
X158569626Y-92170817D01*
X158771799Y-92178894D01*
X158778791Y-92179485D01*
X158937376Y-92200053D01*
X158944299Y-92200951D01*
X158951485Y-92202223D01*
X159089990Y-92233398D01*
X159096186Y-92235060D01*
X159220061Y-92273734D01*
X159223922Y-92275049D01*
X159345290Y-92319937D01*
X159345842Y-92320144D01*
X159449275Y-92359278D01*
X159469867Y-92367069D01*
X159469990Y-92367114D01*
X159470030Y-92367129D01*
X159471194Y-92367555D01*
X159473129Y-92368264D01*
X159473349Y-92368342D01*
X159473402Y-92368361D01*
X159473431Y-92368371D01*
X159473569Y-92368420D01*
X159476612Y-92369466D01*
X159606733Y-92412771D01*
X159609626Y-92413670D01*
X159612729Y-92414634D01*
X159612771Y-92414647D01*
X159613091Y-92414746D01*
X159613391Y-92414833D01*
X159613439Y-92414847D01*
X159613596Y-92414892D01*
X159613616Y-92414898D01*
X159613957Y-92414996D01*
X159614312Y-92415091D01*
X159614344Y-92415100D01*
X159619720Y-92416540D01*
X159619733Y-92416543D01*
X159620105Y-92416643D01*
X159620477Y-92416735D01*
X159763514Y-92452131D01*
X159763526Y-92452134D01*
X159763943Y-92452237D01*
X159771829Y-92453986D01*
X159772945Y-92454205D01*
X159773413Y-92454285D01*
X159773441Y-92454290D01*
X159778716Y-92455190D01*
X159781016Y-92455582D01*
X159836886Y-92463700D01*
X159946747Y-92479664D01*
X159946775Y-92479668D01*
X159947245Y-92479736D01*
X159947731Y-92479794D01*
X159947758Y-92479798D01*
X159951068Y-92480196D01*
X159955339Y-92480709D01*
X159955878Y-92480760D01*
X159956016Y-92480774D01*
X159956051Y-92480777D01*
X159956493Y-92480819D01*
X159961039Y-92481138D01*
X159964200Y-92481360D01*
X159964210Y-92481361D01*
X159964729Y-92481397D01*
X159965228Y-92481420D01*
X159965236Y-92481420D01*
X160001973Y-92483079D01*
X160139672Y-92489299D01*
X160144561Y-92489701D01*
X160144894Y-92489708D01*
X160148735Y-92490166D01*
X160152484Y-92489878D01*
X160153890Y-92489941D01*
X160175764Y-92488255D01*
X160191677Y-92487028D01*
X160191682Y-92487027D01*
X160194085Y-92486842D01*
X160194969Y-92486664D01*
X160196756Y-92486472D01*
X160346320Y-92474963D01*
X160355758Y-92472328D01*
X160420362Y-92454290D01*
X160537190Y-92421671D01*
X160660707Y-92359278D01*
X160710619Y-92334066D01*
X160710621Y-92334065D01*
X160714073Y-92332321D01*
X160839789Y-92234101D01*
X160867190Y-92212693D01*
X160867192Y-92212691D01*
X160870232Y-92210316D01*
X160908916Y-92165500D01*
X160997196Y-92063228D01*
X160997200Y-92063223D01*
X160999720Y-92060303D01*
X161001626Y-92056947D01*
X161001630Y-92056942D01*
X161095695Y-91891356D01*
X161097604Y-91887996D01*
X161098824Y-91884329D01*
X161158935Y-91703630D01*
X161158936Y-91703625D01*
X161160156Y-91699958D01*
X161184993Y-91503351D01*
X161185389Y-91475000D01*
X161166051Y-91277777D01*
X161140867Y-91194362D01*
X161467909Y-91194362D01*
X161468854Y-91197891D01*
X161468965Y-91198000D01*
X161619863Y-91298827D01*
X161626204Y-91302270D01*
X161805297Y-91379214D01*
X161812161Y-91381444D01*
X161877952Y-91396331D01*
X161923401Y-91425565D01*
X161939426Y-91477173D01*
X161918529Y-91527008D01*
X161873897Y-91551242D01*
X161867651Y-91552315D01*
X161860675Y-91554185D01*
X161677805Y-91621649D01*
X161671298Y-91624753D01*
X161503782Y-91724414D01*
X161497938Y-91728660D01*
X161475115Y-91748677D01*
X161469652Y-91758635D01*
X161470705Y-91763928D01*
X162140149Y-92433372D01*
X162150443Y-92438172D01*
X162156737Y-92436486D01*
X162826761Y-91766462D01*
X162831561Y-91756168D01*
X162830056Y-91750551D01*
X162825165Y-91746029D01*
X162819445Y-91741640D01*
X162654590Y-91637625D01*
X162648167Y-91634353D01*
X162467121Y-91562122D01*
X162460199Y-91560071D01*
X162426838Y-91553436D01*
X162380639Y-91525403D01*
X162363268Y-91474232D01*
X162368482Y-91460823D01*
X163114710Y-91460823D01*
X163115033Y-91464669D01*
X163130077Y-91643822D01*
X163131292Y-91658297D01*
X163185915Y-91848790D01*
X163276498Y-92025045D01*
X163399590Y-92180348D01*
X163550504Y-92308786D01*
X163553878Y-92310672D01*
X163553880Y-92310673D01*
X163588354Y-92329940D01*
X163723490Y-92405465D01*
X163727152Y-92406655D01*
X163727157Y-92406657D01*
X163834629Y-92441576D01*
X163911960Y-92466702D01*
X163915797Y-92467160D01*
X163915799Y-92467160D01*
X164104892Y-92489708D01*
X164104895Y-92489708D01*
X164108735Y-92490166D01*
X164306320Y-92474963D01*
X164315758Y-92472328D01*
X164380362Y-92454290D01*
X164497190Y-92421671D01*
X164620707Y-92359278D01*
X164670619Y-92334066D01*
X164670621Y-92334065D01*
X164674073Y-92332321D01*
X164799789Y-92234101D01*
X164827190Y-92212693D01*
X164827192Y-92212691D01*
X164830232Y-92210316D01*
X164868916Y-92165500D01*
X164957196Y-92063228D01*
X164957200Y-92063223D01*
X164959720Y-92060303D01*
X164961626Y-92056947D01*
X164961630Y-92056942D01*
X165055695Y-91891356D01*
X165057604Y-91887996D01*
X165058824Y-91884329D01*
X165118935Y-91703630D01*
X165118936Y-91703625D01*
X165120156Y-91699958D01*
X165144993Y-91503351D01*
X165145389Y-91475000D01*
X165126051Y-91277777D01*
X165068774Y-91088065D01*
X165066963Y-91084660D01*
X165066961Y-91084654D01*
X164977551Y-90916500D01*
X164975739Y-90913092D01*
X164968919Y-90904729D01*
X164869221Y-90782488D01*
X164850490Y-90759522D01*
X164844783Y-90754800D01*
X164700773Y-90635665D01*
X164700772Y-90635664D01*
X164697798Y-90633204D01*
X164679979Y-90623569D01*
X164607359Y-90584304D01*
X164523479Y-90538950D01*
X164334172Y-90480350D01*
X164137089Y-90459636D01*
X164133243Y-90459986D01*
X164133242Y-90459986D01*
X164085487Y-90464332D01*
X163939735Y-90477596D01*
X163936028Y-90478687D01*
X163753338Y-90532456D01*
X163753335Y-90532457D01*
X163749629Y-90533548D01*
X163574010Y-90625359D01*
X163571003Y-90627777D01*
X163571001Y-90627778D01*
X163561192Y-90635665D01*
X163419570Y-90749532D01*
X163327920Y-90858756D01*
X163296827Y-90895812D01*
X163292189Y-90901339D01*
X163290327Y-90904727D01*
X163290325Y-90904729D01*
X163204425Y-91060980D01*
X163196720Y-91074996D01*
X163136800Y-91263889D01*
X163114710Y-91460823D01*
X162368482Y-91460823D01*
X162382853Y-91423866D01*
X162416855Y-91401147D01*
X162595896Y-91340371D01*
X162602488Y-91337436D01*
X162772552Y-91242195D01*
X162778503Y-91238105D01*
X162823929Y-91200325D01*
X162829651Y-91190514D01*
X162828803Y-91185580D01*
X162159851Y-90516628D01*
X162149557Y-90511828D01*
X162143263Y-90513514D01*
X161472709Y-91184068D01*
X161467909Y-91194362D01*
X161140867Y-91194362D01*
X161108774Y-91088065D01*
X161106963Y-91084660D01*
X161106961Y-91084654D01*
X161017551Y-90916500D01*
X161015739Y-90913092D01*
X161008919Y-90904729D01*
X160909221Y-90782488D01*
X160890490Y-90759522D01*
X160884783Y-90754800D01*
X160740773Y-90635665D01*
X160740772Y-90635664D01*
X160737798Y-90633204D01*
X160719979Y-90623569D01*
X160647359Y-90584304D01*
X160563479Y-90538950D01*
X160374172Y-90480350D01*
X160177089Y-90459636D01*
X160173243Y-90459986D01*
X160173242Y-90459986D01*
X160125487Y-90464332D01*
X159979735Y-90477596D01*
X159976028Y-90478687D01*
X159793338Y-90532456D01*
X159793335Y-90532457D01*
X159789629Y-90533548D01*
X159614010Y-90625359D01*
X159611003Y-90627777D01*
X159611001Y-90627778D01*
X159601192Y-90635665D01*
X159459570Y-90749532D01*
X159350372Y-90879669D01*
X159345478Y-90884986D01*
X159339956Y-90890460D01*
X159337784Y-90893680D01*
X159337783Y-90893681D01*
X159334616Y-90898376D01*
X159334373Y-90898736D01*
X159334369Y-90898733D01*
X159334356Y-90898756D01*
X159332189Y-90901339D01*
X159330326Y-90904729D01*
X159328587Y-90907269D01*
X159328298Y-90907742D01*
X159263147Y-91004322D01*
X159259670Y-91009476D01*
X159257381Y-91012963D01*
X159257056Y-91013472D01*
X159254755Y-91017182D01*
X159182735Y-91136820D01*
X159181197Y-91139430D01*
X159181061Y-91139665D01*
X159181031Y-91139717D01*
X159118239Y-91248482D01*
X159117244Y-91250158D01*
X159061409Y-91341587D01*
X159058022Y-91346678D01*
X159007728Y-91416289D01*
X159000860Y-91424548D01*
X158953908Y-91473776D01*
X158942768Y-91483459D01*
X158893870Y-91518512D01*
X158879519Y-91526676D01*
X158816858Y-91554102D01*
X158802312Y-91558851D01*
X158711224Y-91579084D01*
X158699017Y-91580810D01*
X158569226Y-91588914D01*
X158569224Y-91588914D01*
X158565657Y-91589137D01*
X158562189Y-91589997D01*
X158562190Y-91589997D01*
X158553400Y-91592177D01*
X158534382Y-91594500D01*
X157661481Y-91594500D01*
X157656747Y-91594152D01*
X157652429Y-91592670D01*
X157606951Y-91594378D01*
X157605186Y-91594444D01*
X157602222Y-91594500D01*
X157583448Y-91594500D01*
X157579874Y-91595166D01*
X157577843Y-91595353D01*
X157573548Y-91595632D01*
X157569066Y-91595800D01*
X157553434Y-91596387D01*
X157553432Y-91596387D01*
X157546147Y-91596661D01*
X157534554Y-91601641D01*
X157517846Y-91606718D01*
X157505441Y-91609028D01*
X157484966Y-91621649D01*
X157482964Y-91622883D01*
X157472695Y-91628217D01*
X157448426Y-91638644D01*
X157443786Y-91642456D01*
X157438394Y-91647848D01*
X157423986Y-91659237D01*
X157421114Y-91661007D01*
X157421111Y-91661010D01*
X157414902Y-91664837D01*
X157410486Y-91670645D01*
X157397500Y-91687722D01*
X157390477Y-91695765D01*
X156734524Y-92351718D01*
X156730929Y-92354822D01*
X156726829Y-92356826D01*
X156721869Y-92362173D01*
X156694669Y-92391495D01*
X156692612Y-92393630D01*
X156679346Y-92406896D01*
X156677284Y-92409902D01*
X156675990Y-92411459D01*
X156673149Y-92414694D01*
X156654498Y-92434800D01*
X156651795Y-92441576D01*
X156649825Y-92446513D01*
X156641596Y-92461925D01*
X156634459Y-92472328D01*
X156631015Y-92486842D01*
X156628361Y-92498027D01*
X156624872Y-92509058D01*
X156615086Y-92533586D01*
X156614500Y-92539563D01*
X156614500Y-92547193D01*
X156612365Y-92565432D01*
X156609902Y-92575812D01*
X156610886Y-92583042D01*
X156610886Y-92583043D01*
X156613778Y-92604291D01*
X156614500Y-92614945D01*
X156614500Y-93659020D01*
X156596018Y-93709800D01*
X156591361Y-93714881D01*
X150814881Y-99491361D01*
X150765905Y-99514199D01*
X150759020Y-99514500D01*
X135111481Y-99514500D01*
X135106747Y-99514152D01*
X135102429Y-99512670D01*
X135056951Y-99514378D01*
X135055186Y-99514444D01*
X135052222Y-99514500D01*
X135033448Y-99514500D01*
X135029874Y-99515166D01*
X135027843Y-99515353D01*
X135023548Y-99515632D01*
X135019066Y-99515800D01*
X135003434Y-99516387D01*
X135003432Y-99516387D01*
X134996147Y-99516661D01*
X134984554Y-99521641D01*
X134967846Y-99526718D01*
X134955441Y-99529028D01*
X134932964Y-99542883D01*
X134922695Y-99548217D01*
X134898426Y-99558644D01*
X134893786Y-99562456D01*
X134888394Y-99567848D01*
X134873986Y-99579237D01*
X134871114Y-99581007D01*
X134871111Y-99581010D01*
X134864902Y-99584837D01*
X134860486Y-99590645D01*
X134847500Y-99607722D01*
X134840477Y-99615765D01*
X133964524Y-100491718D01*
X133960929Y-100494822D01*
X133956829Y-100496826D01*
X133951869Y-100502173D01*
X133924669Y-100531495D01*
X133922612Y-100533630D01*
X133909346Y-100546896D01*
X133907284Y-100549902D01*
X133905990Y-100551459D01*
X133903149Y-100554694D01*
X133884498Y-100574800D01*
X133881795Y-100581576D01*
X133879825Y-100586513D01*
X133871596Y-100601925D01*
X133864459Y-100612328D01*
X133862775Y-100619426D01*
X133858361Y-100638027D01*
X133854872Y-100649058D01*
X133845086Y-100673586D01*
X133844500Y-100679563D01*
X133844500Y-100687193D01*
X133842365Y-100705432D01*
X133839902Y-100715812D01*
X133840886Y-100723042D01*
X133840886Y-100723043D01*
X133843778Y-100744291D01*
X133844500Y-100754945D01*
X133844500Y-101880615D01*
X133841945Y-101900544D01*
X133840118Y-101907551D01*
X133840117Y-101907556D01*
X133839138Y-101911312D01*
X133838910Y-101915189D01*
X133838910Y-101915191D01*
X133828821Y-102087012D01*
X133807394Y-102136621D01*
X133759091Y-102160851D01*
X133749957Y-102161381D01*
X133027518Y-102161381D01*
X133012265Y-102164415D01*
X132988330Y-102169176D01*
X132988329Y-102169176D01*
X132980700Y-102170694D01*
X132927610Y-102206167D01*
X132892137Y-102259257D01*
X132882824Y-102306075D01*
X132882824Y-105130500D01*
X132864342Y-105181280D01*
X132817542Y-105208300D01*
X132803824Y-105209500D01*
X131572324Y-105209500D01*
X131521544Y-105191018D01*
X131494524Y-105144218D01*
X131493324Y-105130500D01*
X131493324Y-103960811D01*
X131489440Y-103950140D01*
X131483796Y-103946881D01*
X129007254Y-103946881D01*
X128996583Y-103950765D01*
X128993324Y-103956409D01*
X128993324Y-105130500D01*
X128974842Y-105181280D01*
X128928042Y-105208300D01*
X128914324Y-105209500D01*
X127682824Y-105209500D01*
X127632044Y-105191018D01*
X127605024Y-105144218D01*
X127603824Y-105130500D01*
X127603824Y-103682951D01*
X128993324Y-103682951D01*
X128997208Y-103693622D01*
X129002852Y-103696881D01*
X130104394Y-103696881D01*
X130115065Y-103692997D01*
X130118324Y-103687353D01*
X130118324Y-103682951D01*
X130368324Y-103682951D01*
X130372208Y-103693622D01*
X130377852Y-103696881D01*
X131479394Y-103696881D01*
X131490065Y-103692997D01*
X131493324Y-103687353D01*
X131493324Y-102301143D01*
X131492566Y-102293446D01*
X131480337Y-102231966D01*
X131474497Y-102217868D01*
X131427885Y-102148108D01*
X131417097Y-102137320D01*
X131347337Y-102090708D01*
X131333239Y-102084868D01*
X131271759Y-102072639D01*
X131264062Y-102071881D01*
X130382254Y-102071881D01*
X130371583Y-102075765D01*
X130368324Y-102081409D01*
X130368324Y-103682951D01*
X130118324Y-103682951D01*
X130118324Y-102085811D01*
X130114440Y-102075140D01*
X130108796Y-102071881D01*
X129222586Y-102071881D01*
X129214889Y-102072639D01*
X129153409Y-102084868D01*
X129139311Y-102090708D01*
X129069551Y-102137320D01*
X129058763Y-102148108D01*
X129012151Y-102217868D01*
X129006311Y-102231966D01*
X128994082Y-102293446D01*
X128993324Y-102301143D01*
X128993324Y-103682951D01*
X127603824Y-103682951D01*
X127603824Y-102306075D01*
X127594511Y-102259257D01*
X127559038Y-102206167D01*
X127505948Y-102170694D01*
X127498319Y-102169176D01*
X127498318Y-102169176D01*
X127474383Y-102164415D01*
X127459130Y-102161381D01*
X126841348Y-102161381D01*
X126790568Y-102142899D01*
X126763774Y-102097326D01*
X126763517Y-102095992D01*
X126762214Y-102085446D01*
X126751060Y-101885431D01*
X126751059Y-101885427D01*
X126750859Y-101881834D01*
X126747824Y-101869330D01*
X126747729Y-101868939D01*
X126745500Y-101850304D01*
X126745500Y-101050980D01*
X126763982Y-101000200D01*
X126768639Y-100995119D01*
X126810059Y-100953699D01*
X128484288Y-100953699D01*
X128485018Y-100959280D01*
X128502490Y-101092888D01*
X128503249Y-101098695D01*
X128562143Y-101232542D01*
X128565765Y-101236851D01*
X128610715Y-101290325D01*
X128656236Y-101344479D01*
X128777964Y-101425508D01*
X128783338Y-101427187D01*
X128870286Y-101454352D01*
X128917541Y-101469116D01*
X128967056Y-101470023D01*
X129058120Y-101471692D01*
X129058121Y-101471692D01*
X129063747Y-101471795D01*
X129204829Y-101433332D01*
X129211432Y-101429278D01*
X129214306Y-101427513D01*
X129228431Y-101421300D01*
X129228269Y-101420890D01*
X129231882Y-101419462D01*
X129235612Y-101418397D01*
X129259094Y-101406336D01*
X129287829Y-101391576D01*
X129287900Y-101391539D01*
X129287970Y-101391503D01*
X129290886Y-101389968D01*
X129291257Y-101389768D01*
X129291397Y-101389691D01*
X129293923Y-101388297D01*
X129293986Y-101388261D01*
X129294154Y-101388169D01*
X129345614Y-101359085D01*
X129348505Y-101357412D01*
X129393613Y-101330703D01*
X129394143Y-101330393D01*
X129431581Y-101308679D01*
X129434647Y-101306990D01*
X129463845Y-101291742D01*
X129469375Y-101289122D01*
X129493996Y-101278602D01*
X129501299Y-101275898D01*
X129526850Y-101267853D01*
X129534703Y-101265820D01*
X129567461Y-101259115D01*
X129574737Y-101257976D01*
X129584916Y-101256867D01*
X129620124Y-101253032D01*
X129626175Y-101252607D01*
X129668097Y-101251278D01*
X129683915Y-101250776D01*
X129698976Y-101247406D01*
X129716226Y-101245500D01*
X132094304Y-101245500D01*
X132112162Y-101247545D01*
X132126085Y-101250776D01*
X132139331Y-101251196D01*
X132183824Y-101252607D01*
X132189875Y-101253032D01*
X132225083Y-101256867D01*
X132235262Y-101257976D01*
X132242538Y-101259115D01*
X132275296Y-101265820D01*
X132283149Y-101267853D01*
X132308700Y-101275898D01*
X132316002Y-101278601D01*
X132325910Y-101282834D01*
X132340626Y-101289122D01*
X132346154Y-101291742D01*
X132375377Y-101307004D01*
X132378440Y-101308691D01*
X132415540Y-101330208D01*
X132416155Y-101330568D01*
X132461260Y-101357275D01*
X132461416Y-101357366D01*
X132461495Y-101357413D01*
X132461588Y-101357467D01*
X132461667Y-101357513D01*
X132463207Y-101358404D01*
X132464385Y-101359085D01*
X132515845Y-101388169D01*
X132516013Y-101388261D01*
X132516076Y-101388297D01*
X132518602Y-101389691D01*
X132518742Y-101389768D01*
X132519113Y-101389968D01*
X132519299Y-101390066D01*
X132519350Y-101390093D01*
X132521158Y-101391044D01*
X132522030Y-101391503D01*
X132522107Y-101391543D01*
X132522150Y-101391565D01*
X132570939Y-101416625D01*
X132574389Y-101418397D01*
X132576477Y-101419185D01*
X132576680Y-101419275D01*
X132578637Y-101420176D01*
X132583282Y-101422391D01*
X132587964Y-101425508D01*
X132727541Y-101469116D01*
X132777056Y-101470023D01*
X132868120Y-101471692D01*
X132868121Y-101471692D01*
X132873747Y-101471795D01*
X133014829Y-101433332D01*
X133139445Y-101356818D01*
X133143218Y-101352650D01*
X133143220Y-101352648D01*
X133233799Y-101252577D01*
X133233800Y-101252576D01*
X133237576Y-101248404D01*
X133301335Y-101116805D01*
X133305321Y-101093116D01*
X133325090Y-100975610D01*
X133325090Y-100975607D01*
X133325596Y-100972601D01*
X133325750Y-100960000D01*
X133314109Y-100878713D01*
X133305818Y-100820816D01*
X133305817Y-100820814D01*
X133305020Y-100815246D01*
X133299959Y-100804114D01*
X133246827Y-100687257D01*
X133246826Y-100687255D01*
X133244495Y-100682129D01*
X133240820Y-100677864D01*
X133240818Y-100677861D01*
X133152716Y-100575615D01*
X133149041Y-100571350D01*
X133090846Y-100533630D01*
X133031054Y-100494874D01*
X133031051Y-100494872D01*
X133026332Y-100491814D01*
X132946775Y-100468021D01*
X132891621Y-100451526D01*
X132891619Y-100451526D01*
X132886233Y-100449915D01*
X132813711Y-100449472D01*
X132745630Y-100449056D01*
X132745628Y-100449056D01*
X132740005Y-100449022D01*
X132599404Y-100489206D01*
X132594645Y-100492209D01*
X132594642Y-100492210D01*
X132593268Y-100493077D01*
X132580142Y-100499738D01*
X132578122Y-100500536D01*
X132574390Y-100501602D01*
X132522052Y-100528485D01*
X132519289Y-100529938D01*
X132518878Y-100530159D01*
X132515827Y-100531841D01*
X132515698Y-100531914D01*
X132488749Y-100547145D01*
X132464386Y-100560914D01*
X132461494Y-100562587D01*
X132416386Y-100589296D01*
X132415856Y-100589606D01*
X132378422Y-100611318D01*
X132375355Y-100613007D01*
X132346153Y-100628257D01*
X132340624Y-100630877D01*
X132316003Y-100641397D01*
X132308700Y-100644101D01*
X132283149Y-100652146D01*
X132275296Y-100654179D01*
X132242538Y-100660884D01*
X132235262Y-100662023D01*
X132225083Y-100663132D01*
X132189875Y-100666967D01*
X132183825Y-100667392D01*
X132147442Y-100668546D01*
X132126083Y-100669224D01*
X132122449Y-100670037D01*
X132122450Y-100670037D01*
X132111022Y-100672594D01*
X132093772Y-100674500D01*
X129715699Y-100674500D01*
X129697839Y-100672455D01*
X129687696Y-100670101D01*
X129687695Y-100670101D01*
X129683917Y-100669224D01*
X129667782Y-100668712D01*
X129626174Y-100667392D01*
X129620124Y-100666967D01*
X129584916Y-100663132D01*
X129574737Y-100662023D01*
X129567461Y-100660884D01*
X129534703Y-100654179D01*
X129526850Y-100652146D01*
X129501299Y-100644101D01*
X129493996Y-100641398D01*
X129492805Y-100640889D01*
X129469360Y-100630871D01*
X129463849Y-100628259D01*
X129434610Y-100612990D01*
X129431574Y-100611318D01*
X129394244Y-100589667D01*
X129393793Y-100589403D01*
X129348505Y-100562587D01*
X129345614Y-100560914D01*
X129334611Y-100554695D01*
X129297339Y-100533630D01*
X129294154Y-100531830D01*
X129293986Y-100531738D01*
X129293923Y-100531702D01*
X129291397Y-100530308D01*
X129291359Y-100530287D01*
X129291257Y-100530231D01*
X129291132Y-100530164D01*
X129291096Y-100530144D01*
X129291068Y-100530129D01*
X129291051Y-100530120D01*
X129290886Y-100530031D01*
X129287968Y-100528495D01*
X129235610Y-100501602D01*
X129233517Y-100500812D01*
X129231448Y-100499894D01*
X129231496Y-100499785D01*
X129226216Y-100497117D01*
X129226161Y-100497236D01*
X129221061Y-100494879D01*
X129216332Y-100491814D01*
X129136775Y-100468021D01*
X129081621Y-100451526D01*
X129081619Y-100451526D01*
X129076233Y-100449915D01*
X129003711Y-100449472D01*
X128935630Y-100449056D01*
X128935628Y-100449056D01*
X128930005Y-100449022D01*
X128789404Y-100489206D01*
X128725050Y-100529810D01*
X128671476Y-100563613D01*
X128665732Y-100567237D01*
X128662011Y-100571450D01*
X128662010Y-100571451D01*
X128572683Y-100672594D01*
X128568932Y-100676841D01*
X128566540Y-100681936D01*
X128516220Y-100789116D01*
X128506786Y-100809209D01*
X128484288Y-100953699D01*
X126810059Y-100953699D01*
X128465119Y-99298639D01*
X128514095Y-99275801D01*
X128520980Y-99275500D01*
X150458526Y-99275500D01*
X150463255Y-99275847D01*
X150467571Y-99277329D01*
X150514799Y-99275556D01*
X150517762Y-99275500D01*
X150536552Y-99275500D01*
X150540129Y-99274834D01*
X150542172Y-99274645D01*
X150546469Y-99274367D01*
X150566563Y-99273613D01*
X150566565Y-99273613D01*
X150573853Y-99273339D01*
X150585442Y-99268360D01*
X150602155Y-99263283D01*
X150607384Y-99262309D01*
X150607388Y-99262308D01*
X150614559Y-99260972D01*
X150637045Y-99247112D01*
X150647310Y-99241780D01*
X150664086Y-99234572D01*
X150671574Y-99231355D01*
X150676215Y-99227543D01*
X150681606Y-99222152D01*
X150696014Y-99210763D01*
X150698886Y-99208993D01*
X150698889Y-99208990D01*
X150705098Y-99205163D01*
X150722500Y-99182278D01*
X150729523Y-99174235D01*
X155895476Y-94008282D01*
X155899071Y-94005178D01*
X155903171Y-94003174D01*
X155935331Y-93968505D01*
X155937388Y-93966370D01*
X155950654Y-93953104D01*
X155952716Y-93950098D01*
X155954010Y-93948541D01*
X155956852Y-93945305D01*
X155970540Y-93930549D01*
X155975502Y-93925200D01*
X155980175Y-93913487D01*
X155988404Y-93898075D01*
X155995541Y-93887672D01*
X156001639Y-93861973D01*
X156005129Y-93850938D01*
X156014914Y-93826414D01*
X156015500Y-93820437D01*
X156015500Y-93812807D01*
X156017635Y-93794566D01*
X156020098Y-93784188D01*
X156016222Y-93755707D01*
X156015500Y-93745054D01*
X156015500Y-91060980D01*
X156033982Y-91010200D01*
X156038639Y-91005119D01*
X157545119Y-89498639D01*
X157594095Y-89475801D01*
X157600980Y-89475500D01*
X158436700Y-89475500D01*
X158456019Y-89477899D01*
X158467724Y-89480851D01*
X158471596Y-89481047D01*
X158471600Y-89481048D01*
X158643346Y-89489759D01*
X158652965Y-89490841D01*
X158786287Y-89514177D01*
X158797346Y-89516948D01*
X158900642Y-89550919D01*
X158911425Y-89555372D01*
X158998730Y-89599231D01*
X159007133Y-89604122D01*
X159091456Y-89660420D01*
X159096269Y-89663902D01*
X159129179Y-89689650D01*
X159157785Y-89735497D01*
X159159500Y-89751870D01*
X159159500Y-90050806D01*
X159168813Y-90097624D01*
X159204286Y-90150714D01*
X159257376Y-90186187D01*
X159265005Y-90187705D01*
X159265006Y-90187705D01*
X159288941Y-90192466D01*
X159304194Y-90195500D01*
X160969261Y-90195500D01*
X161020041Y-90213982D01*
X161047061Y-90260782D01*
X161047714Y-90283784D01*
X161046092Y-90297490D01*
X161045903Y-90304698D01*
X161058651Y-90499201D01*
X161059780Y-90506328D01*
X161107759Y-90695243D01*
X161110172Y-90702057D01*
X161191773Y-90879066D01*
X161195380Y-90885313D01*
X161279487Y-91004322D01*
X161288816Y-91010794D01*
X161292795Y-91010428D01*
X161963372Y-90339851D01*
X161967759Y-90330443D01*
X162331828Y-90330443D01*
X162333514Y-90336737D01*
X163001566Y-91004789D01*
X163011860Y-91009589D01*
X163016695Y-91008294D01*
X163058105Y-90958503D01*
X163062195Y-90952552D01*
X163157436Y-90782488D01*
X163160371Y-90775896D01*
X163223025Y-90591321D01*
X163224710Y-90584304D01*
X163252864Y-90390127D01*
X163253260Y-90385486D01*
X163254652Y-90332327D01*
X163254500Y-90327685D01*
X163236545Y-90132288D01*
X163235230Y-90125195D01*
X163182321Y-89937592D01*
X163179736Y-89930858D01*
X163093525Y-89756037D01*
X163089756Y-89749887D01*
X163019915Y-89656358D01*
X163010418Y-89650132D01*
X163006139Y-89650638D01*
X162336628Y-90320149D01*
X162331828Y-90330443D01*
X161967759Y-90330443D01*
X161968172Y-90329557D01*
X161966486Y-90323263D01*
X161298622Y-89655399D01*
X161288329Y-89650599D01*
X161279947Y-89652845D01*
X161226113Y-89648135D01*
X161187902Y-89609924D01*
X161180500Y-89576537D01*
X161180500Y-88904362D01*
X161467909Y-88904362D01*
X161468854Y-88907891D01*
X161468965Y-88908000D01*
X161619863Y-89008827D01*
X161626204Y-89012270D01*
X161805297Y-89089214D01*
X161812161Y-89091444D01*
X161877952Y-89106331D01*
X161923401Y-89135565D01*
X161939426Y-89187173D01*
X161918529Y-89237008D01*
X161873897Y-89261242D01*
X161867651Y-89262315D01*
X161860675Y-89264185D01*
X161677805Y-89331649D01*
X161671298Y-89334753D01*
X161503782Y-89434414D01*
X161497938Y-89438660D01*
X161475115Y-89458677D01*
X161469652Y-89468635D01*
X161470705Y-89473928D01*
X162140149Y-90143372D01*
X162150443Y-90148172D01*
X162156737Y-90146486D01*
X162826761Y-89476462D01*
X162831561Y-89466168D01*
X162830056Y-89460551D01*
X162825165Y-89456029D01*
X162819445Y-89451640D01*
X162654590Y-89347625D01*
X162648167Y-89344353D01*
X162467121Y-89272122D01*
X162460199Y-89270071D01*
X162426838Y-89263436D01*
X162380639Y-89235403D01*
X162363268Y-89184232D01*
X162368482Y-89170823D01*
X163114710Y-89170823D01*
X163131292Y-89368297D01*
X163185915Y-89558790D01*
X163276498Y-89735045D01*
X163399590Y-89890348D01*
X163550504Y-90018786D01*
X163723490Y-90115465D01*
X163727152Y-90116655D01*
X163727157Y-90116657D01*
X163831976Y-90150714D01*
X163911960Y-90176702D01*
X163915797Y-90177160D01*
X163915799Y-90177160D01*
X164104892Y-90199708D01*
X164104895Y-90199708D01*
X164108735Y-90200166D01*
X164306320Y-90184963D01*
X164317420Y-90181864D01*
X164357468Y-90170682D01*
X164497190Y-90131671D01*
X164664967Y-90046921D01*
X164670619Y-90044066D01*
X164670621Y-90044065D01*
X164674073Y-90042321D01*
X164830232Y-89920316D01*
X164858707Y-89887327D01*
X164957196Y-89773228D01*
X164957200Y-89773223D01*
X164959720Y-89770303D01*
X164961626Y-89766947D01*
X164961630Y-89766942D01*
X165054124Y-89604122D01*
X165057604Y-89597996D01*
X165058824Y-89594329D01*
X165118935Y-89413630D01*
X165118936Y-89413625D01*
X165120156Y-89409958D01*
X165144993Y-89213351D01*
X165145389Y-89185000D01*
X165126051Y-88987777D01*
X165120454Y-88969237D01*
X165069891Y-88801765D01*
X165068774Y-88798065D01*
X165066963Y-88794660D01*
X165066961Y-88794654D01*
X164977551Y-88626500D01*
X164975739Y-88623092D01*
X164968919Y-88614729D01*
X164852930Y-88472514D01*
X164850490Y-88469522D01*
X164838415Y-88459532D01*
X164700773Y-88345665D01*
X164700772Y-88345664D01*
X164697798Y-88343204D01*
X164679979Y-88333569D01*
X164607359Y-88294304D01*
X164523479Y-88248950D01*
X164334172Y-88190350D01*
X164137089Y-88169636D01*
X164133243Y-88169986D01*
X164133242Y-88169986D01*
X164085487Y-88174332D01*
X163939735Y-88187596D01*
X163936028Y-88188687D01*
X163753338Y-88242456D01*
X163753335Y-88242457D01*
X163749629Y-88243548D01*
X163574010Y-88335359D01*
X163571003Y-88337777D01*
X163571001Y-88337778D01*
X163561192Y-88345665D01*
X163419570Y-88459532D01*
X163292189Y-88611339D01*
X163290327Y-88614727D01*
X163290325Y-88614729D01*
X163264034Y-88662552D01*
X163196720Y-88784996D01*
X163136800Y-88973889D01*
X163114710Y-89170823D01*
X162368482Y-89170823D01*
X162382853Y-89133866D01*
X162416855Y-89111147D01*
X162595896Y-89050371D01*
X162602488Y-89047436D01*
X162772552Y-88952195D01*
X162778503Y-88948105D01*
X162823929Y-88910325D01*
X162829651Y-88900514D01*
X162828803Y-88895580D01*
X162159851Y-88226628D01*
X162149557Y-88221828D01*
X162143263Y-88223514D01*
X161472709Y-88894068D01*
X161467909Y-88904362D01*
X161180500Y-88904362D01*
X161180500Y-88796605D01*
X161198982Y-88745825D01*
X161245782Y-88718805D01*
X161267940Y-88722712D01*
X161292795Y-88720428D01*
X161963372Y-88049851D01*
X161967759Y-88040443D01*
X162331828Y-88040443D01*
X162333514Y-88046737D01*
X163001566Y-88714789D01*
X163011860Y-88719589D01*
X163016695Y-88718294D01*
X163058105Y-88668503D01*
X163062195Y-88662552D01*
X163157436Y-88492488D01*
X163160371Y-88485896D01*
X163223025Y-88301321D01*
X163224710Y-88294304D01*
X163252864Y-88100127D01*
X163253260Y-88095486D01*
X163254652Y-88042327D01*
X163254500Y-88037685D01*
X163236545Y-87842288D01*
X163235230Y-87835195D01*
X163182321Y-87647592D01*
X163179736Y-87640858D01*
X163093525Y-87466037D01*
X163089756Y-87459887D01*
X163019915Y-87366358D01*
X163010418Y-87360132D01*
X163006139Y-87360638D01*
X162336628Y-88030149D01*
X162331828Y-88040443D01*
X161967759Y-88040443D01*
X161968172Y-88039557D01*
X161966486Y-88033263D01*
X161298622Y-87365399D01*
X161288328Y-87360599D01*
X161283842Y-87361801D01*
X161225749Y-87435490D01*
X161221826Y-87441531D01*
X161131065Y-87614039D01*
X161128304Y-87620703D01*
X161070502Y-87806857D01*
X161069002Y-87813919D01*
X161046092Y-88007481D01*
X161045903Y-88014699D01*
X161050860Y-88090334D01*
X161035738Y-88142214D01*
X160990806Y-88172236D01*
X160972029Y-88174500D01*
X159304194Y-88174500D01*
X159288941Y-88177534D01*
X159265006Y-88182295D01*
X159265005Y-88182295D01*
X159257376Y-88183813D01*
X159250906Y-88188136D01*
X159245880Y-88191494D01*
X159204286Y-88219286D01*
X159168813Y-88272376D01*
X159159500Y-88319194D01*
X159159500Y-88624284D01*
X159141018Y-88675064D01*
X159129606Y-88686168D01*
X159092044Y-88715974D01*
X159087146Y-88719562D01*
X159003775Y-88775856D01*
X158995281Y-88780850D01*
X158908921Y-88824620D01*
X158898039Y-88829150D01*
X158795679Y-88863043D01*
X158784538Y-88865852D01*
X158652107Y-88889156D01*
X158642434Y-88890249D01*
X158471312Y-88898963D01*
X158471308Y-88898964D01*
X158467686Y-88899148D01*
X158464154Y-88899992D01*
X158454340Y-88902337D01*
X158435980Y-88904500D01*
X157501473Y-88904500D01*
X157496744Y-88904153D01*
X157492428Y-88902671D01*
X157445201Y-88904444D01*
X157442237Y-88904500D01*
X157423448Y-88904500D01*
X157419871Y-88905166D01*
X157417828Y-88905355D01*
X157413531Y-88905633D01*
X157393437Y-88906387D01*
X157393435Y-88906387D01*
X157386147Y-88906661D01*
X157374558Y-88911640D01*
X157357845Y-88916717D01*
X157352616Y-88917691D01*
X157352612Y-88917692D01*
X157345441Y-88919028D01*
X157326354Y-88930793D01*
X157322955Y-88932888D01*
X157312690Y-88938220D01*
X157288426Y-88948645D01*
X157283785Y-88952457D01*
X157278394Y-88957848D01*
X157263986Y-88969237D01*
X157261114Y-88971007D01*
X157261111Y-88971010D01*
X157254902Y-88974837D01*
X157242139Y-88991621D01*
X157237500Y-88997722D01*
X157230477Y-89005765D01*
X155564524Y-90671718D01*
X155560929Y-90674822D01*
X155556829Y-90676826D01*
X155551869Y-90682173D01*
X155524669Y-90711495D01*
X155522612Y-90713630D01*
X155509346Y-90726896D01*
X155507284Y-90729902D01*
X155505990Y-90731459D01*
X155503149Y-90734694D01*
X155484498Y-90754800D01*
X155480131Y-90765746D01*
X155479825Y-90766513D01*
X155471596Y-90781925D01*
X155464459Y-90792328D01*
X155462775Y-90799426D01*
X155458361Y-90818027D01*
X155454872Y-90829058D01*
X155445086Y-90853586D01*
X155444500Y-90859563D01*
X155444500Y-90867193D01*
X155442365Y-90885432D01*
X155439902Y-90895812D01*
X155440886Y-90903042D01*
X155440886Y-90903043D01*
X155443778Y-90924291D01*
X155444500Y-90934945D01*
X155444500Y-93619021D01*
X155426018Y-93669801D01*
X155421361Y-93674882D01*
X150414881Y-98681361D01*
X150365905Y-98704199D01*
X150359020Y-98704500D01*
X128421474Y-98704500D01*
X128416745Y-98704153D01*
X128412429Y-98702671D01*
X128365202Y-98704444D01*
X128362238Y-98704500D01*
X128343448Y-98704500D01*
X128339871Y-98705166D01*
X128337828Y-98705355D01*
X128333531Y-98705633D01*
X128313437Y-98706387D01*
X128313435Y-98706387D01*
X128306147Y-98706661D01*
X128294558Y-98711640D01*
X128277845Y-98716717D01*
X128272616Y-98717691D01*
X128272612Y-98717692D01*
X128265441Y-98719028D01*
X128246354Y-98730793D01*
X128242955Y-98732888D01*
X128232690Y-98738220D01*
X128208426Y-98748645D01*
X128203785Y-98752457D01*
X128198394Y-98757848D01*
X128183986Y-98769237D01*
X128181114Y-98771007D01*
X128181111Y-98771010D01*
X128174902Y-98774837D01*
X128170486Y-98780645D01*
X128157500Y-98797722D01*
X128150477Y-98805765D01*
X126294524Y-100661718D01*
X126290929Y-100664822D01*
X126286829Y-100666826D01*
X126267936Y-100687193D01*
X126254669Y-100701495D01*
X126252612Y-100703630D01*
X126239346Y-100716896D01*
X126237284Y-100719902D01*
X126235990Y-100721459D01*
X126233149Y-100724694D01*
X126214498Y-100744800D01*
X126211795Y-100751576D01*
X126209825Y-100756513D01*
X126201596Y-100771925D01*
X126194459Y-100782328D01*
X126188803Y-100806166D01*
X126188361Y-100808027D01*
X126184872Y-100819058D01*
X126175086Y-100843586D01*
X126174500Y-100849563D01*
X126174500Y-100857193D01*
X126172365Y-100875432D01*
X126169902Y-100885812D01*
X126170886Y-100893042D01*
X126170886Y-100893043D01*
X126173778Y-100914291D01*
X126174500Y-100924945D01*
X126174500Y-101850946D01*
X126171992Y-101870692D01*
X126169140Y-101881740D01*
X126157850Y-102082325D01*
X126156511Y-102093025D01*
X126155911Y-102096099D01*
X126155632Y-102097526D01*
X126127757Y-102143821D01*
X126078097Y-102161381D01*
X125427518Y-102161381D01*
X125412265Y-102164415D01*
X125388330Y-102169176D01*
X125388329Y-102169176D01*
X125380700Y-102170694D01*
X125327610Y-102206167D01*
X125292137Y-102259257D01*
X125282824Y-102306075D01*
X125282824Y-105130500D01*
X125264342Y-105181280D01*
X125217542Y-105208300D01*
X125203824Y-105209500D01*
X123972324Y-105209500D01*
X123921544Y-105191018D01*
X123894524Y-105144218D01*
X123893324Y-105130500D01*
X123893324Y-103960811D01*
X123889440Y-103950140D01*
X123883796Y-103946881D01*
X121407254Y-103946881D01*
X121396583Y-103950765D01*
X121393324Y-103956409D01*
X121393324Y-105130500D01*
X121374842Y-105181280D01*
X121328042Y-105208300D01*
X121314324Y-105209500D01*
X120082824Y-105209500D01*
X120032044Y-105191018D01*
X120005024Y-105144218D01*
X120003824Y-105130500D01*
X120003824Y-103682951D01*
X121393324Y-103682951D01*
X121397208Y-103693622D01*
X121402852Y-103696881D01*
X122504394Y-103696881D01*
X122515065Y-103692997D01*
X122518324Y-103687353D01*
X122518324Y-103682951D01*
X122768324Y-103682951D01*
X122772208Y-103693622D01*
X122777852Y-103696881D01*
X123879394Y-103696881D01*
X123890065Y-103692997D01*
X123893324Y-103687353D01*
X123893324Y-102301143D01*
X123892566Y-102293446D01*
X123880337Y-102231966D01*
X123874497Y-102217868D01*
X123827885Y-102148108D01*
X123817097Y-102137320D01*
X123747337Y-102090708D01*
X123733239Y-102084868D01*
X123671759Y-102072639D01*
X123664062Y-102071881D01*
X122782254Y-102071881D01*
X122771583Y-102075765D01*
X122768324Y-102081409D01*
X122768324Y-103682951D01*
X122518324Y-103682951D01*
X122518324Y-102085811D01*
X122514440Y-102075140D01*
X122508796Y-102071881D01*
X121622586Y-102071881D01*
X121614889Y-102072639D01*
X121553409Y-102084868D01*
X121539311Y-102090708D01*
X121469551Y-102137320D01*
X121458763Y-102148108D01*
X121412151Y-102217868D01*
X121406311Y-102231966D01*
X121394082Y-102293446D01*
X121393324Y-102301143D01*
X121393324Y-103682951D01*
X120003824Y-103682951D01*
X120003824Y-102306075D01*
X119994511Y-102259257D01*
X119959038Y-102206167D01*
X119905948Y-102170694D01*
X119898319Y-102169176D01*
X119898318Y-102169176D01*
X119874383Y-102164415D01*
X119859130Y-102161381D01*
X119205198Y-102161381D01*
X119154418Y-102142899D01*
X119127617Y-102097289D01*
X119123394Y-102075312D01*
X119122096Y-102064773D01*
X119111059Y-101865504D01*
X119111058Y-101865499D01*
X119110859Y-101861901D01*
X119110009Y-101858395D01*
X119110008Y-101858388D01*
X119109798Y-101857522D01*
X119109833Y-101857205D01*
X119109482Y-101854825D01*
X119110109Y-101854732D01*
X119115794Y-101803817D01*
X119130712Y-101783046D01*
X120255119Y-100658639D01*
X120304095Y-100635801D01*
X120310980Y-100635500D01*
X124764460Y-100635500D01*
X124782238Y-100637526D01*
X124796284Y-100640770D01*
X124800159Y-100640889D01*
X124800163Y-100640889D01*
X124837401Y-100642027D01*
X124855647Y-100642585D01*
X124861491Y-100642982D01*
X124908691Y-100647950D01*
X124915765Y-100649020D01*
X124950156Y-100655834D01*
X124957856Y-100657768D01*
X124984717Y-100665971D01*
X124991947Y-100668570D01*
X124993509Y-100669219D01*
X125017561Y-100679212D01*
X125023106Y-100681772D01*
X125052957Y-100696980D01*
X125056124Y-100698685D01*
X125071232Y-100707269D01*
X125086266Y-100715812D01*
X125093981Y-100720196D01*
X125094710Y-100720617D01*
X125140319Y-100747211D01*
X125142847Y-100748656D01*
X125195340Y-100778040D01*
X125195469Y-100778112D01*
X125196228Y-100778529D01*
X125197573Y-100779268D01*
X125197921Y-100779456D01*
X125198072Y-100779535D01*
X125198133Y-100779568D01*
X125200958Y-100781054D01*
X125201017Y-100781085D01*
X125201166Y-100781163D01*
X125201313Y-100781238D01*
X125201326Y-100781245D01*
X125250006Y-100806166D01*
X125254594Y-100808515D01*
X125256687Y-100809302D01*
X125257279Y-100809564D01*
X125259333Y-100810508D01*
X125263283Y-100812392D01*
X125267964Y-100815508D01*
X125295369Y-100824070D01*
X125396931Y-100855801D01*
X125407541Y-100859116D01*
X125457056Y-100860023D01*
X125548120Y-100861692D01*
X125548121Y-100861692D01*
X125553747Y-100861795D01*
X125694829Y-100823332D01*
X125819445Y-100746818D01*
X125823218Y-100742650D01*
X125823220Y-100742648D01*
X125913799Y-100642577D01*
X125913800Y-100642576D01*
X125917576Y-100638404D01*
X125938762Y-100594677D01*
X125978881Y-100511870D01*
X125981335Y-100506805D01*
X125982602Y-100499278D01*
X126005090Y-100365610D01*
X126005090Y-100365607D01*
X126005596Y-100362601D01*
X126005750Y-100350000D01*
X125985020Y-100205246D01*
X125982691Y-100200123D01*
X125926827Y-100077257D01*
X125926826Y-100077255D01*
X125924495Y-100072129D01*
X125920820Y-100067864D01*
X125920818Y-100067861D01*
X125832716Y-99965615D01*
X125829041Y-99961350D01*
X125782704Y-99931316D01*
X125711054Y-99884874D01*
X125711051Y-99884872D01*
X125706332Y-99881814D01*
X125605646Y-99851702D01*
X125571621Y-99841526D01*
X125571619Y-99841526D01*
X125566233Y-99839915D01*
X125493711Y-99839472D01*
X125425630Y-99839056D01*
X125425628Y-99839056D01*
X125420005Y-99839022D01*
X125279404Y-99879206D01*
X125273381Y-99883006D01*
X125260164Y-99889701D01*
X125258323Y-99890425D01*
X125254594Y-99891485D01*
X125201166Y-99918837D01*
X125198245Y-99920369D01*
X125197897Y-99920556D01*
X125195397Y-99921927D01*
X125142847Y-99951343D01*
X125140319Y-99952788D01*
X125118322Y-99965615D01*
X125094746Y-99979362D01*
X125094009Y-99979787D01*
X125077401Y-99989224D01*
X125056124Y-100001314D01*
X125052957Y-100003019D01*
X125023106Y-100018227D01*
X125017561Y-100020787D01*
X125000803Y-100027749D01*
X124991947Y-100031429D01*
X124984717Y-100034028D01*
X124957856Y-100042231D01*
X124950156Y-100044165D01*
X124915765Y-100050979D01*
X124908691Y-100052049D01*
X124861493Y-100057017D01*
X124855648Y-100057414D01*
X124796281Y-100059230D01*
X124792639Y-100060042D01*
X124792638Y-100060042D01*
X124789434Y-100060756D01*
X124781131Y-100062607D01*
X124763944Y-100064500D01*
X120211473Y-100064500D01*
X120206744Y-100064153D01*
X120202428Y-100062671D01*
X120155201Y-100064444D01*
X120152237Y-100064500D01*
X120133448Y-100064500D01*
X120129871Y-100065166D01*
X120127828Y-100065355D01*
X120123531Y-100065633D01*
X120103437Y-100066387D01*
X120103435Y-100066387D01*
X120096147Y-100066661D01*
X120084558Y-100071640D01*
X120067845Y-100076717D01*
X120062616Y-100077691D01*
X120062612Y-100077692D01*
X120055441Y-100079028D01*
X120041974Y-100087329D01*
X120032955Y-100092888D01*
X120022690Y-100098220D01*
X119998426Y-100108645D01*
X119993785Y-100112457D01*
X119988394Y-100117848D01*
X119973986Y-100129237D01*
X119971114Y-100131007D01*
X119971111Y-100131010D01*
X119964902Y-100134837D01*
X119954668Y-100148296D01*
X119947500Y-100157722D01*
X119940477Y-100165765D01*
X118654524Y-101451718D01*
X118650929Y-101454822D01*
X118646829Y-101456826D01*
X118641869Y-101462173D01*
X118614669Y-101491495D01*
X118612612Y-101493630D01*
X118599346Y-101506896D01*
X118597284Y-101509902D01*
X118595990Y-101511459D01*
X118593149Y-101514694D01*
X118574498Y-101534800D01*
X118571795Y-101541576D01*
X118569825Y-101546513D01*
X118561596Y-101561925D01*
X118554459Y-101572328D01*
X118550849Y-101587543D01*
X118548361Y-101598027D01*
X118544872Y-101609058D01*
X118535086Y-101633586D01*
X118534500Y-101639563D01*
X118534500Y-101647193D01*
X118532365Y-101665432D01*
X118529902Y-101675812D01*
X118530886Y-101683042D01*
X118530886Y-101683043D01*
X118533778Y-101704291D01*
X118534500Y-101714945D01*
X118534500Y-101831172D01*
X118532025Y-101850790D01*
X118529143Y-101862032D01*
X118528931Y-101865909D01*
X118528931Y-101865910D01*
X118517832Y-102069028D01*
X118516581Y-102079362D01*
X118513249Y-102097025D01*
X118485673Y-102143499D01*
X118435618Y-102161381D01*
X117827518Y-102161381D01*
X117812265Y-102164415D01*
X117788330Y-102169176D01*
X117788329Y-102169176D01*
X117780700Y-102170694D01*
X117727610Y-102206167D01*
X117692137Y-102259257D01*
X117682824Y-102306075D01*
X117682824Y-105130500D01*
X117664342Y-105181280D01*
X117617542Y-105208300D01*
X117603824Y-105209500D01*
X116299500Y-105209500D01*
X116248720Y-105191018D01*
X116221700Y-105144218D01*
X116220500Y-105130500D01*
X116220500Y-102619203D01*
X116238982Y-102568423D01*
X116243639Y-102563342D01*
X120353343Y-98453639D01*
X120402319Y-98430801D01*
X120409204Y-98430500D01*
X150097193Y-98430500D01*
X150111995Y-98431899D01*
X150119259Y-98433285D01*
X150119261Y-98433285D01*
X150128651Y-98435076D01*
X150148682Y-98429028D01*
X150160376Y-98425498D01*
X150164364Y-98424407D01*
X150187485Y-98418728D01*
X150187492Y-98418725D01*
X150196584Y-98416492D01*
X150199906Y-98413563D01*
X150204146Y-98412283D01*
X150206605Y-98410376D01*
X150227802Y-98389179D01*
X150231419Y-98385781D01*
X150248567Y-98370663D01*
X150255738Y-98364341D01*
X150257527Y-98359680D01*
X150258681Y-98358300D01*
X155117362Y-93499619D01*
X155128819Y-93490141D01*
X155134936Y-93485984D01*
X155134938Y-93485982D01*
X155142844Y-93480609D01*
X155147361Y-93472186D01*
X155147363Y-93472183D01*
X155158518Y-93451379D01*
X155160566Y-93447789D01*
X155172885Y-93427447D01*
X155172886Y-93427444D01*
X155177738Y-93419433D01*
X155178016Y-93415014D01*
X155180110Y-93411109D01*
X155180500Y-93408022D01*
X155180500Y-93378017D01*
X155180656Y-93373056D01*
X155182090Y-93350270D01*
X155182090Y-93350268D01*
X155182690Y-93340728D01*
X155180659Y-93336166D01*
X155180500Y-93334383D01*
X155180500Y-87178635D01*
X161469652Y-87178635D01*
X161470705Y-87183928D01*
X162140149Y-87853372D01*
X162150443Y-87858172D01*
X162156737Y-87856486D01*
X162826761Y-87186462D01*
X162831561Y-87176168D01*
X162830056Y-87170551D01*
X162825165Y-87166029D01*
X162819445Y-87161640D01*
X162654590Y-87057625D01*
X162648167Y-87054353D01*
X162467121Y-86982122D01*
X162460200Y-86980072D01*
X162269024Y-86942045D01*
X162261854Y-86941292D01*
X162066952Y-86938739D01*
X162059752Y-86939306D01*
X161867653Y-86972315D01*
X161860675Y-86974185D01*
X161677805Y-87041649D01*
X161671298Y-87044753D01*
X161503782Y-87144414D01*
X161497938Y-87148660D01*
X161475115Y-87168677D01*
X161469652Y-87178635D01*
X155180500Y-87178635D01*
X155180500Y-81270000D01*
X159951793Y-81270000D01*
X159970599Y-81556924D01*
X160026695Y-81838938D01*
X160119122Y-82111217D01*
X160246297Y-82369103D01*
X160247731Y-82371250D01*
X160247735Y-82371256D01*
X160358715Y-82537349D01*
X160406045Y-82608184D01*
X160595633Y-82824367D01*
X160811816Y-83013955D01*
X160813964Y-83015390D01*
X161048743Y-83172265D01*
X161048749Y-83172269D01*
X161050896Y-83173703D01*
X161308783Y-83300878D01*
X161311235Y-83301710D01*
X161311239Y-83301712D01*
X161578602Y-83392470D01*
X161581062Y-83393305D01*
X161863076Y-83449401D01*
X162150000Y-83468207D01*
X162436924Y-83449401D01*
X162718938Y-83393305D01*
X162721398Y-83392470D01*
X162988761Y-83301712D01*
X162988765Y-83301710D01*
X162991217Y-83300878D01*
X163249104Y-83173703D01*
X163251251Y-83172269D01*
X163251257Y-83172265D01*
X163486036Y-83015390D01*
X163488184Y-83013955D01*
X163704367Y-82824367D01*
X163893955Y-82608184D01*
X163941285Y-82537349D01*
X164052265Y-82371256D01*
X164052269Y-82371250D01*
X164053703Y-82369103D01*
X164180878Y-82111217D01*
X164273305Y-81838938D01*
X164329401Y-81556924D01*
X164348207Y-81270000D01*
X164329401Y-80983076D01*
X164273305Y-80701062D01*
X164180878Y-80428783D01*
X164053703Y-80170897D01*
X164052269Y-80168750D01*
X164052265Y-80168744D01*
X163895390Y-79933964D01*
X163893955Y-79931816D01*
X163704367Y-79715633D01*
X163488184Y-79526045D01*
X163416649Y-79478247D01*
X163251257Y-79367735D01*
X163251251Y-79367731D01*
X163249104Y-79366297D01*
X162991217Y-79239122D01*
X162988765Y-79238290D01*
X162988761Y-79238288D01*
X162721398Y-79147530D01*
X162721397Y-79147530D01*
X162718938Y-79146695D01*
X162436924Y-79090599D01*
X162150000Y-79071793D01*
X161863076Y-79090599D01*
X161581062Y-79146695D01*
X161578603Y-79147530D01*
X161578602Y-79147530D01*
X161311239Y-79238288D01*
X161311235Y-79238290D01*
X161308783Y-79239122D01*
X161050897Y-79366297D01*
X161048750Y-79367731D01*
X161048744Y-79367735D01*
X160882651Y-79478715D01*
X160811816Y-79526045D01*
X160595633Y-79715633D01*
X160406045Y-79931816D01*
X160404610Y-79933964D01*
X160247735Y-80168744D01*
X160247731Y-80168750D01*
X160246297Y-80170897D01*
X160119122Y-80428783D01*
X160026695Y-80701062D01*
X159970599Y-80983076D01*
X159951793Y-81270000D01*
X155180500Y-81270000D01*
X155180500Y-78589500D01*
X155198982Y-78538720D01*
X155245782Y-78511700D01*
X155259500Y-78510500D01*
X166940500Y-78510500D01*
X166991280Y-78528982D01*
G37*
G04 #@! TD.AperFunction*
G04 #@! TA.AperFunction,Conductor*
G36*
X159949994Y-99968818D02*
G01*
X160002352Y-99995711D01*
X160002723Y-99995911D01*
X160035192Y-100014262D01*
X160054183Y-100024995D01*
X160054387Y-100025114D01*
X160100267Y-100052282D01*
X160100306Y-100052305D01*
X160143231Y-100077201D01*
X160185628Y-100099341D01*
X160209586Y-100109578D01*
X160229810Y-100118220D01*
X160229819Y-100118223D01*
X160230078Y-100118334D01*
X160230352Y-100118420D01*
X160230354Y-100118421D01*
X160278880Y-100133700D01*
X160278883Y-100133701D01*
X160279160Y-100133788D01*
X160279448Y-100133847D01*
X160279452Y-100133848D01*
X160296338Y-100137304D01*
X160335454Y-100145311D01*
X160335725Y-100145341D01*
X160335728Y-100145341D01*
X160401316Y-100152488D01*
X160401326Y-100152489D01*
X160401540Y-100152512D01*
X160421449Y-100153143D01*
X160468671Y-100154641D01*
X160476831Y-100158328D01*
X160480000Y-100166335D01*
X160480000Y-100393665D01*
X160476573Y-100401938D01*
X160468671Y-100405359D01*
X160434767Y-100406434D01*
X160401540Y-100407487D01*
X160401326Y-100407510D01*
X160401316Y-100407511D01*
X160335728Y-100414658D01*
X160335725Y-100414658D01*
X160335454Y-100414688D01*
X160296338Y-100422695D01*
X160279452Y-100426151D01*
X160279448Y-100426152D01*
X160279160Y-100426211D01*
X160278883Y-100426298D01*
X160278880Y-100426299D01*
X160230354Y-100441578D01*
X160230078Y-100441665D01*
X160229819Y-100441776D01*
X160229810Y-100441779D01*
X160209586Y-100450421D01*
X160185628Y-100460658D01*
X160143231Y-100482798D01*
X160143116Y-100482865D01*
X160143110Y-100482868D01*
X160100306Y-100507694D01*
X160100267Y-100507717D01*
X160054387Y-100534885D01*
X160054183Y-100535004D01*
X160035192Y-100545737D01*
X160002723Y-100564088D01*
X160002352Y-100564288D01*
X159953837Y-100589208D01*
X159949994Y-100591182D01*
X159941069Y-100591914D01*
X159936538Y-100589208D01*
X159851797Y-100507717D01*
X159623769Y-100288433D01*
X159620181Y-100280229D01*
X159623769Y-100271567D01*
X159733198Y-100166335D01*
X159936538Y-99970792D01*
X159944877Y-99967527D01*
X159949994Y-99968818D01*
G37*
G04 #@! TD.AperFunction*
G04 #@! TA.AperFunction,Conductor*
G36*
X164737449Y-93169928D02*
G01*
X164848817Y-93273625D01*
X164956128Y-93358919D01*
X164956307Y-93359040D01*
X164956314Y-93359045D01*
X165029091Y-93408179D01*
X165056000Y-93426346D01*
X165151464Y-93482410D01*
X165151564Y-93482464D01*
X165151565Y-93482465D01*
X165245484Y-93533583D01*
X165245532Y-93533642D01*
X165245546Y-93533617D01*
X165341073Y-93586360D01*
X165341493Y-93586604D01*
X165441346Y-93647275D01*
X165441980Y-93647688D01*
X165549441Y-93722896D01*
X165550122Y-93723411D01*
X165668313Y-93819706D01*
X165668931Y-93820247D01*
X165792428Y-93936189D01*
X165796114Y-93944350D01*
X165792693Y-93952992D01*
X165631880Y-94113805D01*
X165623607Y-94117232D01*
X165616272Y-94114647D01*
X165505124Y-94025206D01*
X165505120Y-94025204D01*
X165504447Y-94024662D01*
X165393262Y-93980098D01*
X165392162Y-93980091D01*
X165289333Y-93979440D01*
X165289331Y-93979440D01*
X165288336Y-93979434D01*
X165287395Y-93979761D01*
X165287393Y-93979761D01*
X165187736Y-94014350D01*
X165187733Y-94014351D01*
X165187109Y-94014568D01*
X165087018Y-94077396D01*
X165086741Y-94077621D01*
X165086738Y-94077623D01*
X164985597Y-94159737D01*
X164985501Y-94159815D01*
X164879998Y-94253723D01*
X164768204Y-94350790D01*
X164767657Y-94351235D01*
X164698407Y-94404145D01*
X164647304Y-94443189D01*
X164646224Y-94443923D01*
X164582785Y-94482012D01*
X164521484Y-94518817D01*
X164512628Y-94520138D01*
X164507502Y-94517361D01*
X163881410Y-93936189D01*
X163716541Y-93783149D01*
X163712809Y-93775009D01*
X163715926Y-93766614D01*
X163718530Y-93764513D01*
X164723507Y-93168428D01*
X164732371Y-93167155D01*
X164737449Y-93169928D01*
G37*
G04 #@! TD.AperFunction*
G04 #@! TA.AperFunction,Conductor*
G36*
X129159994Y-100648818D02*
G01*
X129212352Y-100675711D01*
X129212723Y-100675911D01*
X129245192Y-100694262D01*
X129264183Y-100704995D01*
X129264387Y-100705114D01*
X129310267Y-100732282D01*
X129310306Y-100732305D01*
X129353231Y-100757201D01*
X129395628Y-100779341D01*
X129419586Y-100789578D01*
X129439810Y-100798220D01*
X129439819Y-100798223D01*
X129440078Y-100798334D01*
X129440352Y-100798420D01*
X129440354Y-100798421D01*
X129488880Y-100813700D01*
X129488883Y-100813701D01*
X129489160Y-100813788D01*
X129489448Y-100813847D01*
X129489452Y-100813848D01*
X129506338Y-100817304D01*
X129545454Y-100825311D01*
X129545725Y-100825341D01*
X129545728Y-100825341D01*
X129611316Y-100832488D01*
X129611326Y-100832489D01*
X129611540Y-100832512D01*
X129631449Y-100833143D01*
X129678671Y-100834641D01*
X129686831Y-100838328D01*
X129690000Y-100846335D01*
X129690000Y-101073665D01*
X129686573Y-101081938D01*
X129678671Y-101085359D01*
X129644767Y-101086434D01*
X129611540Y-101087487D01*
X129611326Y-101087510D01*
X129611316Y-101087511D01*
X129545728Y-101094658D01*
X129545725Y-101094658D01*
X129545454Y-101094688D01*
X129506338Y-101102695D01*
X129489452Y-101106151D01*
X129489448Y-101106152D01*
X129489160Y-101106211D01*
X129488883Y-101106298D01*
X129488880Y-101106299D01*
X129440354Y-101121578D01*
X129440078Y-101121665D01*
X129439819Y-101121776D01*
X129439810Y-101121779D01*
X129419586Y-101130421D01*
X129395628Y-101140658D01*
X129353231Y-101162798D01*
X129353116Y-101162865D01*
X129353110Y-101162868D01*
X129310306Y-101187694D01*
X129310267Y-101187717D01*
X129264387Y-101214885D01*
X129264183Y-101215004D01*
X129245192Y-101225737D01*
X129212723Y-101244088D01*
X129212352Y-101244288D01*
X129163837Y-101269208D01*
X129159994Y-101271182D01*
X129151069Y-101271914D01*
X129146538Y-101269208D01*
X129061797Y-101187717D01*
X128833769Y-100968433D01*
X128830181Y-100960229D01*
X128833769Y-100951567D01*
X128943198Y-100846335D01*
X129146538Y-100650792D01*
X129154877Y-100647527D01*
X129159994Y-100648818D01*
G37*
G04 #@! TD.AperFunction*
G04 #@! TA.AperFunction,Conductor*
G36*
X132663462Y-100650792D02*
G01*
X132866803Y-100846335D01*
X132976231Y-100951567D01*
X132979819Y-100959771D01*
X132976231Y-100968433D01*
X132748203Y-101187717D01*
X132663462Y-101269208D01*
X132655123Y-101272473D01*
X132650006Y-101271182D01*
X132646163Y-101269208D01*
X132597647Y-101244288D01*
X132597276Y-101244088D01*
X132564807Y-101225737D01*
X132545816Y-101215004D01*
X132545612Y-101214885D01*
X132499732Y-101187717D01*
X132499640Y-101187663D01*
X132456889Y-101162868D01*
X132456883Y-101162865D01*
X132456768Y-101162798D01*
X132414371Y-101140658D01*
X132390413Y-101130421D01*
X132370189Y-101121779D01*
X132370180Y-101121776D01*
X132369921Y-101121665D01*
X132369645Y-101121578D01*
X132321119Y-101106299D01*
X132321116Y-101106298D01*
X132320839Y-101106211D01*
X132320551Y-101106152D01*
X132320547Y-101106151D01*
X132303661Y-101102695D01*
X132264545Y-101094688D01*
X132264274Y-101094658D01*
X132264271Y-101094658D01*
X132198683Y-101087511D01*
X132198673Y-101087510D01*
X132198459Y-101087487D01*
X132165944Y-101086456D01*
X132131329Y-101085359D01*
X132123169Y-101081672D01*
X132120000Y-101073665D01*
X132120000Y-100846335D01*
X132123427Y-100838062D01*
X132131329Y-100834641D01*
X132178792Y-100833136D01*
X132198459Y-100832512D01*
X132198673Y-100832489D01*
X132198683Y-100832488D01*
X132264271Y-100825341D01*
X132264274Y-100825341D01*
X132264545Y-100825311D01*
X132303661Y-100817304D01*
X132320547Y-100813848D01*
X132320551Y-100813847D01*
X132320839Y-100813788D01*
X132321116Y-100813701D01*
X132321119Y-100813700D01*
X132369645Y-100798421D01*
X132369647Y-100798420D01*
X132369921Y-100798334D01*
X132370180Y-100798223D01*
X132370189Y-100798220D01*
X132390413Y-100789578D01*
X132414371Y-100779341D01*
X132456768Y-100757201D01*
X132499693Y-100732305D01*
X132499732Y-100732282D01*
X132545612Y-100705114D01*
X132545816Y-100704995D01*
X132597257Y-100675922D01*
X132597668Y-100675701D01*
X132650006Y-100648818D01*
X132658931Y-100648086D01*
X132663462Y-100650792D01*
G37*
G04 #@! TD.AperFunction*
G04 #@! TA.AperFunction,Conductor*
G36*
X125343453Y-100040783D02*
G01*
X125538213Y-100228075D01*
X125656231Y-100341567D01*
X125659819Y-100349771D01*
X125656231Y-100358433D01*
X125370042Y-100633648D01*
X125343454Y-100659216D01*
X125335115Y-100662481D01*
X125330012Y-100661198D01*
X125276584Y-100633846D01*
X125276236Y-100633658D01*
X125223865Y-100604344D01*
X125223686Y-100604242D01*
X125176887Y-100576953D01*
X125176882Y-100576950D01*
X125176844Y-100576928D01*
X125133058Y-100552048D01*
X125132948Y-100551992D01*
X125132937Y-100551986D01*
X125115929Y-100543321D01*
X125089795Y-100530007D01*
X125089587Y-100529921D01*
X125089575Y-100529915D01*
X125044717Y-100511277D01*
X125044714Y-100511276D01*
X125044447Y-100511165D01*
X125044185Y-100511085D01*
X125044174Y-100511081D01*
X125018339Y-100503192D01*
X124994402Y-100495883D01*
X124994122Y-100495828D01*
X124994112Y-100495825D01*
X124937311Y-100484572D01*
X124937309Y-100484572D01*
X124937053Y-100484521D01*
X124869788Y-100477440D01*
X124801342Y-100475347D01*
X124793178Y-100471668D01*
X124790000Y-100463652D01*
X124790000Y-100236348D01*
X124793427Y-100228075D01*
X124801342Y-100224653D01*
X124869788Y-100222559D01*
X124937053Y-100215478D01*
X124937309Y-100215427D01*
X124937311Y-100215427D01*
X124994112Y-100204174D01*
X124994122Y-100204171D01*
X124994402Y-100204116D01*
X125018339Y-100196807D01*
X125044174Y-100188918D01*
X125044185Y-100188914D01*
X125044447Y-100188834D01*
X125044717Y-100188722D01*
X125089575Y-100170084D01*
X125089587Y-100170078D01*
X125089795Y-100169992D01*
X125115929Y-100156678D01*
X125132937Y-100148013D01*
X125132948Y-100148007D01*
X125133058Y-100147951D01*
X125176844Y-100123071D01*
X125223686Y-100095757D01*
X125223865Y-100095655D01*
X125233285Y-100090382D01*
X125276236Y-100066341D01*
X125276584Y-100066154D01*
X125330012Y-100038802D01*
X125338938Y-100038083D01*
X125343453Y-100040783D01*
G37*
G04 #@! TD.AperFunction*
G04 #@! TA.AperFunction,Conductor*
G36*
X118942203Y-101863427D02*
G01*
X118945612Y-101871053D01*
X118949766Y-101946047D01*
X118957759Y-102090370D01*
X118957830Y-102090741D01*
X118957831Y-102090747D01*
X118982488Y-102219055D01*
X118993867Y-102278269D01*
X119050067Y-102432961D01*
X119123103Y-102563713D01*
X119209717Y-102679788D01*
X119209872Y-102679964D01*
X119209872Y-102679965D01*
X119306622Y-102790418D01*
X119306684Y-102790487D01*
X119410512Y-102904812D01*
X119410789Y-102905128D01*
X119518183Y-103032273D01*
X119518729Y-103032972D01*
X119626491Y-103182159D01*
X119627121Y-103183128D01*
X119728167Y-103356865D01*
X119729364Y-103365738D01*
X119726680Y-103370648D01*
X119686970Y-103413998D01*
X118863662Y-104312763D01*
X118855547Y-104316549D01*
X118846801Y-104313172D01*
X117939140Y-103413998D01*
X117935674Y-103405741D01*
X117936990Y-103400296D01*
X118030935Y-103219406D01*
X118031535Y-103218381D01*
X118133466Y-103063066D01*
X118134016Y-103062299D01*
X118157391Y-103032273D01*
X118174110Y-103010796D01*
X118236930Y-102930099D01*
X118237238Y-102929719D01*
X118337871Y-102811038D01*
X118432487Y-102696796D01*
X118432490Y-102696793D01*
X118432616Y-102696640D01*
X118444522Y-102679965D01*
X118517655Y-102577532D01*
X118517655Y-102577531D01*
X118517872Y-102577228D01*
X118525172Y-102563713D01*
X118589974Y-102443730D01*
X118590190Y-102443330D01*
X118593717Y-102433377D01*
X118645965Y-102285904D01*
X118646117Y-102285475D01*
X118682204Y-102094188D01*
X118694396Y-101871062D01*
X118698270Y-101862988D01*
X118706079Y-101860000D01*
X118933930Y-101860000D01*
X118942203Y-101863427D01*
G37*
G04 #@! TD.AperFunction*
G04 #@! TA.AperFunction,Conductor*
G36*
X158098433Y-95793769D02*
G01*
X158399208Y-96106538D01*
X158402473Y-96114877D01*
X158401182Y-96119994D01*
X158374288Y-96172352D01*
X158374088Y-96172723D01*
X158355737Y-96205192D01*
X158345004Y-96224183D01*
X158344885Y-96224387D01*
X158317717Y-96270267D01*
X158317694Y-96270306D01*
X158292798Y-96313231D01*
X158270658Y-96355628D01*
X158260421Y-96379586D01*
X158251779Y-96399810D01*
X158251776Y-96399819D01*
X158251665Y-96400078D01*
X158236211Y-96449160D01*
X158224688Y-96505454D01*
X158217487Y-96571540D01*
X158217480Y-96571764D01*
X158215359Y-96638671D01*
X158211672Y-96646831D01*
X158203665Y-96650000D01*
X157976335Y-96650000D01*
X157968062Y-96646573D01*
X157964641Y-96638671D01*
X157962519Y-96571764D01*
X157962512Y-96571540D01*
X157955311Y-96505454D01*
X157943788Y-96449160D01*
X157928334Y-96400078D01*
X157928223Y-96399819D01*
X157928220Y-96399810D01*
X157919578Y-96379586D01*
X157909341Y-96355628D01*
X157887201Y-96313231D01*
X157862305Y-96270306D01*
X157862282Y-96270267D01*
X157835114Y-96224387D01*
X157834995Y-96224183D01*
X157824262Y-96205192D01*
X157805911Y-96172723D01*
X157805711Y-96172352D01*
X157778818Y-96119994D01*
X157778086Y-96111069D01*
X157780792Y-96106538D01*
X158081567Y-95793769D01*
X158089771Y-95790181D01*
X158098433Y-95793769D01*
G37*
G04 #@! TD.AperFunction*
G04 #@! TA.AperFunction,Conductor*
G36*
X150174019Y-102075048D02*
G01*
X150335111Y-102236140D01*
X150338538Y-102244413D01*
X150335621Y-102252143D01*
X150263070Y-102334578D01*
X150213731Y-102390638D01*
X150213488Y-102391024D01*
X150213485Y-102391028D01*
X150127658Y-102527374D01*
X150127350Y-102527864D01*
X150077541Y-102658872D01*
X150058115Y-102786954D01*
X150058135Y-102787497D01*
X150058135Y-102787499D01*
X150060045Y-102838962D01*
X150062881Y-102915401D01*
X150085651Y-103047504D01*
X150120233Y-103186554D01*
X150120259Y-103186650D01*
X150160397Y-103335686D01*
X150160468Y-103335961D01*
X150199997Y-103498331D01*
X150200138Y-103498992D01*
X150231436Y-103669966D01*
X150229555Y-103678721D01*
X150225518Y-103682350D01*
X149158347Y-104262572D01*
X149103151Y-104292582D01*
X149094245Y-104293523D01*
X149086972Y-104287277D01*
X148716384Y-103498331D01*
X148539896Y-103122605D01*
X148539480Y-103113661D01*
X148542627Y-103108964D01*
X148710328Y-102956923D01*
X148711306Y-102956128D01*
X148872444Y-102838962D01*
X148873493Y-102838282D01*
X149025936Y-102750633D01*
X149026823Y-102750172D01*
X149174540Y-102681281D01*
X149175010Y-102681075D01*
X149321799Y-102620308D01*
X149321847Y-102620288D01*
X149321866Y-102620280D01*
X149471056Y-102557145D01*
X149471060Y-102557143D01*
X149471188Y-102557089D01*
X149471321Y-102557024D01*
X149626380Y-102480959D01*
X149626385Y-102480956D01*
X149626620Y-102480841D01*
X149626835Y-102480711D01*
X149626844Y-102480706D01*
X149791533Y-102381037D01*
X149791786Y-102380884D01*
X149970381Y-102246539D01*
X149970585Y-102246352D01*
X149970591Y-102246347D01*
X150157840Y-102074696D01*
X150166254Y-102071632D01*
X150174019Y-102075048D01*
G37*
G04 #@! TD.AperFunction*
G04 #@! TA.AperFunction,Conductor*
G36*
X154375669Y-99513715D02*
G01*
X154536411Y-99674457D01*
X154539838Y-99682730D01*
X154536731Y-99690671D01*
X154498507Y-99732035D01*
X154498501Y-99732042D01*
X154498320Y-99732238D01*
X154463409Y-99778320D01*
X154463235Y-99778619D01*
X154463233Y-99778623D01*
X154438862Y-99820655D01*
X154438172Y-99821846D01*
X154421153Y-99864004D01*
X154421051Y-99864423D01*
X154413201Y-99896542D01*
X154410893Y-99905984D01*
X154405935Y-99948975D01*
X154404820Y-99994167D01*
X154404824Y-99994320D01*
X154406091Y-100042748D01*
X154408288Y-100095858D01*
X154408293Y-100096011D01*
X154409725Y-100146572D01*
X154406534Y-100154939D01*
X154402247Y-100157817D01*
X153997397Y-100314224D01*
X153988446Y-100314009D01*
X153982112Y-100307097D01*
X153891690Y-100042748D01*
X153841680Y-99896541D01*
X153842245Y-99887605D01*
X153845591Y-99883502D01*
X153899247Y-99842006D01*
X153899711Y-99841666D01*
X153953642Y-99804256D01*
X153954082Y-99803965D01*
X154003614Y-99772860D01*
X154003911Y-99772679D01*
X154050896Y-99745086D01*
X154050948Y-99745056D01*
X154072650Y-99732461D01*
X154096872Y-99718404D01*
X154143360Y-99690020D01*
X154192018Y-99657242D01*
X154201136Y-99650317D01*
X154244352Y-99617496D01*
X154244364Y-99617486D01*
X154244504Y-99617380D01*
X154244641Y-99617263D01*
X154302353Y-99567846D01*
X154302364Y-99567836D01*
X154302475Y-99567741D01*
X154302599Y-99567623D01*
X154359321Y-99513522D01*
X154367673Y-99510291D01*
X154375669Y-99513715D01*
G37*
G04 #@! TD.AperFunction*
G04 #@! TA.AperFunction,Conductor*
G36*
X156535828Y-96795819D02*
G01*
X156537813Y-96798338D01*
X156773257Y-97200266D01*
X156774482Y-97209136D01*
X156772021Y-97213820D01*
X156734815Y-97256929D01*
X156734575Y-97257319D01*
X156734570Y-97257325D01*
X156705472Y-97304504D01*
X156705241Y-97304879D01*
X156685259Y-97351943D01*
X156671362Y-97398726D01*
X156671333Y-97398848D01*
X156671330Y-97398858D01*
X156664449Y-97427497D01*
X156660043Y-97445832D01*
X156647901Y-97493453D01*
X156647663Y-97494262D01*
X156638186Y-97522421D01*
X156631337Y-97542770D01*
X156630811Y-97544069D01*
X156606845Y-97594392D01*
X156606036Y-97595823D01*
X156570864Y-97648915D01*
X156569885Y-97650191D01*
X156544413Y-97679044D01*
X156527634Y-97698049D01*
X156519590Y-97701983D01*
X156510590Y-97698579D01*
X156350055Y-97538044D01*
X156346628Y-97529771D01*
X156349225Y-97522422D01*
X156378767Y-97485833D01*
X156396408Y-97443733D01*
X156398405Y-97403550D01*
X156387622Y-97364530D01*
X156366925Y-97325918D01*
X156366711Y-97325618D01*
X156366707Y-97325611D01*
X156339283Y-97287106D01*
X156339277Y-97287098D01*
X156339178Y-97286959D01*
X156307247Y-97246899D01*
X156274189Y-97205224D01*
X156273824Y-97204739D01*
X156242634Y-97160933D01*
X156242000Y-97159940D01*
X156219330Y-97120160D01*
X156218211Y-97111275D01*
X156221062Y-97106257D01*
X156519285Y-96796142D01*
X156527489Y-96792554D01*
X156535828Y-96795819D01*
G37*
G04 #@! TD.AperFunction*
G04 #@! TA.AperFunction,Conductor*
G36*
X155673462Y-103530792D02*
G01*
X155876803Y-103726335D01*
X155986231Y-103831567D01*
X155989819Y-103839771D01*
X155986231Y-103848433D01*
X155758203Y-104067717D01*
X155673462Y-104149208D01*
X155665123Y-104152473D01*
X155660006Y-104151182D01*
X155656163Y-104149208D01*
X155607647Y-104124288D01*
X155607276Y-104124088D01*
X155574807Y-104105737D01*
X155555816Y-104095004D01*
X155555612Y-104094885D01*
X155509732Y-104067717D01*
X155509640Y-104067663D01*
X155466889Y-104042868D01*
X155466883Y-104042865D01*
X155466768Y-104042798D01*
X155424371Y-104020658D01*
X155400413Y-104010421D01*
X155380189Y-104001779D01*
X155380180Y-104001776D01*
X155379921Y-104001665D01*
X155379645Y-104001578D01*
X155331119Y-103986299D01*
X155331116Y-103986298D01*
X155330839Y-103986211D01*
X155330551Y-103986152D01*
X155330547Y-103986151D01*
X155313661Y-103982695D01*
X155274545Y-103974688D01*
X155274274Y-103974658D01*
X155274271Y-103974658D01*
X155208683Y-103967511D01*
X155208673Y-103967510D01*
X155208459Y-103967487D01*
X155175944Y-103966456D01*
X155141329Y-103965359D01*
X155133169Y-103961672D01*
X155130000Y-103953665D01*
X155130000Y-103726335D01*
X155133427Y-103718062D01*
X155141329Y-103714641D01*
X155188792Y-103713136D01*
X155208459Y-103712512D01*
X155208673Y-103712489D01*
X155208683Y-103712488D01*
X155274271Y-103705341D01*
X155274274Y-103705341D01*
X155274545Y-103705311D01*
X155313661Y-103697304D01*
X155330547Y-103693848D01*
X155330551Y-103693847D01*
X155330839Y-103693788D01*
X155331116Y-103693701D01*
X155331119Y-103693700D01*
X155379645Y-103678421D01*
X155379647Y-103678420D01*
X155379921Y-103678334D01*
X155380180Y-103678223D01*
X155380189Y-103678220D01*
X155400413Y-103669578D01*
X155424371Y-103659341D01*
X155466768Y-103637201D01*
X155509693Y-103612305D01*
X155509732Y-103612282D01*
X155555612Y-103585114D01*
X155555816Y-103584995D01*
X155607257Y-103555922D01*
X155607668Y-103555701D01*
X155660006Y-103528818D01*
X155668931Y-103528086D01*
X155673462Y-103530792D01*
G37*
G04 #@! TD.AperFunction*
G04 #@! TA.AperFunction,Conductor*
G36*
X153504191Y-102934893D02*
G01*
X153675009Y-103033672D01*
X153676023Y-103034330D01*
X153822435Y-103140571D01*
X153823173Y-103141153D01*
X153947584Y-103247653D01*
X153947930Y-103247961D01*
X154059562Y-103351456D01*
X154059580Y-103351472D01*
X154167467Y-103448464D01*
X154167652Y-103448606D01*
X154280316Y-103535166D01*
X154280322Y-103535170D01*
X154280624Y-103535402D01*
X154408255Y-103608905D01*
X154559561Y-103665593D01*
X154743742Y-103702084D01*
X154958967Y-103714370D01*
X154967031Y-103718263D01*
X154970000Y-103726051D01*
X154970000Y-103953943D01*
X154966573Y-103962216D01*
X154958960Y-103965624D01*
X154754522Y-103977182D01*
X154740621Y-103977968D01*
X154740231Y-103978044D01*
X154740225Y-103978045D01*
X154554138Y-104014419D01*
X154554135Y-104014420D01*
X154553679Y-104014509D01*
X154399804Y-104071081D01*
X154269626Y-104144138D01*
X154269329Y-104144358D01*
X154269322Y-104144363D01*
X154192195Y-104201618D01*
X154153777Y-104230137D01*
X154153601Y-104230288D01*
X154153599Y-104230290D01*
X154042919Y-104325507D01*
X154042887Y-104325535D01*
X154042830Y-104325585D01*
X153927794Y-104426605D01*
X153927396Y-104426940D01*
X153798889Y-104530043D01*
X153798094Y-104530627D01*
X153646794Y-104632332D01*
X153645730Y-104632968D01*
X153566715Y-104674691D01*
X153469168Y-104726200D01*
X153460253Y-104727033D01*
X153455433Y-104724127D01*
X153261935Y-104530627D01*
X152552023Y-103820710D01*
X152548596Y-103812437D01*
X152552353Y-103803847D01*
X153269631Y-103140571D01*
X153490391Y-102936431D01*
X153498791Y-102933330D01*
X153504191Y-102934893D01*
G37*
G04 #@! TD.AperFunction*
G04 #@! TA.AperFunction,Conductor*
G36*
X159801233Y-88428078D02*
G01*
X160382249Y-88980311D01*
X160586173Y-89174133D01*
X160589809Y-89182317D01*
X160586272Y-89190999D01*
X160073166Y-89690237D01*
X159810112Y-89946181D01*
X159801793Y-89949494D01*
X159796426Y-89948106D01*
X159733602Y-89914423D01*
X159643431Y-89866078D01*
X159642525Y-89865539D01*
X159509407Y-89777887D01*
X159508748Y-89777420D01*
X159394515Y-89690338D01*
X159394224Y-89690108D01*
X159291075Y-89606182D01*
X159291074Y-89606181D01*
X159291000Y-89606121D01*
X159241685Y-89567538D01*
X159191186Y-89528028D01*
X159191176Y-89528021D01*
X159191005Y-89527887D01*
X159086489Y-89458108D01*
X158969541Y-89399357D01*
X158832251Y-89354207D01*
X158666707Y-89325230D01*
X158590831Y-89321382D01*
X158476107Y-89315563D01*
X158468018Y-89311721D01*
X158465000Y-89303878D01*
X158465000Y-89076119D01*
X158468427Y-89067846D01*
X158476104Y-89064434D01*
X158665924Y-89054767D01*
X158666273Y-89054706D01*
X158666278Y-89054705D01*
X158737793Y-89042121D01*
X158830776Y-89025759D01*
X158967421Y-88980513D01*
X159025748Y-88950951D01*
X159083403Y-88921730D01*
X159083406Y-88921728D01*
X159083728Y-88921565D01*
X159187564Y-88851452D01*
X159286796Y-88772710D01*
X159389173Y-88687973D01*
X159389395Y-88687794D01*
X159502609Y-88599723D01*
X159503253Y-88599257D01*
X159635101Y-88510368D01*
X159635994Y-88509822D01*
X159784323Y-88428079D01*
X159787527Y-88426313D01*
X159796427Y-88425321D01*
X159801233Y-88428078D01*
G37*
G04 #@! TD.AperFunction*
G04 #@! TA.AperFunction,Conductor*
G36*
X126582207Y-101883427D02*
G01*
X126585616Y-101891049D01*
X126597890Y-102111141D01*
X126597964Y-102111527D01*
X126597965Y-102111532D01*
X126634148Y-102299222D01*
X126634150Y-102299228D01*
X126634237Y-102299681D01*
X126690553Y-102455016D01*
X126763349Y-102586542D01*
X126849138Y-102703659D01*
X126944432Y-102815762D01*
X126944475Y-102815811D01*
X127045573Y-102932056D01*
X127045894Y-102932441D01*
X127149280Y-103062140D01*
X127149849Y-103062917D01*
X127252129Y-103215468D01*
X127252752Y-103216512D01*
X127346866Y-103394370D01*
X127347707Y-103403285D01*
X127344813Y-103408100D01*
X126443060Y-104313183D01*
X126434794Y-104316625D01*
X126426196Y-104312884D01*
X125952256Y-103802252D01*
X125557044Y-103376444D01*
X125553928Y-103368049D01*
X125555476Y-103362656D01*
X125654680Y-103190012D01*
X125655323Y-103189012D01*
X125761781Y-103040899D01*
X125762348Y-103040173D01*
X125868888Y-102914183D01*
X125869185Y-102913845D01*
X125972551Y-102800738D01*
X125972558Y-102800731D01*
X125972602Y-102800682D01*
X126069407Y-102691302D01*
X126156107Y-102576622D01*
X126159331Y-102570934D01*
X126229124Y-102447812D01*
X126229127Y-102447805D01*
X126229358Y-102447398D01*
X126283865Y-102299681D01*
X126285659Y-102294820D01*
X126285660Y-102294817D01*
X126285820Y-102294383D01*
X126321676Y-102110747D01*
X126322070Y-102108727D01*
X126322070Y-102108725D01*
X126322147Y-102108332D01*
X126334378Y-101891041D01*
X126338265Y-101882975D01*
X126346060Y-101880000D01*
X126573934Y-101880000D01*
X126582207Y-101883427D01*
G37*
G04 #@! TD.AperFunction*
G04 #@! TA.AperFunction,Conductor*
G36*
X134252211Y-101913427D02*
G01*
X134255620Y-101921044D01*
X134267276Y-102128650D01*
X134268128Y-102143834D01*
X134304902Y-102334770D01*
X134361408Y-102492434D01*
X134361618Y-102492823D01*
X134404875Y-102572982D01*
X134433729Y-102626452D01*
X134433923Y-102626729D01*
X134433924Y-102626730D01*
X134517843Y-102746300D01*
X134517853Y-102746313D01*
X134517951Y-102746453D01*
X134518060Y-102746590D01*
X134518070Y-102746603D01*
X134610154Y-102862057D01*
X134610158Y-102862061D01*
X134706242Y-102982663D01*
X134706628Y-102983177D01*
X134802549Y-103118163D01*
X134803139Y-103119081D01*
X134895207Y-103278233D01*
X134895799Y-103279403D01*
X134977066Y-103465188D01*
X134977242Y-103474141D01*
X134973977Y-103478746D01*
X134007093Y-104310109D01*
X134005237Y-104311705D01*
X133996730Y-104314501D01*
X133988447Y-104310110D01*
X133193968Y-103309534D01*
X133191507Y-103300924D01*
X133193466Y-103295665D01*
X133204561Y-103279403D01*
X133301326Y-103137566D01*
X133302028Y-103136640D01*
X133319824Y-103115429D01*
X133415756Y-103001095D01*
X133416314Y-103000476D01*
X133528492Y-102885147D01*
X133528751Y-102884889D01*
X133636267Y-102781051D01*
X133636284Y-102781034D01*
X133636307Y-102781012D01*
X133636348Y-102780971D01*
X133735808Y-102680111D01*
X133735978Y-102679939D01*
X133736124Y-102679762D01*
X133736130Y-102679756D01*
X133824249Y-102573305D01*
X133824251Y-102573302D01*
X133824516Y-102572982D01*
X133898803Y-102451325D01*
X133955723Y-102306153D01*
X133992161Y-102128650D01*
X134004353Y-101921013D01*
X134008259Y-101912956D01*
X134016033Y-101910000D01*
X134243938Y-101910000D01*
X134252211Y-101913427D01*
G37*
G04 #@! TD.AperFunction*
G04 #@! TA.AperFunction,Conductor*
G36*
X159490016Y-90978291D02*
G01*
X159888526Y-91090081D01*
X160532450Y-91270715D01*
X160539489Y-91276248D01*
X160540310Y-91285907D01*
X160454491Y-91526716D01*
X160172904Y-92316851D01*
X160166900Y-92323492D01*
X160161358Y-92324610D01*
X159972197Y-92316066D01*
X159971043Y-92315956D01*
X159964722Y-92315038D01*
X159804814Y-92291802D01*
X159803698Y-92291583D01*
X159659860Y-92255989D01*
X159658994Y-92255739D01*
X159528873Y-92212434D01*
X159528433Y-92212278D01*
X159403476Y-92165000D01*
X159275551Y-92117687D01*
X159275552Y-92117687D01*
X159275424Y-92117640D01*
X159136022Y-92074119D01*
X159011575Y-92046108D01*
X158977074Y-92038342D01*
X158977071Y-92038342D01*
X158976798Y-92038280D01*
X158867993Y-92024169D01*
X158789530Y-92013992D01*
X158789524Y-92013991D01*
X158789281Y-92013960D01*
X158789033Y-92013950D01*
X158789032Y-92013950D01*
X158751231Y-92012440D01*
X158576232Y-92005449D01*
X158568103Y-92001694D01*
X158565000Y-91993758D01*
X158565000Y-91765992D01*
X158568427Y-91757719D01*
X158575971Y-91754315D01*
X158595200Y-91753114D01*
X158728434Y-91744795D01*
X158809829Y-91726716D01*
X158860874Y-91715378D01*
X158860876Y-91715377D01*
X158861427Y-91715255D01*
X158861945Y-91715028D01*
X158861949Y-91715027D01*
X158968853Y-91668234D01*
X158969415Y-91667988D01*
X159057834Y-91604605D01*
X159132122Y-91526716D01*
X159197716Y-91435929D01*
X159260052Y-91333855D01*
X159296504Y-91270714D01*
X159324526Y-91222176D01*
X159324635Y-91221992D01*
X159396546Y-91102538D01*
X159396871Y-91102029D01*
X159477157Y-90983013D01*
X159484624Y-90978071D01*
X159490016Y-90978291D01*
G37*
G04 #@! TD.AperFunction*
G04 #@! TA.AperFunction,Conductor*
G36*
X141832198Y-101883427D02*
G01*
X141835607Y-101891059D01*
X141847930Y-102115505D01*
X141884250Y-102307958D01*
X141884396Y-102308373D01*
X141884397Y-102308376D01*
X141929547Y-102436573D01*
X141940251Y-102466967D01*
X142012226Y-102602139D01*
X142096465Y-102723082D01*
X142141257Y-102779229D01*
X142189252Y-102839392D01*
X142189262Y-102839405D01*
X142286723Y-102960485D01*
X142287073Y-102960942D01*
X142385394Y-103096202D01*
X142385958Y-103097054D01*
X142481589Y-103256180D01*
X142482175Y-103257284D01*
X142515968Y-103330138D01*
X142568227Y-103442805D01*
X142568599Y-103451752D01*
X142565454Y-103456412D01*
X141617049Y-104312480D01*
X141608612Y-104315480D01*
X141600225Y-104311289D01*
X140781865Y-103330138D01*
X140779198Y-103321590D01*
X140781022Y-103316296D01*
X140887415Y-103151558D01*
X140888081Y-103150629D01*
X141000413Y-103009205D01*
X141000969Y-103008556D01*
X141111921Y-102888078D01*
X141112177Y-102887808D01*
X141218747Y-102779229D01*
X141218751Y-102779225D01*
X141317450Y-102673946D01*
X141317451Y-102673944D01*
X141317613Y-102673772D01*
X141405523Y-102562555D01*
X141479348Y-102436573D01*
X141535956Y-102286822D01*
X141536051Y-102286345D01*
X141572138Y-102104699D01*
X141572139Y-102104693D01*
X141572217Y-102104299D01*
X141584371Y-101891034D01*
X141588263Y-101882970D01*
X141596052Y-101880000D01*
X141823925Y-101880000D01*
X141832198Y-101883427D01*
G37*
G04 #@! TD.AperFunction*
G04 #@! TA.AperFunction,Conductor*
G36*
X160443706Y-93450471D02*
G01*
X160447796Y-93458437D01*
X160447510Y-93462127D01*
X160223547Y-94392547D01*
X160172100Y-94606276D01*
X160166832Y-94613518D01*
X160161031Y-94615233D01*
X160008652Y-94619200D01*
X159871629Y-94630600D01*
X159871497Y-94630619D01*
X159871484Y-94630620D01*
X159752406Y-94647380D01*
X159752395Y-94647382D01*
X159752266Y-94647400D01*
X159643897Y-94667800D01*
X159643792Y-94667822D01*
X159643779Y-94667825D01*
X159539911Y-94689989D01*
X159539859Y-94690000D01*
X159433662Y-94712163D01*
X159433309Y-94712231D01*
X159318397Y-94732549D01*
X159317848Y-94732633D01*
X159187396Y-94749360D01*
X159186776Y-94749423D01*
X159034017Y-94760778D01*
X159033425Y-94760807D01*
X159004296Y-94761478D01*
X158863340Y-94764724D01*
X158854991Y-94761488D01*
X158851371Y-94753027D01*
X158851371Y-94525560D01*
X158854798Y-94517287D01*
X158861876Y-94513921D01*
X158995363Y-94500212D01*
X158996109Y-94499917D01*
X158996112Y-94499916D01*
X159063659Y-94473182D01*
X159101831Y-94458074D01*
X159102588Y-94457408D01*
X159176299Y-94392547D01*
X159176301Y-94392544D01*
X159177013Y-94391918D01*
X159186845Y-94374888D01*
X159226811Y-94305662D01*
X159226813Y-94305658D01*
X159227147Y-94305079D01*
X159258472Y-94200891D01*
X159277226Y-94082688D01*
X159289649Y-93953804D01*
X159301958Y-93817805D01*
X159302008Y-93817351D01*
X159320391Y-93677818D01*
X159320562Y-93676843D01*
X159349464Y-93544863D01*
X159354581Y-93537515D01*
X159359937Y-93535706D01*
X160435182Y-93447730D01*
X160443706Y-93450471D01*
G37*
G04 #@! TD.AperFunction*
M02*
