M48
; DRILL file {KiCad (6.0.6-0)} date Thursday, 20 October 2022 at 14:25:22
; FORMAT={-:-/ absolute / inch / decimal}
; #@! TF.CreationDate,2022-10-20T14:25:22-04:00
; #@! TF.GenerationSoftware,Kicad,Pcbnew,(6.0.6-0)
; #@! TF.FileFunction,MixedPlating,1,2
FMAT,2
INCH
; #@! TA.AperFunction,Plated,PTH,ViaDrill
T1C0.0118
; #@! TA.AperFunction,Plated,PTH,ComponentDrill
T2C0.0394
; #@! TA.AperFunction,Plated,PTH,ComponentDrill
T3C0.1260
%
G90
G05
T1
X4.8094Y-4.0429
X4.9406Y-3.9508
X4.9748Y-3.9051
X5.0787Y-3.9748
X5.1299Y-3.9272
X5.2287Y-3.9748
X5.4587Y-3.9799
X5.7096Y-3.9911
X6.0654Y-3.9433
X6.1346Y-4.0882
X6.1626Y-3.8173
X6.224Y-3.778
X6.2398Y-3.5626
X6.2398Y-3.6717
X6.2461Y-3.9222
T2
X6.3059Y-3.5112
X6.3059Y-3.6014
X6.3059Y-3.6915
X6.3059Y-3.7817
X6.3059Y-3.8719
X6.3839Y-3.4661
X6.3839Y-3.5563
X6.3839Y-3.6465
X6.3839Y-3.7366
X6.3839Y-3.8268
X6.4618Y-3.5112
X6.4618Y-3.6014
X6.4618Y-3.6915
X6.4618Y-3.7817
X6.4618Y-3.8719
T3
X6.3839Y-3.1996
X6.3839Y-4.1835
T0
M30
