G04 #@! TF.GenerationSoftware,KiCad,Pcbnew,(5.1.10-1-10_14)*
G04 #@! TF.CreationDate,2021-10-24T13:43:18-04:00*
G04 #@! TF.ProjectId,gscartsw2VGA,67736361-7274-4737-9732-5647412e6b69,1*
G04 #@! TF.SameCoordinates,Original*
G04 #@! TF.FileFunction,Legend,Top*
G04 #@! TF.FilePolarity,Positive*
%FSLAX46Y46*%
G04 Gerber Fmt 4.6, Leading zero omitted, Abs format (unit mm)*
G04 Created by KiCad (PCBNEW (5.1.10-1-10_14)) date 2021-10-24 13:43:18*
%MOMM*%
%LPD*%
G01*
G04 APERTURE LIST*
%ADD10C,0.304800*%
%ADD11C,1.801600*%
%ADD12C,4.167600*%
G04 APERTURE END LIST*
D10*
X164515428Y-87053142D02*
X166039428Y-86545142D01*
X164515428Y-86037142D01*
X164588000Y-84730857D02*
X164515428Y-84876000D01*
X164515428Y-85093714D01*
X164588000Y-85311428D01*
X164733142Y-85456571D01*
X164878285Y-85529142D01*
X165168571Y-85601714D01*
X165386285Y-85601714D01*
X165676571Y-85529142D01*
X165821714Y-85456571D01*
X165966857Y-85311428D01*
X166039428Y-85093714D01*
X166039428Y-84948571D01*
X165966857Y-84730857D01*
X165894285Y-84658285D01*
X165386285Y-84658285D01*
X165386285Y-84948571D01*
X165604000Y-84077714D02*
X165604000Y-83352000D01*
X166039428Y-84222857D02*
X164515428Y-83714857D01*
X166039428Y-83206857D01*
%LPC*%
D11*
X164130000Y-98345000D03*
X164130000Y-96055000D03*
X164130000Y-93765000D03*
X164130000Y-91475000D03*
X164130000Y-89185000D03*
X162150000Y-97200000D03*
X162150000Y-94910000D03*
X162150000Y-92620000D03*
X162150000Y-90330000D03*
X162150000Y-88040000D03*
X160170000Y-98345000D03*
X160170000Y-96055000D03*
X160170000Y-93765000D03*
X160170000Y-91475000D03*
D12*
X162150000Y-106260000D03*
X162150000Y-81270000D03*
G36*
G01*
X159320000Y-88284200D02*
X161020000Y-88284200D01*
G75*
G02*
X161070800Y-88335000I0J-50800D01*
G01*
X161070800Y-90035000D01*
G75*
G02*
X161020000Y-90085800I-50800J0D01*
G01*
X159320000Y-90085800D01*
G75*
G02*
X159269200Y-90035000I0J50800D01*
G01*
X159269200Y-88335000D01*
G75*
G02*
X159320000Y-88284200I50800J0D01*
G01*
G37*
G36*
G01*
X151992524Y-105321881D02*
X151992524Y-102321881D01*
G75*
G02*
X152043324Y-102271081I50800J0D01*
G01*
X154043324Y-102271081D01*
G75*
G02*
X154094124Y-102321881I0J-50800D01*
G01*
X154094124Y-105321881D01*
G75*
G02*
X154043324Y-105372681I-50800J0D01*
G01*
X152043324Y-105372681D01*
G75*
G02*
X151992524Y-105321881I0J50800D01*
G01*
G37*
G36*
G01*
X148192524Y-105321881D02*
X148192524Y-102321881D01*
G75*
G02*
X148243324Y-102271081I50800J0D01*
G01*
X150243324Y-102271081D01*
G75*
G02*
X150294124Y-102321881I0J-50800D01*
G01*
X150294124Y-105321881D01*
G75*
G02*
X150243324Y-105372681I-50800J0D01*
G01*
X148243324Y-105372681D01*
G75*
G02*
X148192524Y-105321881I0J50800D01*
G01*
G37*
G36*
G01*
X144392524Y-105321881D02*
X144392524Y-102321881D01*
G75*
G02*
X144443324Y-102271081I50800J0D01*
G01*
X146443324Y-102271081D01*
G75*
G02*
X146494124Y-102321881I0J-50800D01*
G01*
X146494124Y-105321881D01*
G75*
G02*
X146443324Y-105372681I-50800J0D01*
G01*
X144443324Y-105372681D01*
G75*
G02*
X144392524Y-105321881I0J50800D01*
G01*
G37*
G36*
G01*
X140592524Y-105321881D02*
X140592524Y-102321881D01*
G75*
G02*
X140643324Y-102271081I50800J0D01*
G01*
X142643324Y-102271081D01*
G75*
G02*
X142694124Y-102321881I0J-50800D01*
G01*
X142694124Y-105321881D01*
G75*
G02*
X142643324Y-105372681I-50800J0D01*
G01*
X140643324Y-105372681D01*
G75*
G02*
X140592524Y-105321881I0J50800D01*
G01*
G37*
G36*
G01*
X136792524Y-105321881D02*
X136792524Y-102321881D01*
G75*
G02*
X136843324Y-102271081I50800J0D01*
G01*
X138843324Y-102271081D01*
G75*
G02*
X138894124Y-102321881I0J-50800D01*
G01*
X138894124Y-105321881D01*
G75*
G02*
X138843324Y-105372681I-50800J0D01*
G01*
X136843324Y-105372681D01*
G75*
G02*
X136792524Y-105321881I0J50800D01*
G01*
G37*
G36*
G01*
X132992524Y-105321881D02*
X132992524Y-102321881D01*
G75*
G02*
X133043324Y-102271081I50800J0D01*
G01*
X135043324Y-102271081D01*
G75*
G02*
X135094124Y-102321881I0J-50800D01*
G01*
X135094124Y-105321881D01*
G75*
G02*
X135043324Y-105372681I-50800J0D01*
G01*
X133043324Y-105372681D01*
G75*
G02*
X132992524Y-105321881I0J50800D01*
G01*
G37*
G36*
G01*
X129192524Y-105321881D02*
X129192524Y-102321881D01*
G75*
G02*
X129243324Y-102271081I50800J0D01*
G01*
X131243324Y-102271081D01*
G75*
G02*
X131294124Y-102321881I0J-50800D01*
G01*
X131294124Y-105321881D01*
G75*
G02*
X131243324Y-105372681I-50800J0D01*
G01*
X129243324Y-105372681D01*
G75*
G02*
X129192524Y-105321881I0J50800D01*
G01*
G37*
G36*
G01*
X125392524Y-105321881D02*
X125392524Y-102321881D01*
G75*
G02*
X125443324Y-102271081I50800J0D01*
G01*
X127443324Y-102271081D01*
G75*
G02*
X127494124Y-102321881I0J-50800D01*
G01*
X127494124Y-105321881D01*
G75*
G02*
X127443324Y-105372681I-50800J0D01*
G01*
X125443324Y-105372681D01*
G75*
G02*
X125392524Y-105321881I0J50800D01*
G01*
G37*
G36*
G01*
X121592524Y-105321881D02*
X121592524Y-102321881D01*
G75*
G02*
X121643324Y-102271081I50800J0D01*
G01*
X123643324Y-102271081D01*
G75*
G02*
X123694124Y-102321881I0J-50800D01*
G01*
X123694124Y-105321881D01*
G75*
G02*
X123643324Y-105372681I-50800J0D01*
G01*
X121643324Y-105372681D01*
G75*
G02*
X121592524Y-105321881I0J50800D01*
G01*
G37*
G36*
G01*
X117792524Y-105321881D02*
X117792524Y-102321881D01*
G75*
G02*
X117843324Y-102271081I50800J0D01*
G01*
X119843324Y-102271081D01*
G75*
G02*
X119894124Y-102321881I0J-50800D01*
G01*
X119894124Y-105321881D01*
G75*
G02*
X119843324Y-105372681I-50800J0D01*
G01*
X117843324Y-105372681D01*
G75*
G02*
X117792524Y-105321881I0J50800D01*
G01*
G37*
M02*
