G04 #@! TF.GenerationSoftware,KiCad,Pcbnew,(5.1.10-1-10_14)*
G04 #@! TF.CreationDate,2021-10-24T13:43:18-04:00*
G04 #@! TF.ProjectId,gscartsw2VGA,67736361-7274-4737-9732-5647412e6b69,1*
G04 #@! TF.SameCoordinates,Original*
G04 #@! TF.FileFunction,Copper,L2,Bot*
G04 #@! TF.FilePolarity,Positive*
%FSLAX46Y46*%
G04 Gerber Fmt 4.6, Leading zero omitted, Abs format (unit mm)*
G04 Created by KiCad (PCBNEW (5.1.10-1-10_14)) date 2021-10-24 13:43:18*
%MOMM*%
%LPD*%
G01*
G04 APERTURE LIST*
G04 #@! TA.AperFunction,ComponentPad*
%ADD10C,1.700000*%
G04 #@! TD*
G04 #@! TA.AperFunction,ComponentPad*
%ADD11C,4.066000*%
G04 #@! TD*
G04 #@! TA.AperFunction,ComponentPad*
%ADD12R,1.700000X1.700000*%
G04 #@! TD*
G04 #@! TA.AperFunction,SMDPad,CuDef*
%ADD13R,2.000000X3.000000*%
G04 #@! TD*
G04 #@! TA.AperFunction,SMDPad,CuDef*
%ADD14C,0.152400*%
G04 #@! TD*
G04 #@! TA.AperFunction,SMDPad,CuDef*
%ADD15R,1.000000X1.500000*%
G04 #@! TD*
G04 #@! TA.AperFunction,SMDPad,CuDef*
%ADD16R,1.500000X1.000000*%
G04 #@! TD*
G04 #@! TA.AperFunction,ViaPad*
%ADD17C,0.700000*%
G04 #@! TD*
G04 #@! TA.AperFunction,Conductor*
%ADD18C,0.250000*%
G04 #@! TD*
G04 #@! TA.AperFunction,Conductor*
%ADD19C,0.160000*%
G04 #@! TD*
G04 #@! TA.AperFunction,Conductor*
%ADD20C,0.152400*%
G04 #@! TD*
G04 #@! TA.AperFunction,Conductor*
%ADD21C,0.025400*%
G04 #@! TD*
G04 APERTURE END LIST*
D10*
X164130000Y-98345000D03*
X164130000Y-96055000D03*
X164130000Y-93765000D03*
X164130000Y-91475000D03*
X164130000Y-89185000D03*
X162150000Y-97200000D03*
X162150000Y-94910000D03*
X162150000Y-92620000D03*
X162150000Y-90330000D03*
X162150000Y-88040000D03*
X160170000Y-98345000D03*
X160170000Y-96055000D03*
X160170000Y-93765000D03*
X160170000Y-91475000D03*
D11*
X162150000Y-106260000D03*
X162150000Y-81270000D03*
D12*
X160170000Y-89185000D03*
D13*
X125443324Y-103821881D03*
X152043324Y-103821881D03*
X148243324Y-103821881D03*
X144443324Y-103821881D03*
X121643324Y-103821881D03*
X117843324Y-103821881D03*
G04 #@! TA.AperFunction,SMDPad,CuDef*
D14*
G36*
X123590000Y-99600000D02*
G01*
X124140000Y-99600000D01*
X124140000Y-99600602D01*
X124164534Y-99600602D01*
X124213365Y-99605412D01*
X124261490Y-99614984D01*
X124308445Y-99629228D01*
X124353778Y-99648005D01*
X124397051Y-99671136D01*
X124437850Y-99698396D01*
X124475779Y-99729524D01*
X124510476Y-99764221D01*
X124541604Y-99802150D01*
X124568864Y-99842949D01*
X124591995Y-99886222D01*
X124610772Y-99931555D01*
X124625016Y-99978510D01*
X124634588Y-100026635D01*
X124639398Y-100075466D01*
X124639398Y-100100000D01*
X124640000Y-100100000D01*
X124640000Y-100600000D01*
X124639398Y-100600000D01*
X124639398Y-100624534D01*
X124634588Y-100673365D01*
X124625016Y-100721490D01*
X124610772Y-100768445D01*
X124591995Y-100813778D01*
X124568864Y-100857051D01*
X124541604Y-100897850D01*
X124510476Y-100935779D01*
X124475779Y-100970476D01*
X124437850Y-101001604D01*
X124397051Y-101028864D01*
X124353778Y-101051995D01*
X124308445Y-101070772D01*
X124261490Y-101085016D01*
X124213365Y-101094588D01*
X124164534Y-101099398D01*
X124140000Y-101099398D01*
X124140000Y-101100000D01*
X123590000Y-101100000D01*
X123590000Y-99600000D01*
G37*
G04 #@! TD.AperFunction*
G04 #@! TA.AperFunction,SMDPad,CuDef*
G36*
X121540000Y-101099398D02*
G01*
X121515466Y-101099398D01*
X121466635Y-101094588D01*
X121418510Y-101085016D01*
X121371555Y-101070772D01*
X121326222Y-101051995D01*
X121282949Y-101028864D01*
X121242150Y-101001604D01*
X121204221Y-100970476D01*
X121169524Y-100935779D01*
X121138396Y-100897850D01*
X121111136Y-100857051D01*
X121088005Y-100813778D01*
X121069228Y-100768445D01*
X121054984Y-100721490D01*
X121045412Y-100673365D01*
X121040602Y-100624534D01*
X121040602Y-100600000D01*
X121040000Y-100600000D01*
X121040000Y-100100000D01*
X121040602Y-100100000D01*
X121040602Y-100075466D01*
X121045412Y-100026635D01*
X121054984Y-99978510D01*
X121069228Y-99931555D01*
X121088005Y-99886222D01*
X121111136Y-99842949D01*
X121138396Y-99802150D01*
X121169524Y-99764221D01*
X121204221Y-99729524D01*
X121242150Y-99698396D01*
X121282949Y-99671136D01*
X121326222Y-99648005D01*
X121371555Y-99629228D01*
X121418510Y-99614984D01*
X121466635Y-99605412D01*
X121515466Y-99600602D01*
X121540000Y-99600602D01*
X121540000Y-99600000D01*
X122090000Y-99600000D01*
X122090000Y-101100000D01*
X121540000Y-101100000D01*
X121540000Y-101099398D01*
G37*
G04 #@! TD.AperFunction*
D15*
X122840000Y-100350000D03*
D16*
X158240000Y-84830000D03*
G04 #@! TA.AperFunction,SMDPad,CuDef*
D14*
G36*
X157490602Y-83530000D02*
G01*
X157490602Y-83505466D01*
X157495412Y-83456635D01*
X157504984Y-83408510D01*
X157519228Y-83361555D01*
X157538005Y-83316222D01*
X157561136Y-83272949D01*
X157588396Y-83232150D01*
X157619524Y-83194221D01*
X157654221Y-83159524D01*
X157692150Y-83128396D01*
X157732949Y-83101136D01*
X157776222Y-83078005D01*
X157821555Y-83059228D01*
X157868510Y-83044984D01*
X157916635Y-83035412D01*
X157965466Y-83030602D01*
X157990000Y-83030602D01*
X157990000Y-83030000D01*
X158490000Y-83030000D01*
X158490000Y-83030602D01*
X158514534Y-83030602D01*
X158563365Y-83035412D01*
X158611490Y-83044984D01*
X158658445Y-83059228D01*
X158703778Y-83078005D01*
X158747051Y-83101136D01*
X158787850Y-83128396D01*
X158825779Y-83159524D01*
X158860476Y-83194221D01*
X158891604Y-83232150D01*
X158918864Y-83272949D01*
X158941995Y-83316222D01*
X158960772Y-83361555D01*
X158975016Y-83408510D01*
X158984588Y-83456635D01*
X158989398Y-83505466D01*
X158989398Y-83530000D01*
X158990000Y-83530000D01*
X158990000Y-84080000D01*
X157490000Y-84080000D01*
X157490000Y-83530000D01*
X157490602Y-83530000D01*
G37*
G04 #@! TD.AperFunction*
G04 #@! TA.AperFunction,SMDPad,CuDef*
G36*
X158990000Y-85580000D02*
G01*
X158990000Y-86130000D01*
X158989398Y-86130000D01*
X158989398Y-86154534D01*
X158984588Y-86203365D01*
X158975016Y-86251490D01*
X158960772Y-86298445D01*
X158941995Y-86343778D01*
X158918864Y-86387051D01*
X158891604Y-86427850D01*
X158860476Y-86465779D01*
X158825779Y-86500476D01*
X158787850Y-86531604D01*
X158747051Y-86558864D01*
X158703778Y-86581995D01*
X158658445Y-86600772D01*
X158611490Y-86615016D01*
X158563365Y-86624588D01*
X158514534Y-86629398D01*
X158490000Y-86629398D01*
X158490000Y-86630000D01*
X157990000Y-86630000D01*
X157990000Y-86629398D01*
X157965466Y-86629398D01*
X157916635Y-86624588D01*
X157868510Y-86615016D01*
X157821555Y-86600772D01*
X157776222Y-86581995D01*
X157732949Y-86558864D01*
X157692150Y-86531604D01*
X157654221Y-86500476D01*
X157619524Y-86465779D01*
X157588396Y-86427850D01*
X157561136Y-86387051D01*
X157538005Y-86343778D01*
X157519228Y-86298445D01*
X157504984Y-86251490D01*
X157495412Y-86203365D01*
X157490602Y-86154534D01*
X157490602Y-86130000D01*
X157490000Y-86130000D01*
X157490000Y-85580000D01*
X158990000Y-85580000D01*
G37*
G04 #@! TD.AperFunction*
G04 #@! TA.AperFunction,SMDPad,CuDef*
G36*
X158460000Y-103290000D02*
G01*
X158460000Y-103840000D01*
X158459398Y-103840000D01*
X158459398Y-103864534D01*
X158454588Y-103913365D01*
X158445016Y-103961490D01*
X158430772Y-104008445D01*
X158411995Y-104053778D01*
X158388864Y-104097051D01*
X158361604Y-104137850D01*
X158330476Y-104175779D01*
X158295779Y-104210476D01*
X158257850Y-104241604D01*
X158217051Y-104268864D01*
X158173778Y-104291995D01*
X158128445Y-104310772D01*
X158081490Y-104325016D01*
X158033365Y-104334588D01*
X157984534Y-104339398D01*
X157960000Y-104339398D01*
X157960000Y-104340000D01*
X157460000Y-104340000D01*
X157460000Y-104339398D01*
X157435466Y-104339398D01*
X157386635Y-104334588D01*
X157338510Y-104325016D01*
X157291555Y-104310772D01*
X157246222Y-104291995D01*
X157202949Y-104268864D01*
X157162150Y-104241604D01*
X157124221Y-104210476D01*
X157089524Y-104175779D01*
X157058396Y-104137850D01*
X157031136Y-104097051D01*
X157008005Y-104053778D01*
X156989228Y-104008445D01*
X156974984Y-103961490D01*
X156965412Y-103913365D01*
X156960602Y-103864534D01*
X156960602Y-103840000D01*
X156960000Y-103840000D01*
X156960000Y-103290000D01*
X158460000Y-103290000D01*
G37*
G04 #@! TD.AperFunction*
G04 #@! TA.AperFunction,SMDPad,CuDef*
G36*
X156960602Y-101240000D02*
G01*
X156960602Y-101215466D01*
X156965412Y-101166635D01*
X156974984Y-101118510D01*
X156989228Y-101071555D01*
X157008005Y-101026222D01*
X157031136Y-100982949D01*
X157058396Y-100942150D01*
X157089524Y-100904221D01*
X157124221Y-100869524D01*
X157162150Y-100838396D01*
X157202949Y-100811136D01*
X157246222Y-100788005D01*
X157291555Y-100769228D01*
X157338510Y-100754984D01*
X157386635Y-100745412D01*
X157435466Y-100740602D01*
X157460000Y-100740602D01*
X157460000Y-100740000D01*
X157960000Y-100740000D01*
X157960000Y-100740602D01*
X157984534Y-100740602D01*
X158033365Y-100745412D01*
X158081490Y-100754984D01*
X158128445Y-100769228D01*
X158173778Y-100788005D01*
X158217051Y-100811136D01*
X158257850Y-100838396D01*
X158295779Y-100869524D01*
X158330476Y-100904221D01*
X158361604Y-100942150D01*
X158388864Y-100982949D01*
X158411995Y-101026222D01*
X158430772Y-101071555D01*
X158445016Y-101118510D01*
X158454588Y-101166635D01*
X158459398Y-101215466D01*
X158459398Y-101240000D01*
X158460000Y-101240000D01*
X158460000Y-101790000D01*
X156960000Y-101790000D01*
X156960000Y-101240000D01*
X156960602Y-101240000D01*
G37*
G04 #@! TD.AperFunction*
D16*
X157710000Y-102540000D03*
D17*
X122160000Y-102690000D03*
X126360000Y-99190000D03*
X158490000Y-90490000D03*
X158490000Y-93260000D03*
X130300000Y-99750000D03*
X137740000Y-101090000D03*
X143560000Y-101390000D03*
X159790000Y-100280000D03*
X129000000Y-100960000D03*
X132810000Y-100960000D03*
X125490000Y-100350000D03*
X158090000Y-95960000D03*
X156530000Y-96960000D03*
X154059998Y-100160000D03*
X155820000Y-103840000D03*
D18*
X133510000Y-100260000D02*
X132810000Y-100960000D01*
X158520000Y-99010000D02*
X152910000Y-99010000D01*
X151660000Y-100260000D02*
X133510000Y-100260000D01*
X152910000Y-99010000D02*
X151660000Y-100260000D01*
X159790000Y-100280000D02*
X158520000Y-99010000D01*
X128410000Y-101550000D02*
X129000000Y-100960000D01*
X122840000Y-101350000D02*
X123040000Y-101550000D01*
X123040000Y-101550000D02*
X128410000Y-101550000D01*
X122840000Y-100350000D02*
X122840000Y-101350000D01*
X121540000Y-100350000D02*
X119750000Y-100350000D01*
X119750000Y-100350000D02*
X117840000Y-102260000D01*
X117840000Y-102260000D02*
X117840000Y-103910000D01*
X124140000Y-100350000D02*
X125490000Y-100350000D01*
X157420000Y-86950000D02*
X157420000Y-95290000D01*
X157420000Y-95290000D02*
X158090000Y-95960000D01*
X158230000Y-86140000D02*
X157420000Y-86950000D01*
X144443324Y-103776676D02*
X146900000Y-101320000D01*
X152899998Y-101320000D02*
X154059998Y-100160000D01*
X146900000Y-101320000D02*
X152899998Y-101320000D01*
X156150000Y-96580000D02*
X156530000Y-96960000D01*
X156930000Y-83520000D02*
X156150000Y-84300000D01*
X156150000Y-84300000D02*
X156150000Y-96580000D01*
X158240000Y-83520000D02*
X156930000Y-83520000D01*
X164410000Y-91490000D02*
X164140000Y-91220000D01*
X166080000Y-90830000D02*
X165420000Y-91490000D01*
X166080000Y-86960000D02*
X166080000Y-90830000D01*
X165420000Y-91490000D02*
X164410000Y-91490000D01*
X163950000Y-84830000D02*
X166080000Y-86960000D01*
X158240000Y-84830000D02*
X163950000Y-84830000D01*
X164140000Y-98350000D02*
X164140000Y-98060000D01*
X159950000Y-102540000D02*
X164140000Y-98350000D01*
X157710000Y-102540000D02*
X159950000Y-102540000D01*
X153090000Y-103930000D02*
X152040000Y-103930000D01*
X155780000Y-101240000D02*
X153090000Y-103930000D01*
X157710000Y-101240000D02*
X155780000Y-101240000D01*
X157710000Y-103840000D02*
X155820000Y-103840000D01*
X158014997Y-98205003D02*
X160170000Y-96050000D01*
X150790157Y-99130000D02*
X151715154Y-98205003D01*
X132760000Y-99130000D02*
X150790157Y-99130000D01*
X151715154Y-98205003D02*
X158014997Y-98205003D01*
X128068119Y-103821881D02*
X132760000Y-99130000D01*
X125443324Y-103821881D02*
X128068119Y-103821881D01*
D19*
X166890000Y-108830000D02*
X156560000Y-108830000D01*
X156560000Y-107912149D01*
X160561490Y-107912149D01*
X160790999Y-108207063D01*
X161196966Y-108434779D01*
X161639556Y-108578919D01*
X162101763Y-108633944D01*
X162565823Y-108597740D01*
X163013903Y-108471698D01*
X163428785Y-108260662D01*
X163509001Y-108207063D01*
X163738510Y-107912149D01*
X162150000Y-106323640D01*
X160561490Y-107912149D01*
X156560000Y-107912149D01*
X156560000Y-106211763D01*
X159776056Y-106211763D01*
X159812260Y-106675823D01*
X159938302Y-107123903D01*
X160149338Y-107538785D01*
X160202937Y-107619001D01*
X160497851Y-107848510D01*
X162086360Y-106260000D01*
X162213640Y-106260000D01*
X163802149Y-107848510D01*
X164097063Y-107619001D01*
X164324779Y-107213034D01*
X164468919Y-106770444D01*
X164523944Y-106308237D01*
X164487740Y-105844177D01*
X164361698Y-105396097D01*
X164150662Y-104981215D01*
X164097063Y-104900999D01*
X163802149Y-104671490D01*
X162213640Y-106260000D01*
X162086360Y-106260000D01*
X160497851Y-104671490D01*
X160202937Y-104900999D01*
X159975221Y-105306966D01*
X159831081Y-105749556D01*
X159776056Y-106211763D01*
X156560000Y-106211763D01*
X156560000Y-105384244D01*
X156561403Y-105370000D01*
X156555804Y-105313150D01*
X156539221Y-105258485D01*
X156512293Y-105208105D01*
X156476053Y-105163947D01*
X156431895Y-105127707D01*
X156381515Y-105100779D01*
X156326850Y-105084196D01*
X156284245Y-105080000D01*
X156270000Y-105078597D01*
X156255755Y-105080000D01*
X153284485Y-105080000D01*
X153284485Y-104607851D01*
X160561490Y-104607851D01*
X162150000Y-106196360D01*
X163738510Y-104607851D01*
X163509001Y-104312937D01*
X163103034Y-104085221D01*
X162660444Y-103941081D01*
X162198237Y-103886056D01*
X161734177Y-103922260D01*
X161286097Y-104048302D01*
X160871215Y-104259338D01*
X160790999Y-104312937D01*
X160561490Y-104607851D01*
X153284485Y-104607851D01*
X153284485Y-104315647D01*
X153371069Y-104218065D01*
X153372324Y-104216639D01*
X153456592Y-104120140D01*
X153541806Y-104022839D01*
X153634113Y-103919537D01*
X153740195Y-103804421D01*
X153866611Y-103671859D01*
X154020466Y-103515721D01*
X155931188Y-101605000D01*
X156718839Y-101605000D01*
X156718839Y-101790000D01*
X156723473Y-101837048D01*
X156737196Y-101882288D01*
X156754681Y-101915000D01*
X156737196Y-101947712D01*
X156723473Y-101992952D01*
X156718839Y-102040000D01*
X156718839Y-103040000D01*
X156723473Y-103087048D01*
X156737196Y-103132288D01*
X156754681Y-103165000D01*
X156737196Y-103197712D01*
X156723473Y-103242952D01*
X156718839Y-103290000D01*
X156718839Y-103475000D01*
X156513791Y-103475000D01*
X156448374Y-103472926D01*
X156402598Y-103467938D01*
X156369423Y-103461147D01*
X156343467Y-103452974D01*
X156318488Y-103442301D01*
X156289045Y-103426926D01*
X156251579Y-103405196D01*
X156206560Y-103378537D01*
X156202359Y-103376106D01*
X156150637Y-103346874D01*
X156142205Y-103342328D01*
X156120361Y-103331108D01*
X156099470Y-103317149D01*
X155992097Y-103272673D01*
X155878110Y-103250000D01*
X155761890Y-103250000D01*
X155647903Y-103272673D01*
X155540530Y-103317149D01*
X155443897Y-103381717D01*
X155361717Y-103463897D01*
X155297149Y-103560530D01*
X155252673Y-103667903D01*
X155230000Y-103781890D01*
X155230000Y-103898110D01*
X155252673Y-104012097D01*
X155297149Y-104119470D01*
X155361717Y-104216103D01*
X155443897Y-104298283D01*
X155540530Y-104362851D01*
X155647903Y-104407327D01*
X155761890Y-104430000D01*
X155878110Y-104430000D01*
X155992097Y-104407327D01*
X156099470Y-104362851D01*
X156120368Y-104348887D01*
X156142208Y-104337669D01*
X156150637Y-104333125D01*
X156202359Y-104303893D01*
X156206560Y-104301462D01*
X156251579Y-104274803D01*
X156289045Y-104253073D01*
X156318488Y-104237698D01*
X156343467Y-104227025D01*
X156369423Y-104218852D01*
X156402598Y-104212061D01*
X156448361Y-104207075D01*
X156513819Y-104205000D01*
X156816020Y-104205000D01*
X156818521Y-104209680D01*
X156872977Y-104291179D01*
X156902968Y-104327724D01*
X156972276Y-104397032D01*
X157008821Y-104427023D01*
X157090320Y-104481479D01*
X157132015Y-104503765D01*
X157222571Y-104541274D01*
X157267810Y-104554997D01*
X157363943Y-104574119D01*
X157410991Y-104578753D01*
X157435552Y-104578753D01*
X157460000Y-104581161D01*
X157960000Y-104581161D01*
X157984448Y-104578753D01*
X158009009Y-104578753D01*
X158056057Y-104574119D01*
X158152190Y-104554997D01*
X158197429Y-104541274D01*
X158287985Y-104503765D01*
X158329680Y-104481479D01*
X158411179Y-104427023D01*
X158447724Y-104397032D01*
X158517032Y-104327724D01*
X158547023Y-104291179D01*
X158601479Y-104209680D01*
X158623765Y-104167985D01*
X158661274Y-104077429D01*
X158674997Y-104032190D01*
X158694119Y-103936057D01*
X158698753Y-103889009D01*
X158698753Y-103864448D01*
X158701161Y-103840000D01*
X158701161Y-103290000D01*
X158696527Y-103242952D01*
X158682804Y-103197712D01*
X158665319Y-103165000D01*
X158682804Y-103132288D01*
X158696527Y-103087048D01*
X158701161Y-103040000D01*
X158701161Y-102905164D01*
X158705046Y-102905000D01*
X159932071Y-102905000D01*
X159950000Y-102906766D01*
X159967929Y-102905000D01*
X159967931Y-102905000D01*
X160021552Y-102899719D01*
X160090355Y-102878848D01*
X160153764Y-102844955D01*
X160209343Y-102799343D01*
X160220779Y-102785408D01*
X163198695Y-99807493D01*
X163331562Y-99687676D01*
X163441309Y-99611124D01*
X163537590Y-99563112D01*
X163629862Y-99533202D01*
X163729009Y-99514107D01*
X163843266Y-99500767D01*
X163972773Y-99487876D01*
X163980963Y-99486918D01*
X164122613Y-99467884D01*
X164139653Y-99464966D01*
X164295121Y-99432540D01*
X164316756Y-99426965D01*
X164387903Y-99405054D01*
X164447941Y-99393112D01*
X164646309Y-99310945D01*
X164824834Y-99191658D01*
X164976658Y-99039834D01*
X165095945Y-98861309D01*
X165178112Y-98662941D01*
X165220000Y-98452356D01*
X165220000Y-98237644D01*
X165178112Y-98027059D01*
X165095945Y-97828691D01*
X164976658Y-97650166D01*
X164824834Y-97498342D01*
X164646309Y-97379055D01*
X164447941Y-97296888D01*
X164237356Y-97255000D01*
X164022644Y-97255000D01*
X163812059Y-97296888D01*
X163613691Y-97379055D01*
X163435166Y-97498342D01*
X163283342Y-97650166D01*
X163164055Y-97828691D01*
X163081888Y-98027059D01*
X163066711Y-98103357D01*
X163043958Y-98184389D01*
X163038991Y-98205805D01*
X163010375Y-98361201D01*
X163007923Y-98377724D01*
X162991941Y-98519192D01*
X162991214Y-98526674D01*
X162980734Y-98655500D01*
X162969226Y-98768466D01*
X162951541Y-98866154D01*
X162922905Y-98956834D01*
X162876172Y-99051569D01*
X162800933Y-99159862D01*
X162682473Y-99291339D01*
X159798813Y-102175000D01*
X158705050Y-102175000D01*
X158701161Y-102174836D01*
X158701161Y-102040000D01*
X158696527Y-101992952D01*
X158682804Y-101947712D01*
X158665319Y-101915000D01*
X158682804Y-101882288D01*
X158696527Y-101837048D01*
X158701161Y-101790000D01*
X158701161Y-101240000D01*
X158698753Y-101215552D01*
X158698753Y-101190991D01*
X158694119Y-101143943D01*
X158674997Y-101047810D01*
X158661274Y-101002571D01*
X158623765Y-100912015D01*
X158601479Y-100870320D01*
X158547023Y-100788821D01*
X158517032Y-100752276D01*
X158447724Y-100682968D01*
X158411179Y-100652977D01*
X158329680Y-100598521D01*
X158287985Y-100576235D01*
X158197429Y-100538726D01*
X158152190Y-100525003D01*
X158056057Y-100505881D01*
X158009009Y-100501247D01*
X157984448Y-100501247D01*
X157960000Y-100498839D01*
X157460000Y-100498839D01*
X157435552Y-100501247D01*
X157410991Y-100501247D01*
X157363943Y-100505881D01*
X157267810Y-100525003D01*
X157222571Y-100538726D01*
X157132015Y-100576235D01*
X157090320Y-100598521D01*
X157008821Y-100652977D01*
X156972276Y-100682968D01*
X156902968Y-100752276D01*
X156872977Y-100788821D01*
X156818521Y-100870320D01*
X156816020Y-100875000D01*
X155797928Y-100875000D01*
X155779999Y-100873234D01*
X155762070Y-100875000D01*
X155762069Y-100875000D01*
X155708448Y-100880281D01*
X155639645Y-100901152D01*
X155639643Y-100901153D01*
X155576234Y-100935046D01*
X155570237Y-100939968D01*
X155520657Y-100980657D01*
X155509225Y-100994587D01*
X153510753Y-102993060D01*
X153422499Y-103067665D01*
X153362342Y-103099815D01*
X153318013Y-103110231D01*
X153284485Y-103108916D01*
X153284485Y-102321881D01*
X153279851Y-102274833D01*
X153266128Y-102229593D01*
X153243842Y-102187899D01*
X153213851Y-102151354D01*
X153177306Y-102121363D01*
X153135612Y-102099077D01*
X153090372Y-102085354D01*
X153043324Y-102080720D01*
X151043324Y-102080720D01*
X150996276Y-102085354D01*
X150951036Y-102099077D01*
X150909342Y-102121363D01*
X150872797Y-102151354D01*
X150842806Y-102187899D01*
X150820520Y-102229593D01*
X150806797Y-102274833D01*
X150802163Y-102321881D01*
X150802163Y-105080000D01*
X149574640Y-105080000D01*
X149573324Y-103949381D01*
X149490824Y-103866881D01*
X148288324Y-103866881D01*
X148288324Y-103886881D01*
X148198324Y-103886881D01*
X148198324Y-103866881D01*
X146995824Y-103866881D01*
X146913324Y-103949381D01*
X146912008Y-105080000D01*
X145684485Y-105080000D01*
X145684485Y-103970058D01*
X145688555Y-103950642D01*
X145718567Y-103764503D01*
X145720675Y-103747657D01*
X145735805Y-103578309D01*
X145736360Y-103570754D01*
X145745256Y-103416310D01*
X145756048Y-103279458D01*
X145775298Y-103159093D01*
X145808934Y-103046177D01*
X145865339Y-102928616D01*
X145956510Y-102795808D01*
X146098967Y-102637221D01*
X146414307Y-102321881D01*
X146911727Y-102321881D01*
X146913324Y-103694381D01*
X146995824Y-103776881D01*
X148198324Y-103776881D01*
X148198324Y-102074381D01*
X148288324Y-102074381D01*
X148288324Y-103776881D01*
X149490824Y-103776881D01*
X149573324Y-103694381D01*
X149574921Y-102321881D01*
X149568549Y-102257190D01*
X149549680Y-102194984D01*
X149519037Y-102137656D01*
X149477798Y-102087407D01*
X149427549Y-102046168D01*
X149370221Y-102015525D01*
X149308015Y-101996656D01*
X149243324Y-101990284D01*
X148370824Y-101991881D01*
X148288324Y-102074381D01*
X148198324Y-102074381D01*
X148115824Y-101991881D01*
X147243324Y-101990284D01*
X147178633Y-101996656D01*
X147116427Y-102015525D01*
X147059099Y-102046168D01*
X147008850Y-102087407D01*
X146967611Y-102137656D01*
X146936968Y-102194984D01*
X146918099Y-102257190D01*
X146911727Y-102321881D01*
X146414307Y-102321881D01*
X147051188Y-101685000D01*
X152882069Y-101685000D01*
X152899998Y-101686766D01*
X152917927Y-101685000D01*
X152917929Y-101685000D01*
X152971550Y-101679719D01*
X153040353Y-101658848D01*
X153103762Y-101624955D01*
X153159341Y-101579343D01*
X153170777Y-101565408D01*
X153827503Y-100908682D01*
X153875234Y-100863884D01*
X153911128Y-100835044D01*
X153939383Y-100816391D01*
X153963522Y-100803813D01*
X153988738Y-100793695D01*
X154020414Y-100783752D01*
X154062234Y-100772634D01*
X154112956Y-100759643D01*
X154117651Y-100758390D01*
X154174894Y-100742487D01*
X154184066Y-100739740D01*
X154207431Y-100732233D01*
X154232095Y-100727327D01*
X154339468Y-100682851D01*
X154436101Y-100618283D01*
X154518281Y-100536103D01*
X154582849Y-100439470D01*
X154627325Y-100332097D01*
X154649998Y-100218110D01*
X154649998Y-100101890D01*
X154627325Y-99987903D01*
X154582849Y-99880530D01*
X154518281Y-99783897D01*
X154436101Y-99701717D01*
X154339468Y-99637149D01*
X154232095Y-99592673D01*
X154118108Y-99570000D01*
X154001888Y-99570000D01*
X153887901Y-99592673D01*
X153780528Y-99637149D01*
X153683895Y-99701717D01*
X153601715Y-99783897D01*
X153537147Y-99880530D01*
X153492671Y-99987903D01*
X153487767Y-100012556D01*
X153480258Y-100035926D01*
X153477510Y-100045103D01*
X153461607Y-100102346D01*
X153460354Y-100107041D01*
X153447363Y-100157763D01*
X153436245Y-100199583D01*
X153426302Y-100231259D01*
X153416184Y-100256475D01*
X153403606Y-100280614D01*
X153384953Y-100308869D01*
X153356112Y-100344763D01*
X153311310Y-100392500D01*
X152748811Y-100955000D01*
X146917929Y-100955000D01*
X146900000Y-100953234D01*
X146882071Y-100955000D01*
X146882069Y-100955000D01*
X146828448Y-100960281D01*
X146780515Y-100974821D01*
X146759644Y-100981152D01*
X146742564Y-100990282D01*
X146696236Y-101015045D01*
X146640657Y-101060657D01*
X146629226Y-101074586D01*
X145582683Y-102121130D01*
X145579983Y-102123560D01*
X145577306Y-102121363D01*
X145535612Y-102099077D01*
X145490372Y-102085354D01*
X145443324Y-102080720D01*
X143443324Y-102080720D01*
X143396276Y-102085354D01*
X143351036Y-102099077D01*
X143309342Y-102121363D01*
X143272797Y-102151354D01*
X143242806Y-102187899D01*
X143220520Y-102229593D01*
X143206797Y-102274833D01*
X143202163Y-102321881D01*
X143202163Y-105080000D01*
X126684485Y-105080000D01*
X126684485Y-104442390D01*
X126736668Y-104399018D01*
X126837153Y-104327569D01*
X126942286Y-104271341D01*
X127066543Y-104227922D01*
X127225932Y-104198349D01*
X127439763Y-104186881D01*
X128050190Y-104186881D01*
X128068119Y-104188647D01*
X128086048Y-104186881D01*
X128086050Y-104186881D01*
X128139671Y-104181600D01*
X128208474Y-104160729D01*
X128271883Y-104126836D01*
X128327462Y-104081224D01*
X128338898Y-104067289D01*
X131504297Y-100901890D01*
X132220000Y-100901890D01*
X132220000Y-101018110D01*
X132242673Y-101132097D01*
X132287149Y-101239470D01*
X132351717Y-101336103D01*
X132433897Y-101418283D01*
X132530530Y-101482851D01*
X132637903Y-101527327D01*
X132751890Y-101550000D01*
X132868110Y-101550000D01*
X132982097Y-101527327D01*
X133089470Y-101482851D01*
X133186103Y-101418283D01*
X133268283Y-101336103D01*
X133332851Y-101239470D01*
X133377327Y-101132097D01*
X133382233Y-101107433D01*
X133389740Y-101084068D01*
X133392487Y-101074896D01*
X133408390Y-101017653D01*
X133409643Y-101012958D01*
X133422634Y-100962236D01*
X133433752Y-100920416D01*
X133443695Y-100888740D01*
X133453813Y-100863524D01*
X133466391Y-100839385D01*
X133485044Y-100811130D01*
X133513884Y-100775236D01*
X133558680Y-100727507D01*
X133661188Y-100625000D01*
X151642071Y-100625000D01*
X151660000Y-100626766D01*
X151677929Y-100625000D01*
X151677931Y-100625000D01*
X151731552Y-100619719D01*
X151800355Y-100598848D01*
X151863764Y-100564955D01*
X151919343Y-100519343D01*
X151930779Y-100505408D01*
X153061188Y-99375000D01*
X158368813Y-99375000D01*
X159041332Y-100047519D01*
X159086109Y-100095229D01*
X159114955Y-100131130D01*
X159133608Y-100159385D01*
X159146186Y-100183524D01*
X159156304Y-100208740D01*
X159166247Y-100240416D01*
X159177365Y-100282236D01*
X159190356Y-100332958D01*
X159191609Y-100337653D01*
X159207512Y-100394896D01*
X159210260Y-100404072D01*
X159217769Y-100427440D01*
X159222673Y-100452097D01*
X159267149Y-100559470D01*
X159331717Y-100656103D01*
X159413897Y-100738283D01*
X159510530Y-100802851D01*
X159617903Y-100847327D01*
X159731890Y-100870000D01*
X159848110Y-100870000D01*
X159962097Y-100847327D01*
X160069470Y-100802851D01*
X160166103Y-100738283D01*
X160248283Y-100656103D01*
X160312851Y-100559470D01*
X160357327Y-100452097D01*
X160380000Y-100338110D01*
X160380000Y-100221890D01*
X160357327Y-100107903D01*
X160312851Y-100000530D01*
X160248283Y-99903897D01*
X160166103Y-99821717D01*
X160069470Y-99757149D01*
X159962097Y-99712673D01*
X159937440Y-99707769D01*
X159914072Y-99700260D01*
X159904896Y-99697512D01*
X159847653Y-99681609D01*
X159842958Y-99680356D01*
X159792236Y-99667365D01*
X159750416Y-99656247D01*
X159718740Y-99646304D01*
X159693524Y-99636186D01*
X159669385Y-99623608D01*
X159641130Y-99604955D01*
X159605229Y-99576109D01*
X159557519Y-99531332D01*
X159182445Y-99156258D01*
X159422382Y-99156258D01*
X159509965Y-99330019D01*
X159714814Y-99439859D01*
X159937157Y-99507624D01*
X160168447Y-99530709D01*
X160399797Y-99508229D01*
X160622316Y-99441047D01*
X160827453Y-99331744D01*
X160830035Y-99330019D01*
X160917618Y-99156258D01*
X160170000Y-98408640D01*
X159422382Y-99156258D01*
X159182445Y-99156258D01*
X158790779Y-98764592D01*
X158779343Y-98750657D01*
X158723764Y-98705045D01*
X158660355Y-98671152D01*
X158591552Y-98650281D01*
X158537931Y-98645000D01*
X158537929Y-98645000D01*
X158520000Y-98643234D01*
X158502071Y-98645000D01*
X152927929Y-98645000D01*
X152910000Y-98643234D01*
X152892071Y-98645000D01*
X152892069Y-98645000D01*
X152838448Y-98650281D01*
X152769645Y-98671152D01*
X152706236Y-98705045D01*
X152650657Y-98750657D01*
X152639225Y-98764587D01*
X151508813Y-99895000D01*
X133527928Y-99895000D01*
X133509999Y-99893234D01*
X133492070Y-99895000D01*
X133492069Y-99895000D01*
X133438448Y-99900281D01*
X133369645Y-99921152D01*
X133369643Y-99921153D01*
X133306234Y-99955046D01*
X133282125Y-99974833D01*
X133250657Y-100000657D01*
X133239226Y-100014586D01*
X133042498Y-100211314D01*
X132994763Y-100256114D01*
X132958869Y-100284955D01*
X132930614Y-100303608D01*
X132906475Y-100316186D01*
X132881259Y-100326304D01*
X132849583Y-100336247D01*
X132807763Y-100347365D01*
X132757041Y-100360356D01*
X132752346Y-100361609D01*
X132695103Y-100377512D01*
X132685926Y-100380260D01*
X132662556Y-100387769D01*
X132637903Y-100392673D01*
X132530530Y-100437149D01*
X132433897Y-100501717D01*
X132351717Y-100583897D01*
X132287149Y-100680530D01*
X132242673Y-100787903D01*
X132220000Y-100901890D01*
X131504297Y-100901890D01*
X132911188Y-99495000D01*
X150772228Y-99495000D01*
X150790157Y-99496766D01*
X150808086Y-99495000D01*
X150808088Y-99495000D01*
X150861709Y-99489719D01*
X150930512Y-99468848D01*
X150993921Y-99434955D01*
X151049500Y-99389343D01*
X151060936Y-99375408D01*
X151866342Y-98570003D01*
X157997068Y-98570003D01*
X158014997Y-98571769D01*
X158032926Y-98570003D01*
X158032928Y-98570003D01*
X158086549Y-98564722D01*
X158155352Y-98543851D01*
X158218761Y-98509958D01*
X158274340Y-98464346D01*
X158285776Y-98450411D01*
X158392740Y-98343447D01*
X158984291Y-98343447D01*
X159006771Y-98574797D01*
X159073953Y-98797316D01*
X159183256Y-99002453D01*
X159184981Y-99005035D01*
X159358742Y-99092618D01*
X160106360Y-98345000D01*
X160233640Y-98345000D01*
X160981258Y-99092618D01*
X161155019Y-99005035D01*
X161264859Y-98800186D01*
X161332624Y-98577843D01*
X161355709Y-98346553D01*
X161333229Y-98115203D01*
X161301847Y-98011258D01*
X161402382Y-98011258D01*
X161489965Y-98185019D01*
X161694814Y-98294859D01*
X161917157Y-98362624D01*
X162148447Y-98385709D01*
X162379797Y-98363229D01*
X162602316Y-98296047D01*
X162807453Y-98186744D01*
X162810035Y-98185019D01*
X162897618Y-98011258D01*
X162150000Y-97263640D01*
X161402382Y-98011258D01*
X161301847Y-98011258D01*
X161272561Y-97914260D01*
X161338742Y-97947618D01*
X162086360Y-97200000D01*
X162213640Y-97200000D01*
X162961258Y-97947618D01*
X163135019Y-97860035D01*
X163244859Y-97655186D01*
X163312624Y-97432843D01*
X163335709Y-97201553D01*
X163313229Y-96970203D01*
X163246047Y-96747684D01*
X163136744Y-96542547D01*
X163135019Y-96539965D01*
X162961258Y-96452382D01*
X162213640Y-97200000D01*
X162086360Y-97200000D01*
X161338742Y-96452382D01*
X161164981Y-96539965D01*
X161055141Y-96744814D01*
X160987376Y-96967157D01*
X160964291Y-97198447D01*
X160986771Y-97429797D01*
X161047439Y-97630740D01*
X160981258Y-97597382D01*
X160233640Y-98345000D01*
X160106360Y-98345000D01*
X159358742Y-97597382D01*
X159184981Y-97684965D01*
X159075141Y-97889814D01*
X159007376Y-98112157D01*
X158984291Y-98343447D01*
X158392740Y-98343447D01*
X159228668Y-97507520D01*
X159360611Y-97388604D01*
X159469377Y-97312939D01*
X159564627Y-97265783D01*
X159655837Y-97236729D01*
X159754007Y-97218583D01*
X159853450Y-97207963D01*
X159717684Y-97248953D01*
X159512547Y-97358256D01*
X159509965Y-97359981D01*
X159422382Y-97533742D01*
X160170000Y-98281360D01*
X160917618Y-97533742D01*
X160830035Y-97359981D01*
X160625186Y-97250141D01*
X160402843Y-97182376D01*
X160218640Y-97163991D01*
X160317843Y-97144919D01*
X160339334Y-97139751D01*
X160417233Y-97117177D01*
X160487941Y-97103112D01*
X160686309Y-97020945D01*
X160864834Y-96901658D01*
X161016658Y-96749834D01*
X161135945Y-96571309D01*
X161211566Y-96388742D01*
X161402382Y-96388742D01*
X162150000Y-97136360D01*
X162897618Y-96388742D01*
X162810035Y-96214981D01*
X162605186Y-96105141D01*
X162382843Y-96037376D01*
X162151553Y-96014291D01*
X161920203Y-96036771D01*
X161697684Y-96103953D01*
X161492547Y-96213256D01*
X161489965Y-96214981D01*
X161402382Y-96388742D01*
X161211566Y-96388742D01*
X161218112Y-96372941D01*
X161260000Y-96162356D01*
X161260000Y-95947644D01*
X161218112Y-95737059D01*
X161135945Y-95538691D01*
X161016658Y-95360166D01*
X160864834Y-95208342D01*
X160686309Y-95089055D01*
X160487941Y-95006888D01*
X160277356Y-94965000D01*
X160062644Y-94965000D01*
X159852059Y-95006888D01*
X159653691Y-95089055D01*
X159475166Y-95208342D01*
X159323342Y-95360166D01*
X159204055Y-95538691D01*
X159121888Y-95737059D01*
X159108902Y-95802346D01*
X159086607Y-95876945D01*
X159081235Y-95898513D01*
X159050085Y-96053965D01*
X159047325Y-96070837D01*
X159029315Y-96212432D01*
X159028438Y-96220388D01*
X159016359Y-96349666D01*
X159003639Y-96463495D01*
X158985021Y-96562158D01*
X158955544Y-96653894D01*
X158907963Y-96749659D01*
X158831849Y-96858924D01*
X158712504Y-96991308D01*
X157863810Y-97840003D01*
X151733082Y-97840003D01*
X151715153Y-97838237D01*
X151697224Y-97840003D01*
X151697223Y-97840003D01*
X151643602Y-97845284D01*
X151574799Y-97866155D01*
X151525167Y-97892684D01*
X151511388Y-97900049D01*
X151487511Y-97919645D01*
X151455811Y-97945660D01*
X151444380Y-97959589D01*
X150638970Y-98765000D01*
X132777929Y-98765000D01*
X132760000Y-98763234D01*
X132742071Y-98765000D01*
X132742069Y-98765000D01*
X132688448Y-98770281D01*
X132619645Y-98791152D01*
X132556236Y-98825045D01*
X132500657Y-98870657D01*
X132489226Y-98884586D01*
X127916932Y-103456881D01*
X127439764Y-103456881D01*
X127225932Y-103445412D01*
X127066543Y-103415839D01*
X126942286Y-103372420D01*
X126837153Y-103316192D01*
X126736668Y-103244743D01*
X126684485Y-103201371D01*
X126684485Y-102321881D01*
X126679851Y-102274833D01*
X126666128Y-102229593D01*
X126643842Y-102187899D01*
X126613851Y-102151354D01*
X126577306Y-102121363D01*
X126535612Y-102099077D01*
X126490372Y-102085354D01*
X126443324Y-102080720D01*
X124443324Y-102080720D01*
X124396276Y-102085354D01*
X124351036Y-102099077D01*
X124309342Y-102121363D01*
X124272797Y-102151354D01*
X124242806Y-102187899D01*
X124220520Y-102229593D01*
X124206797Y-102274833D01*
X124202163Y-102321881D01*
X124202163Y-105080000D01*
X122974640Y-105080000D01*
X122973324Y-103949381D01*
X122890824Y-103866881D01*
X121688324Y-103866881D01*
X121688324Y-103886881D01*
X121598324Y-103886881D01*
X121598324Y-103866881D01*
X120395824Y-103866881D01*
X120313324Y-103949381D01*
X120312008Y-105080000D01*
X119084485Y-105080000D01*
X119084485Y-102321881D01*
X120311727Y-102321881D01*
X120313324Y-103694381D01*
X120395824Y-103776881D01*
X121598324Y-103776881D01*
X121598324Y-102074381D01*
X121688324Y-102074381D01*
X121688324Y-103776881D01*
X122890824Y-103776881D01*
X122973324Y-103694381D01*
X122974921Y-102321881D01*
X122968549Y-102257190D01*
X122949680Y-102194984D01*
X122919037Y-102137656D01*
X122877798Y-102087407D01*
X122827549Y-102046168D01*
X122770221Y-102015525D01*
X122708015Y-101996656D01*
X122643324Y-101990284D01*
X121770824Y-101991881D01*
X121688324Y-102074381D01*
X121598324Y-102074381D01*
X121515824Y-101991881D01*
X120643324Y-101990284D01*
X120578633Y-101996656D01*
X120516427Y-102015525D01*
X120459099Y-102046168D01*
X120408850Y-102087407D01*
X120367611Y-102137656D01*
X120336968Y-102194984D01*
X120318099Y-102257190D01*
X120311727Y-102321881D01*
X119084485Y-102321881D01*
X119079851Y-102274833D01*
X119066128Y-102229593D01*
X119043842Y-102187899D01*
X119013851Y-102151354D01*
X118977306Y-102121363D01*
X118935612Y-102099077D01*
X118890372Y-102085354D01*
X118843324Y-102080720D01*
X118535467Y-102080720D01*
X119901188Y-100715000D01*
X120809649Y-100715000D01*
X120825003Y-100792190D01*
X120838726Y-100837429D01*
X120876235Y-100927985D01*
X120898521Y-100969680D01*
X120952977Y-101051179D01*
X120982968Y-101087724D01*
X121052276Y-101157032D01*
X121088821Y-101187023D01*
X121170320Y-101241479D01*
X121212015Y-101263765D01*
X121302571Y-101301274D01*
X121347810Y-101314997D01*
X121443943Y-101334119D01*
X121490991Y-101338753D01*
X121515552Y-101338753D01*
X121540000Y-101341161D01*
X122090000Y-101341161D01*
X122137048Y-101336527D01*
X122182288Y-101322804D01*
X122215000Y-101305319D01*
X122247712Y-101322804D01*
X122292952Y-101336527D01*
X122340000Y-101341161D01*
X122474105Y-101341161D01*
X122473234Y-101350000D01*
X122479109Y-101409644D01*
X122480282Y-101421552D01*
X122501153Y-101490355D01*
X122535046Y-101553764D01*
X122580658Y-101609343D01*
X122594588Y-101620775D01*
X122769221Y-101795408D01*
X122780657Y-101809343D01*
X122836236Y-101854955D01*
X122899645Y-101888848D01*
X122968448Y-101909719D01*
X123022069Y-101915000D01*
X123022071Y-101915000D01*
X123040000Y-101916766D01*
X123057929Y-101915000D01*
X128392071Y-101915000D01*
X128410000Y-101916766D01*
X128427929Y-101915000D01*
X128427931Y-101915000D01*
X128481552Y-101909719D01*
X128550355Y-101888848D01*
X128613764Y-101854955D01*
X128669343Y-101809343D01*
X128680779Y-101795408D01*
X128767499Y-101708688D01*
X128815236Y-101663884D01*
X128851130Y-101635044D01*
X128879385Y-101616391D01*
X128903524Y-101603813D01*
X128928740Y-101593695D01*
X128960416Y-101583752D01*
X129002236Y-101572634D01*
X129052958Y-101559643D01*
X129057653Y-101558390D01*
X129114896Y-101542487D01*
X129124068Y-101539740D01*
X129147433Y-101532233D01*
X129172097Y-101527327D01*
X129279470Y-101482851D01*
X129376103Y-101418283D01*
X129458283Y-101336103D01*
X129522851Y-101239470D01*
X129567327Y-101132097D01*
X129590000Y-101018110D01*
X129590000Y-100901890D01*
X129567327Y-100787903D01*
X129522851Y-100680530D01*
X129458283Y-100583897D01*
X129376103Y-100501717D01*
X129279470Y-100437149D01*
X129172097Y-100392673D01*
X129058110Y-100370000D01*
X128941890Y-100370000D01*
X128827903Y-100392673D01*
X128720530Y-100437149D01*
X128623897Y-100501717D01*
X128541717Y-100583897D01*
X128477149Y-100680530D01*
X128432673Y-100787903D01*
X128427769Y-100812556D01*
X128420260Y-100835926D01*
X128417512Y-100845103D01*
X128401609Y-100902346D01*
X128400356Y-100907041D01*
X128387365Y-100957763D01*
X128376247Y-100999583D01*
X128366304Y-101031259D01*
X128356186Y-101056475D01*
X128343608Y-101080614D01*
X128324955Y-101108869D01*
X128296114Y-101144763D01*
X128258351Y-101185000D01*
X124593644Y-101185000D01*
X124627724Y-101157032D01*
X124697032Y-101087724D01*
X124727023Y-101051179D01*
X124781479Y-100969680D01*
X124803765Y-100927985D01*
X124841274Y-100837429D01*
X124854997Y-100792190D01*
X124869762Y-100717960D01*
X124907401Y-100722061D01*
X124940576Y-100728852D01*
X124966532Y-100737025D01*
X124991511Y-100747698D01*
X125020954Y-100763073D01*
X125058420Y-100784803D01*
X125103439Y-100811462D01*
X125107640Y-100813893D01*
X125159362Y-100843125D01*
X125167792Y-100847670D01*
X125189637Y-100858891D01*
X125210530Y-100872851D01*
X125317903Y-100917327D01*
X125431890Y-100940000D01*
X125548110Y-100940000D01*
X125662097Y-100917327D01*
X125769470Y-100872851D01*
X125866103Y-100808283D01*
X125948283Y-100726103D01*
X126012851Y-100629470D01*
X126057327Y-100522097D01*
X126080000Y-100408110D01*
X126080000Y-100291890D01*
X126057327Y-100177903D01*
X126012851Y-100070530D01*
X125948283Y-99973897D01*
X125866103Y-99891717D01*
X125769470Y-99827149D01*
X125662097Y-99782673D01*
X125548110Y-99760000D01*
X125431890Y-99760000D01*
X125317903Y-99782673D01*
X125210530Y-99827149D01*
X125189637Y-99841109D01*
X125167795Y-99852328D01*
X125159362Y-99856874D01*
X125107640Y-99886106D01*
X125103439Y-99888537D01*
X125058420Y-99915196D01*
X125020954Y-99936926D01*
X124991511Y-99952301D01*
X124966532Y-99962974D01*
X124940576Y-99971147D01*
X124907401Y-99977938D01*
X124869762Y-99982039D01*
X124854997Y-99907810D01*
X124841274Y-99862571D01*
X124803765Y-99772015D01*
X124781479Y-99730320D01*
X124727023Y-99648821D01*
X124697032Y-99612276D01*
X124627724Y-99542968D01*
X124591179Y-99512977D01*
X124509680Y-99458521D01*
X124467985Y-99436235D01*
X124377429Y-99398726D01*
X124332190Y-99385003D01*
X124236057Y-99365881D01*
X124189009Y-99361247D01*
X124164448Y-99361247D01*
X124140000Y-99358839D01*
X123590000Y-99358839D01*
X123542952Y-99363473D01*
X123497712Y-99377196D01*
X123465000Y-99394681D01*
X123432288Y-99377196D01*
X123387048Y-99363473D01*
X123340000Y-99358839D01*
X122340000Y-99358839D01*
X122292952Y-99363473D01*
X122247712Y-99377196D01*
X122215000Y-99394681D01*
X122182288Y-99377196D01*
X122137048Y-99363473D01*
X122090000Y-99358839D01*
X121540000Y-99358839D01*
X121515552Y-99361247D01*
X121490991Y-99361247D01*
X121443943Y-99365881D01*
X121347810Y-99385003D01*
X121302571Y-99398726D01*
X121212015Y-99436235D01*
X121170320Y-99458521D01*
X121088821Y-99512977D01*
X121052276Y-99542968D01*
X120982968Y-99612276D01*
X120952977Y-99648821D01*
X120898521Y-99730320D01*
X120876235Y-99772015D01*
X120838726Y-99862571D01*
X120825003Y-99907810D01*
X120809649Y-99985000D01*
X119767929Y-99985000D01*
X119750000Y-99983234D01*
X119732071Y-99985000D01*
X119732069Y-99985000D01*
X119678448Y-99990281D01*
X119609645Y-100011152D01*
X119546236Y-100045045D01*
X119490657Y-100090657D01*
X119479225Y-100104587D01*
X117594588Y-101989225D01*
X117580657Y-102000658D01*
X117535045Y-102056237D01*
X117521958Y-102080720D01*
X116909401Y-102080720D01*
X120430121Y-98560000D01*
X150105762Y-98560000D01*
X150120000Y-98561402D01*
X150134238Y-98560000D01*
X150134245Y-98560000D01*
X150176850Y-98555804D01*
X150231515Y-98539221D01*
X150281895Y-98512293D01*
X150326053Y-98476053D01*
X150335138Y-98464983D01*
X155214988Y-93585134D01*
X155226053Y-93576053D01*
X155262293Y-93531895D01*
X155289221Y-93481515D01*
X155305804Y-93426850D01*
X155310000Y-93384245D01*
X155310000Y-93384236D01*
X155311402Y-93370001D01*
X155310000Y-93355766D01*
X155310000Y-84300000D01*
X155783234Y-84300000D01*
X155785000Y-84317929D01*
X155785001Y-96562061D01*
X155783234Y-96580000D01*
X155790282Y-96651552D01*
X155811153Y-96720355D01*
X155845046Y-96783764D01*
X155890658Y-96839343D01*
X155904588Y-96850775D01*
X155912865Y-96859052D01*
X155924963Y-96884142D01*
X155932553Y-96905176D01*
X155937327Y-96927612D01*
X155940000Y-96967929D01*
X155940000Y-97018110D01*
X155962673Y-97132097D01*
X156007149Y-97239470D01*
X156071717Y-97336103D01*
X156153897Y-97418283D01*
X156250530Y-97482851D01*
X156357903Y-97527327D01*
X156471890Y-97550000D01*
X156588110Y-97550000D01*
X156702097Y-97527327D01*
X156809470Y-97482851D01*
X156906103Y-97418283D01*
X156988283Y-97336103D01*
X157052851Y-97239470D01*
X157097327Y-97132097D01*
X157120000Y-97018110D01*
X157120000Y-96901890D01*
X157097327Y-96787903D01*
X157052851Y-96680530D01*
X156988283Y-96583897D01*
X156906103Y-96501717D01*
X156809470Y-96437149D01*
X156702097Y-96392673D01*
X156659638Y-96384228D01*
X156658175Y-96383816D01*
X156637270Y-96378933D01*
X156585187Y-96369201D01*
X156574972Y-96367520D01*
X156524433Y-96360316D01*
X156515000Y-96358924D01*
X156515000Y-84451187D01*
X157081188Y-83885000D01*
X157248839Y-83885000D01*
X157248839Y-84080000D01*
X157253473Y-84127048D01*
X157267196Y-84172288D01*
X157284681Y-84205000D01*
X157267196Y-84237712D01*
X157253473Y-84282952D01*
X157248839Y-84330000D01*
X157248839Y-85330000D01*
X157253473Y-85377048D01*
X157267196Y-85422288D01*
X157284681Y-85455000D01*
X157267196Y-85487712D01*
X157253473Y-85532952D01*
X157248839Y-85580000D01*
X157248839Y-86130000D01*
X157251247Y-86154448D01*
X157251247Y-86179009D01*
X157255881Y-86226057D01*
X157275003Y-86322190D01*
X157288726Y-86367429D01*
X157326235Y-86457985D01*
X157348521Y-86499680D01*
X157350769Y-86503044D01*
X157174588Y-86679225D01*
X157160657Y-86690658D01*
X157115045Y-86746237D01*
X157081152Y-86809646D01*
X157060281Y-86878449D01*
X157055000Y-86932069D01*
X157053234Y-86950000D01*
X157055000Y-86967929D01*
X157055001Y-95272061D01*
X157053234Y-95290000D01*
X157058885Y-95347365D01*
X157060282Y-95361552D01*
X157081153Y-95430355D01*
X157115046Y-95493764D01*
X157160658Y-95549343D01*
X157174587Y-95560774D01*
X157341326Y-95727514D01*
X157386109Y-95775229D01*
X157414955Y-95811130D01*
X157433608Y-95839385D01*
X157446186Y-95863524D01*
X157456304Y-95888740D01*
X157466247Y-95920416D01*
X157477365Y-95962236D01*
X157490356Y-96012958D01*
X157491609Y-96017653D01*
X157507512Y-96074896D01*
X157510260Y-96084072D01*
X157517769Y-96107440D01*
X157522673Y-96132097D01*
X157567149Y-96239470D01*
X157631717Y-96336103D01*
X157713897Y-96418283D01*
X157810530Y-96482851D01*
X157917903Y-96527327D01*
X158031890Y-96550000D01*
X158148110Y-96550000D01*
X158262097Y-96527327D01*
X158369470Y-96482851D01*
X158466103Y-96418283D01*
X158548283Y-96336103D01*
X158612851Y-96239470D01*
X158657327Y-96132097D01*
X158680000Y-96018110D01*
X158680000Y-95901890D01*
X158657327Y-95787903D01*
X158612851Y-95680530D01*
X158548283Y-95583897D01*
X158466103Y-95501717D01*
X158369470Y-95437149D01*
X158262097Y-95392673D01*
X158237440Y-95387769D01*
X158214072Y-95380260D01*
X158204896Y-95377512D01*
X158147653Y-95361609D01*
X158142958Y-95360356D01*
X158092236Y-95347365D01*
X158050416Y-95336247D01*
X158018740Y-95326304D01*
X157993524Y-95316186D01*
X157969385Y-95303608D01*
X157941130Y-95284955D01*
X157905229Y-95256109D01*
X157857514Y-95211326D01*
X157785000Y-95138813D01*
X157785000Y-93657644D01*
X159080000Y-93657644D01*
X159080000Y-93872356D01*
X159121888Y-94082941D01*
X159204055Y-94281309D01*
X159323342Y-94459834D01*
X159475166Y-94611658D01*
X159653691Y-94730945D01*
X159852059Y-94813112D01*
X160062644Y-94855000D01*
X160277356Y-94855000D01*
X160487941Y-94813112D01*
X160513212Y-94802644D01*
X161060000Y-94802644D01*
X161060000Y-95017356D01*
X161101888Y-95227941D01*
X161184055Y-95426309D01*
X161303342Y-95604834D01*
X161455166Y-95756658D01*
X161633691Y-95875945D01*
X161832059Y-95958112D01*
X162042644Y-96000000D01*
X162257356Y-96000000D01*
X162467941Y-95958112D01*
X162493212Y-95947644D01*
X163040000Y-95947644D01*
X163040000Y-96162356D01*
X163081888Y-96372941D01*
X163164055Y-96571309D01*
X163283342Y-96749834D01*
X163435166Y-96901658D01*
X163613691Y-97020945D01*
X163812059Y-97103112D01*
X164022644Y-97145000D01*
X164237356Y-97145000D01*
X164447941Y-97103112D01*
X164646309Y-97020945D01*
X164824834Y-96901658D01*
X164976658Y-96749834D01*
X165095945Y-96571309D01*
X165178112Y-96372941D01*
X165220000Y-96162356D01*
X165220000Y-95947644D01*
X165178112Y-95737059D01*
X165095945Y-95538691D01*
X164976658Y-95360166D01*
X164824834Y-95208342D01*
X164646309Y-95089055D01*
X164447941Y-95006888D01*
X164237356Y-94965000D01*
X164022644Y-94965000D01*
X163812059Y-95006888D01*
X163613691Y-95089055D01*
X163435166Y-95208342D01*
X163283342Y-95360166D01*
X163164055Y-95538691D01*
X163081888Y-95737059D01*
X163040000Y-95947644D01*
X162493212Y-95947644D01*
X162666309Y-95875945D01*
X162844834Y-95756658D01*
X162996658Y-95604834D01*
X163115945Y-95426309D01*
X163198112Y-95227941D01*
X163240000Y-95017356D01*
X163240000Y-94802644D01*
X163198112Y-94592059D01*
X163115945Y-94393691D01*
X162996658Y-94215166D01*
X162844834Y-94063342D01*
X162666309Y-93944055D01*
X162467941Y-93861888D01*
X162257356Y-93820000D01*
X162042644Y-93820000D01*
X161832059Y-93861888D01*
X161633691Y-93944055D01*
X161455166Y-94063342D01*
X161303342Y-94215166D01*
X161184055Y-94393691D01*
X161101888Y-94592059D01*
X161060000Y-94802644D01*
X160513212Y-94802644D01*
X160686309Y-94730945D01*
X160864834Y-94611658D01*
X161016658Y-94459834D01*
X161135945Y-94281309D01*
X161218112Y-94082941D01*
X161260000Y-93872356D01*
X161260000Y-93657644D01*
X161218112Y-93447059D01*
X161211567Y-93431258D01*
X161402382Y-93431258D01*
X161489965Y-93605019D01*
X161694814Y-93714859D01*
X161917157Y-93782624D01*
X162148447Y-93805709D01*
X162379797Y-93783229D01*
X162602316Y-93716047D01*
X162711925Y-93657644D01*
X163040000Y-93657644D01*
X163040000Y-93872356D01*
X163081888Y-94082941D01*
X163164055Y-94281309D01*
X163283342Y-94459834D01*
X163435166Y-94611658D01*
X163613691Y-94730945D01*
X163812059Y-94813112D01*
X164022644Y-94855000D01*
X164237356Y-94855000D01*
X164447941Y-94813112D01*
X164646309Y-94730945D01*
X164824834Y-94611658D01*
X164976658Y-94459834D01*
X165095945Y-94281309D01*
X165178112Y-94082941D01*
X165220000Y-93872356D01*
X165220000Y-93657644D01*
X165178112Y-93447059D01*
X165095945Y-93248691D01*
X164976658Y-93070166D01*
X164824834Y-92918342D01*
X164646309Y-92799055D01*
X164447941Y-92716888D01*
X164237356Y-92675000D01*
X164022644Y-92675000D01*
X163812059Y-92716888D01*
X163613691Y-92799055D01*
X163435166Y-92918342D01*
X163283342Y-93070166D01*
X163164055Y-93248691D01*
X163081888Y-93447059D01*
X163040000Y-93657644D01*
X162711925Y-93657644D01*
X162807453Y-93606744D01*
X162810035Y-93605019D01*
X162897618Y-93431258D01*
X162150000Y-92683640D01*
X161402382Y-93431258D01*
X161211567Y-93431258D01*
X161135945Y-93248691D01*
X161016658Y-93070166D01*
X160864834Y-92918342D01*
X160686309Y-92799055D01*
X160487941Y-92716888D01*
X160277356Y-92675000D01*
X160062644Y-92675000D01*
X159852059Y-92716888D01*
X159653691Y-92799055D01*
X159475166Y-92918342D01*
X159323342Y-93070166D01*
X159204055Y-93248691D01*
X159121888Y-93447059D01*
X159080000Y-93657644D01*
X157785000Y-93657644D01*
X157785000Y-92618447D01*
X160964291Y-92618447D01*
X160986771Y-92849797D01*
X161053953Y-93072316D01*
X161163256Y-93277453D01*
X161164981Y-93280035D01*
X161338742Y-93367618D01*
X162086360Y-92620000D01*
X162213640Y-92620000D01*
X162961258Y-93367618D01*
X163135019Y-93280035D01*
X163244859Y-93075186D01*
X163312624Y-92852843D01*
X163335709Y-92621553D01*
X163313229Y-92390203D01*
X163246047Y-92167684D01*
X163136744Y-91962547D01*
X163135019Y-91959965D01*
X162961258Y-91872382D01*
X162213640Y-92620000D01*
X162086360Y-92620000D01*
X161338742Y-91872382D01*
X161164981Y-91959965D01*
X161055141Y-92164814D01*
X160987376Y-92387157D01*
X160964291Y-92618447D01*
X157785000Y-92618447D01*
X157785000Y-91367644D01*
X159080000Y-91367644D01*
X159080000Y-91582356D01*
X159121888Y-91792941D01*
X159204055Y-91991309D01*
X159323342Y-92169834D01*
X159475166Y-92321658D01*
X159653691Y-92440945D01*
X159852059Y-92523112D01*
X160062644Y-92565000D01*
X160277356Y-92565000D01*
X160487941Y-92523112D01*
X160686309Y-92440945D01*
X160864834Y-92321658D01*
X161016658Y-92169834D01*
X161135945Y-91991309D01*
X161218112Y-91792941D01*
X161260000Y-91582356D01*
X161260000Y-91367644D01*
X161218112Y-91157059D01*
X161211567Y-91141258D01*
X161402382Y-91141258D01*
X161489965Y-91315019D01*
X161694814Y-91424859D01*
X161859577Y-91475075D01*
X161697684Y-91523953D01*
X161492547Y-91633256D01*
X161489965Y-91634981D01*
X161402382Y-91808742D01*
X162150000Y-92556360D01*
X162897618Y-91808742D01*
X162810035Y-91634981D01*
X162605186Y-91525141D01*
X162440423Y-91474925D01*
X162602316Y-91426047D01*
X162807453Y-91316744D01*
X162810035Y-91315019D01*
X162897618Y-91141258D01*
X162150000Y-90393640D01*
X161402382Y-91141258D01*
X161211567Y-91141258D01*
X161135945Y-90958691D01*
X161016658Y-90780166D01*
X160864834Y-90628342D01*
X160686309Y-90509055D01*
X160487941Y-90426888D01*
X160277356Y-90385000D01*
X160062644Y-90385000D01*
X159852059Y-90426888D01*
X159653691Y-90509055D01*
X159475166Y-90628342D01*
X159323342Y-90780166D01*
X159204055Y-90958691D01*
X159121888Y-91157059D01*
X159080000Y-91367644D01*
X157785000Y-91367644D01*
X157785000Y-88335000D01*
X159078839Y-88335000D01*
X159078839Y-90035000D01*
X159083473Y-90082048D01*
X159097196Y-90127288D01*
X159119482Y-90168982D01*
X159149473Y-90205527D01*
X159186018Y-90235518D01*
X159227712Y-90257804D01*
X159272952Y-90271527D01*
X159320000Y-90276161D01*
X160969510Y-90276161D01*
X160964291Y-90328447D01*
X160986771Y-90559797D01*
X161053953Y-90782316D01*
X161163256Y-90987453D01*
X161164981Y-90990035D01*
X161338742Y-91077618D01*
X162086360Y-90330000D01*
X162213640Y-90330000D01*
X162961258Y-91077618D01*
X163135019Y-90990035D01*
X163244859Y-90785186D01*
X163312624Y-90562843D01*
X163335709Y-90331553D01*
X163313229Y-90100203D01*
X163246047Y-89877684D01*
X163136744Y-89672547D01*
X163135019Y-89669965D01*
X162961258Y-89582382D01*
X162213640Y-90330000D01*
X162086360Y-90330000D01*
X161338742Y-89582382D01*
X161261161Y-89621486D01*
X161261161Y-88851258D01*
X161402382Y-88851258D01*
X161489965Y-89025019D01*
X161694814Y-89134859D01*
X161859577Y-89185075D01*
X161697684Y-89233953D01*
X161492547Y-89343256D01*
X161489965Y-89344981D01*
X161402382Y-89518742D01*
X162150000Y-90266360D01*
X162897618Y-89518742D01*
X162810035Y-89344981D01*
X162605186Y-89235141D01*
X162440423Y-89184925D01*
X162602316Y-89136047D01*
X162711925Y-89077644D01*
X163040000Y-89077644D01*
X163040000Y-89292356D01*
X163081888Y-89502941D01*
X163164055Y-89701309D01*
X163283342Y-89879834D01*
X163435166Y-90031658D01*
X163613691Y-90150945D01*
X163812059Y-90233112D01*
X164022644Y-90275000D01*
X164237356Y-90275000D01*
X164447941Y-90233112D01*
X164646309Y-90150945D01*
X164824834Y-90031658D01*
X164976658Y-89879834D01*
X165095945Y-89701309D01*
X165178112Y-89502941D01*
X165220000Y-89292356D01*
X165220000Y-89077644D01*
X165178112Y-88867059D01*
X165095945Y-88668691D01*
X164976658Y-88490166D01*
X164824834Y-88338342D01*
X164646309Y-88219055D01*
X164447941Y-88136888D01*
X164237356Y-88095000D01*
X164022644Y-88095000D01*
X163812059Y-88136888D01*
X163613691Y-88219055D01*
X163435166Y-88338342D01*
X163283342Y-88490166D01*
X163164055Y-88668691D01*
X163081888Y-88867059D01*
X163040000Y-89077644D01*
X162711925Y-89077644D01*
X162807453Y-89026744D01*
X162810035Y-89025019D01*
X162897618Y-88851258D01*
X162150000Y-88103640D01*
X161402382Y-88851258D01*
X161261161Y-88851258D01*
X161261161Y-88748514D01*
X161338742Y-88787618D01*
X162086360Y-88040000D01*
X162213640Y-88040000D01*
X162961258Y-88787618D01*
X163135019Y-88700035D01*
X163244859Y-88495186D01*
X163312624Y-88272843D01*
X163335709Y-88041553D01*
X163313229Y-87810203D01*
X163246047Y-87587684D01*
X163136744Y-87382547D01*
X163135019Y-87379965D01*
X162961258Y-87292382D01*
X162213640Y-88040000D01*
X162086360Y-88040000D01*
X161338742Y-87292382D01*
X161164981Y-87379965D01*
X161055141Y-87584814D01*
X160987376Y-87807157D01*
X160964291Y-88038447D01*
X160969673Y-88093839D01*
X159320000Y-88093839D01*
X159272952Y-88098473D01*
X159227712Y-88112196D01*
X159186018Y-88134482D01*
X159149473Y-88164473D01*
X159119482Y-88201018D01*
X159097196Y-88242712D01*
X159083473Y-88287952D01*
X159078839Y-88335000D01*
X157785000Y-88335000D01*
X157785000Y-87228742D01*
X161402382Y-87228742D01*
X162150000Y-87976360D01*
X162897618Y-87228742D01*
X162810035Y-87054981D01*
X162605186Y-86945141D01*
X162382843Y-86877376D01*
X162151553Y-86854291D01*
X161920203Y-86876771D01*
X161697684Y-86943953D01*
X161492547Y-87053256D01*
X161489965Y-87054981D01*
X161402382Y-87228742D01*
X157785000Y-87228742D01*
X157785000Y-87101187D01*
X158015026Y-86871161D01*
X158490000Y-86871161D01*
X158514448Y-86868753D01*
X158539009Y-86868753D01*
X158586057Y-86864119D01*
X158682190Y-86844997D01*
X158727429Y-86831274D01*
X158817985Y-86793765D01*
X158859680Y-86771479D01*
X158941179Y-86717023D01*
X158977724Y-86687032D01*
X159047032Y-86617724D01*
X159077023Y-86581179D01*
X159131479Y-86499680D01*
X159153765Y-86457985D01*
X159191274Y-86367429D01*
X159204997Y-86322190D01*
X159224119Y-86226057D01*
X159228753Y-86179009D01*
X159228753Y-86154448D01*
X159231161Y-86130000D01*
X159231161Y-85580000D01*
X159226527Y-85532952D01*
X159212804Y-85487712D01*
X159195319Y-85455000D01*
X159212804Y-85422288D01*
X159226527Y-85377048D01*
X159231161Y-85330000D01*
X159231161Y-85195164D01*
X159235046Y-85195000D01*
X163798813Y-85195000D01*
X165715000Y-87111188D01*
X165715001Y-90678811D01*
X165460937Y-90932875D01*
X165379121Y-90998784D01*
X165343117Y-91013327D01*
X165324633Y-91013549D01*
X165288352Y-91001249D01*
X165224153Y-90961570D01*
X165138586Y-90892959D01*
X165037469Y-90803872D01*
X165035437Y-90802102D01*
X164923658Y-90705830D01*
X164912230Y-90696581D01*
X164832480Y-90635988D01*
X164824834Y-90628342D01*
X164804784Y-90614945D01*
X164791450Y-90604814D01*
X164769586Y-90590026D01*
X164749339Y-90577898D01*
X164646309Y-90509055D01*
X164447941Y-90426888D01*
X164237356Y-90385000D01*
X164022644Y-90385000D01*
X163812059Y-90426888D01*
X163613691Y-90509055D01*
X163435166Y-90628342D01*
X163283342Y-90780166D01*
X163164055Y-90958691D01*
X163081888Y-91157059D01*
X163040000Y-91367644D01*
X163040000Y-91582356D01*
X163081888Y-91792941D01*
X163164055Y-91991309D01*
X163283342Y-92169834D01*
X163435166Y-92321658D01*
X163613691Y-92440945D01*
X163812059Y-92523112D01*
X164022644Y-92565000D01*
X164237356Y-92565000D01*
X164447941Y-92523112D01*
X164646309Y-92440945D01*
X164824834Y-92321658D01*
X164897839Y-92248653D01*
X165006021Y-92147662D01*
X165099066Y-92073079D01*
X165185151Y-92014092D01*
X165270667Y-91962820D01*
X165360928Y-91912494D01*
X165362147Y-91911810D01*
X165457356Y-91857996D01*
X165465640Y-91853092D01*
X165467216Y-91852116D01*
X165491552Y-91849719D01*
X165560355Y-91828848D01*
X165623764Y-91794955D01*
X165679343Y-91749343D01*
X165690779Y-91735408D01*
X166325413Y-91100775D01*
X166339343Y-91089343D01*
X166384955Y-91033764D01*
X166418848Y-90970355D01*
X166439719Y-90901552D01*
X166445000Y-90847931D01*
X166445000Y-90847929D01*
X166446766Y-90830000D01*
X166445000Y-90812071D01*
X166445000Y-86977929D01*
X166446766Y-86960000D01*
X166444015Y-86932069D01*
X166439719Y-86888448D01*
X166418848Y-86819645D01*
X166384955Y-86756236D01*
X166375386Y-86744576D01*
X166350773Y-86714585D01*
X166350770Y-86714582D01*
X166339342Y-86700657D01*
X166325418Y-86689230D01*
X164220779Y-84584592D01*
X164209343Y-84570657D01*
X164153764Y-84525045D01*
X164090355Y-84491152D01*
X164021552Y-84470281D01*
X163967931Y-84465000D01*
X163967929Y-84465000D01*
X163950000Y-84463234D01*
X163932071Y-84465000D01*
X159235050Y-84465000D01*
X159231161Y-84464836D01*
X159231161Y-84330000D01*
X159226527Y-84282952D01*
X159212804Y-84237712D01*
X159195319Y-84205000D01*
X159212804Y-84172288D01*
X159226527Y-84127048D01*
X159231161Y-84080000D01*
X159231161Y-83530000D01*
X159228753Y-83505552D01*
X159228753Y-83480991D01*
X159224119Y-83433943D01*
X159204997Y-83337810D01*
X159191274Y-83292571D01*
X159153765Y-83202015D01*
X159131479Y-83160320D01*
X159077023Y-83078821D01*
X159047032Y-83042276D01*
X158977724Y-82972968D01*
X158941179Y-82942977D01*
X158910008Y-82922149D01*
X160561490Y-82922149D01*
X160790999Y-83217063D01*
X161196966Y-83444779D01*
X161639556Y-83588919D01*
X162101763Y-83643944D01*
X162565823Y-83607740D01*
X163013903Y-83481698D01*
X163428785Y-83270662D01*
X163509001Y-83217063D01*
X163738510Y-82922149D01*
X162150000Y-81333640D01*
X160561490Y-82922149D01*
X158910008Y-82922149D01*
X158859680Y-82888521D01*
X158817985Y-82866235D01*
X158727429Y-82828726D01*
X158682190Y-82815003D01*
X158586057Y-82795881D01*
X158539009Y-82791247D01*
X158514448Y-82791247D01*
X158490000Y-82788839D01*
X157990000Y-82788839D01*
X157965552Y-82791247D01*
X157940991Y-82791247D01*
X157893943Y-82795881D01*
X157797810Y-82815003D01*
X157752571Y-82828726D01*
X157662015Y-82866235D01*
X157620320Y-82888521D01*
X157538821Y-82942977D01*
X157502276Y-82972968D01*
X157432968Y-83042276D01*
X157402977Y-83078821D01*
X157352076Y-83155000D01*
X156947929Y-83155000D01*
X156930000Y-83153234D01*
X156912071Y-83155000D01*
X156912069Y-83155000D01*
X156858448Y-83160281D01*
X156789645Y-83181152D01*
X156726236Y-83215045D01*
X156670657Y-83260657D01*
X156659225Y-83274587D01*
X155904588Y-84029225D01*
X155890657Y-84040658D01*
X155845045Y-84096237D01*
X155811152Y-84159646D01*
X155790281Y-84228449D01*
X155785153Y-84280518D01*
X155783234Y-84300000D01*
X155310000Y-84300000D01*
X155310000Y-81221763D01*
X159776056Y-81221763D01*
X159812260Y-81685823D01*
X159938302Y-82133903D01*
X160149338Y-82548785D01*
X160202937Y-82629001D01*
X160497851Y-82858510D01*
X162086360Y-81270000D01*
X162213640Y-81270000D01*
X163802149Y-82858510D01*
X164097063Y-82629001D01*
X164324779Y-82223034D01*
X164468919Y-81780444D01*
X164523944Y-81318237D01*
X164487740Y-80854177D01*
X164361698Y-80406097D01*
X164150662Y-79991215D01*
X164097063Y-79910999D01*
X163802149Y-79681490D01*
X162213640Y-81270000D01*
X162086360Y-81270000D01*
X160497851Y-79681490D01*
X160202937Y-79910999D01*
X159975221Y-80316966D01*
X159831081Y-80759556D01*
X159776056Y-81221763D01*
X155310000Y-81221763D01*
X155310000Y-79617851D01*
X160561490Y-79617851D01*
X162150000Y-81206360D01*
X163738510Y-79617851D01*
X163509001Y-79322937D01*
X163103034Y-79095221D01*
X162660444Y-78951081D01*
X162198237Y-78896056D01*
X161734177Y-78932260D01*
X161286097Y-79058302D01*
X160871215Y-79269338D01*
X160790999Y-79322937D01*
X160561490Y-79617851D01*
X155310000Y-79617851D01*
X155310000Y-78640000D01*
X166890001Y-78640000D01*
X166890000Y-108830000D01*
G04 #@! TA.AperFunction,Conductor*
D20*
G36*
X166890000Y-108830000D02*
G01*
X156560000Y-108830000D01*
X156560000Y-107912149D01*
X160561490Y-107912149D01*
X160790999Y-108207063D01*
X161196966Y-108434779D01*
X161639556Y-108578919D01*
X162101763Y-108633944D01*
X162565823Y-108597740D01*
X163013903Y-108471698D01*
X163428785Y-108260662D01*
X163509001Y-108207063D01*
X163738510Y-107912149D01*
X162150000Y-106323640D01*
X160561490Y-107912149D01*
X156560000Y-107912149D01*
X156560000Y-106211763D01*
X159776056Y-106211763D01*
X159812260Y-106675823D01*
X159938302Y-107123903D01*
X160149338Y-107538785D01*
X160202937Y-107619001D01*
X160497851Y-107848510D01*
X162086360Y-106260000D01*
X162213640Y-106260000D01*
X163802149Y-107848510D01*
X164097063Y-107619001D01*
X164324779Y-107213034D01*
X164468919Y-106770444D01*
X164523944Y-106308237D01*
X164487740Y-105844177D01*
X164361698Y-105396097D01*
X164150662Y-104981215D01*
X164097063Y-104900999D01*
X163802149Y-104671490D01*
X162213640Y-106260000D01*
X162086360Y-106260000D01*
X160497851Y-104671490D01*
X160202937Y-104900999D01*
X159975221Y-105306966D01*
X159831081Y-105749556D01*
X159776056Y-106211763D01*
X156560000Y-106211763D01*
X156560000Y-105384244D01*
X156561403Y-105370000D01*
X156555804Y-105313150D01*
X156539221Y-105258485D01*
X156512293Y-105208105D01*
X156476053Y-105163947D01*
X156431895Y-105127707D01*
X156381515Y-105100779D01*
X156326850Y-105084196D01*
X156284245Y-105080000D01*
X156270000Y-105078597D01*
X156255755Y-105080000D01*
X153284485Y-105080000D01*
X153284485Y-104607851D01*
X160561490Y-104607851D01*
X162150000Y-106196360D01*
X163738510Y-104607851D01*
X163509001Y-104312937D01*
X163103034Y-104085221D01*
X162660444Y-103941081D01*
X162198237Y-103886056D01*
X161734177Y-103922260D01*
X161286097Y-104048302D01*
X160871215Y-104259338D01*
X160790999Y-104312937D01*
X160561490Y-104607851D01*
X153284485Y-104607851D01*
X153284485Y-104315647D01*
X153371069Y-104218065D01*
X153372324Y-104216639D01*
X153456592Y-104120140D01*
X153541806Y-104022839D01*
X153634113Y-103919537D01*
X153740195Y-103804421D01*
X153866611Y-103671859D01*
X154020466Y-103515721D01*
X155931188Y-101605000D01*
X156718839Y-101605000D01*
X156718839Y-101790000D01*
X156723473Y-101837048D01*
X156737196Y-101882288D01*
X156754681Y-101915000D01*
X156737196Y-101947712D01*
X156723473Y-101992952D01*
X156718839Y-102040000D01*
X156718839Y-103040000D01*
X156723473Y-103087048D01*
X156737196Y-103132288D01*
X156754681Y-103165000D01*
X156737196Y-103197712D01*
X156723473Y-103242952D01*
X156718839Y-103290000D01*
X156718839Y-103475000D01*
X156513791Y-103475000D01*
X156448374Y-103472926D01*
X156402598Y-103467938D01*
X156369423Y-103461147D01*
X156343467Y-103452974D01*
X156318488Y-103442301D01*
X156289045Y-103426926D01*
X156251579Y-103405196D01*
X156206560Y-103378537D01*
X156202359Y-103376106D01*
X156150637Y-103346874D01*
X156142205Y-103342328D01*
X156120361Y-103331108D01*
X156099470Y-103317149D01*
X155992097Y-103272673D01*
X155878110Y-103250000D01*
X155761890Y-103250000D01*
X155647903Y-103272673D01*
X155540530Y-103317149D01*
X155443897Y-103381717D01*
X155361717Y-103463897D01*
X155297149Y-103560530D01*
X155252673Y-103667903D01*
X155230000Y-103781890D01*
X155230000Y-103898110D01*
X155252673Y-104012097D01*
X155297149Y-104119470D01*
X155361717Y-104216103D01*
X155443897Y-104298283D01*
X155540530Y-104362851D01*
X155647903Y-104407327D01*
X155761890Y-104430000D01*
X155878110Y-104430000D01*
X155992097Y-104407327D01*
X156099470Y-104362851D01*
X156120368Y-104348887D01*
X156142208Y-104337669D01*
X156150637Y-104333125D01*
X156202359Y-104303893D01*
X156206560Y-104301462D01*
X156251579Y-104274803D01*
X156289045Y-104253073D01*
X156318488Y-104237698D01*
X156343467Y-104227025D01*
X156369423Y-104218852D01*
X156402598Y-104212061D01*
X156448361Y-104207075D01*
X156513819Y-104205000D01*
X156816020Y-104205000D01*
X156818521Y-104209680D01*
X156872977Y-104291179D01*
X156902968Y-104327724D01*
X156972276Y-104397032D01*
X157008821Y-104427023D01*
X157090320Y-104481479D01*
X157132015Y-104503765D01*
X157222571Y-104541274D01*
X157267810Y-104554997D01*
X157363943Y-104574119D01*
X157410991Y-104578753D01*
X157435552Y-104578753D01*
X157460000Y-104581161D01*
X157960000Y-104581161D01*
X157984448Y-104578753D01*
X158009009Y-104578753D01*
X158056057Y-104574119D01*
X158152190Y-104554997D01*
X158197429Y-104541274D01*
X158287985Y-104503765D01*
X158329680Y-104481479D01*
X158411179Y-104427023D01*
X158447724Y-104397032D01*
X158517032Y-104327724D01*
X158547023Y-104291179D01*
X158601479Y-104209680D01*
X158623765Y-104167985D01*
X158661274Y-104077429D01*
X158674997Y-104032190D01*
X158694119Y-103936057D01*
X158698753Y-103889009D01*
X158698753Y-103864448D01*
X158701161Y-103840000D01*
X158701161Y-103290000D01*
X158696527Y-103242952D01*
X158682804Y-103197712D01*
X158665319Y-103165000D01*
X158682804Y-103132288D01*
X158696527Y-103087048D01*
X158701161Y-103040000D01*
X158701161Y-102905164D01*
X158705046Y-102905000D01*
X159932071Y-102905000D01*
X159950000Y-102906766D01*
X159967929Y-102905000D01*
X159967931Y-102905000D01*
X160021552Y-102899719D01*
X160090355Y-102878848D01*
X160153764Y-102844955D01*
X160209343Y-102799343D01*
X160220779Y-102785408D01*
X163198695Y-99807493D01*
X163331562Y-99687676D01*
X163441309Y-99611124D01*
X163537590Y-99563112D01*
X163629862Y-99533202D01*
X163729009Y-99514107D01*
X163843266Y-99500767D01*
X163972773Y-99487876D01*
X163980963Y-99486918D01*
X164122613Y-99467884D01*
X164139653Y-99464966D01*
X164295121Y-99432540D01*
X164316756Y-99426965D01*
X164387903Y-99405054D01*
X164447941Y-99393112D01*
X164646309Y-99310945D01*
X164824834Y-99191658D01*
X164976658Y-99039834D01*
X165095945Y-98861309D01*
X165178112Y-98662941D01*
X165220000Y-98452356D01*
X165220000Y-98237644D01*
X165178112Y-98027059D01*
X165095945Y-97828691D01*
X164976658Y-97650166D01*
X164824834Y-97498342D01*
X164646309Y-97379055D01*
X164447941Y-97296888D01*
X164237356Y-97255000D01*
X164022644Y-97255000D01*
X163812059Y-97296888D01*
X163613691Y-97379055D01*
X163435166Y-97498342D01*
X163283342Y-97650166D01*
X163164055Y-97828691D01*
X163081888Y-98027059D01*
X163066711Y-98103357D01*
X163043958Y-98184389D01*
X163038991Y-98205805D01*
X163010375Y-98361201D01*
X163007923Y-98377724D01*
X162991941Y-98519192D01*
X162991214Y-98526674D01*
X162980734Y-98655500D01*
X162969226Y-98768466D01*
X162951541Y-98866154D01*
X162922905Y-98956834D01*
X162876172Y-99051569D01*
X162800933Y-99159862D01*
X162682473Y-99291339D01*
X159798813Y-102175000D01*
X158705050Y-102175000D01*
X158701161Y-102174836D01*
X158701161Y-102040000D01*
X158696527Y-101992952D01*
X158682804Y-101947712D01*
X158665319Y-101915000D01*
X158682804Y-101882288D01*
X158696527Y-101837048D01*
X158701161Y-101790000D01*
X158701161Y-101240000D01*
X158698753Y-101215552D01*
X158698753Y-101190991D01*
X158694119Y-101143943D01*
X158674997Y-101047810D01*
X158661274Y-101002571D01*
X158623765Y-100912015D01*
X158601479Y-100870320D01*
X158547023Y-100788821D01*
X158517032Y-100752276D01*
X158447724Y-100682968D01*
X158411179Y-100652977D01*
X158329680Y-100598521D01*
X158287985Y-100576235D01*
X158197429Y-100538726D01*
X158152190Y-100525003D01*
X158056057Y-100505881D01*
X158009009Y-100501247D01*
X157984448Y-100501247D01*
X157960000Y-100498839D01*
X157460000Y-100498839D01*
X157435552Y-100501247D01*
X157410991Y-100501247D01*
X157363943Y-100505881D01*
X157267810Y-100525003D01*
X157222571Y-100538726D01*
X157132015Y-100576235D01*
X157090320Y-100598521D01*
X157008821Y-100652977D01*
X156972276Y-100682968D01*
X156902968Y-100752276D01*
X156872977Y-100788821D01*
X156818521Y-100870320D01*
X156816020Y-100875000D01*
X155797928Y-100875000D01*
X155779999Y-100873234D01*
X155762070Y-100875000D01*
X155762069Y-100875000D01*
X155708448Y-100880281D01*
X155639645Y-100901152D01*
X155639643Y-100901153D01*
X155576234Y-100935046D01*
X155570237Y-100939968D01*
X155520657Y-100980657D01*
X155509225Y-100994587D01*
X153510753Y-102993060D01*
X153422499Y-103067665D01*
X153362342Y-103099815D01*
X153318013Y-103110231D01*
X153284485Y-103108916D01*
X153284485Y-102321881D01*
X153279851Y-102274833D01*
X153266128Y-102229593D01*
X153243842Y-102187899D01*
X153213851Y-102151354D01*
X153177306Y-102121363D01*
X153135612Y-102099077D01*
X153090372Y-102085354D01*
X153043324Y-102080720D01*
X151043324Y-102080720D01*
X150996276Y-102085354D01*
X150951036Y-102099077D01*
X150909342Y-102121363D01*
X150872797Y-102151354D01*
X150842806Y-102187899D01*
X150820520Y-102229593D01*
X150806797Y-102274833D01*
X150802163Y-102321881D01*
X150802163Y-105080000D01*
X149574640Y-105080000D01*
X149573324Y-103949381D01*
X149490824Y-103866881D01*
X148288324Y-103866881D01*
X148288324Y-103886881D01*
X148198324Y-103886881D01*
X148198324Y-103866881D01*
X146995824Y-103866881D01*
X146913324Y-103949381D01*
X146912008Y-105080000D01*
X145684485Y-105080000D01*
X145684485Y-103970058D01*
X145688555Y-103950642D01*
X145718567Y-103764503D01*
X145720675Y-103747657D01*
X145735805Y-103578309D01*
X145736360Y-103570754D01*
X145745256Y-103416310D01*
X145756048Y-103279458D01*
X145775298Y-103159093D01*
X145808934Y-103046177D01*
X145865339Y-102928616D01*
X145956510Y-102795808D01*
X146098967Y-102637221D01*
X146414307Y-102321881D01*
X146911727Y-102321881D01*
X146913324Y-103694381D01*
X146995824Y-103776881D01*
X148198324Y-103776881D01*
X148198324Y-102074381D01*
X148288324Y-102074381D01*
X148288324Y-103776881D01*
X149490824Y-103776881D01*
X149573324Y-103694381D01*
X149574921Y-102321881D01*
X149568549Y-102257190D01*
X149549680Y-102194984D01*
X149519037Y-102137656D01*
X149477798Y-102087407D01*
X149427549Y-102046168D01*
X149370221Y-102015525D01*
X149308015Y-101996656D01*
X149243324Y-101990284D01*
X148370824Y-101991881D01*
X148288324Y-102074381D01*
X148198324Y-102074381D01*
X148115824Y-101991881D01*
X147243324Y-101990284D01*
X147178633Y-101996656D01*
X147116427Y-102015525D01*
X147059099Y-102046168D01*
X147008850Y-102087407D01*
X146967611Y-102137656D01*
X146936968Y-102194984D01*
X146918099Y-102257190D01*
X146911727Y-102321881D01*
X146414307Y-102321881D01*
X147051188Y-101685000D01*
X152882069Y-101685000D01*
X152899998Y-101686766D01*
X152917927Y-101685000D01*
X152917929Y-101685000D01*
X152971550Y-101679719D01*
X153040353Y-101658848D01*
X153103762Y-101624955D01*
X153159341Y-101579343D01*
X153170777Y-101565408D01*
X153827503Y-100908682D01*
X153875234Y-100863884D01*
X153911128Y-100835044D01*
X153939383Y-100816391D01*
X153963522Y-100803813D01*
X153988738Y-100793695D01*
X154020414Y-100783752D01*
X154062234Y-100772634D01*
X154112956Y-100759643D01*
X154117651Y-100758390D01*
X154174894Y-100742487D01*
X154184066Y-100739740D01*
X154207431Y-100732233D01*
X154232095Y-100727327D01*
X154339468Y-100682851D01*
X154436101Y-100618283D01*
X154518281Y-100536103D01*
X154582849Y-100439470D01*
X154627325Y-100332097D01*
X154649998Y-100218110D01*
X154649998Y-100101890D01*
X154627325Y-99987903D01*
X154582849Y-99880530D01*
X154518281Y-99783897D01*
X154436101Y-99701717D01*
X154339468Y-99637149D01*
X154232095Y-99592673D01*
X154118108Y-99570000D01*
X154001888Y-99570000D01*
X153887901Y-99592673D01*
X153780528Y-99637149D01*
X153683895Y-99701717D01*
X153601715Y-99783897D01*
X153537147Y-99880530D01*
X153492671Y-99987903D01*
X153487767Y-100012556D01*
X153480258Y-100035926D01*
X153477510Y-100045103D01*
X153461607Y-100102346D01*
X153460354Y-100107041D01*
X153447363Y-100157763D01*
X153436245Y-100199583D01*
X153426302Y-100231259D01*
X153416184Y-100256475D01*
X153403606Y-100280614D01*
X153384953Y-100308869D01*
X153356112Y-100344763D01*
X153311310Y-100392500D01*
X152748811Y-100955000D01*
X146917929Y-100955000D01*
X146900000Y-100953234D01*
X146882071Y-100955000D01*
X146882069Y-100955000D01*
X146828448Y-100960281D01*
X146780515Y-100974821D01*
X146759644Y-100981152D01*
X146742564Y-100990282D01*
X146696236Y-101015045D01*
X146640657Y-101060657D01*
X146629226Y-101074586D01*
X145582683Y-102121130D01*
X145579983Y-102123560D01*
X145577306Y-102121363D01*
X145535612Y-102099077D01*
X145490372Y-102085354D01*
X145443324Y-102080720D01*
X143443324Y-102080720D01*
X143396276Y-102085354D01*
X143351036Y-102099077D01*
X143309342Y-102121363D01*
X143272797Y-102151354D01*
X143242806Y-102187899D01*
X143220520Y-102229593D01*
X143206797Y-102274833D01*
X143202163Y-102321881D01*
X143202163Y-105080000D01*
X126684485Y-105080000D01*
X126684485Y-104442390D01*
X126736668Y-104399018D01*
X126837153Y-104327569D01*
X126942286Y-104271341D01*
X127066543Y-104227922D01*
X127225932Y-104198349D01*
X127439763Y-104186881D01*
X128050190Y-104186881D01*
X128068119Y-104188647D01*
X128086048Y-104186881D01*
X128086050Y-104186881D01*
X128139671Y-104181600D01*
X128208474Y-104160729D01*
X128271883Y-104126836D01*
X128327462Y-104081224D01*
X128338898Y-104067289D01*
X131504297Y-100901890D01*
X132220000Y-100901890D01*
X132220000Y-101018110D01*
X132242673Y-101132097D01*
X132287149Y-101239470D01*
X132351717Y-101336103D01*
X132433897Y-101418283D01*
X132530530Y-101482851D01*
X132637903Y-101527327D01*
X132751890Y-101550000D01*
X132868110Y-101550000D01*
X132982097Y-101527327D01*
X133089470Y-101482851D01*
X133186103Y-101418283D01*
X133268283Y-101336103D01*
X133332851Y-101239470D01*
X133377327Y-101132097D01*
X133382233Y-101107433D01*
X133389740Y-101084068D01*
X133392487Y-101074896D01*
X133408390Y-101017653D01*
X133409643Y-101012958D01*
X133422634Y-100962236D01*
X133433752Y-100920416D01*
X133443695Y-100888740D01*
X133453813Y-100863524D01*
X133466391Y-100839385D01*
X133485044Y-100811130D01*
X133513884Y-100775236D01*
X133558680Y-100727507D01*
X133661188Y-100625000D01*
X151642071Y-100625000D01*
X151660000Y-100626766D01*
X151677929Y-100625000D01*
X151677931Y-100625000D01*
X151731552Y-100619719D01*
X151800355Y-100598848D01*
X151863764Y-100564955D01*
X151919343Y-100519343D01*
X151930779Y-100505408D01*
X153061188Y-99375000D01*
X158368813Y-99375000D01*
X159041332Y-100047519D01*
X159086109Y-100095229D01*
X159114955Y-100131130D01*
X159133608Y-100159385D01*
X159146186Y-100183524D01*
X159156304Y-100208740D01*
X159166247Y-100240416D01*
X159177365Y-100282236D01*
X159190356Y-100332958D01*
X159191609Y-100337653D01*
X159207512Y-100394896D01*
X159210260Y-100404072D01*
X159217769Y-100427440D01*
X159222673Y-100452097D01*
X159267149Y-100559470D01*
X159331717Y-100656103D01*
X159413897Y-100738283D01*
X159510530Y-100802851D01*
X159617903Y-100847327D01*
X159731890Y-100870000D01*
X159848110Y-100870000D01*
X159962097Y-100847327D01*
X160069470Y-100802851D01*
X160166103Y-100738283D01*
X160248283Y-100656103D01*
X160312851Y-100559470D01*
X160357327Y-100452097D01*
X160380000Y-100338110D01*
X160380000Y-100221890D01*
X160357327Y-100107903D01*
X160312851Y-100000530D01*
X160248283Y-99903897D01*
X160166103Y-99821717D01*
X160069470Y-99757149D01*
X159962097Y-99712673D01*
X159937440Y-99707769D01*
X159914072Y-99700260D01*
X159904896Y-99697512D01*
X159847653Y-99681609D01*
X159842958Y-99680356D01*
X159792236Y-99667365D01*
X159750416Y-99656247D01*
X159718740Y-99646304D01*
X159693524Y-99636186D01*
X159669385Y-99623608D01*
X159641130Y-99604955D01*
X159605229Y-99576109D01*
X159557519Y-99531332D01*
X159182445Y-99156258D01*
X159422382Y-99156258D01*
X159509965Y-99330019D01*
X159714814Y-99439859D01*
X159937157Y-99507624D01*
X160168447Y-99530709D01*
X160399797Y-99508229D01*
X160622316Y-99441047D01*
X160827453Y-99331744D01*
X160830035Y-99330019D01*
X160917618Y-99156258D01*
X160170000Y-98408640D01*
X159422382Y-99156258D01*
X159182445Y-99156258D01*
X158790779Y-98764592D01*
X158779343Y-98750657D01*
X158723764Y-98705045D01*
X158660355Y-98671152D01*
X158591552Y-98650281D01*
X158537931Y-98645000D01*
X158537929Y-98645000D01*
X158520000Y-98643234D01*
X158502071Y-98645000D01*
X152927929Y-98645000D01*
X152910000Y-98643234D01*
X152892071Y-98645000D01*
X152892069Y-98645000D01*
X152838448Y-98650281D01*
X152769645Y-98671152D01*
X152706236Y-98705045D01*
X152650657Y-98750657D01*
X152639225Y-98764587D01*
X151508813Y-99895000D01*
X133527928Y-99895000D01*
X133509999Y-99893234D01*
X133492070Y-99895000D01*
X133492069Y-99895000D01*
X133438448Y-99900281D01*
X133369645Y-99921152D01*
X133369643Y-99921153D01*
X133306234Y-99955046D01*
X133282125Y-99974833D01*
X133250657Y-100000657D01*
X133239226Y-100014586D01*
X133042498Y-100211314D01*
X132994763Y-100256114D01*
X132958869Y-100284955D01*
X132930614Y-100303608D01*
X132906475Y-100316186D01*
X132881259Y-100326304D01*
X132849583Y-100336247D01*
X132807763Y-100347365D01*
X132757041Y-100360356D01*
X132752346Y-100361609D01*
X132695103Y-100377512D01*
X132685926Y-100380260D01*
X132662556Y-100387769D01*
X132637903Y-100392673D01*
X132530530Y-100437149D01*
X132433897Y-100501717D01*
X132351717Y-100583897D01*
X132287149Y-100680530D01*
X132242673Y-100787903D01*
X132220000Y-100901890D01*
X131504297Y-100901890D01*
X132911188Y-99495000D01*
X150772228Y-99495000D01*
X150790157Y-99496766D01*
X150808086Y-99495000D01*
X150808088Y-99495000D01*
X150861709Y-99489719D01*
X150930512Y-99468848D01*
X150993921Y-99434955D01*
X151049500Y-99389343D01*
X151060936Y-99375408D01*
X151866342Y-98570003D01*
X157997068Y-98570003D01*
X158014997Y-98571769D01*
X158032926Y-98570003D01*
X158032928Y-98570003D01*
X158086549Y-98564722D01*
X158155352Y-98543851D01*
X158218761Y-98509958D01*
X158274340Y-98464346D01*
X158285776Y-98450411D01*
X158392740Y-98343447D01*
X158984291Y-98343447D01*
X159006771Y-98574797D01*
X159073953Y-98797316D01*
X159183256Y-99002453D01*
X159184981Y-99005035D01*
X159358742Y-99092618D01*
X160106360Y-98345000D01*
X160233640Y-98345000D01*
X160981258Y-99092618D01*
X161155019Y-99005035D01*
X161264859Y-98800186D01*
X161332624Y-98577843D01*
X161355709Y-98346553D01*
X161333229Y-98115203D01*
X161301847Y-98011258D01*
X161402382Y-98011258D01*
X161489965Y-98185019D01*
X161694814Y-98294859D01*
X161917157Y-98362624D01*
X162148447Y-98385709D01*
X162379797Y-98363229D01*
X162602316Y-98296047D01*
X162807453Y-98186744D01*
X162810035Y-98185019D01*
X162897618Y-98011258D01*
X162150000Y-97263640D01*
X161402382Y-98011258D01*
X161301847Y-98011258D01*
X161272561Y-97914260D01*
X161338742Y-97947618D01*
X162086360Y-97200000D01*
X162213640Y-97200000D01*
X162961258Y-97947618D01*
X163135019Y-97860035D01*
X163244859Y-97655186D01*
X163312624Y-97432843D01*
X163335709Y-97201553D01*
X163313229Y-96970203D01*
X163246047Y-96747684D01*
X163136744Y-96542547D01*
X163135019Y-96539965D01*
X162961258Y-96452382D01*
X162213640Y-97200000D01*
X162086360Y-97200000D01*
X161338742Y-96452382D01*
X161164981Y-96539965D01*
X161055141Y-96744814D01*
X160987376Y-96967157D01*
X160964291Y-97198447D01*
X160986771Y-97429797D01*
X161047439Y-97630740D01*
X160981258Y-97597382D01*
X160233640Y-98345000D01*
X160106360Y-98345000D01*
X159358742Y-97597382D01*
X159184981Y-97684965D01*
X159075141Y-97889814D01*
X159007376Y-98112157D01*
X158984291Y-98343447D01*
X158392740Y-98343447D01*
X159228668Y-97507520D01*
X159360611Y-97388604D01*
X159469377Y-97312939D01*
X159564627Y-97265783D01*
X159655837Y-97236729D01*
X159754007Y-97218583D01*
X159853450Y-97207963D01*
X159717684Y-97248953D01*
X159512547Y-97358256D01*
X159509965Y-97359981D01*
X159422382Y-97533742D01*
X160170000Y-98281360D01*
X160917618Y-97533742D01*
X160830035Y-97359981D01*
X160625186Y-97250141D01*
X160402843Y-97182376D01*
X160218640Y-97163991D01*
X160317843Y-97144919D01*
X160339334Y-97139751D01*
X160417233Y-97117177D01*
X160487941Y-97103112D01*
X160686309Y-97020945D01*
X160864834Y-96901658D01*
X161016658Y-96749834D01*
X161135945Y-96571309D01*
X161211566Y-96388742D01*
X161402382Y-96388742D01*
X162150000Y-97136360D01*
X162897618Y-96388742D01*
X162810035Y-96214981D01*
X162605186Y-96105141D01*
X162382843Y-96037376D01*
X162151553Y-96014291D01*
X161920203Y-96036771D01*
X161697684Y-96103953D01*
X161492547Y-96213256D01*
X161489965Y-96214981D01*
X161402382Y-96388742D01*
X161211566Y-96388742D01*
X161218112Y-96372941D01*
X161260000Y-96162356D01*
X161260000Y-95947644D01*
X161218112Y-95737059D01*
X161135945Y-95538691D01*
X161016658Y-95360166D01*
X160864834Y-95208342D01*
X160686309Y-95089055D01*
X160487941Y-95006888D01*
X160277356Y-94965000D01*
X160062644Y-94965000D01*
X159852059Y-95006888D01*
X159653691Y-95089055D01*
X159475166Y-95208342D01*
X159323342Y-95360166D01*
X159204055Y-95538691D01*
X159121888Y-95737059D01*
X159108902Y-95802346D01*
X159086607Y-95876945D01*
X159081235Y-95898513D01*
X159050085Y-96053965D01*
X159047325Y-96070837D01*
X159029315Y-96212432D01*
X159028438Y-96220388D01*
X159016359Y-96349666D01*
X159003639Y-96463495D01*
X158985021Y-96562158D01*
X158955544Y-96653894D01*
X158907963Y-96749659D01*
X158831849Y-96858924D01*
X158712504Y-96991308D01*
X157863810Y-97840003D01*
X151733082Y-97840003D01*
X151715153Y-97838237D01*
X151697224Y-97840003D01*
X151697223Y-97840003D01*
X151643602Y-97845284D01*
X151574799Y-97866155D01*
X151525167Y-97892684D01*
X151511388Y-97900049D01*
X151487511Y-97919645D01*
X151455811Y-97945660D01*
X151444380Y-97959589D01*
X150638970Y-98765000D01*
X132777929Y-98765000D01*
X132760000Y-98763234D01*
X132742071Y-98765000D01*
X132742069Y-98765000D01*
X132688448Y-98770281D01*
X132619645Y-98791152D01*
X132556236Y-98825045D01*
X132500657Y-98870657D01*
X132489226Y-98884586D01*
X127916932Y-103456881D01*
X127439764Y-103456881D01*
X127225932Y-103445412D01*
X127066543Y-103415839D01*
X126942286Y-103372420D01*
X126837153Y-103316192D01*
X126736668Y-103244743D01*
X126684485Y-103201371D01*
X126684485Y-102321881D01*
X126679851Y-102274833D01*
X126666128Y-102229593D01*
X126643842Y-102187899D01*
X126613851Y-102151354D01*
X126577306Y-102121363D01*
X126535612Y-102099077D01*
X126490372Y-102085354D01*
X126443324Y-102080720D01*
X124443324Y-102080720D01*
X124396276Y-102085354D01*
X124351036Y-102099077D01*
X124309342Y-102121363D01*
X124272797Y-102151354D01*
X124242806Y-102187899D01*
X124220520Y-102229593D01*
X124206797Y-102274833D01*
X124202163Y-102321881D01*
X124202163Y-105080000D01*
X122974640Y-105080000D01*
X122973324Y-103949381D01*
X122890824Y-103866881D01*
X121688324Y-103866881D01*
X121688324Y-103886881D01*
X121598324Y-103886881D01*
X121598324Y-103866881D01*
X120395824Y-103866881D01*
X120313324Y-103949381D01*
X120312008Y-105080000D01*
X119084485Y-105080000D01*
X119084485Y-102321881D01*
X120311727Y-102321881D01*
X120313324Y-103694381D01*
X120395824Y-103776881D01*
X121598324Y-103776881D01*
X121598324Y-102074381D01*
X121688324Y-102074381D01*
X121688324Y-103776881D01*
X122890824Y-103776881D01*
X122973324Y-103694381D01*
X122974921Y-102321881D01*
X122968549Y-102257190D01*
X122949680Y-102194984D01*
X122919037Y-102137656D01*
X122877798Y-102087407D01*
X122827549Y-102046168D01*
X122770221Y-102015525D01*
X122708015Y-101996656D01*
X122643324Y-101990284D01*
X121770824Y-101991881D01*
X121688324Y-102074381D01*
X121598324Y-102074381D01*
X121515824Y-101991881D01*
X120643324Y-101990284D01*
X120578633Y-101996656D01*
X120516427Y-102015525D01*
X120459099Y-102046168D01*
X120408850Y-102087407D01*
X120367611Y-102137656D01*
X120336968Y-102194984D01*
X120318099Y-102257190D01*
X120311727Y-102321881D01*
X119084485Y-102321881D01*
X119079851Y-102274833D01*
X119066128Y-102229593D01*
X119043842Y-102187899D01*
X119013851Y-102151354D01*
X118977306Y-102121363D01*
X118935612Y-102099077D01*
X118890372Y-102085354D01*
X118843324Y-102080720D01*
X118535467Y-102080720D01*
X119901188Y-100715000D01*
X120809649Y-100715000D01*
X120825003Y-100792190D01*
X120838726Y-100837429D01*
X120876235Y-100927985D01*
X120898521Y-100969680D01*
X120952977Y-101051179D01*
X120982968Y-101087724D01*
X121052276Y-101157032D01*
X121088821Y-101187023D01*
X121170320Y-101241479D01*
X121212015Y-101263765D01*
X121302571Y-101301274D01*
X121347810Y-101314997D01*
X121443943Y-101334119D01*
X121490991Y-101338753D01*
X121515552Y-101338753D01*
X121540000Y-101341161D01*
X122090000Y-101341161D01*
X122137048Y-101336527D01*
X122182288Y-101322804D01*
X122215000Y-101305319D01*
X122247712Y-101322804D01*
X122292952Y-101336527D01*
X122340000Y-101341161D01*
X122474105Y-101341161D01*
X122473234Y-101350000D01*
X122479109Y-101409644D01*
X122480282Y-101421552D01*
X122501153Y-101490355D01*
X122535046Y-101553764D01*
X122580658Y-101609343D01*
X122594588Y-101620775D01*
X122769221Y-101795408D01*
X122780657Y-101809343D01*
X122836236Y-101854955D01*
X122899645Y-101888848D01*
X122968448Y-101909719D01*
X123022069Y-101915000D01*
X123022071Y-101915000D01*
X123040000Y-101916766D01*
X123057929Y-101915000D01*
X128392071Y-101915000D01*
X128410000Y-101916766D01*
X128427929Y-101915000D01*
X128427931Y-101915000D01*
X128481552Y-101909719D01*
X128550355Y-101888848D01*
X128613764Y-101854955D01*
X128669343Y-101809343D01*
X128680779Y-101795408D01*
X128767499Y-101708688D01*
X128815236Y-101663884D01*
X128851130Y-101635044D01*
X128879385Y-101616391D01*
X128903524Y-101603813D01*
X128928740Y-101593695D01*
X128960416Y-101583752D01*
X129002236Y-101572634D01*
X129052958Y-101559643D01*
X129057653Y-101558390D01*
X129114896Y-101542487D01*
X129124068Y-101539740D01*
X129147433Y-101532233D01*
X129172097Y-101527327D01*
X129279470Y-101482851D01*
X129376103Y-101418283D01*
X129458283Y-101336103D01*
X129522851Y-101239470D01*
X129567327Y-101132097D01*
X129590000Y-101018110D01*
X129590000Y-100901890D01*
X129567327Y-100787903D01*
X129522851Y-100680530D01*
X129458283Y-100583897D01*
X129376103Y-100501717D01*
X129279470Y-100437149D01*
X129172097Y-100392673D01*
X129058110Y-100370000D01*
X128941890Y-100370000D01*
X128827903Y-100392673D01*
X128720530Y-100437149D01*
X128623897Y-100501717D01*
X128541717Y-100583897D01*
X128477149Y-100680530D01*
X128432673Y-100787903D01*
X128427769Y-100812556D01*
X128420260Y-100835926D01*
X128417512Y-100845103D01*
X128401609Y-100902346D01*
X128400356Y-100907041D01*
X128387365Y-100957763D01*
X128376247Y-100999583D01*
X128366304Y-101031259D01*
X128356186Y-101056475D01*
X128343608Y-101080614D01*
X128324955Y-101108869D01*
X128296114Y-101144763D01*
X128258351Y-101185000D01*
X124593644Y-101185000D01*
X124627724Y-101157032D01*
X124697032Y-101087724D01*
X124727023Y-101051179D01*
X124781479Y-100969680D01*
X124803765Y-100927985D01*
X124841274Y-100837429D01*
X124854997Y-100792190D01*
X124869762Y-100717960D01*
X124907401Y-100722061D01*
X124940576Y-100728852D01*
X124966532Y-100737025D01*
X124991511Y-100747698D01*
X125020954Y-100763073D01*
X125058420Y-100784803D01*
X125103439Y-100811462D01*
X125107640Y-100813893D01*
X125159362Y-100843125D01*
X125167792Y-100847670D01*
X125189637Y-100858891D01*
X125210530Y-100872851D01*
X125317903Y-100917327D01*
X125431890Y-100940000D01*
X125548110Y-100940000D01*
X125662097Y-100917327D01*
X125769470Y-100872851D01*
X125866103Y-100808283D01*
X125948283Y-100726103D01*
X126012851Y-100629470D01*
X126057327Y-100522097D01*
X126080000Y-100408110D01*
X126080000Y-100291890D01*
X126057327Y-100177903D01*
X126012851Y-100070530D01*
X125948283Y-99973897D01*
X125866103Y-99891717D01*
X125769470Y-99827149D01*
X125662097Y-99782673D01*
X125548110Y-99760000D01*
X125431890Y-99760000D01*
X125317903Y-99782673D01*
X125210530Y-99827149D01*
X125189637Y-99841109D01*
X125167795Y-99852328D01*
X125159362Y-99856874D01*
X125107640Y-99886106D01*
X125103439Y-99888537D01*
X125058420Y-99915196D01*
X125020954Y-99936926D01*
X124991511Y-99952301D01*
X124966532Y-99962974D01*
X124940576Y-99971147D01*
X124907401Y-99977938D01*
X124869762Y-99982039D01*
X124854997Y-99907810D01*
X124841274Y-99862571D01*
X124803765Y-99772015D01*
X124781479Y-99730320D01*
X124727023Y-99648821D01*
X124697032Y-99612276D01*
X124627724Y-99542968D01*
X124591179Y-99512977D01*
X124509680Y-99458521D01*
X124467985Y-99436235D01*
X124377429Y-99398726D01*
X124332190Y-99385003D01*
X124236057Y-99365881D01*
X124189009Y-99361247D01*
X124164448Y-99361247D01*
X124140000Y-99358839D01*
X123590000Y-99358839D01*
X123542952Y-99363473D01*
X123497712Y-99377196D01*
X123465000Y-99394681D01*
X123432288Y-99377196D01*
X123387048Y-99363473D01*
X123340000Y-99358839D01*
X122340000Y-99358839D01*
X122292952Y-99363473D01*
X122247712Y-99377196D01*
X122215000Y-99394681D01*
X122182288Y-99377196D01*
X122137048Y-99363473D01*
X122090000Y-99358839D01*
X121540000Y-99358839D01*
X121515552Y-99361247D01*
X121490991Y-99361247D01*
X121443943Y-99365881D01*
X121347810Y-99385003D01*
X121302571Y-99398726D01*
X121212015Y-99436235D01*
X121170320Y-99458521D01*
X121088821Y-99512977D01*
X121052276Y-99542968D01*
X120982968Y-99612276D01*
X120952977Y-99648821D01*
X120898521Y-99730320D01*
X120876235Y-99772015D01*
X120838726Y-99862571D01*
X120825003Y-99907810D01*
X120809649Y-99985000D01*
X119767929Y-99985000D01*
X119750000Y-99983234D01*
X119732071Y-99985000D01*
X119732069Y-99985000D01*
X119678448Y-99990281D01*
X119609645Y-100011152D01*
X119546236Y-100045045D01*
X119490657Y-100090657D01*
X119479225Y-100104587D01*
X117594588Y-101989225D01*
X117580657Y-102000658D01*
X117535045Y-102056237D01*
X117521958Y-102080720D01*
X116909401Y-102080720D01*
X120430121Y-98560000D01*
X150105762Y-98560000D01*
X150120000Y-98561402D01*
X150134238Y-98560000D01*
X150134245Y-98560000D01*
X150176850Y-98555804D01*
X150231515Y-98539221D01*
X150281895Y-98512293D01*
X150326053Y-98476053D01*
X150335138Y-98464983D01*
X155214988Y-93585134D01*
X155226053Y-93576053D01*
X155262293Y-93531895D01*
X155289221Y-93481515D01*
X155305804Y-93426850D01*
X155310000Y-93384245D01*
X155310000Y-93384236D01*
X155311402Y-93370001D01*
X155310000Y-93355766D01*
X155310000Y-84300000D01*
X155783234Y-84300000D01*
X155785000Y-84317929D01*
X155785001Y-96562061D01*
X155783234Y-96580000D01*
X155790282Y-96651552D01*
X155811153Y-96720355D01*
X155845046Y-96783764D01*
X155890658Y-96839343D01*
X155904588Y-96850775D01*
X155912865Y-96859052D01*
X155924963Y-96884142D01*
X155932553Y-96905176D01*
X155937327Y-96927612D01*
X155940000Y-96967929D01*
X155940000Y-97018110D01*
X155962673Y-97132097D01*
X156007149Y-97239470D01*
X156071717Y-97336103D01*
X156153897Y-97418283D01*
X156250530Y-97482851D01*
X156357903Y-97527327D01*
X156471890Y-97550000D01*
X156588110Y-97550000D01*
X156702097Y-97527327D01*
X156809470Y-97482851D01*
X156906103Y-97418283D01*
X156988283Y-97336103D01*
X157052851Y-97239470D01*
X157097327Y-97132097D01*
X157120000Y-97018110D01*
X157120000Y-96901890D01*
X157097327Y-96787903D01*
X157052851Y-96680530D01*
X156988283Y-96583897D01*
X156906103Y-96501717D01*
X156809470Y-96437149D01*
X156702097Y-96392673D01*
X156659638Y-96384228D01*
X156658175Y-96383816D01*
X156637270Y-96378933D01*
X156585187Y-96369201D01*
X156574972Y-96367520D01*
X156524433Y-96360316D01*
X156515000Y-96358924D01*
X156515000Y-84451187D01*
X157081188Y-83885000D01*
X157248839Y-83885000D01*
X157248839Y-84080000D01*
X157253473Y-84127048D01*
X157267196Y-84172288D01*
X157284681Y-84205000D01*
X157267196Y-84237712D01*
X157253473Y-84282952D01*
X157248839Y-84330000D01*
X157248839Y-85330000D01*
X157253473Y-85377048D01*
X157267196Y-85422288D01*
X157284681Y-85455000D01*
X157267196Y-85487712D01*
X157253473Y-85532952D01*
X157248839Y-85580000D01*
X157248839Y-86130000D01*
X157251247Y-86154448D01*
X157251247Y-86179009D01*
X157255881Y-86226057D01*
X157275003Y-86322190D01*
X157288726Y-86367429D01*
X157326235Y-86457985D01*
X157348521Y-86499680D01*
X157350769Y-86503044D01*
X157174588Y-86679225D01*
X157160657Y-86690658D01*
X157115045Y-86746237D01*
X157081152Y-86809646D01*
X157060281Y-86878449D01*
X157055000Y-86932069D01*
X157053234Y-86950000D01*
X157055000Y-86967929D01*
X157055001Y-95272061D01*
X157053234Y-95290000D01*
X157058885Y-95347365D01*
X157060282Y-95361552D01*
X157081153Y-95430355D01*
X157115046Y-95493764D01*
X157160658Y-95549343D01*
X157174587Y-95560774D01*
X157341326Y-95727514D01*
X157386109Y-95775229D01*
X157414955Y-95811130D01*
X157433608Y-95839385D01*
X157446186Y-95863524D01*
X157456304Y-95888740D01*
X157466247Y-95920416D01*
X157477365Y-95962236D01*
X157490356Y-96012958D01*
X157491609Y-96017653D01*
X157507512Y-96074896D01*
X157510260Y-96084072D01*
X157517769Y-96107440D01*
X157522673Y-96132097D01*
X157567149Y-96239470D01*
X157631717Y-96336103D01*
X157713897Y-96418283D01*
X157810530Y-96482851D01*
X157917903Y-96527327D01*
X158031890Y-96550000D01*
X158148110Y-96550000D01*
X158262097Y-96527327D01*
X158369470Y-96482851D01*
X158466103Y-96418283D01*
X158548283Y-96336103D01*
X158612851Y-96239470D01*
X158657327Y-96132097D01*
X158680000Y-96018110D01*
X158680000Y-95901890D01*
X158657327Y-95787903D01*
X158612851Y-95680530D01*
X158548283Y-95583897D01*
X158466103Y-95501717D01*
X158369470Y-95437149D01*
X158262097Y-95392673D01*
X158237440Y-95387769D01*
X158214072Y-95380260D01*
X158204896Y-95377512D01*
X158147653Y-95361609D01*
X158142958Y-95360356D01*
X158092236Y-95347365D01*
X158050416Y-95336247D01*
X158018740Y-95326304D01*
X157993524Y-95316186D01*
X157969385Y-95303608D01*
X157941130Y-95284955D01*
X157905229Y-95256109D01*
X157857514Y-95211326D01*
X157785000Y-95138813D01*
X157785000Y-93657644D01*
X159080000Y-93657644D01*
X159080000Y-93872356D01*
X159121888Y-94082941D01*
X159204055Y-94281309D01*
X159323342Y-94459834D01*
X159475166Y-94611658D01*
X159653691Y-94730945D01*
X159852059Y-94813112D01*
X160062644Y-94855000D01*
X160277356Y-94855000D01*
X160487941Y-94813112D01*
X160513212Y-94802644D01*
X161060000Y-94802644D01*
X161060000Y-95017356D01*
X161101888Y-95227941D01*
X161184055Y-95426309D01*
X161303342Y-95604834D01*
X161455166Y-95756658D01*
X161633691Y-95875945D01*
X161832059Y-95958112D01*
X162042644Y-96000000D01*
X162257356Y-96000000D01*
X162467941Y-95958112D01*
X162493212Y-95947644D01*
X163040000Y-95947644D01*
X163040000Y-96162356D01*
X163081888Y-96372941D01*
X163164055Y-96571309D01*
X163283342Y-96749834D01*
X163435166Y-96901658D01*
X163613691Y-97020945D01*
X163812059Y-97103112D01*
X164022644Y-97145000D01*
X164237356Y-97145000D01*
X164447941Y-97103112D01*
X164646309Y-97020945D01*
X164824834Y-96901658D01*
X164976658Y-96749834D01*
X165095945Y-96571309D01*
X165178112Y-96372941D01*
X165220000Y-96162356D01*
X165220000Y-95947644D01*
X165178112Y-95737059D01*
X165095945Y-95538691D01*
X164976658Y-95360166D01*
X164824834Y-95208342D01*
X164646309Y-95089055D01*
X164447941Y-95006888D01*
X164237356Y-94965000D01*
X164022644Y-94965000D01*
X163812059Y-95006888D01*
X163613691Y-95089055D01*
X163435166Y-95208342D01*
X163283342Y-95360166D01*
X163164055Y-95538691D01*
X163081888Y-95737059D01*
X163040000Y-95947644D01*
X162493212Y-95947644D01*
X162666309Y-95875945D01*
X162844834Y-95756658D01*
X162996658Y-95604834D01*
X163115945Y-95426309D01*
X163198112Y-95227941D01*
X163240000Y-95017356D01*
X163240000Y-94802644D01*
X163198112Y-94592059D01*
X163115945Y-94393691D01*
X162996658Y-94215166D01*
X162844834Y-94063342D01*
X162666309Y-93944055D01*
X162467941Y-93861888D01*
X162257356Y-93820000D01*
X162042644Y-93820000D01*
X161832059Y-93861888D01*
X161633691Y-93944055D01*
X161455166Y-94063342D01*
X161303342Y-94215166D01*
X161184055Y-94393691D01*
X161101888Y-94592059D01*
X161060000Y-94802644D01*
X160513212Y-94802644D01*
X160686309Y-94730945D01*
X160864834Y-94611658D01*
X161016658Y-94459834D01*
X161135945Y-94281309D01*
X161218112Y-94082941D01*
X161260000Y-93872356D01*
X161260000Y-93657644D01*
X161218112Y-93447059D01*
X161211567Y-93431258D01*
X161402382Y-93431258D01*
X161489965Y-93605019D01*
X161694814Y-93714859D01*
X161917157Y-93782624D01*
X162148447Y-93805709D01*
X162379797Y-93783229D01*
X162602316Y-93716047D01*
X162711925Y-93657644D01*
X163040000Y-93657644D01*
X163040000Y-93872356D01*
X163081888Y-94082941D01*
X163164055Y-94281309D01*
X163283342Y-94459834D01*
X163435166Y-94611658D01*
X163613691Y-94730945D01*
X163812059Y-94813112D01*
X164022644Y-94855000D01*
X164237356Y-94855000D01*
X164447941Y-94813112D01*
X164646309Y-94730945D01*
X164824834Y-94611658D01*
X164976658Y-94459834D01*
X165095945Y-94281309D01*
X165178112Y-94082941D01*
X165220000Y-93872356D01*
X165220000Y-93657644D01*
X165178112Y-93447059D01*
X165095945Y-93248691D01*
X164976658Y-93070166D01*
X164824834Y-92918342D01*
X164646309Y-92799055D01*
X164447941Y-92716888D01*
X164237356Y-92675000D01*
X164022644Y-92675000D01*
X163812059Y-92716888D01*
X163613691Y-92799055D01*
X163435166Y-92918342D01*
X163283342Y-93070166D01*
X163164055Y-93248691D01*
X163081888Y-93447059D01*
X163040000Y-93657644D01*
X162711925Y-93657644D01*
X162807453Y-93606744D01*
X162810035Y-93605019D01*
X162897618Y-93431258D01*
X162150000Y-92683640D01*
X161402382Y-93431258D01*
X161211567Y-93431258D01*
X161135945Y-93248691D01*
X161016658Y-93070166D01*
X160864834Y-92918342D01*
X160686309Y-92799055D01*
X160487941Y-92716888D01*
X160277356Y-92675000D01*
X160062644Y-92675000D01*
X159852059Y-92716888D01*
X159653691Y-92799055D01*
X159475166Y-92918342D01*
X159323342Y-93070166D01*
X159204055Y-93248691D01*
X159121888Y-93447059D01*
X159080000Y-93657644D01*
X157785000Y-93657644D01*
X157785000Y-92618447D01*
X160964291Y-92618447D01*
X160986771Y-92849797D01*
X161053953Y-93072316D01*
X161163256Y-93277453D01*
X161164981Y-93280035D01*
X161338742Y-93367618D01*
X162086360Y-92620000D01*
X162213640Y-92620000D01*
X162961258Y-93367618D01*
X163135019Y-93280035D01*
X163244859Y-93075186D01*
X163312624Y-92852843D01*
X163335709Y-92621553D01*
X163313229Y-92390203D01*
X163246047Y-92167684D01*
X163136744Y-91962547D01*
X163135019Y-91959965D01*
X162961258Y-91872382D01*
X162213640Y-92620000D01*
X162086360Y-92620000D01*
X161338742Y-91872382D01*
X161164981Y-91959965D01*
X161055141Y-92164814D01*
X160987376Y-92387157D01*
X160964291Y-92618447D01*
X157785000Y-92618447D01*
X157785000Y-91367644D01*
X159080000Y-91367644D01*
X159080000Y-91582356D01*
X159121888Y-91792941D01*
X159204055Y-91991309D01*
X159323342Y-92169834D01*
X159475166Y-92321658D01*
X159653691Y-92440945D01*
X159852059Y-92523112D01*
X160062644Y-92565000D01*
X160277356Y-92565000D01*
X160487941Y-92523112D01*
X160686309Y-92440945D01*
X160864834Y-92321658D01*
X161016658Y-92169834D01*
X161135945Y-91991309D01*
X161218112Y-91792941D01*
X161260000Y-91582356D01*
X161260000Y-91367644D01*
X161218112Y-91157059D01*
X161211567Y-91141258D01*
X161402382Y-91141258D01*
X161489965Y-91315019D01*
X161694814Y-91424859D01*
X161859577Y-91475075D01*
X161697684Y-91523953D01*
X161492547Y-91633256D01*
X161489965Y-91634981D01*
X161402382Y-91808742D01*
X162150000Y-92556360D01*
X162897618Y-91808742D01*
X162810035Y-91634981D01*
X162605186Y-91525141D01*
X162440423Y-91474925D01*
X162602316Y-91426047D01*
X162807453Y-91316744D01*
X162810035Y-91315019D01*
X162897618Y-91141258D01*
X162150000Y-90393640D01*
X161402382Y-91141258D01*
X161211567Y-91141258D01*
X161135945Y-90958691D01*
X161016658Y-90780166D01*
X160864834Y-90628342D01*
X160686309Y-90509055D01*
X160487941Y-90426888D01*
X160277356Y-90385000D01*
X160062644Y-90385000D01*
X159852059Y-90426888D01*
X159653691Y-90509055D01*
X159475166Y-90628342D01*
X159323342Y-90780166D01*
X159204055Y-90958691D01*
X159121888Y-91157059D01*
X159080000Y-91367644D01*
X157785000Y-91367644D01*
X157785000Y-88335000D01*
X159078839Y-88335000D01*
X159078839Y-90035000D01*
X159083473Y-90082048D01*
X159097196Y-90127288D01*
X159119482Y-90168982D01*
X159149473Y-90205527D01*
X159186018Y-90235518D01*
X159227712Y-90257804D01*
X159272952Y-90271527D01*
X159320000Y-90276161D01*
X160969510Y-90276161D01*
X160964291Y-90328447D01*
X160986771Y-90559797D01*
X161053953Y-90782316D01*
X161163256Y-90987453D01*
X161164981Y-90990035D01*
X161338742Y-91077618D01*
X162086360Y-90330000D01*
X162213640Y-90330000D01*
X162961258Y-91077618D01*
X163135019Y-90990035D01*
X163244859Y-90785186D01*
X163312624Y-90562843D01*
X163335709Y-90331553D01*
X163313229Y-90100203D01*
X163246047Y-89877684D01*
X163136744Y-89672547D01*
X163135019Y-89669965D01*
X162961258Y-89582382D01*
X162213640Y-90330000D01*
X162086360Y-90330000D01*
X161338742Y-89582382D01*
X161261161Y-89621486D01*
X161261161Y-88851258D01*
X161402382Y-88851258D01*
X161489965Y-89025019D01*
X161694814Y-89134859D01*
X161859577Y-89185075D01*
X161697684Y-89233953D01*
X161492547Y-89343256D01*
X161489965Y-89344981D01*
X161402382Y-89518742D01*
X162150000Y-90266360D01*
X162897618Y-89518742D01*
X162810035Y-89344981D01*
X162605186Y-89235141D01*
X162440423Y-89184925D01*
X162602316Y-89136047D01*
X162711925Y-89077644D01*
X163040000Y-89077644D01*
X163040000Y-89292356D01*
X163081888Y-89502941D01*
X163164055Y-89701309D01*
X163283342Y-89879834D01*
X163435166Y-90031658D01*
X163613691Y-90150945D01*
X163812059Y-90233112D01*
X164022644Y-90275000D01*
X164237356Y-90275000D01*
X164447941Y-90233112D01*
X164646309Y-90150945D01*
X164824834Y-90031658D01*
X164976658Y-89879834D01*
X165095945Y-89701309D01*
X165178112Y-89502941D01*
X165220000Y-89292356D01*
X165220000Y-89077644D01*
X165178112Y-88867059D01*
X165095945Y-88668691D01*
X164976658Y-88490166D01*
X164824834Y-88338342D01*
X164646309Y-88219055D01*
X164447941Y-88136888D01*
X164237356Y-88095000D01*
X164022644Y-88095000D01*
X163812059Y-88136888D01*
X163613691Y-88219055D01*
X163435166Y-88338342D01*
X163283342Y-88490166D01*
X163164055Y-88668691D01*
X163081888Y-88867059D01*
X163040000Y-89077644D01*
X162711925Y-89077644D01*
X162807453Y-89026744D01*
X162810035Y-89025019D01*
X162897618Y-88851258D01*
X162150000Y-88103640D01*
X161402382Y-88851258D01*
X161261161Y-88851258D01*
X161261161Y-88748514D01*
X161338742Y-88787618D01*
X162086360Y-88040000D01*
X162213640Y-88040000D01*
X162961258Y-88787618D01*
X163135019Y-88700035D01*
X163244859Y-88495186D01*
X163312624Y-88272843D01*
X163335709Y-88041553D01*
X163313229Y-87810203D01*
X163246047Y-87587684D01*
X163136744Y-87382547D01*
X163135019Y-87379965D01*
X162961258Y-87292382D01*
X162213640Y-88040000D01*
X162086360Y-88040000D01*
X161338742Y-87292382D01*
X161164981Y-87379965D01*
X161055141Y-87584814D01*
X160987376Y-87807157D01*
X160964291Y-88038447D01*
X160969673Y-88093839D01*
X159320000Y-88093839D01*
X159272952Y-88098473D01*
X159227712Y-88112196D01*
X159186018Y-88134482D01*
X159149473Y-88164473D01*
X159119482Y-88201018D01*
X159097196Y-88242712D01*
X159083473Y-88287952D01*
X159078839Y-88335000D01*
X157785000Y-88335000D01*
X157785000Y-87228742D01*
X161402382Y-87228742D01*
X162150000Y-87976360D01*
X162897618Y-87228742D01*
X162810035Y-87054981D01*
X162605186Y-86945141D01*
X162382843Y-86877376D01*
X162151553Y-86854291D01*
X161920203Y-86876771D01*
X161697684Y-86943953D01*
X161492547Y-87053256D01*
X161489965Y-87054981D01*
X161402382Y-87228742D01*
X157785000Y-87228742D01*
X157785000Y-87101187D01*
X158015026Y-86871161D01*
X158490000Y-86871161D01*
X158514448Y-86868753D01*
X158539009Y-86868753D01*
X158586057Y-86864119D01*
X158682190Y-86844997D01*
X158727429Y-86831274D01*
X158817985Y-86793765D01*
X158859680Y-86771479D01*
X158941179Y-86717023D01*
X158977724Y-86687032D01*
X159047032Y-86617724D01*
X159077023Y-86581179D01*
X159131479Y-86499680D01*
X159153765Y-86457985D01*
X159191274Y-86367429D01*
X159204997Y-86322190D01*
X159224119Y-86226057D01*
X159228753Y-86179009D01*
X159228753Y-86154448D01*
X159231161Y-86130000D01*
X159231161Y-85580000D01*
X159226527Y-85532952D01*
X159212804Y-85487712D01*
X159195319Y-85455000D01*
X159212804Y-85422288D01*
X159226527Y-85377048D01*
X159231161Y-85330000D01*
X159231161Y-85195164D01*
X159235046Y-85195000D01*
X163798813Y-85195000D01*
X165715000Y-87111188D01*
X165715001Y-90678811D01*
X165460937Y-90932875D01*
X165379121Y-90998784D01*
X165343117Y-91013327D01*
X165324633Y-91013549D01*
X165288352Y-91001249D01*
X165224153Y-90961570D01*
X165138586Y-90892959D01*
X165037469Y-90803872D01*
X165035437Y-90802102D01*
X164923658Y-90705830D01*
X164912230Y-90696581D01*
X164832480Y-90635988D01*
X164824834Y-90628342D01*
X164804784Y-90614945D01*
X164791450Y-90604814D01*
X164769586Y-90590026D01*
X164749339Y-90577898D01*
X164646309Y-90509055D01*
X164447941Y-90426888D01*
X164237356Y-90385000D01*
X164022644Y-90385000D01*
X163812059Y-90426888D01*
X163613691Y-90509055D01*
X163435166Y-90628342D01*
X163283342Y-90780166D01*
X163164055Y-90958691D01*
X163081888Y-91157059D01*
X163040000Y-91367644D01*
X163040000Y-91582356D01*
X163081888Y-91792941D01*
X163164055Y-91991309D01*
X163283342Y-92169834D01*
X163435166Y-92321658D01*
X163613691Y-92440945D01*
X163812059Y-92523112D01*
X164022644Y-92565000D01*
X164237356Y-92565000D01*
X164447941Y-92523112D01*
X164646309Y-92440945D01*
X164824834Y-92321658D01*
X164897839Y-92248653D01*
X165006021Y-92147662D01*
X165099066Y-92073079D01*
X165185151Y-92014092D01*
X165270667Y-91962820D01*
X165360928Y-91912494D01*
X165362147Y-91911810D01*
X165457356Y-91857996D01*
X165465640Y-91853092D01*
X165467216Y-91852116D01*
X165491552Y-91849719D01*
X165560355Y-91828848D01*
X165623764Y-91794955D01*
X165679343Y-91749343D01*
X165690779Y-91735408D01*
X166325413Y-91100775D01*
X166339343Y-91089343D01*
X166384955Y-91033764D01*
X166418848Y-90970355D01*
X166439719Y-90901552D01*
X166445000Y-90847931D01*
X166445000Y-90847929D01*
X166446766Y-90830000D01*
X166445000Y-90812071D01*
X166445000Y-86977929D01*
X166446766Y-86960000D01*
X166444015Y-86932069D01*
X166439719Y-86888448D01*
X166418848Y-86819645D01*
X166384955Y-86756236D01*
X166375386Y-86744576D01*
X166350773Y-86714585D01*
X166350770Y-86714582D01*
X166339342Y-86700657D01*
X166325418Y-86689230D01*
X164220779Y-84584592D01*
X164209343Y-84570657D01*
X164153764Y-84525045D01*
X164090355Y-84491152D01*
X164021552Y-84470281D01*
X163967931Y-84465000D01*
X163967929Y-84465000D01*
X163950000Y-84463234D01*
X163932071Y-84465000D01*
X159235050Y-84465000D01*
X159231161Y-84464836D01*
X159231161Y-84330000D01*
X159226527Y-84282952D01*
X159212804Y-84237712D01*
X159195319Y-84205000D01*
X159212804Y-84172288D01*
X159226527Y-84127048D01*
X159231161Y-84080000D01*
X159231161Y-83530000D01*
X159228753Y-83505552D01*
X159228753Y-83480991D01*
X159224119Y-83433943D01*
X159204997Y-83337810D01*
X159191274Y-83292571D01*
X159153765Y-83202015D01*
X159131479Y-83160320D01*
X159077023Y-83078821D01*
X159047032Y-83042276D01*
X158977724Y-82972968D01*
X158941179Y-82942977D01*
X158910008Y-82922149D01*
X160561490Y-82922149D01*
X160790999Y-83217063D01*
X161196966Y-83444779D01*
X161639556Y-83588919D01*
X162101763Y-83643944D01*
X162565823Y-83607740D01*
X163013903Y-83481698D01*
X163428785Y-83270662D01*
X163509001Y-83217063D01*
X163738510Y-82922149D01*
X162150000Y-81333640D01*
X160561490Y-82922149D01*
X158910008Y-82922149D01*
X158859680Y-82888521D01*
X158817985Y-82866235D01*
X158727429Y-82828726D01*
X158682190Y-82815003D01*
X158586057Y-82795881D01*
X158539009Y-82791247D01*
X158514448Y-82791247D01*
X158490000Y-82788839D01*
X157990000Y-82788839D01*
X157965552Y-82791247D01*
X157940991Y-82791247D01*
X157893943Y-82795881D01*
X157797810Y-82815003D01*
X157752571Y-82828726D01*
X157662015Y-82866235D01*
X157620320Y-82888521D01*
X157538821Y-82942977D01*
X157502276Y-82972968D01*
X157432968Y-83042276D01*
X157402977Y-83078821D01*
X157352076Y-83155000D01*
X156947929Y-83155000D01*
X156930000Y-83153234D01*
X156912071Y-83155000D01*
X156912069Y-83155000D01*
X156858448Y-83160281D01*
X156789645Y-83181152D01*
X156726236Y-83215045D01*
X156670657Y-83260657D01*
X156659225Y-83274587D01*
X155904588Y-84029225D01*
X155890657Y-84040658D01*
X155845045Y-84096237D01*
X155811152Y-84159646D01*
X155790281Y-84228449D01*
X155785153Y-84280518D01*
X155783234Y-84300000D01*
X155310000Y-84300000D01*
X155310000Y-81221763D01*
X159776056Y-81221763D01*
X159812260Y-81685823D01*
X159938302Y-82133903D01*
X160149338Y-82548785D01*
X160202937Y-82629001D01*
X160497851Y-82858510D01*
X162086360Y-81270000D01*
X162213640Y-81270000D01*
X163802149Y-82858510D01*
X164097063Y-82629001D01*
X164324779Y-82223034D01*
X164468919Y-81780444D01*
X164523944Y-81318237D01*
X164487740Y-80854177D01*
X164361698Y-80406097D01*
X164150662Y-79991215D01*
X164097063Y-79910999D01*
X163802149Y-79681490D01*
X162213640Y-81270000D01*
X162086360Y-81270000D01*
X160497851Y-79681490D01*
X160202937Y-79910999D01*
X159975221Y-80316966D01*
X159831081Y-80759556D01*
X159776056Y-81221763D01*
X155310000Y-81221763D01*
X155310000Y-79617851D01*
X160561490Y-79617851D01*
X162150000Y-81206360D01*
X163738510Y-79617851D01*
X163509001Y-79322937D01*
X163103034Y-79095221D01*
X162660444Y-78951081D01*
X162198237Y-78896056D01*
X161734177Y-78932260D01*
X161286097Y-79058302D01*
X160871215Y-79269338D01*
X160790999Y-79322937D01*
X160561490Y-79617851D01*
X155310000Y-79617851D01*
X155310000Y-78640000D01*
X166890001Y-78640000D01*
X166890000Y-108830000D01*
G37*
G04 #@! TD.AperFunction*
D21*
X133368611Y-100560765D02*
X133323311Y-100609031D01*
X133322671Y-100609767D01*
X133281032Y-100661589D01*
X133280333Y-100662547D01*
X133248676Y-100710501D01*
X133248012Y-100711629D01*
X133224233Y-100757263D01*
X133223709Y-100758403D01*
X133205708Y-100803264D01*
X133205378Y-100804190D01*
X133191054Y-100849824D01*
X133190897Y-100850364D01*
X133178148Y-100898321D01*
X133178119Y-100898433D01*
X133164883Y-100950113D01*
X133149071Y-101007027D01*
X133131299Y-101062340D01*
X132699213Y-101070787D01*
X132707660Y-100638701D01*
X132762972Y-100620928D01*
X132819886Y-100605116D01*
X132871566Y-100591880D01*
X132871678Y-100591851D01*
X132919635Y-100579102D01*
X132920175Y-100578945D01*
X132965809Y-100564621D01*
X132966735Y-100564291D01*
X133011596Y-100546290D01*
X133012736Y-100545766D01*
X133058370Y-100521987D01*
X133059498Y-100521323D01*
X133107452Y-100489666D01*
X133108410Y-100488967D01*
X133160232Y-100447328D01*
X133160968Y-100446688D01*
X133209235Y-100401389D01*
X133368611Y-100560765D01*
G04 #@! TA.AperFunction,Conductor*
D20*
G36*
X133368611Y-100560765D02*
G01*
X133323311Y-100609031D01*
X133322671Y-100609767D01*
X133281032Y-100661589D01*
X133280333Y-100662547D01*
X133248676Y-100710501D01*
X133248012Y-100711629D01*
X133224233Y-100757263D01*
X133223709Y-100758403D01*
X133205708Y-100803264D01*
X133205378Y-100804190D01*
X133191054Y-100849824D01*
X133190897Y-100850364D01*
X133178148Y-100898321D01*
X133178119Y-100898433D01*
X133164883Y-100950113D01*
X133149071Y-101007027D01*
X133131299Y-101062340D01*
X132699213Y-101070787D01*
X132707660Y-100638701D01*
X132762972Y-100620928D01*
X132819886Y-100605116D01*
X132871566Y-100591880D01*
X132871678Y-100591851D01*
X132919635Y-100579102D01*
X132920175Y-100578945D01*
X132965809Y-100564621D01*
X132966735Y-100564291D01*
X133011596Y-100546290D01*
X133012736Y-100545766D01*
X133058370Y-100521987D01*
X133059498Y-100521323D01*
X133107452Y-100489666D01*
X133108410Y-100488967D01*
X133160232Y-100447328D01*
X133160968Y-100446688D01*
X133209235Y-100401389D01*
X133368611Y-100560765D01*
G37*
G04 #@! TD.AperFunction*
D21*
X159439031Y-99766688D02*
X159439767Y-99767328D01*
X159491589Y-99808967D01*
X159492547Y-99809666D01*
X159540501Y-99841323D01*
X159541629Y-99841987D01*
X159587263Y-99865766D01*
X159588403Y-99866290D01*
X159633264Y-99884291D01*
X159634190Y-99884621D01*
X159679824Y-99898945D01*
X159680364Y-99899102D01*
X159728321Y-99911851D01*
X159728433Y-99911880D01*
X159780113Y-99925116D01*
X159837027Y-99940928D01*
X159892340Y-99958701D01*
X159900787Y-100390787D01*
X159468701Y-100382340D01*
X159450928Y-100327027D01*
X159435116Y-100270113D01*
X159421880Y-100218433D01*
X159421851Y-100218321D01*
X159409102Y-100170364D01*
X159408945Y-100169824D01*
X159394621Y-100124190D01*
X159394291Y-100123264D01*
X159376290Y-100078403D01*
X159375766Y-100077263D01*
X159351987Y-100031629D01*
X159351323Y-100030501D01*
X159319666Y-99982547D01*
X159318967Y-99981589D01*
X159277328Y-99929767D01*
X159276688Y-99929031D01*
X159231389Y-99880765D01*
X159390765Y-99721389D01*
X159439031Y-99766688D01*
G04 #@! TA.AperFunction,Conductor*
D20*
G36*
X159439031Y-99766688D02*
G01*
X159439767Y-99767328D01*
X159491589Y-99808967D01*
X159492547Y-99809666D01*
X159540501Y-99841323D01*
X159541629Y-99841987D01*
X159587263Y-99865766D01*
X159588403Y-99866290D01*
X159633264Y-99884291D01*
X159634190Y-99884621D01*
X159679824Y-99898945D01*
X159680364Y-99899102D01*
X159728321Y-99911851D01*
X159728433Y-99911880D01*
X159780113Y-99925116D01*
X159837027Y-99940928D01*
X159892340Y-99958701D01*
X159900787Y-100390787D01*
X159468701Y-100382340D01*
X159450928Y-100327027D01*
X159435116Y-100270113D01*
X159421880Y-100218433D01*
X159421851Y-100218321D01*
X159409102Y-100170364D01*
X159408945Y-100169824D01*
X159394621Y-100124190D01*
X159394291Y-100123264D01*
X159376290Y-100078403D01*
X159375766Y-100077263D01*
X159351987Y-100031629D01*
X159351323Y-100030501D01*
X159319666Y-99982547D01*
X159318967Y-99981589D01*
X159277328Y-99929767D01*
X159276688Y-99929031D01*
X159231389Y-99880765D01*
X159390765Y-99721389D01*
X159439031Y-99766688D01*
G37*
G04 #@! TD.AperFunction*
D21*
X129102340Y-101281299D02*
X129047027Y-101299071D01*
X128990113Y-101314883D01*
X128938433Y-101328119D01*
X128938321Y-101328148D01*
X128890364Y-101340897D01*
X128889824Y-101341054D01*
X128844190Y-101355378D01*
X128843264Y-101355708D01*
X128798403Y-101373709D01*
X128797263Y-101374233D01*
X128751629Y-101398012D01*
X128750501Y-101398676D01*
X128702547Y-101430333D01*
X128701589Y-101431032D01*
X128649767Y-101472671D01*
X128649031Y-101473311D01*
X128600765Y-101518611D01*
X128441389Y-101359235D01*
X128486688Y-101310968D01*
X128487328Y-101310232D01*
X128528967Y-101258410D01*
X128529666Y-101257452D01*
X128561323Y-101209498D01*
X128561987Y-101208370D01*
X128585766Y-101162736D01*
X128586290Y-101161596D01*
X128604291Y-101116735D01*
X128604621Y-101115809D01*
X128618945Y-101070175D01*
X128619102Y-101069635D01*
X128631851Y-101021678D01*
X128631880Y-101021566D01*
X128645116Y-100969886D01*
X128660928Y-100912972D01*
X128678701Y-100857660D01*
X129110787Y-100849213D01*
X129102340Y-101281299D01*
G04 #@! TA.AperFunction,Conductor*
D20*
G36*
X129102340Y-101281299D02*
G01*
X129047027Y-101299071D01*
X128990113Y-101314883D01*
X128938433Y-101328119D01*
X128938321Y-101328148D01*
X128890364Y-101340897D01*
X128889824Y-101341054D01*
X128844190Y-101355378D01*
X128843264Y-101355708D01*
X128798403Y-101373709D01*
X128797263Y-101374233D01*
X128751629Y-101398012D01*
X128750501Y-101398676D01*
X128702547Y-101430333D01*
X128701589Y-101431032D01*
X128649767Y-101472671D01*
X128649031Y-101473311D01*
X128600765Y-101518611D01*
X128441389Y-101359235D01*
X128486688Y-101310968D01*
X128487328Y-101310232D01*
X128528967Y-101258410D01*
X128529666Y-101257452D01*
X128561323Y-101209498D01*
X128561987Y-101208370D01*
X128585766Y-101162736D01*
X128586290Y-101161596D01*
X128604291Y-101116735D01*
X128604621Y-101115809D01*
X128618945Y-101070175D01*
X128619102Y-101069635D01*
X128631851Y-101021678D01*
X128631880Y-101021566D01*
X128645116Y-100969886D01*
X128660928Y-100912972D01*
X128678701Y-100857660D01*
X129110787Y-100849213D01*
X129102340Y-101281299D01*
G37*
G04 #@! TD.AperFunction*
D21*
X123274473Y-100570119D02*
X123231434Y-100651306D01*
X123184795Y-100726549D01*
X123139601Y-100792362D01*
X123096872Y-100852889D01*
X123096648Y-100853217D01*
X123057567Y-100912422D01*
X123057057Y-100913263D01*
X123022722Y-100975231D01*
X123022098Y-100976526D01*
X122993562Y-101045413D01*
X122993038Y-101046949D01*
X122971353Y-101126911D01*
X122971041Y-101128415D01*
X122957258Y-101223605D01*
X122957138Y-101224890D01*
X122952824Y-101327300D01*
X122727176Y-101327300D01*
X122722861Y-101224890D01*
X122722741Y-101223605D01*
X122708958Y-101128415D01*
X122708646Y-101126911D01*
X122686961Y-101046949D01*
X122686437Y-101045413D01*
X122657901Y-100976526D01*
X122657277Y-100975231D01*
X122622942Y-100913263D01*
X122622432Y-100912422D01*
X122583351Y-100853217D01*
X122583127Y-100852889D01*
X122540398Y-100792362D01*
X122495204Y-100726549D01*
X122448565Y-100651306D01*
X122405527Y-100570120D01*
X122840000Y-100118322D01*
X123274473Y-100570119D01*
G04 #@! TA.AperFunction,Conductor*
D20*
G36*
X123274473Y-100570119D02*
G01*
X123231434Y-100651306D01*
X123184795Y-100726549D01*
X123139601Y-100792362D01*
X123096872Y-100852889D01*
X123096648Y-100853217D01*
X123057567Y-100912422D01*
X123057057Y-100913263D01*
X123022722Y-100975231D01*
X123022098Y-100976526D01*
X122993562Y-101045413D01*
X122993038Y-101046949D01*
X122971353Y-101126911D01*
X122971041Y-101128415D01*
X122957258Y-101223605D01*
X122957138Y-101224890D01*
X122952824Y-101327300D01*
X122727176Y-101327300D01*
X122722861Y-101224890D01*
X122722741Y-101223605D01*
X122708958Y-101128415D01*
X122708646Y-101126911D01*
X122686961Y-101046949D01*
X122686437Y-101045413D01*
X122657901Y-100976526D01*
X122657277Y-100975231D01*
X122622942Y-100913263D01*
X122622432Y-100912422D01*
X122583351Y-100853217D01*
X122583127Y-100852889D01*
X122540398Y-100792362D01*
X122495204Y-100726549D01*
X122448565Y-100651306D01*
X122405527Y-100570120D01*
X122840000Y-100118322D01*
X123274473Y-100570119D01*
G37*
G04 #@! TD.AperFunction*
D21*
X121646678Y-100350000D02*
X121428630Y-100559686D01*
X121396800Y-100544103D01*
X121396793Y-100544099D01*
X121361429Y-100526815D01*
X121361216Y-100526713D01*
X121328775Y-100511598D01*
X121328311Y-100511393D01*
X121297268Y-100498411D01*
X121296555Y-100498138D01*
X121265382Y-100487253D01*
X121264492Y-100486978D01*
X121231665Y-100478153D01*
X121230725Y-100477939D01*
X121194717Y-100471139D01*
X121193851Y-100471006D01*
X121153138Y-100466194D01*
X121152420Y-100466130D01*
X121105475Y-100463269D01*
X121104921Y-100463247D01*
X121062700Y-100462518D01*
X121062700Y-100237482D01*
X121104922Y-100236752D01*
X121105475Y-100236730D01*
X121152420Y-100233869D01*
X121153138Y-100233805D01*
X121193851Y-100228993D01*
X121194717Y-100228860D01*
X121230725Y-100222060D01*
X121231665Y-100221846D01*
X121264492Y-100213021D01*
X121265382Y-100212746D01*
X121296555Y-100201861D01*
X121297268Y-100201588D01*
X121328311Y-100188606D01*
X121328775Y-100188401D01*
X121361216Y-100173286D01*
X121361429Y-100173184D01*
X121396793Y-100155900D01*
X121396800Y-100155897D01*
X121428631Y-100140314D01*
X121646678Y-100350000D01*
G04 #@! TA.AperFunction,Conductor*
D20*
G36*
X121646678Y-100350000D02*
G01*
X121428630Y-100559686D01*
X121396800Y-100544103D01*
X121396793Y-100544099D01*
X121361429Y-100526815D01*
X121361216Y-100526713D01*
X121328775Y-100511598D01*
X121328311Y-100511393D01*
X121297268Y-100498411D01*
X121296555Y-100498138D01*
X121265382Y-100487253D01*
X121264492Y-100486978D01*
X121231665Y-100478153D01*
X121230725Y-100477939D01*
X121194717Y-100471139D01*
X121193851Y-100471006D01*
X121153138Y-100466194D01*
X121152420Y-100466130D01*
X121105475Y-100463269D01*
X121104921Y-100463247D01*
X121062700Y-100462518D01*
X121062700Y-100237482D01*
X121104922Y-100236752D01*
X121105475Y-100236730D01*
X121152420Y-100233869D01*
X121153138Y-100233805D01*
X121193851Y-100228993D01*
X121194717Y-100228860D01*
X121230725Y-100222060D01*
X121231665Y-100221846D01*
X121264492Y-100213021D01*
X121265382Y-100212746D01*
X121296555Y-100201861D01*
X121297268Y-100201588D01*
X121328311Y-100188606D01*
X121328775Y-100188401D01*
X121361216Y-100173286D01*
X121361429Y-100173184D01*
X121396793Y-100155900D01*
X121396800Y-100155897D01*
X121428631Y-100140314D01*
X121646678Y-100350000D01*
G37*
G04 #@! TD.AperFunction*
D21*
X118158895Y-102101881D02*
X118054031Y-102234227D01*
X118052683Y-102236320D01*
X118052015Y-102237872D01*
X118006368Y-102366670D01*
X118005770Y-102369086D01*
X118005680Y-102371945D01*
X118015473Y-102491898D01*
X118015918Y-102494348D01*
X118016658Y-102496311D01*
X118071090Y-102610988D01*
X118072556Y-102613361D01*
X118160826Y-102726330D01*
X118161714Y-102727350D01*
X118273021Y-102842182D01*
X118273281Y-102842443D01*
X118396688Y-102962573D01*
X118521155Y-103091311D01*
X118635862Y-103232037D01*
X118725820Y-103380934D01*
X117847597Y-104300938D01*
X117151959Y-103116499D01*
X117267535Y-102992229D01*
X117268193Y-102991463D01*
X117362825Y-102871920D01*
X117363418Y-102871106D01*
X117437959Y-102759855D01*
X117438390Y-102759164D01*
X117500129Y-102652848D01*
X117500336Y-102652477D01*
X117556530Y-102547804D01*
X117614417Y-102441513D01*
X117681145Y-102330446D01*
X117764091Y-102211013D01*
X117870611Y-102079720D01*
X117999393Y-101942379D01*
X118158895Y-102101881D01*
G04 #@! TA.AperFunction,Conductor*
D20*
G36*
X118158895Y-102101881D02*
G01*
X118054031Y-102234227D01*
X118052683Y-102236320D01*
X118052015Y-102237872D01*
X118006368Y-102366670D01*
X118005770Y-102369086D01*
X118005680Y-102371945D01*
X118015473Y-102491898D01*
X118015918Y-102494348D01*
X118016658Y-102496311D01*
X118071090Y-102610988D01*
X118072556Y-102613361D01*
X118160826Y-102726330D01*
X118161714Y-102727350D01*
X118273021Y-102842182D01*
X118273281Y-102842443D01*
X118396688Y-102962573D01*
X118521155Y-103091311D01*
X118635862Y-103232037D01*
X118725820Y-103380934D01*
X117847597Y-104300938D01*
X117151959Y-103116499D01*
X117267535Y-102992229D01*
X117268193Y-102991463D01*
X117362825Y-102871920D01*
X117363418Y-102871106D01*
X117437959Y-102759855D01*
X117438390Y-102759164D01*
X117500129Y-102652848D01*
X117500336Y-102652477D01*
X117556530Y-102547804D01*
X117614417Y-102441513D01*
X117681145Y-102330446D01*
X117764091Y-102211013D01*
X117870611Y-102079720D01*
X117999393Y-101942379D01*
X118158895Y-102101881D01*
G37*
G04 #@! TD.AperFunction*
D21*
X125646678Y-100350000D02*
X125335174Y-100649559D01*
X125283467Y-100622999D01*
X125232104Y-100593970D01*
X125186164Y-100566766D01*
X125186065Y-100566708D01*
X125143140Y-100541812D01*
X125142647Y-100541541D01*
X125100250Y-100519401D01*
X125099361Y-100518979D01*
X125054911Y-100499986D01*
X125053735Y-100499551D01*
X125004653Y-100484097D01*
X125003386Y-100483769D01*
X124947092Y-100472246D01*
X124945921Y-100472063D01*
X124879835Y-100464862D01*
X124878861Y-100464793D01*
X124812700Y-100462696D01*
X124812700Y-100237304D01*
X124878862Y-100235206D01*
X124879835Y-100235137D01*
X124945921Y-100227936D01*
X124947092Y-100227753D01*
X125003386Y-100216230D01*
X125004653Y-100215902D01*
X125053735Y-100200448D01*
X125054911Y-100200013D01*
X125099361Y-100181020D01*
X125100250Y-100180598D01*
X125142647Y-100158458D01*
X125143140Y-100158187D01*
X125186065Y-100133291D01*
X125186164Y-100133233D01*
X125232104Y-100106029D01*
X125283467Y-100077000D01*
X125335174Y-100050441D01*
X125646678Y-100350000D01*
G04 #@! TA.AperFunction,Conductor*
D20*
G36*
X125646678Y-100350000D02*
G01*
X125335174Y-100649559D01*
X125283467Y-100622999D01*
X125232104Y-100593970D01*
X125186164Y-100566766D01*
X125186065Y-100566708D01*
X125143140Y-100541812D01*
X125142647Y-100541541D01*
X125100250Y-100519401D01*
X125099361Y-100518979D01*
X125054911Y-100499986D01*
X125053735Y-100499551D01*
X125004653Y-100484097D01*
X125003386Y-100483769D01*
X124947092Y-100472246D01*
X124945921Y-100472063D01*
X124879835Y-100464862D01*
X124878861Y-100464793D01*
X124812700Y-100462696D01*
X124812700Y-100237304D01*
X124878862Y-100235206D01*
X124879835Y-100235137D01*
X124945921Y-100227936D01*
X124947092Y-100227753D01*
X125003386Y-100216230D01*
X125004653Y-100215902D01*
X125053735Y-100200448D01*
X125054911Y-100200013D01*
X125099361Y-100181020D01*
X125100250Y-100180598D01*
X125142647Y-100158458D01*
X125143140Y-100158187D01*
X125186065Y-100133291D01*
X125186164Y-100133233D01*
X125232104Y-100106029D01*
X125283467Y-100077000D01*
X125335174Y-100050441D01*
X125646678Y-100350000D01*
G37*
G04 #@! TD.AperFunction*
D21*
X124283199Y-100155896D02*
X124283206Y-100155900D01*
X124318570Y-100173184D01*
X124318783Y-100173286D01*
X124351224Y-100188401D01*
X124351688Y-100188606D01*
X124382731Y-100201588D01*
X124383444Y-100201861D01*
X124414617Y-100212746D01*
X124415507Y-100213021D01*
X124448334Y-100221846D01*
X124449274Y-100222060D01*
X124485282Y-100228860D01*
X124486148Y-100228993D01*
X124526861Y-100233805D01*
X124527579Y-100233869D01*
X124574524Y-100236730D01*
X124575077Y-100236752D01*
X124617300Y-100237482D01*
X124617300Y-100462518D01*
X124575078Y-100463247D01*
X124574524Y-100463269D01*
X124527579Y-100466130D01*
X124526861Y-100466194D01*
X124486148Y-100471006D01*
X124485282Y-100471139D01*
X124449274Y-100477939D01*
X124448334Y-100478153D01*
X124415507Y-100486978D01*
X124414617Y-100487253D01*
X124383444Y-100498138D01*
X124382731Y-100498411D01*
X124351688Y-100511393D01*
X124351224Y-100511598D01*
X124318783Y-100526713D01*
X124318570Y-100526815D01*
X124283206Y-100544099D01*
X124283199Y-100544103D01*
X124251370Y-100559686D01*
X124033322Y-100350000D01*
X124251370Y-100140314D01*
X124283199Y-100155896D01*
G04 #@! TA.AperFunction,Conductor*
D20*
G36*
X124283199Y-100155896D02*
G01*
X124283206Y-100155900D01*
X124318570Y-100173184D01*
X124318783Y-100173286D01*
X124351224Y-100188401D01*
X124351688Y-100188606D01*
X124382731Y-100201588D01*
X124383444Y-100201861D01*
X124414617Y-100212746D01*
X124415507Y-100213021D01*
X124448334Y-100221846D01*
X124449274Y-100222060D01*
X124485282Y-100228860D01*
X124486148Y-100228993D01*
X124526861Y-100233805D01*
X124527579Y-100233869D01*
X124574524Y-100236730D01*
X124575077Y-100236752D01*
X124617300Y-100237482D01*
X124617300Y-100462518D01*
X124575078Y-100463247D01*
X124574524Y-100463269D01*
X124527579Y-100466130D01*
X124526861Y-100466194D01*
X124486148Y-100471006D01*
X124485282Y-100471139D01*
X124449274Y-100477939D01*
X124448334Y-100478153D01*
X124415507Y-100486978D01*
X124414617Y-100487253D01*
X124383444Y-100498138D01*
X124382731Y-100498411D01*
X124351688Y-100511393D01*
X124351224Y-100511598D01*
X124318783Y-100526713D01*
X124318570Y-100526815D01*
X124283206Y-100544099D01*
X124283199Y-100544103D01*
X124251370Y-100559686D01*
X124033322Y-100350000D01*
X124251370Y-100140314D01*
X124283199Y-100155896D01*
G37*
G04 #@! TD.AperFunction*
D21*
X157739031Y-95446688D02*
X157739767Y-95447328D01*
X157791589Y-95488967D01*
X157792547Y-95489666D01*
X157840501Y-95521323D01*
X157841629Y-95521987D01*
X157887263Y-95545766D01*
X157888403Y-95546290D01*
X157933264Y-95564291D01*
X157934190Y-95564621D01*
X157979824Y-95578945D01*
X157980364Y-95579102D01*
X158028321Y-95591851D01*
X158028433Y-95591880D01*
X158080113Y-95605116D01*
X158137027Y-95620928D01*
X158192340Y-95638701D01*
X158200787Y-96070787D01*
X157768701Y-96062340D01*
X157750928Y-96007027D01*
X157735116Y-95950113D01*
X157721880Y-95898433D01*
X157721851Y-95898321D01*
X157709102Y-95850364D01*
X157708945Y-95849824D01*
X157694621Y-95804190D01*
X157694291Y-95803264D01*
X157676290Y-95758403D01*
X157675766Y-95757263D01*
X157651987Y-95711629D01*
X157651323Y-95710501D01*
X157619666Y-95662547D01*
X157618967Y-95661589D01*
X157577328Y-95609767D01*
X157576688Y-95609031D01*
X157531389Y-95560765D01*
X157690765Y-95401389D01*
X157739031Y-95446688D01*
G04 #@! TA.AperFunction,Conductor*
D20*
G36*
X157739031Y-95446688D02*
G01*
X157739767Y-95447328D01*
X157791589Y-95488967D01*
X157792547Y-95489666D01*
X157840501Y-95521323D01*
X157841629Y-95521987D01*
X157887263Y-95545766D01*
X157888403Y-95546290D01*
X157933264Y-95564291D01*
X157934190Y-95564621D01*
X157979824Y-95578945D01*
X157980364Y-95579102D01*
X158028321Y-95591851D01*
X158028433Y-95591880D01*
X158080113Y-95605116D01*
X158137027Y-95620928D01*
X158192340Y-95638701D01*
X158200787Y-96070787D01*
X157768701Y-96062340D01*
X157750928Y-96007027D01*
X157735116Y-95950113D01*
X157721880Y-95898433D01*
X157721851Y-95898321D01*
X157709102Y-95850364D01*
X157708945Y-95849824D01*
X157694621Y-95804190D01*
X157694291Y-95803264D01*
X157676290Y-95758403D01*
X157675766Y-95757263D01*
X157651987Y-95711629D01*
X157651323Y-95710501D01*
X157619666Y-95662547D01*
X157618967Y-95661589D01*
X157577328Y-95609767D01*
X157576688Y-95609031D01*
X157531389Y-95560765D01*
X157690765Y-95401389D01*
X157739031Y-95446688D01*
G37*
G04 #@! TD.AperFunction*
D21*
X158309518Y-86357041D02*
X158274560Y-86369104D01*
X158274499Y-86369125D01*
X158236116Y-86382588D01*
X158235845Y-86382686D01*
X158201254Y-86395709D01*
X158200746Y-86395914D01*
X158168781Y-86409550D01*
X158168069Y-86409879D01*
X158137566Y-86425181D01*
X158136754Y-86425626D01*
X158106548Y-86443646D01*
X158105763Y-86444155D01*
X158074690Y-86465946D01*
X158074025Y-86466446D01*
X158040919Y-86493061D01*
X158040406Y-86493496D01*
X158004102Y-86525987D01*
X158003732Y-86526331D01*
X157972045Y-86557048D01*
X157812951Y-86397954D01*
X157843668Y-86366266D01*
X157844012Y-86365897D01*
X157876503Y-86329593D01*
X157876938Y-86329080D01*
X157903553Y-86295974D01*
X157904053Y-86295309D01*
X157925844Y-86264236D01*
X157926353Y-86263451D01*
X157944373Y-86233245D01*
X157944818Y-86232433D01*
X157960120Y-86201930D01*
X157960449Y-86201218D01*
X157974085Y-86169253D01*
X157974290Y-86168745D01*
X157987313Y-86134154D01*
X157987411Y-86133883D01*
X158000874Y-86095500D01*
X158000895Y-86095439D01*
X158012959Y-86060482D01*
X158315432Y-86054568D01*
X158309518Y-86357041D01*
G04 #@! TA.AperFunction,Conductor*
D20*
G36*
X158309518Y-86357041D02*
G01*
X158274560Y-86369104D01*
X158274499Y-86369125D01*
X158236116Y-86382588D01*
X158235845Y-86382686D01*
X158201254Y-86395709D01*
X158200746Y-86395914D01*
X158168781Y-86409550D01*
X158168069Y-86409879D01*
X158137566Y-86425181D01*
X158136754Y-86425626D01*
X158106548Y-86443646D01*
X158105763Y-86444155D01*
X158074690Y-86465946D01*
X158074025Y-86466446D01*
X158040919Y-86493061D01*
X158040406Y-86493496D01*
X158004102Y-86525987D01*
X158003732Y-86526331D01*
X157972045Y-86557048D01*
X157812951Y-86397954D01*
X157843668Y-86366266D01*
X157844012Y-86365897D01*
X157876503Y-86329593D01*
X157876938Y-86329080D01*
X157903553Y-86295974D01*
X157904053Y-86295309D01*
X157925844Y-86264236D01*
X157926353Y-86263451D01*
X157944373Y-86233245D01*
X157944818Y-86232433D01*
X157960120Y-86201930D01*
X157960449Y-86201218D01*
X157974085Y-86169253D01*
X157974290Y-86168745D01*
X157987313Y-86134154D01*
X157987411Y-86133883D01*
X158000874Y-86095500D01*
X158000895Y-86095439D01*
X158012959Y-86060482D01*
X158315432Y-86054568D01*
X158309518Y-86357041D01*
G37*
G04 #@! TD.AperFunction*
D21*
X145907220Y-102472533D02*
X145758056Y-102638587D01*
X145757034Y-102639886D01*
X145646509Y-102800887D01*
X145645529Y-102802581D01*
X145572891Y-102953974D01*
X145572170Y-102955842D01*
X145528624Y-103102026D01*
X145528254Y-103103646D01*
X145505004Y-103249022D01*
X145504884Y-103250030D01*
X145493137Y-103398997D01*
X145493119Y-103399265D01*
X145484090Y-103556010D01*
X145469017Y-103724727D01*
X145439171Y-103909835D01*
X145387966Y-104107565D01*
X144113760Y-104173165D01*
X144098010Y-102897378D01*
X144295639Y-102832685D01*
X144480770Y-102791455D01*
X144649835Y-102767236D01*
X144807364Y-102750932D01*
X144807527Y-102750914D01*
X144957708Y-102733419D01*
X144958599Y-102733283D01*
X145105606Y-102705464D01*
X145107105Y-102705084D01*
X145255358Y-102657781D01*
X145257117Y-102657071D01*
X145411037Y-102581127D01*
X145412656Y-102580174D01*
X145576661Y-102466428D01*
X145577920Y-102465431D01*
X145747476Y-102312789D01*
X145907220Y-102472533D01*
G04 #@! TA.AperFunction,Conductor*
D20*
G36*
X145907220Y-102472533D02*
G01*
X145758056Y-102638587D01*
X145757034Y-102639886D01*
X145646509Y-102800887D01*
X145645529Y-102802581D01*
X145572891Y-102953974D01*
X145572170Y-102955842D01*
X145528624Y-103102026D01*
X145528254Y-103103646D01*
X145505004Y-103249022D01*
X145504884Y-103250030D01*
X145493137Y-103398997D01*
X145493119Y-103399265D01*
X145484090Y-103556010D01*
X145469017Y-103724727D01*
X145439171Y-103909835D01*
X145387966Y-104107565D01*
X144113760Y-104173165D01*
X144098010Y-102897378D01*
X144295639Y-102832685D01*
X144480770Y-102791455D01*
X144649835Y-102767236D01*
X144807364Y-102750932D01*
X144807527Y-102750914D01*
X144957708Y-102733419D01*
X144958599Y-102733283D01*
X145105606Y-102705464D01*
X145107105Y-102705084D01*
X145255358Y-102657781D01*
X145257117Y-102657071D01*
X145411037Y-102581127D01*
X145412656Y-102580174D01*
X145576661Y-102466428D01*
X145577920Y-102465431D01*
X145747476Y-102312789D01*
X145907220Y-102472533D01*
G37*
G04 #@! TD.AperFunction*
D21*
X154162338Y-100481299D02*
X154107025Y-100499071D01*
X154050111Y-100514883D01*
X153998431Y-100528119D01*
X153998319Y-100528148D01*
X153950362Y-100540897D01*
X153949822Y-100541054D01*
X153904188Y-100555378D01*
X153903262Y-100555708D01*
X153858401Y-100573709D01*
X153857261Y-100574233D01*
X153811627Y-100598012D01*
X153810499Y-100598676D01*
X153762545Y-100630333D01*
X153761587Y-100631032D01*
X153709765Y-100672671D01*
X153709029Y-100673311D01*
X153660763Y-100718611D01*
X153501387Y-100559235D01*
X153546686Y-100510968D01*
X153547326Y-100510232D01*
X153588965Y-100458410D01*
X153589664Y-100457452D01*
X153621321Y-100409498D01*
X153621985Y-100408370D01*
X153645764Y-100362736D01*
X153646288Y-100361596D01*
X153664289Y-100316735D01*
X153664619Y-100315809D01*
X153678943Y-100270175D01*
X153679100Y-100269635D01*
X153691849Y-100221678D01*
X153691878Y-100221566D01*
X153705114Y-100169886D01*
X153720926Y-100112972D01*
X153738699Y-100057660D01*
X154170785Y-100049213D01*
X154162338Y-100481299D01*
G04 #@! TA.AperFunction,Conductor*
D20*
G36*
X154162338Y-100481299D02*
G01*
X154107025Y-100499071D01*
X154050111Y-100514883D01*
X153998431Y-100528119D01*
X153998319Y-100528148D01*
X153950362Y-100540897D01*
X153949822Y-100541054D01*
X153904188Y-100555378D01*
X153903262Y-100555708D01*
X153858401Y-100573709D01*
X153857261Y-100574233D01*
X153811627Y-100598012D01*
X153810499Y-100598676D01*
X153762545Y-100630333D01*
X153761587Y-100631032D01*
X153709765Y-100672671D01*
X153709029Y-100673311D01*
X153660763Y-100718611D01*
X153501387Y-100559235D01*
X153546686Y-100510968D01*
X153547326Y-100510232D01*
X153588965Y-100458410D01*
X153589664Y-100457452D01*
X153621321Y-100409498D01*
X153621985Y-100408370D01*
X153645764Y-100362736D01*
X153646288Y-100361596D01*
X153664289Y-100316735D01*
X153664619Y-100315809D01*
X153678943Y-100270175D01*
X153679100Y-100269635D01*
X153691849Y-100221678D01*
X153691878Y-100221566D01*
X153705114Y-100169886D01*
X153720926Y-100112972D01*
X153738699Y-100057660D01*
X154170785Y-100049213D01*
X154162338Y-100481299D01*
G37*
G04 #@! TD.AperFunction*
D21*
X156268131Y-96474835D02*
X156268929Y-96478144D01*
X156285307Y-96520233D01*
X156286433Y-96522453D01*
X156287431Y-96523810D01*
X156313043Y-96554208D01*
X156314826Y-96555946D01*
X156315990Y-96556773D01*
X156349458Y-96577837D01*
X156352000Y-96579066D01*
X156391948Y-96593151D01*
X156393560Y-96593603D01*
X156438607Y-96603065D01*
X156439364Y-96603200D01*
X156488135Y-96610396D01*
X156488197Y-96610405D01*
X156539040Y-96617652D01*
X156590293Y-96627229D01*
X156632347Y-96639058D01*
X156640717Y-97067214D01*
X156192067Y-96950025D01*
X156188332Y-96893688D01*
X156188082Y-96891885D01*
X156176302Y-96836521D01*
X156175826Y-96834854D01*
X156158466Y-96786742D01*
X156157959Y-96785536D01*
X156136879Y-96741820D01*
X156136597Y-96741268D01*
X156113676Y-96699127D01*
X156091000Y-96656134D01*
X156070375Y-96609496D01*
X156053469Y-96556233D01*
X156041976Y-96493221D01*
X156038433Y-96430102D01*
X156263537Y-96430102D01*
X156268131Y-96474835D01*
G04 #@! TA.AperFunction,Conductor*
D20*
G36*
X156268131Y-96474835D02*
G01*
X156268929Y-96478144D01*
X156285307Y-96520233D01*
X156286433Y-96522453D01*
X156287431Y-96523810D01*
X156313043Y-96554208D01*
X156314826Y-96555946D01*
X156315990Y-96556773D01*
X156349458Y-96577837D01*
X156352000Y-96579066D01*
X156391948Y-96593151D01*
X156393560Y-96593603D01*
X156438607Y-96603065D01*
X156439364Y-96603200D01*
X156488135Y-96610396D01*
X156488197Y-96610405D01*
X156539040Y-96617652D01*
X156590293Y-96627229D01*
X156632347Y-96639058D01*
X156640717Y-97067214D01*
X156192067Y-96950025D01*
X156188332Y-96893688D01*
X156188082Y-96891885D01*
X156176302Y-96836521D01*
X156175826Y-96834854D01*
X156158466Y-96786742D01*
X156157959Y-96785536D01*
X156136879Y-96741820D01*
X156136597Y-96741268D01*
X156113676Y-96699127D01*
X156091000Y-96656134D01*
X156070375Y-96609496D01*
X156053469Y-96556233D01*
X156041976Y-96493221D01*
X156038433Y-96430102D01*
X156263537Y-96430102D01*
X156268131Y-96474835D01*
G37*
G04 #@! TD.AperFunction*
D21*
X158346585Y-83534440D02*
X158119991Y-83734874D01*
X158089516Y-83718387D01*
X158089477Y-83718366D01*
X158055354Y-83700059D01*
X158055099Y-83699926D01*
X158023667Y-83683969D01*
X158023150Y-83683721D01*
X157992942Y-83670063D01*
X157992167Y-83669743D01*
X157961716Y-83658330D01*
X157960759Y-83658014D01*
X157928597Y-83648794D01*
X157927592Y-83648549D01*
X157892253Y-83641469D01*
X157891331Y-83641320D01*
X157851346Y-83636328D01*
X157850586Y-83636256D01*
X157804489Y-83633299D01*
X157803906Y-83633275D01*
X157762700Y-83632528D01*
X157762700Y-83407493D01*
X157805971Y-83406783D01*
X157806494Y-83406764D01*
X157854321Y-83404007D01*
X157854995Y-83403950D01*
X157896470Y-83399333D01*
X157897279Y-83399216D01*
X157933984Y-83392717D01*
X157934856Y-83392531D01*
X157968374Y-83384134D01*
X157969194Y-83383899D01*
X158001109Y-83373582D01*
X158001758Y-83373353D01*
X158033653Y-83361098D01*
X158034063Y-83360932D01*
X158067520Y-83346720D01*
X158067692Y-83346646D01*
X158104271Y-83330468D01*
X158137462Y-83315866D01*
X158346585Y-83534440D01*
G04 #@! TA.AperFunction,Conductor*
D20*
G36*
X158346585Y-83534440D02*
G01*
X158119991Y-83734874D01*
X158089516Y-83718387D01*
X158089477Y-83718366D01*
X158055354Y-83700059D01*
X158055099Y-83699926D01*
X158023667Y-83683969D01*
X158023150Y-83683721D01*
X157992942Y-83670063D01*
X157992167Y-83669743D01*
X157961716Y-83658330D01*
X157960759Y-83658014D01*
X157928597Y-83648794D01*
X157927592Y-83648549D01*
X157892253Y-83641469D01*
X157891331Y-83641320D01*
X157851346Y-83636328D01*
X157850586Y-83636256D01*
X157804489Y-83633299D01*
X157803906Y-83633275D01*
X157762700Y-83632528D01*
X157762700Y-83407493D01*
X157805971Y-83406783D01*
X157806494Y-83406764D01*
X157854321Y-83404007D01*
X157854995Y-83403950D01*
X157896470Y-83399333D01*
X157897279Y-83399216D01*
X157933984Y-83392717D01*
X157934856Y-83392531D01*
X157968374Y-83384134D01*
X157969194Y-83383899D01*
X158001109Y-83373582D01*
X158001758Y-83373353D01*
X158033653Y-83361098D01*
X158034063Y-83360932D01*
X158067520Y-83346720D01*
X158067692Y-83346646D01*
X158104271Y-83330468D01*
X158137462Y-83315866D01*
X158346585Y-83534440D01*
G37*
G04 #@! TD.AperFunction*
D21*
X164639132Y-90806450D02*
X164759037Y-90897552D01*
X164870527Y-90993575D01*
X164975724Y-91086256D01*
X164976174Y-91086635D01*
X165077531Y-91167908D01*
X165078799Y-91168803D01*
X165178737Y-91230571D01*
X165181336Y-91231796D01*
X165282382Y-91266053D01*
X165284807Y-91266617D01*
X165286612Y-91266724D01*
X165391294Y-91265467D01*
X165393769Y-91265193D01*
X165395899Y-91264544D01*
X165506744Y-91219770D01*
X165509954Y-91217884D01*
X165620610Y-91128743D01*
X165780065Y-91288198D01*
X165657251Y-91403761D01*
X165539266Y-91500611D01*
X165432183Y-91576566D01*
X165332775Y-91638140D01*
X165237868Y-91691783D01*
X165144308Y-91743948D01*
X165143962Y-91744148D01*
X165048966Y-91801105D01*
X165048318Y-91801520D01*
X164948800Y-91869711D01*
X164948036Y-91870279D01*
X164840913Y-91956146D01*
X164840190Y-91956772D01*
X164729332Y-92060261D01*
X163726162Y-91465248D01*
X164515599Y-90732451D01*
X164639132Y-90806450D01*
G04 #@! TA.AperFunction,Conductor*
D20*
G36*
X164639132Y-90806450D02*
G01*
X164759037Y-90897552D01*
X164870527Y-90993575D01*
X164975724Y-91086256D01*
X164976174Y-91086635D01*
X165077531Y-91167908D01*
X165078799Y-91168803D01*
X165178737Y-91230571D01*
X165181336Y-91231796D01*
X165282382Y-91266053D01*
X165284807Y-91266617D01*
X165286612Y-91266724D01*
X165391294Y-91265467D01*
X165393769Y-91265193D01*
X165395899Y-91264544D01*
X165506744Y-91219770D01*
X165509954Y-91217884D01*
X165620610Y-91128743D01*
X165780065Y-91288198D01*
X165657251Y-91403761D01*
X165539266Y-91500611D01*
X165432183Y-91576566D01*
X165332775Y-91638140D01*
X165237868Y-91691783D01*
X165144308Y-91743948D01*
X165143962Y-91744148D01*
X165048966Y-91801105D01*
X165048318Y-91801520D01*
X164948800Y-91869711D01*
X164948036Y-91870279D01*
X164840913Y-91956146D01*
X164840190Y-91956772D01*
X164729332Y-92060261D01*
X163726162Y-91465248D01*
X164515599Y-90732451D01*
X164639132Y-90806450D01*
G37*
G04 #@! TD.AperFunction*
D21*
X158541306Y-84438565D02*
X158616549Y-84485204D01*
X158682362Y-84530398D01*
X158742889Y-84573127D01*
X158743217Y-84573351D01*
X158802422Y-84612432D01*
X158803263Y-84612942D01*
X158865231Y-84647277D01*
X158866526Y-84647901D01*
X158935413Y-84676437D01*
X158936949Y-84676961D01*
X159016911Y-84698646D01*
X159018415Y-84698958D01*
X159113605Y-84712741D01*
X159114890Y-84712861D01*
X159217300Y-84717176D01*
X159217300Y-84942824D01*
X159114890Y-84947138D01*
X159113605Y-84947258D01*
X159018415Y-84961041D01*
X159016911Y-84961353D01*
X158936949Y-84983038D01*
X158935413Y-84983562D01*
X158866526Y-85012098D01*
X158865231Y-85012722D01*
X158803263Y-85047057D01*
X158802422Y-85047567D01*
X158743217Y-85086648D01*
X158742889Y-85086872D01*
X158682362Y-85129601D01*
X158616549Y-85174795D01*
X158541306Y-85221434D01*
X158460119Y-85264473D01*
X158008322Y-84830000D01*
X158460120Y-84395527D01*
X158541306Y-84438565D01*
G04 #@! TA.AperFunction,Conductor*
D20*
G36*
X158541306Y-84438565D02*
G01*
X158616549Y-84485204D01*
X158682362Y-84530398D01*
X158742889Y-84573127D01*
X158743217Y-84573351D01*
X158802422Y-84612432D01*
X158803263Y-84612942D01*
X158865231Y-84647277D01*
X158866526Y-84647901D01*
X158935413Y-84676437D01*
X158936949Y-84676961D01*
X159016911Y-84698646D01*
X159018415Y-84698958D01*
X159113605Y-84712741D01*
X159114890Y-84712861D01*
X159217300Y-84717176D01*
X159217300Y-84942824D01*
X159114890Y-84947138D01*
X159113605Y-84947258D01*
X159018415Y-84961041D01*
X159016911Y-84961353D01*
X158936949Y-84983038D01*
X158935413Y-84983562D01*
X158866526Y-85012098D01*
X158865231Y-85012722D01*
X158803263Y-85047057D01*
X158802422Y-85047567D01*
X158743217Y-85086648D01*
X158742889Y-85086872D01*
X158682362Y-85129601D01*
X158616549Y-85174795D01*
X158541306Y-85221434D01*
X158460119Y-85264473D01*
X158008322Y-84830000D01*
X158460120Y-84395527D01*
X158541306Y-84438565D01*
G37*
G04 #@! TD.AperFunction*
D21*
X164406471Y-99134925D02*
X164242946Y-99185285D01*
X164088513Y-99217495D01*
X163947537Y-99236439D01*
X163816209Y-99249511D01*
X163815994Y-99249535D01*
X163690873Y-99264143D01*
X163689944Y-99264286D01*
X163567535Y-99287862D01*
X163566021Y-99288252D01*
X163442622Y-99328251D01*
X163440871Y-99328967D01*
X163312780Y-99392841D01*
X163311181Y-99393790D01*
X163174695Y-99488994D01*
X163173456Y-99489979D01*
X163033831Y-99615890D01*
X162874107Y-99456166D01*
X162998817Y-99317751D01*
X162999812Y-99316496D01*
X163093917Y-99181048D01*
X163094877Y-99179421D01*
X163157635Y-99052201D01*
X163158355Y-99050406D01*
X163197098Y-98927722D01*
X163197485Y-98926160D01*
X163219543Y-98804319D01*
X163219681Y-98803344D01*
X163232383Y-98678654D01*
X163232406Y-98678397D01*
X163243065Y-98547377D01*
X163258977Y-98406527D01*
X163287407Y-98252141D01*
X163333315Y-98088647D01*
X164413894Y-98053813D01*
X164406471Y-99134925D01*
G04 #@! TA.AperFunction,Conductor*
D20*
G36*
X164406471Y-99134925D02*
G01*
X164242946Y-99185285D01*
X164088513Y-99217495D01*
X163947537Y-99236439D01*
X163816209Y-99249511D01*
X163815994Y-99249535D01*
X163690873Y-99264143D01*
X163689944Y-99264286D01*
X163567535Y-99287862D01*
X163566021Y-99288252D01*
X163442622Y-99328251D01*
X163440871Y-99328967D01*
X163312780Y-99392841D01*
X163311181Y-99393790D01*
X163174695Y-99488994D01*
X163173456Y-99489979D01*
X163033831Y-99615890D01*
X162874107Y-99456166D01*
X162998817Y-99317751D01*
X162999812Y-99316496D01*
X163093917Y-99181048D01*
X163094877Y-99179421D01*
X163157635Y-99052201D01*
X163158355Y-99050406D01*
X163197098Y-98927722D01*
X163197485Y-98926160D01*
X163219543Y-98804319D01*
X163219681Y-98803344D01*
X163232383Y-98678654D01*
X163232406Y-98678397D01*
X163243065Y-98547377D01*
X163258977Y-98406527D01*
X163287407Y-98252141D01*
X163333315Y-98088647D01*
X164413894Y-98053813D01*
X164406471Y-99134925D01*
G37*
G04 #@! TD.AperFunction*
D21*
X158011306Y-102148565D02*
X158086549Y-102195204D01*
X158152362Y-102240398D01*
X158212889Y-102283127D01*
X158213217Y-102283351D01*
X158272422Y-102322432D01*
X158273263Y-102322942D01*
X158335231Y-102357277D01*
X158336526Y-102357901D01*
X158405413Y-102386437D01*
X158406949Y-102386961D01*
X158486911Y-102408646D01*
X158488415Y-102408958D01*
X158583605Y-102422741D01*
X158584890Y-102422861D01*
X158687300Y-102427176D01*
X158687300Y-102652824D01*
X158584890Y-102657138D01*
X158583605Y-102657258D01*
X158488415Y-102671041D01*
X158486911Y-102671353D01*
X158406949Y-102693038D01*
X158405413Y-102693562D01*
X158336526Y-102722098D01*
X158335231Y-102722722D01*
X158273263Y-102757057D01*
X158272422Y-102757567D01*
X158213217Y-102796648D01*
X158212889Y-102796872D01*
X158152362Y-102839601D01*
X158086549Y-102884795D01*
X158011306Y-102931434D01*
X157930119Y-102974473D01*
X157478322Y-102540000D01*
X157930120Y-102105527D01*
X158011306Y-102148565D01*
G04 #@! TA.AperFunction,Conductor*
D20*
G36*
X158011306Y-102148565D02*
G01*
X158086549Y-102195204D01*
X158152362Y-102240398D01*
X158212889Y-102283127D01*
X158213217Y-102283351D01*
X158272422Y-102322432D01*
X158273263Y-102322942D01*
X158335231Y-102357277D01*
X158336526Y-102357901D01*
X158405413Y-102386437D01*
X158406949Y-102386961D01*
X158486911Y-102408646D01*
X158488415Y-102408958D01*
X158583605Y-102422741D01*
X158584890Y-102422861D01*
X158687300Y-102427176D01*
X158687300Y-102652824D01*
X158584890Y-102657138D01*
X158583605Y-102657258D01*
X158488415Y-102671041D01*
X158486911Y-102671353D01*
X158406949Y-102693038D01*
X158405413Y-102693562D01*
X158336526Y-102722098D01*
X158335231Y-102722722D01*
X158273263Y-102757057D01*
X158272422Y-102757567D01*
X158213217Y-102796648D01*
X158212889Y-102796872D01*
X158152362Y-102839601D01*
X158086549Y-102884795D01*
X158011306Y-102931434D01*
X157930119Y-102974473D01*
X157478322Y-102540000D01*
X157930120Y-102105527D01*
X158011306Y-102148565D01*
G37*
G04 #@! TD.AperFunction*
D21*
X152689405Y-103065174D02*
X152804625Y-103144190D01*
X152804761Y-103144282D01*
X152914989Y-103217796D01*
X152915557Y-103218153D01*
X153022155Y-103281388D01*
X153023308Y-103281994D01*
X153127729Y-103330233D01*
X153129687Y-103330949D01*
X153233384Y-103359474D01*
X153236254Y-103359919D01*
X153340681Y-103364015D01*
X153344084Y-103363688D01*
X153450693Y-103338636D01*
X153453774Y-103337474D01*
X153564017Y-103278558D01*
X153566230Y-103277056D01*
X153672642Y-103187100D01*
X153832245Y-103346703D01*
X153685227Y-103495902D01*
X153685082Y-103496051D01*
X153555898Y-103631515D01*
X153555750Y-103631674D01*
X153447067Y-103749613D01*
X153446936Y-103749757D01*
X153352572Y-103855360D01*
X153352488Y-103855455D01*
X153266263Y-103953911D01*
X153266251Y-103953924D01*
X153182017Y-104050384D01*
X153093589Y-104150045D01*
X152994877Y-104257993D01*
X152879552Y-104379591D01*
X152748560Y-104512777D01*
X151568435Y-103766391D01*
X152575248Y-102990295D01*
X152689405Y-103065174D01*
G04 #@! TA.AperFunction,Conductor*
D20*
G36*
X152689405Y-103065174D02*
G01*
X152804625Y-103144190D01*
X152804761Y-103144282D01*
X152914989Y-103217796D01*
X152915557Y-103218153D01*
X153022155Y-103281388D01*
X153023308Y-103281994D01*
X153127729Y-103330233D01*
X153129687Y-103330949D01*
X153233384Y-103359474D01*
X153236254Y-103359919D01*
X153340681Y-103364015D01*
X153344084Y-103363688D01*
X153450693Y-103338636D01*
X153453774Y-103337474D01*
X153564017Y-103278558D01*
X153566230Y-103277056D01*
X153672642Y-103187100D01*
X153832245Y-103346703D01*
X153685227Y-103495902D01*
X153685082Y-103496051D01*
X153555898Y-103631515D01*
X153555750Y-103631674D01*
X153447067Y-103749613D01*
X153446936Y-103749757D01*
X153352572Y-103855360D01*
X153352488Y-103855455D01*
X153266263Y-103953911D01*
X153266251Y-103953924D01*
X153182017Y-104050384D01*
X153093589Y-104150045D01*
X152994877Y-104257993D01*
X152879552Y-104379591D01*
X152748560Y-104512777D01*
X151568435Y-103766391D01*
X152575248Y-102990295D01*
X152689405Y-103065174D01*
G37*
G04 #@! TD.AperFunction*
D21*
X157816678Y-101240000D02*
X157598630Y-101449686D01*
X157566800Y-101434103D01*
X157566793Y-101434099D01*
X157531429Y-101416815D01*
X157531216Y-101416713D01*
X157498775Y-101401598D01*
X157498311Y-101401393D01*
X157467268Y-101388411D01*
X157466555Y-101388138D01*
X157435382Y-101377253D01*
X157434492Y-101376978D01*
X157401665Y-101368153D01*
X157400725Y-101367939D01*
X157364717Y-101361139D01*
X157363851Y-101361006D01*
X157323138Y-101356194D01*
X157322420Y-101356130D01*
X157275475Y-101353269D01*
X157274921Y-101353247D01*
X157232700Y-101352518D01*
X157232700Y-101127482D01*
X157274922Y-101126752D01*
X157275475Y-101126730D01*
X157322420Y-101123869D01*
X157323138Y-101123805D01*
X157363851Y-101118993D01*
X157364717Y-101118860D01*
X157400725Y-101112060D01*
X157401665Y-101111846D01*
X157434492Y-101103021D01*
X157435382Y-101102746D01*
X157466555Y-101091861D01*
X157467268Y-101091588D01*
X157498311Y-101078606D01*
X157498775Y-101078401D01*
X157531216Y-101063286D01*
X157531429Y-101063184D01*
X157566793Y-101045900D01*
X157566800Y-101045897D01*
X157598631Y-101030314D01*
X157816678Y-101240000D01*
G04 #@! TA.AperFunction,Conductor*
D20*
G36*
X157816678Y-101240000D02*
G01*
X157598630Y-101449686D01*
X157566800Y-101434103D01*
X157566793Y-101434099D01*
X157531429Y-101416815D01*
X157531216Y-101416713D01*
X157498775Y-101401598D01*
X157498311Y-101401393D01*
X157467268Y-101388411D01*
X157466555Y-101388138D01*
X157435382Y-101377253D01*
X157434492Y-101376978D01*
X157401665Y-101368153D01*
X157400725Y-101367939D01*
X157364717Y-101361139D01*
X157363851Y-101361006D01*
X157323138Y-101356194D01*
X157322420Y-101356130D01*
X157275475Y-101353269D01*
X157274921Y-101353247D01*
X157232700Y-101352518D01*
X157232700Y-101127482D01*
X157274922Y-101126752D01*
X157275475Y-101126730D01*
X157322420Y-101123869D01*
X157323138Y-101123805D01*
X157363851Y-101118993D01*
X157364717Y-101118860D01*
X157400725Y-101112060D01*
X157401665Y-101111846D01*
X157434492Y-101103021D01*
X157435382Y-101102746D01*
X157466555Y-101091861D01*
X157467268Y-101091588D01*
X157498311Y-101078606D01*
X157498775Y-101078401D01*
X157531216Y-101063286D01*
X157531429Y-101063184D01*
X157566793Y-101045900D01*
X157566800Y-101045897D01*
X157598631Y-101030314D01*
X157816678Y-101240000D01*
G37*
G04 #@! TD.AperFunction*
D21*
X156026532Y-103567000D02*
X156077895Y-103596029D01*
X156123835Y-103623233D01*
X156123934Y-103623291D01*
X156166859Y-103648187D01*
X156167352Y-103648458D01*
X156209749Y-103670598D01*
X156210638Y-103671020D01*
X156255088Y-103690013D01*
X156256264Y-103690448D01*
X156305346Y-103705902D01*
X156306613Y-103706230D01*
X156362907Y-103717753D01*
X156364078Y-103717936D01*
X156430164Y-103725137D01*
X156431137Y-103725206D01*
X156497300Y-103727304D01*
X156497300Y-103952696D01*
X156431138Y-103954793D01*
X156430164Y-103954862D01*
X156364078Y-103962063D01*
X156362907Y-103962246D01*
X156306613Y-103973769D01*
X156305346Y-103974097D01*
X156256264Y-103989551D01*
X156255088Y-103989986D01*
X156210638Y-104008979D01*
X156209749Y-104009401D01*
X156167352Y-104031541D01*
X156166859Y-104031812D01*
X156123934Y-104056708D01*
X156123835Y-104056766D01*
X156077895Y-104083970D01*
X156026532Y-104112999D01*
X155974826Y-104139559D01*
X155663322Y-103840000D01*
X155974826Y-103540441D01*
X156026532Y-103567000D01*
G04 #@! TA.AperFunction,Conductor*
D20*
G36*
X156026532Y-103567000D02*
G01*
X156077895Y-103596029D01*
X156123835Y-103623233D01*
X156123934Y-103623291D01*
X156166859Y-103648187D01*
X156167352Y-103648458D01*
X156209749Y-103670598D01*
X156210638Y-103671020D01*
X156255088Y-103690013D01*
X156256264Y-103690448D01*
X156305346Y-103705902D01*
X156306613Y-103706230D01*
X156362907Y-103717753D01*
X156364078Y-103717936D01*
X156430164Y-103725137D01*
X156431137Y-103725206D01*
X156497300Y-103727304D01*
X156497300Y-103952696D01*
X156431138Y-103954793D01*
X156430164Y-103954862D01*
X156364078Y-103962063D01*
X156362907Y-103962246D01*
X156306613Y-103973769D01*
X156305346Y-103974097D01*
X156256264Y-103989551D01*
X156255088Y-103989986D01*
X156210638Y-104008979D01*
X156209749Y-104009401D01*
X156167352Y-104031541D01*
X156166859Y-104031812D01*
X156123934Y-104056708D01*
X156123835Y-104056766D01*
X156077895Y-104083970D01*
X156026532Y-104112999D01*
X155974826Y-104139559D01*
X155663322Y-103840000D01*
X155974826Y-103540441D01*
X156026532Y-103567000D01*
G37*
G04 #@! TD.AperFunction*
D21*
X157816678Y-103840000D02*
X157598630Y-104049686D01*
X157566800Y-104034103D01*
X157566793Y-104034099D01*
X157531429Y-104016815D01*
X157531216Y-104016713D01*
X157498775Y-104001598D01*
X157498311Y-104001393D01*
X157467268Y-103988411D01*
X157466555Y-103988138D01*
X157435382Y-103977253D01*
X157434492Y-103976978D01*
X157401665Y-103968153D01*
X157400725Y-103967939D01*
X157364717Y-103961139D01*
X157363851Y-103961006D01*
X157323138Y-103956194D01*
X157322420Y-103956130D01*
X157275475Y-103953269D01*
X157274921Y-103953247D01*
X157232700Y-103952518D01*
X157232700Y-103727482D01*
X157274922Y-103726752D01*
X157275475Y-103726730D01*
X157322420Y-103723869D01*
X157323138Y-103723805D01*
X157363851Y-103718993D01*
X157364717Y-103718860D01*
X157400725Y-103712060D01*
X157401665Y-103711846D01*
X157434492Y-103703021D01*
X157435382Y-103702746D01*
X157466555Y-103691861D01*
X157467268Y-103691588D01*
X157498311Y-103678606D01*
X157498775Y-103678401D01*
X157531216Y-103663286D01*
X157531429Y-103663184D01*
X157566793Y-103645900D01*
X157566800Y-103645897D01*
X157598631Y-103630314D01*
X157816678Y-103840000D01*
G04 #@! TA.AperFunction,Conductor*
D20*
G36*
X157816678Y-103840000D02*
G01*
X157598630Y-104049686D01*
X157566800Y-104034103D01*
X157566793Y-104034099D01*
X157531429Y-104016815D01*
X157531216Y-104016713D01*
X157498775Y-104001598D01*
X157498311Y-104001393D01*
X157467268Y-103988411D01*
X157466555Y-103988138D01*
X157435382Y-103977253D01*
X157434492Y-103976978D01*
X157401665Y-103968153D01*
X157400725Y-103967939D01*
X157364717Y-103961139D01*
X157363851Y-103961006D01*
X157323138Y-103956194D01*
X157322420Y-103956130D01*
X157275475Y-103953269D01*
X157274921Y-103953247D01*
X157232700Y-103952518D01*
X157232700Y-103727482D01*
X157274922Y-103726752D01*
X157275475Y-103726730D01*
X157322420Y-103723869D01*
X157323138Y-103723805D01*
X157363851Y-103718993D01*
X157364717Y-103718860D01*
X157400725Y-103712060D01*
X157401665Y-103711846D01*
X157434492Y-103703021D01*
X157435382Y-103702746D01*
X157466555Y-103691861D01*
X157467268Y-103691588D01*
X157498311Y-103678606D01*
X157498775Y-103678401D01*
X157531216Y-103663286D01*
X157531429Y-103663184D01*
X157566793Y-103645900D01*
X157566800Y-103645897D01*
X157598631Y-103630314D01*
X157816678Y-103840000D01*
G37*
G04 #@! TD.AperFunction*
D21*
X160433077Y-96849489D02*
X160269566Y-96896872D01*
X160115136Y-96926562D01*
X159974279Y-96943472D01*
X159843130Y-96954931D01*
X159842886Y-96954955D01*
X159718051Y-96968286D01*
X159717092Y-96968426D01*
X159595062Y-96990983D01*
X159593515Y-96991370D01*
X159470594Y-97030525D01*
X159468814Y-97031244D01*
X159341306Y-97094370D01*
X159339688Y-97095327D01*
X159203897Y-97189793D01*
X159202648Y-97190784D01*
X159063833Y-97315892D01*
X158904109Y-97156168D01*
X159029616Y-97016949D01*
X159030604Y-97015704D01*
X159125437Y-96879567D01*
X159126390Y-96877959D01*
X159189887Y-96750160D01*
X159190604Y-96748394D01*
X159230178Y-96625235D01*
X159230567Y-96623705D01*
X159253630Y-96501485D01*
X159253771Y-96500540D01*
X159267737Y-96375562D01*
X159267761Y-96375333D01*
X159280024Y-96244090D01*
X159297948Y-96103172D01*
X159328892Y-95948745D01*
X159377764Y-95785216D01*
X160458777Y-95768654D01*
X160433077Y-96849489D01*
G04 #@! TA.AperFunction,Conductor*
D20*
G36*
X160433077Y-96849489D02*
G01*
X160269566Y-96896872D01*
X160115136Y-96926562D01*
X159974279Y-96943472D01*
X159843130Y-96954931D01*
X159842886Y-96954955D01*
X159718051Y-96968286D01*
X159717092Y-96968426D01*
X159595062Y-96990983D01*
X159593515Y-96991370D01*
X159470594Y-97030525D01*
X159468814Y-97031244D01*
X159341306Y-97094370D01*
X159339688Y-97095327D01*
X159203897Y-97189793D01*
X159202648Y-97190784D01*
X159063833Y-97315892D01*
X158904109Y-97156168D01*
X159029616Y-97016949D01*
X159030604Y-97015704D01*
X159125437Y-96879567D01*
X159126390Y-96877959D01*
X159189887Y-96750160D01*
X159190604Y-96748394D01*
X159230178Y-96625235D01*
X159230567Y-96623705D01*
X159253630Y-96501485D01*
X159253771Y-96500540D01*
X159267737Y-96375562D01*
X159267761Y-96375333D01*
X159280024Y-96244090D01*
X159297948Y-96103172D01*
X159328892Y-95948745D01*
X159377764Y-95785216D01*
X160458777Y-95768654D01*
X160433077Y-96849489D01*
G37*
G04 #@! TD.AperFunction*
D21*
X126060840Y-103035885D02*
X126215731Y-103141437D01*
X126347939Y-103246905D01*
X126466927Y-103349134D01*
X126467085Y-103349268D01*
X126582096Y-103444860D01*
X126582855Y-103445443D01*
X126703151Y-103530978D01*
X126704520Y-103531827D01*
X126839539Y-103604039D01*
X126841340Y-103604829D01*
X127000522Y-103660452D01*
X127002394Y-103660950D01*
X127195179Y-103696719D01*
X127196816Y-103696914D01*
X127420624Y-103708918D01*
X127420624Y-103934844D01*
X127196816Y-103946847D01*
X127195179Y-103947042D01*
X127002394Y-103982811D01*
X127000522Y-103983309D01*
X126841340Y-104038932D01*
X126839539Y-104039722D01*
X126704520Y-104111934D01*
X126703151Y-104112783D01*
X126582855Y-104198318D01*
X126582096Y-104198901D01*
X126467085Y-104294493D01*
X126466927Y-104294627D01*
X126347939Y-104396856D01*
X126215731Y-104502324D01*
X126060840Y-104607876D01*
X125881291Y-104706260D01*
X124961646Y-103821881D01*
X125881291Y-102937502D01*
X126060840Y-103035885D01*
G04 #@! TA.AperFunction,Conductor*
D20*
G36*
X126060840Y-103035885D02*
G01*
X126215731Y-103141437D01*
X126347939Y-103246905D01*
X126466927Y-103349134D01*
X126467085Y-103349268D01*
X126582096Y-103444860D01*
X126582855Y-103445443D01*
X126703151Y-103530978D01*
X126704520Y-103531827D01*
X126839539Y-103604039D01*
X126841340Y-103604829D01*
X127000522Y-103660452D01*
X127002394Y-103660950D01*
X127195179Y-103696719D01*
X127196816Y-103696914D01*
X127420624Y-103708918D01*
X127420624Y-103934844D01*
X127196816Y-103946847D01*
X127195179Y-103947042D01*
X127002394Y-103982811D01*
X127000522Y-103983309D01*
X126841340Y-104038932D01*
X126839539Y-104039722D01*
X126704520Y-104111934D01*
X126703151Y-104112783D01*
X126582855Y-104198318D01*
X126582096Y-104198901D01*
X126467085Y-104294493D01*
X126466927Y-104294627D01*
X126347939Y-104396856D01*
X126215731Y-104502324D01*
X126060840Y-104607876D01*
X125881291Y-104706260D01*
X124961646Y-103821881D01*
X125881291Y-102937502D01*
X126060840Y-103035885D01*
G37*
G04 #@! TD.AperFunction*
M02*
