M48
; DRILL file {KiCad (5.1.10-1-10_14)} date Wednesday, October 13, 2021 at 08:35:29 PM
; FORMAT={-:-/ absolute / inch / decimal}
; #@! TF.CreationDate,2021-10-13T20:35:29-04:00
; #@! TF.GenerationSoftware,Kicad,Pcbnew,(5.1.10-1-10_14)
FMAT,2
INCH
T1C0.0118
T2C0.0394
T3C0.1260
%
G90
G05
T1
X4.8094Y-4.0429
X4.9406Y-3.9508
X4.9748Y-3.9051
X5.1756Y-3.972
X5.4228Y-3.9799
X5.652Y-3.9917
X6.0547Y-3.9315
X6.1346Y-4.0882
X6.1394Y-3.8413
X6.198Y-3.8244
X6.2398Y-3.5626
X6.2398Y-3.6717
X6.2909Y-3.948
T2
X6.3059Y-3.5112
X6.3059Y-3.6014
X6.3059Y-3.6915
X6.3059Y-3.7817
X6.3059Y-3.8719
X6.3839Y-3.4661
X6.3839Y-3.5563
X6.3839Y-3.6465
X6.3839Y-3.7366
X6.3839Y-3.8268
X6.4618Y-3.5112
X6.4618Y-3.6014
X6.4618Y-3.6915
X6.4618Y-3.7817
X6.4618Y-3.8719
T3
X6.3839Y-3.1996
X6.3839Y-4.1835
T0
M30
