G04 #@! TF.GenerationSoftware,KiCad,Pcbnew,(5.1.10-1-10_14)*
G04 #@! TF.CreationDate,2021-10-24T13:43:18-04:00*
G04 #@! TF.ProjectId,gscartsw2VGA,67736361-7274-4737-9732-5647412e6b69,1*
G04 #@! TF.SameCoordinates,Original*
G04 #@! TF.FileFunction,Copper,L1,Top*
G04 #@! TF.FilePolarity,Positive*
%FSLAX46Y46*%
G04 Gerber Fmt 4.6, Leading zero omitted, Abs format (unit mm)*
G04 Created by KiCad (PCBNEW (5.1.10-1-10_14)) date 2021-10-24 13:43:18*
%MOMM*%
%LPD*%
G01*
G04 APERTURE LIST*
G04 #@! TA.AperFunction,ComponentPad*
%ADD10C,1.700000*%
G04 #@! TD*
G04 #@! TA.AperFunction,ComponentPad*
%ADD11C,4.066000*%
G04 #@! TD*
G04 #@! TA.AperFunction,ComponentPad*
%ADD12R,1.700000X1.700000*%
G04 #@! TD*
G04 #@! TA.AperFunction,SMDPad,CuDef*
%ADD13R,2.000000X3.000000*%
G04 #@! TD*
G04 #@! TA.AperFunction,ViaPad*
%ADD14C,0.700000*%
G04 #@! TD*
G04 #@! TA.AperFunction,Conductor*
%ADD15C,0.250000*%
G04 #@! TD*
G04 #@! TA.AperFunction,Conductor*
%ADD16C,0.160000*%
G04 #@! TD*
G04 #@! TA.AperFunction,Conductor*
%ADD17C,0.152400*%
G04 #@! TD*
G04 #@! TA.AperFunction,Conductor*
%ADD18C,0.025400*%
G04 #@! TD*
G04 APERTURE END LIST*
D10*
X164130000Y-98345000D03*
X164130000Y-96055000D03*
X164130000Y-93765000D03*
X164130000Y-91475000D03*
X164130000Y-89185000D03*
X162150000Y-97200000D03*
X162150000Y-94910000D03*
X162150000Y-92620000D03*
X162150000Y-90330000D03*
X162150000Y-88040000D03*
X160170000Y-98345000D03*
X160170000Y-96055000D03*
X160170000Y-93765000D03*
X160170000Y-91475000D03*
D11*
X162150000Y-106260000D03*
X162150000Y-81270000D03*
D12*
X160170000Y-89185000D03*
D13*
X153043324Y-103821881D03*
X149243324Y-103821881D03*
X145443324Y-103821881D03*
X141643324Y-103821881D03*
X137843324Y-103821881D03*
X134043324Y-103821881D03*
X130243324Y-103821881D03*
X126443324Y-103821881D03*
X122643324Y-103821881D03*
X118843324Y-103821881D03*
D14*
X122160000Y-102690000D03*
X126360000Y-99190000D03*
X158490000Y-90490000D03*
X158490000Y-93260000D03*
X130300000Y-99750000D03*
X137740000Y-101090000D03*
X143560000Y-101390000D03*
X159790000Y-100280000D03*
X129000000Y-100960000D03*
X132810000Y-100960000D03*
X125490000Y-100350000D03*
X158090000Y-95960000D03*
X156530000Y-96960000D03*
X154059998Y-100160000D03*
X155820000Y-103840000D03*
D15*
X165020000Y-100280000D02*
X159790000Y-100280000D01*
X166090000Y-94410000D02*
X166090000Y-99210000D01*
X165430000Y-93750000D02*
X166090000Y-94410000D01*
X166090000Y-99210000D02*
X165020000Y-100280000D01*
X164320000Y-93750000D02*
X165430000Y-93750000D01*
X164110000Y-93540000D02*
X164320000Y-93750000D01*
X129000000Y-100960000D02*
X132810000Y-100960000D01*
X124995026Y-100350000D02*
X125490000Y-100350000D01*
X118820000Y-101690000D02*
X120160000Y-100350000D01*
X120160000Y-100350000D02*
X124995026Y-100350000D01*
X118820000Y-103850000D02*
X118820000Y-101690000D01*
X158090000Y-98110000D02*
X158090000Y-95960000D01*
X154850000Y-101350000D02*
X158090000Y-98110000D01*
X151060000Y-101350000D02*
X154850000Y-101350000D01*
X149243324Y-103166676D02*
X151060000Y-101350000D01*
X154059998Y-99990002D02*
X154059998Y-100160000D01*
X156530000Y-97520000D02*
X154059998Y-99990002D01*
X156530000Y-96960000D02*
X156530000Y-97520000D01*
X155820000Y-103840000D02*
X152980000Y-103840000D01*
X128370000Y-98990000D02*
X126460000Y-100900000D01*
X150510000Y-98990000D02*
X128370000Y-98990000D01*
X155730000Y-93770000D02*
X150510000Y-98990000D01*
X155730000Y-90910000D02*
X155730000Y-93770000D01*
X157450000Y-89190000D02*
X155730000Y-90910000D01*
X159915000Y-89190000D02*
X157450000Y-89190000D01*
X126460000Y-100900000D02*
X126460000Y-103870000D01*
X160170000Y-88935000D02*
X159915000Y-89190000D01*
X156900000Y-93810000D02*
X150910000Y-99800000D01*
X156900000Y-92590000D02*
X156900000Y-93810000D01*
X134130000Y-100730000D02*
X134130000Y-103900000D01*
X157610000Y-91880000D02*
X156900000Y-92590000D01*
X150910000Y-99800000D02*
X135060000Y-99800000D01*
X159515000Y-91880000D02*
X157610000Y-91880000D01*
X135060000Y-99800000D02*
X134130000Y-100730000D01*
X159905000Y-91490000D02*
X159515000Y-91880000D01*
X141710000Y-101660000D02*
X141710000Y-103870000D01*
X142800000Y-100570000D02*
X141710000Y-101660000D01*
X160170000Y-93840000D02*
X159370000Y-94640000D01*
X151360000Y-100570000D02*
X142800000Y-100570000D01*
X159370000Y-94640000D02*
X157290000Y-94640000D01*
X157290000Y-94640000D02*
X151360000Y-100570000D01*
D16*
X166890000Y-108830000D02*
X156560000Y-108830000D01*
X156560000Y-107912149D01*
X160561490Y-107912149D01*
X160790999Y-108207063D01*
X161196966Y-108434779D01*
X161639556Y-108578919D01*
X162101763Y-108633944D01*
X162565823Y-108597740D01*
X163013903Y-108471698D01*
X163428785Y-108260662D01*
X163509001Y-108207063D01*
X163738510Y-107912149D01*
X162150000Y-106323640D01*
X160561490Y-107912149D01*
X156560000Y-107912149D01*
X156560000Y-106211763D01*
X159776056Y-106211763D01*
X159812260Y-106675823D01*
X159938302Y-107123903D01*
X160149338Y-107538785D01*
X160202937Y-107619001D01*
X160497851Y-107848510D01*
X162086360Y-106260000D01*
X162213640Y-106260000D01*
X163802149Y-107848510D01*
X164097063Y-107619001D01*
X164324779Y-107213034D01*
X164468919Y-106770444D01*
X164523944Y-106308237D01*
X164487740Y-105844177D01*
X164361698Y-105396097D01*
X164150662Y-104981215D01*
X164097063Y-104900999D01*
X163802149Y-104671490D01*
X162213640Y-106260000D01*
X162086360Y-106260000D01*
X160497851Y-104671490D01*
X160202937Y-104900999D01*
X159975221Y-105306966D01*
X159831081Y-105749556D01*
X159776056Y-106211763D01*
X156560000Y-106211763D01*
X156560000Y-105384244D01*
X156561403Y-105370000D01*
X156555804Y-105313150D01*
X156539221Y-105258485D01*
X156512293Y-105208105D01*
X156476053Y-105163947D01*
X156431895Y-105127707D01*
X156381515Y-105100779D01*
X156326850Y-105084196D01*
X156284245Y-105080000D01*
X156270000Y-105078597D01*
X156255755Y-105080000D01*
X154284485Y-105080000D01*
X154284485Y-104607851D01*
X160561490Y-104607851D01*
X162150000Y-106196360D01*
X163738510Y-104607851D01*
X163509001Y-104312937D01*
X163103034Y-104085221D01*
X162660444Y-103941081D01*
X162198237Y-103886056D01*
X161734177Y-103922260D01*
X161286097Y-104048302D01*
X160871215Y-104259338D01*
X160790999Y-104312937D01*
X160561490Y-104607851D01*
X154284485Y-104607851D01*
X154284485Y-104434281D01*
X154303761Y-104417698D01*
X154400404Y-104345956D01*
X154500577Y-104289738D01*
X154618522Y-104246376D01*
X154770554Y-104216659D01*
X154976773Y-104205000D01*
X155126181Y-104205000D01*
X155191638Y-104207075D01*
X155237401Y-104212061D01*
X155270576Y-104218852D01*
X155296532Y-104227025D01*
X155321511Y-104237698D01*
X155350954Y-104253073D01*
X155388420Y-104274803D01*
X155433439Y-104301462D01*
X155437640Y-104303893D01*
X155489362Y-104333125D01*
X155497792Y-104337670D01*
X155519637Y-104348891D01*
X155540530Y-104362851D01*
X155647903Y-104407327D01*
X155761890Y-104430000D01*
X155878110Y-104430000D01*
X155992097Y-104407327D01*
X156099470Y-104362851D01*
X156196103Y-104298283D01*
X156278283Y-104216103D01*
X156342851Y-104119470D01*
X156387327Y-104012097D01*
X156410000Y-103898110D01*
X156410000Y-103781890D01*
X156387327Y-103667903D01*
X156342851Y-103560530D01*
X156278283Y-103463897D01*
X156196103Y-103381717D01*
X156099470Y-103317149D01*
X155992097Y-103272673D01*
X155878110Y-103250000D01*
X155761890Y-103250000D01*
X155647903Y-103272673D01*
X155540530Y-103317149D01*
X155519637Y-103331109D01*
X155497795Y-103342328D01*
X155489362Y-103346874D01*
X155437640Y-103376106D01*
X155433439Y-103378537D01*
X155388420Y-103405196D01*
X155350954Y-103426926D01*
X155321511Y-103442301D01*
X155296532Y-103452974D01*
X155270576Y-103461147D01*
X155237401Y-103467938D01*
X155191625Y-103472926D01*
X155126209Y-103475000D01*
X154976846Y-103475000D01*
X154774049Y-103463423D01*
X154625416Y-103433975D01*
X154510932Y-103391083D01*
X154414211Y-103335381D01*
X154321026Y-103263787D01*
X154284485Y-103230936D01*
X154284485Y-102321881D01*
X154279851Y-102274833D01*
X154266128Y-102229593D01*
X154243842Y-102187899D01*
X154213851Y-102151354D01*
X154177306Y-102121363D01*
X154135612Y-102099077D01*
X154090372Y-102085354D01*
X154043324Y-102080720D01*
X152043324Y-102080720D01*
X151996276Y-102085354D01*
X151951036Y-102099077D01*
X151909342Y-102121363D01*
X151872797Y-102151354D01*
X151842806Y-102187899D01*
X151820520Y-102229593D01*
X151806797Y-102274833D01*
X151802163Y-102321881D01*
X151802163Y-105080000D01*
X150484485Y-105080000D01*
X150484485Y-102446266D01*
X150517988Y-102408200D01*
X151211188Y-101715000D01*
X154832071Y-101715000D01*
X154850000Y-101716766D01*
X154867929Y-101715000D01*
X154867931Y-101715000D01*
X154921552Y-101709719D01*
X154990355Y-101688848D01*
X155053764Y-101654955D01*
X155109343Y-101609343D01*
X155120779Y-101595408D01*
X156494297Y-100221890D01*
X159200000Y-100221890D01*
X159200000Y-100338110D01*
X159222673Y-100452097D01*
X159267149Y-100559470D01*
X159331717Y-100656103D01*
X159413897Y-100738283D01*
X159510530Y-100802851D01*
X159617903Y-100847327D01*
X159731890Y-100870000D01*
X159848110Y-100870000D01*
X159962097Y-100847327D01*
X160069470Y-100802851D01*
X160090368Y-100788887D01*
X160112208Y-100777669D01*
X160120637Y-100773125D01*
X160172359Y-100743893D01*
X160176560Y-100741462D01*
X160221579Y-100714803D01*
X160259045Y-100693073D01*
X160288488Y-100677698D01*
X160313467Y-100667025D01*
X160339423Y-100658852D01*
X160372598Y-100652061D01*
X160418361Y-100647075D01*
X160483819Y-100645000D01*
X165002071Y-100645000D01*
X165020000Y-100646766D01*
X165037929Y-100645000D01*
X165037931Y-100645000D01*
X165091552Y-100639719D01*
X165160355Y-100618848D01*
X165223764Y-100584955D01*
X165279343Y-100539343D01*
X165290779Y-100525408D01*
X166335413Y-99480775D01*
X166349343Y-99469343D01*
X166394955Y-99413764D01*
X166410731Y-99384249D01*
X166428848Y-99350356D01*
X166445653Y-99294955D01*
X166449719Y-99281552D01*
X166455000Y-99227931D01*
X166455000Y-99227929D01*
X166456766Y-99210000D01*
X166455000Y-99192071D01*
X166455000Y-94427929D01*
X166456766Y-94410000D01*
X166452750Y-94369228D01*
X166449719Y-94338448D01*
X166428848Y-94269645D01*
X166394955Y-94206236D01*
X166385399Y-94194592D01*
X166360773Y-94164585D01*
X166360770Y-94164582D01*
X166349342Y-94150657D01*
X166335418Y-94139230D01*
X165700779Y-93504592D01*
X165689343Y-93490657D01*
X165633764Y-93445045D01*
X165570355Y-93411152D01*
X165501552Y-93390281D01*
X165476517Y-93387815D01*
X165465899Y-93381364D01*
X165457277Y-93376368D01*
X165361548Y-93323514D01*
X165360280Y-93322818D01*
X165269636Y-93273482D01*
X165184033Y-93223210D01*
X165098155Y-93165230D01*
X165005502Y-93091587D01*
X164897725Y-92991233D01*
X164824834Y-92918342D01*
X164646309Y-92799055D01*
X164447941Y-92716888D01*
X164237356Y-92675000D01*
X164022644Y-92675000D01*
X163812059Y-92716888D01*
X163613691Y-92799055D01*
X163435166Y-92918342D01*
X163283342Y-93070166D01*
X163164055Y-93248691D01*
X163081888Y-93447059D01*
X163040000Y-93657644D01*
X163040000Y-93872356D01*
X163081888Y-94082941D01*
X163164055Y-94281309D01*
X163283342Y-94459834D01*
X163435166Y-94611658D01*
X163613691Y-94730945D01*
X163812059Y-94813112D01*
X164022644Y-94855000D01*
X164237356Y-94855000D01*
X164447941Y-94813112D01*
X164646309Y-94730945D01*
X164751616Y-94660581D01*
X164770320Y-94649351D01*
X164792489Y-94634296D01*
X164803189Y-94626121D01*
X164824834Y-94611658D01*
X164833627Y-94602865D01*
X164913653Y-94541722D01*
X164925294Y-94532237D01*
X165037347Y-94434945D01*
X165039566Y-94432994D01*
X165141008Y-94342701D01*
X165226965Y-94272915D01*
X165291587Y-94232351D01*
X165328065Y-94219690D01*
X165346225Y-94219805D01*
X165381899Y-94234104D01*
X165463909Y-94300097D01*
X165725000Y-94561188D01*
X165725001Y-99058811D01*
X164868813Y-99915000D01*
X160483791Y-99915000D01*
X160418374Y-99912926D01*
X160372598Y-99907938D01*
X160339423Y-99901147D01*
X160313467Y-99892974D01*
X160288488Y-99882301D01*
X160259045Y-99866926D01*
X160221579Y-99845196D01*
X160176560Y-99818537D01*
X160172359Y-99816106D01*
X160120637Y-99786874D01*
X160112205Y-99782328D01*
X160090361Y-99771108D01*
X160069470Y-99757149D01*
X159962097Y-99712673D01*
X159848110Y-99690000D01*
X159731890Y-99690000D01*
X159617903Y-99712673D01*
X159510530Y-99757149D01*
X159413897Y-99821717D01*
X159331717Y-99903897D01*
X159267149Y-100000530D01*
X159222673Y-100107903D01*
X159200000Y-100221890D01*
X156494297Y-100221890D01*
X157559929Y-99156258D01*
X159422382Y-99156258D01*
X159509965Y-99330019D01*
X159714814Y-99439859D01*
X159937157Y-99507624D01*
X160168447Y-99530709D01*
X160399797Y-99508229D01*
X160622316Y-99441047D01*
X160827453Y-99331744D01*
X160830035Y-99330019D01*
X160917618Y-99156258D01*
X160170000Y-98408640D01*
X159422382Y-99156258D01*
X157559929Y-99156258D01*
X158335418Y-98380770D01*
X158349342Y-98369343D01*
X158368046Y-98346553D01*
X158370594Y-98343447D01*
X158984291Y-98343447D01*
X159006771Y-98574797D01*
X159073953Y-98797316D01*
X159183256Y-99002453D01*
X159184981Y-99005035D01*
X159358742Y-99092618D01*
X160106360Y-98345000D01*
X160233640Y-98345000D01*
X160981258Y-99092618D01*
X161155019Y-99005035D01*
X161264859Y-98800186D01*
X161332624Y-98577843D01*
X161355709Y-98346553D01*
X161333229Y-98115203D01*
X161301847Y-98011258D01*
X161402382Y-98011258D01*
X161489965Y-98185019D01*
X161694814Y-98294859D01*
X161917157Y-98362624D01*
X162148447Y-98385709D01*
X162379797Y-98363229D01*
X162602316Y-98296047D01*
X162711925Y-98237644D01*
X163040000Y-98237644D01*
X163040000Y-98452356D01*
X163081888Y-98662941D01*
X163164055Y-98861309D01*
X163283342Y-99039834D01*
X163435166Y-99191658D01*
X163613691Y-99310945D01*
X163812059Y-99393112D01*
X164022644Y-99435000D01*
X164237356Y-99435000D01*
X164447941Y-99393112D01*
X164646309Y-99310945D01*
X164824834Y-99191658D01*
X164976658Y-99039834D01*
X165095945Y-98861309D01*
X165178112Y-98662941D01*
X165220000Y-98452356D01*
X165220000Y-98237644D01*
X165178112Y-98027059D01*
X165095945Y-97828691D01*
X164976658Y-97650166D01*
X164824834Y-97498342D01*
X164646309Y-97379055D01*
X164447941Y-97296888D01*
X164237356Y-97255000D01*
X164022644Y-97255000D01*
X163812059Y-97296888D01*
X163613691Y-97379055D01*
X163435166Y-97498342D01*
X163283342Y-97650166D01*
X163164055Y-97828691D01*
X163081888Y-98027059D01*
X163040000Y-98237644D01*
X162711925Y-98237644D01*
X162807453Y-98186744D01*
X162810035Y-98185019D01*
X162897618Y-98011258D01*
X162150000Y-97263640D01*
X161402382Y-98011258D01*
X161301847Y-98011258D01*
X161272561Y-97914260D01*
X161338742Y-97947618D01*
X162086360Y-97200000D01*
X162213640Y-97200000D01*
X162961258Y-97947618D01*
X163135019Y-97860035D01*
X163244859Y-97655186D01*
X163312624Y-97432843D01*
X163335709Y-97201553D01*
X163313229Y-96970203D01*
X163246047Y-96747684D01*
X163136744Y-96542547D01*
X163135019Y-96539965D01*
X162961258Y-96452382D01*
X162213640Y-97200000D01*
X162086360Y-97200000D01*
X161338742Y-96452382D01*
X161164981Y-96539965D01*
X161055141Y-96744814D01*
X160987376Y-96967157D01*
X160964291Y-97198447D01*
X160986771Y-97429797D01*
X161047439Y-97630740D01*
X160981258Y-97597382D01*
X160233640Y-98345000D01*
X160106360Y-98345000D01*
X159358742Y-97597382D01*
X159184981Y-97684965D01*
X159075141Y-97889814D01*
X159007376Y-98112157D01*
X158984291Y-98343447D01*
X158370594Y-98343447D01*
X158394954Y-98313765D01*
X158394955Y-98313764D01*
X158428848Y-98250355D01*
X158449719Y-98181552D01*
X158455000Y-98127931D01*
X158455000Y-98127929D01*
X158456766Y-98110000D01*
X158455000Y-98092071D01*
X158455000Y-97533742D01*
X159422382Y-97533742D01*
X160170000Y-98281360D01*
X160917618Y-97533742D01*
X160830035Y-97359981D01*
X160625186Y-97250141D01*
X160402843Y-97182376D01*
X160171553Y-97159291D01*
X159940203Y-97181771D01*
X159717684Y-97248953D01*
X159512547Y-97358256D01*
X159509965Y-97359981D01*
X159422382Y-97533742D01*
X158455000Y-97533742D01*
X158455000Y-96653819D01*
X158457075Y-96588361D01*
X158462061Y-96542598D01*
X158468852Y-96509423D01*
X158477025Y-96483467D01*
X158487698Y-96458488D01*
X158503073Y-96429045D01*
X158524803Y-96391579D01*
X158551462Y-96346560D01*
X158553893Y-96342359D01*
X158583125Y-96290637D01*
X158587669Y-96282208D01*
X158598887Y-96260368D01*
X158612851Y-96239470D01*
X158657327Y-96132097D01*
X158680000Y-96018110D01*
X158680000Y-95947644D01*
X159080000Y-95947644D01*
X159080000Y-96162356D01*
X159121888Y-96372941D01*
X159204055Y-96571309D01*
X159323342Y-96749834D01*
X159475166Y-96901658D01*
X159653691Y-97020945D01*
X159852059Y-97103112D01*
X160062644Y-97145000D01*
X160277356Y-97145000D01*
X160487941Y-97103112D01*
X160686309Y-97020945D01*
X160864834Y-96901658D01*
X161016658Y-96749834D01*
X161135945Y-96571309D01*
X161211566Y-96388742D01*
X161402382Y-96388742D01*
X162150000Y-97136360D01*
X162897618Y-96388742D01*
X162810035Y-96214981D01*
X162605186Y-96105141D01*
X162382843Y-96037376D01*
X162151553Y-96014291D01*
X161920203Y-96036771D01*
X161697684Y-96103953D01*
X161492547Y-96213256D01*
X161489965Y-96214981D01*
X161402382Y-96388742D01*
X161211566Y-96388742D01*
X161218112Y-96372941D01*
X161260000Y-96162356D01*
X161260000Y-95947644D01*
X161218112Y-95737059D01*
X161135945Y-95538691D01*
X161016658Y-95360166D01*
X160864834Y-95208342D01*
X160686309Y-95089055D01*
X160487941Y-95006888D01*
X160277356Y-94965000D01*
X160062644Y-94965000D01*
X159852059Y-95006888D01*
X159653691Y-95089055D01*
X159475166Y-95208342D01*
X159323342Y-95360166D01*
X159204055Y-95538691D01*
X159121888Y-95737059D01*
X159080000Y-95947644D01*
X158680000Y-95947644D01*
X158680000Y-95901890D01*
X158657327Y-95787903D01*
X158612851Y-95680530D01*
X158548283Y-95583897D01*
X158466103Y-95501717D01*
X158369470Y-95437149D01*
X158262097Y-95392673D01*
X158148110Y-95370000D01*
X158031890Y-95370000D01*
X157917903Y-95392673D01*
X157810530Y-95437149D01*
X157713897Y-95501717D01*
X157631717Y-95583897D01*
X157567149Y-95680530D01*
X157522673Y-95787903D01*
X157500000Y-95901890D01*
X157500000Y-96018110D01*
X157522673Y-96132097D01*
X157567149Y-96239470D01*
X157581108Y-96260361D01*
X157592328Y-96282205D01*
X157596874Y-96290637D01*
X157626106Y-96342359D01*
X157628537Y-96346560D01*
X157655196Y-96391579D01*
X157676926Y-96429045D01*
X157692301Y-96458488D01*
X157702974Y-96483467D01*
X157711147Y-96509423D01*
X157717938Y-96542598D01*
X157722926Y-96588374D01*
X157725001Y-96653812D01*
X157725000Y-97958812D01*
X154698813Y-100985000D01*
X151077929Y-100985000D01*
X151060000Y-100983234D01*
X151042071Y-100985000D01*
X151042069Y-100985000D01*
X150988448Y-100990281D01*
X150919645Y-101011152D01*
X150856236Y-101045045D01*
X150800657Y-101090657D01*
X150789226Y-101104586D01*
X150000084Y-101893729D01*
X149816794Y-102061751D01*
X149791577Y-102080720D01*
X148243324Y-102080720D01*
X148196276Y-102085354D01*
X148151036Y-102099077D01*
X148109342Y-102121363D01*
X148072797Y-102151354D01*
X148042806Y-102187899D01*
X148020520Y-102229593D01*
X148006797Y-102274833D01*
X148002163Y-102321881D01*
X148002163Y-105080000D01*
X146774640Y-105080000D01*
X146773324Y-103949381D01*
X146690824Y-103866881D01*
X145488324Y-103866881D01*
X145488324Y-103886881D01*
X145398324Y-103886881D01*
X145398324Y-103866881D01*
X144195824Y-103866881D01*
X144113324Y-103949381D01*
X144112008Y-105080000D01*
X142884485Y-105080000D01*
X142884485Y-102321881D01*
X144111727Y-102321881D01*
X144113324Y-103694381D01*
X144195824Y-103776881D01*
X145398324Y-103776881D01*
X145398324Y-102074381D01*
X145488324Y-102074381D01*
X145488324Y-103776881D01*
X146690824Y-103776881D01*
X146773324Y-103694381D01*
X146774921Y-102321881D01*
X146768549Y-102257190D01*
X146749680Y-102194984D01*
X146719037Y-102137656D01*
X146677798Y-102087407D01*
X146627549Y-102046168D01*
X146570221Y-102015525D01*
X146508015Y-101996656D01*
X146443324Y-101990284D01*
X145570824Y-101991881D01*
X145488324Y-102074381D01*
X145398324Y-102074381D01*
X145315824Y-101991881D01*
X144443324Y-101990284D01*
X144378633Y-101996656D01*
X144316427Y-102015525D01*
X144259099Y-102046168D01*
X144208850Y-102087407D01*
X144167611Y-102137656D01*
X144136968Y-102194984D01*
X144118099Y-102257190D01*
X144111727Y-102321881D01*
X142884485Y-102321881D01*
X142879851Y-102274833D01*
X142866128Y-102229593D01*
X142843842Y-102187899D01*
X142813851Y-102151354D01*
X142777306Y-102121363D01*
X142735612Y-102099077D01*
X142690372Y-102085354D01*
X142643324Y-102080720D01*
X142086381Y-102080720D01*
X142075000Y-101873418D01*
X142075000Y-101811187D01*
X142951188Y-100935000D01*
X151342071Y-100935000D01*
X151360000Y-100936766D01*
X151377929Y-100935000D01*
X151377931Y-100935000D01*
X151431552Y-100929719D01*
X151500355Y-100908848D01*
X151563764Y-100874955D01*
X151619343Y-100829343D01*
X151630779Y-100815408D01*
X152344297Y-100101890D01*
X153469998Y-100101890D01*
X153469998Y-100218110D01*
X153492671Y-100332097D01*
X153537147Y-100439470D01*
X153601715Y-100536103D01*
X153683895Y-100618283D01*
X153780528Y-100682851D01*
X153887901Y-100727327D01*
X154001888Y-100750000D01*
X154118108Y-100750000D01*
X154232095Y-100727327D01*
X154339468Y-100682851D01*
X154436101Y-100618283D01*
X154518281Y-100536103D01*
X154582849Y-100439470D01*
X154627325Y-100332097D01*
X154649998Y-100218110D01*
X154649998Y-100101890D01*
X154648316Y-100093436D01*
X154648194Y-100089114D01*
X154648085Y-100085990D01*
X154645961Y-100034652D01*
X154644898Y-99993987D01*
X154645595Y-99965720D01*
X154647594Y-99948384D01*
X154650181Y-99937799D01*
X154654345Y-99927485D01*
X154663625Y-99911479D01*
X154682542Y-99886510D01*
X154717413Y-99848775D01*
X156775413Y-97790775D01*
X156789343Y-97779343D01*
X156818977Y-97743234D01*
X156834954Y-97723766D01*
X156854313Y-97687547D01*
X156868848Y-97660355D01*
X156889719Y-97591552D01*
X156895000Y-97537931D01*
X156895000Y-97537930D01*
X156896766Y-97520001D01*
X156895000Y-97502072D01*
X156895000Y-97495250D01*
X156903237Y-97460969D01*
X156911465Y-97433272D01*
X156919053Y-97415399D01*
X156929027Y-97399229D01*
X156953415Y-97370971D01*
X156988283Y-97336103D01*
X157052851Y-97239470D01*
X157097327Y-97132097D01*
X157120000Y-97018110D01*
X157120000Y-96901890D01*
X157097327Y-96787903D01*
X157052851Y-96680530D01*
X156988283Y-96583897D01*
X156906103Y-96501717D01*
X156809470Y-96437149D01*
X156702097Y-96392673D01*
X156588110Y-96370000D01*
X156471890Y-96370000D01*
X156357903Y-96392673D01*
X156250530Y-96437149D01*
X156153897Y-96501717D01*
X156071717Y-96583897D01*
X156007149Y-96680530D01*
X155962673Y-96787903D01*
X155940000Y-96901890D01*
X155940000Y-97018110D01*
X155962673Y-97132097D01*
X156007149Y-97239470D01*
X156034291Y-97280091D01*
X156046786Y-97299655D01*
X156056165Y-97312827D01*
X156071717Y-97336103D01*
X156075259Y-97339645D01*
X156078490Y-97344183D01*
X156085970Y-97354132D01*
X156119220Y-97396049D01*
X156119571Y-97396491D01*
X156127444Y-97406368D01*
X154199904Y-99333909D01*
X154141477Y-99389636D01*
X154093753Y-99430502D01*
X154052284Y-99461997D01*
X154013713Y-99487980D01*
X153974083Y-99512176D01*
X153930430Y-99537510D01*
X153929360Y-99538134D01*
X153882240Y-99565806D01*
X153876140Y-99569512D01*
X153826217Y-99600863D01*
X153817059Y-99606910D01*
X153762677Y-99644634D01*
X153752649Y-99651982D01*
X153716566Y-99679887D01*
X153683895Y-99701717D01*
X153601715Y-99783897D01*
X153537147Y-99880530D01*
X153492671Y-99987903D01*
X153469998Y-100101890D01*
X152344297Y-100101890D01*
X157441188Y-95005000D01*
X159352071Y-95005000D01*
X159370000Y-95006766D01*
X159387929Y-95005000D01*
X159387931Y-95005000D01*
X159441552Y-94999719D01*
X159510355Y-94978848D01*
X159573764Y-94944955D01*
X159601406Y-94922270D01*
X159691172Y-94903116D01*
X159791192Y-94884287D01*
X159898327Y-94869208D01*
X160021736Y-94858941D01*
X160173133Y-94855000D01*
X160277356Y-94855000D01*
X160487941Y-94813112D01*
X160513212Y-94802644D01*
X161060000Y-94802644D01*
X161060000Y-95017356D01*
X161101888Y-95227941D01*
X161184055Y-95426309D01*
X161303342Y-95604834D01*
X161455166Y-95756658D01*
X161633691Y-95875945D01*
X161832059Y-95958112D01*
X162042644Y-96000000D01*
X162257356Y-96000000D01*
X162467941Y-95958112D01*
X162493212Y-95947644D01*
X163040000Y-95947644D01*
X163040000Y-96162356D01*
X163081888Y-96372941D01*
X163164055Y-96571309D01*
X163283342Y-96749834D01*
X163435166Y-96901658D01*
X163613691Y-97020945D01*
X163812059Y-97103112D01*
X164022644Y-97145000D01*
X164237356Y-97145000D01*
X164447941Y-97103112D01*
X164646309Y-97020945D01*
X164824834Y-96901658D01*
X164976658Y-96749834D01*
X165095945Y-96571309D01*
X165178112Y-96372941D01*
X165220000Y-96162356D01*
X165220000Y-95947644D01*
X165178112Y-95737059D01*
X165095945Y-95538691D01*
X164976658Y-95360166D01*
X164824834Y-95208342D01*
X164646309Y-95089055D01*
X164447941Y-95006888D01*
X164237356Y-94965000D01*
X164022644Y-94965000D01*
X163812059Y-95006888D01*
X163613691Y-95089055D01*
X163435166Y-95208342D01*
X163283342Y-95360166D01*
X163164055Y-95538691D01*
X163081888Y-95737059D01*
X163040000Y-95947644D01*
X162493212Y-95947644D01*
X162666309Y-95875945D01*
X162844834Y-95756658D01*
X162996658Y-95604834D01*
X163115945Y-95426309D01*
X163198112Y-95227941D01*
X163240000Y-95017356D01*
X163240000Y-94802644D01*
X163198112Y-94592059D01*
X163115945Y-94393691D01*
X162996658Y-94215166D01*
X162844834Y-94063342D01*
X162666309Y-93944055D01*
X162467941Y-93861888D01*
X162257356Y-93820000D01*
X162042644Y-93820000D01*
X161832059Y-93861888D01*
X161633691Y-93944055D01*
X161455166Y-94063342D01*
X161303342Y-94215166D01*
X161184055Y-94393691D01*
X161101888Y-94592059D01*
X161060000Y-94802644D01*
X160513212Y-94802644D01*
X160686309Y-94730945D01*
X160864834Y-94611658D01*
X161016658Y-94459834D01*
X161135945Y-94281309D01*
X161218112Y-94082941D01*
X161260000Y-93872356D01*
X161260000Y-93657644D01*
X161218112Y-93447059D01*
X161211567Y-93431258D01*
X161402382Y-93431258D01*
X161489965Y-93605019D01*
X161694814Y-93714859D01*
X161917157Y-93782624D01*
X162148447Y-93805709D01*
X162379797Y-93783229D01*
X162602316Y-93716047D01*
X162807453Y-93606744D01*
X162810035Y-93605019D01*
X162897618Y-93431258D01*
X162150000Y-92683640D01*
X161402382Y-93431258D01*
X161211567Y-93431258D01*
X161135945Y-93248691D01*
X161016658Y-93070166D01*
X160864834Y-92918342D01*
X160686309Y-92799055D01*
X160487941Y-92716888D01*
X160277356Y-92675000D01*
X160062644Y-92675000D01*
X159852059Y-92716888D01*
X159653691Y-92799055D01*
X159475166Y-92918342D01*
X159323342Y-93070166D01*
X159204055Y-93248691D01*
X159121888Y-93447059D01*
X159089124Y-93611776D01*
X159086011Y-93625990D01*
X159083917Y-93637950D01*
X159080000Y-93657644D01*
X159080000Y-93665044D01*
X159064035Y-93786227D01*
X159062956Y-93795940D01*
X159050692Y-93931444D01*
X159039038Y-94052348D01*
X159023974Y-94147290D01*
X159005345Y-94209253D01*
X158988873Y-94237784D01*
X158974658Y-94250293D01*
X158937863Y-94264855D01*
X158839082Y-94275000D01*
X157307928Y-94275000D01*
X157289999Y-94273234D01*
X157272070Y-94275000D01*
X157272069Y-94275000D01*
X157218448Y-94280281D01*
X157149645Y-94301152D01*
X157149643Y-94301153D01*
X157086234Y-94335046D01*
X157082089Y-94338448D01*
X157030657Y-94380657D01*
X157019226Y-94394586D01*
X151208813Y-100205000D01*
X142817929Y-100205000D01*
X142800000Y-100203234D01*
X142782071Y-100205000D01*
X142782069Y-100205000D01*
X142728448Y-100210281D01*
X142659645Y-100231152D01*
X142596236Y-100265045D01*
X142540657Y-100310657D01*
X142529226Y-100324586D01*
X141464588Y-101389225D01*
X141450657Y-101400658D01*
X141405045Y-101456237D01*
X141371152Y-101519646D01*
X141350281Y-101588449D01*
X141345204Y-101640000D01*
X141343234Y-101660000D01*
X141345000Y-101677929D01*
X141345000Y-101873168D01*
X141333558Y-102073937D01*
X141332210Y-102080720D01*
X140643324Y-102080720D01*
X140596276Y-102085354D01*
X140551036Y-102099077D01*
X140509342Y-102121363D01*
X140472797Y-102151354D01*
X140442806Y-102187899D01*
X140420520Y-102229593D01*
X140406797Y-102274833D01*
X140402163Y-102321881D01*
X140402163Y-105080000D01*
X139174640Y-105080000D01*
X139173324Y-103949381D01*
X139090824Y-103866881D01*
X137888324Y-103866881D01*
X137888324Y-103886881D01*
X137798324Y-103886881D01*
X137798324Y-103866881D01*
X136595824Y-103866881D01*
X136513324Y-103949381D01*
X136512008Y-105080000D01*
X135284485Y-105080000D01*
X135284485Y-102321881D01*
X136511727Y-102321881D01*
X136513324Y-103694381D01*
X136595824Y-103776881D01*
X137798324Y-103776881D01*
X137798324Y-102074381D01*
X137888324Y-102074381D01*
X137888324Y-103776881D01*
X139090824Y-103776881D01*
X139173324Y-103694381D01*
X139174921Y-102321881D01*
X139168549Y-102257190D01*
X139149680Y-102194984D01*
X139119037Y-102137656D01*
X139077798Y-102087407D01*
X139027549Y-102046168D01*
X138970221Y-102015525D01*
X138908015Y-101996656D01*
X138843324Y-101990284D01*
X137970824Y-101991881D01*
X137888324Y-102074381D01*
X137798324Y-102074381D01*
X137715824Y-101991881D01*
X136843324Y-101990284D01*
X136778633Y-101996656D01*
X136716427Y-102015525D01*
X136659099Y-102046168D01*
X136608850Y-102087407D01*
X136567611Y-102137656D01*
X136536968Y-102194984D01*
X136518099Y-102257190D01*
X136511727Y-102321881D01*
X135284485Y-102321881D01*
X135279851Y-102274833D01*
X135266128Y-102229593D01*
X135243842Y-102187899D01*
X135213851Y-102151354D01*
X135177306Y-102121363D01*
X135135612Y-102099077D01*
X135090372Y-102085354D01*
X135043324Y-102080720D01*
X134504963Y-102080720D01*
X134495000Y-101903262D01*
X134495000Y-100881187D01*
X135211188Y-100165000D01*
X150892071Y-100165000D01*
X150910000Y-100166766D01*
X150927929Y-100165000D01*
X150927931Y-100165000D01*
X150981552Y-100159719D01*
X151050355Y-100138848D01*
X151113764Y-100104955D01*
X151169343Y-100059343D01*
X151180779Y-100045408D01*
X157145413Y-94080775D01*
X157159343Y-94069343D01*
X157199203Y-94020773D01*
X157204954Y-94013766D01*
X157226335Y-93973765D01*
X157238848Y-93950355D01*
X157259719Y-93881552D01*
X157265000Y-93827931D01*
X157265000Y-93827930D01*
X157266766Y-93810001D01*
X157265000Y-93792072D01*
X157265000Y-92741187D01*
X157387740Y-92618447D01*
X160964291Y-92618447D01*
X160986771Y-92849797D01*
X161053953Y-93072316D01*
X161163256Y-93277453D01*
X161164981Y-93280035D01*
X161338742Y-93367618D01*
X162086360Y-92620000D01*
X162213640Y-92620000D01*
X162961258Y-93367618D01*
X163135019Y-93280035D01*
X163244859Y-93075186D01*
X163312624Y-92852843D01*
X163335709Y-92621553D01*
X163313229Y-92390203D01*
X163246047Y-92167684D01*
X163136744Y-91962547D01*
X163135019Y-91959965D01*
X162961258Y-91872382D01*
X162213640Y-92620000D01*
X162086360Y-92620000D01*
X161338742Y-91872382D01*
X161164981Y-91959965D01*
X161055141Y-92164814D01*
X160987376Y-92387157D01*
X160964291Y-92618447D01*
X157387740Y-92618447D01*
X157761188Y-92245000D01*
X158560201Y-92245000D01*
X158769016Y-92253342D01*
X158934928Y-92274860D01*
X159073805Y-92306119D01*
X159197987Y-92344889D01*
X159319342Y-92389772D01*
X159443721Y-92436831D01*
X159452864Y-92440080D01*
X159583632Y-92483600D01*
X159601767Y-92488853D01*
X159746600Y-92524693D01*
X159769740Y-92529226D01*
X159937110Y-92553546D01*
X159960792Y-92555796D01*
X160032700Y-92559044D01*
X160062644Y-92565000D01*
X160277356Y-92565000D01*
X160487941Y-92523112D01*
X160686309Y-92440945D01*
X160864834Y-92321658D01*
X161016658Y-92169834D01*
X161135945Y-91991309D01*
X161218112Y-91792941D01*
X161260000Y-91582356D01*
X161260000Y-91367644D01*
X161218112Y-91157059D01*
X161211567Y-91141258D01*
X161402382Y-91141258D01*
X161489965Y-91315019D01*
X161694814Y-91424859D01*
X161859577Y-91475075D01*
X161697684Y-91523953D01*
X161492547Y-91633256D01*
X161489965Y-91634981D01*
X161402382Y-91808742D01*
X162150000Y-92556360D01*
X162897618Y-91808742D01*
X162810035Y-91634981D01*
X162605186Y-91525141D01*
X162440423Y-91474925D01*
X162602316Y-91426047D01*
X162711925Y-91367644D01*
X163040000Y-91367644D01*
X163040000Y-91582356D01*
X163081888Y-91792941D01*
X163164055Y-91991309D01*
X163283342Y-92169834D01*
X163435166Y-92321658D01*
X163613691Y-92440945D01*
X163812059Y-92523112D01*
X164022644Y-92565000D01*
X164237356Y-92565000D01*
X164447941Y-92523112D01*
X164646309Y-92440945D01*
X164824834Y-92321658D01*
X164976658Y-92169834D01*
X165095945Y-91991309D01*
X165178112Y-91792941D01*
X165220000Y-91582356D01*
X165220000Y-91367644D01*
X165178112Y-91157059D01*
X165095945Y-90958691D01*
X164976658Y-90780166D01*
X164824834Y-90628342D01*
X164646309Y-90509055D01*
X164447941Y-90426888D01*
X164237356Y-90385000D01*
X164022644Y-90385000D01*
X163812059Y-90426888D01*
X163613691Y-90509055D01*
X163435166Y-90628342D01*
X163283342Y-90780166D01*
X163164055Y-90958691D01*
X163081888Y-91157059D01*
X163040000Y-91367644D01*
X162711925Y-91367644D01*
X162807453Y-91316744D01*
X162810035Y-91315019D01*
X162897618Y-91141258D01*
X162150000Y-90393640D01*
X161402382Y-91141258D01*
X161211567Y-91141258D01*
X161135945Y-90958691D01*
X161016658Y-90780166D01*
X160864834Y-90628342D01*
X160686309Y-90509055D01*
X160487941Y-90426888D01*
X160277356Y-90385000D01*
X160062644Y-90385000D01*
X159852059Y-90426888D01*
X159653691Y-90509055D01*
X159475166Y-90628342D01*
X159323342Y-90780166D01*
X159204055Y-90958691D01*
X159204045Y-90958716D01*
X159197736Y-90968068D01*
X159191081Y-90978504D01*
X159118950Y-91098323D01*
X159116717Y-91102110D01*
X159053683Y-91211295D01*
X158997733Y-91302913D01*
X158947161Y-91372908D01*
X158899703Y-91422666D01*
X158850082Y-91458237D01*
X158786587Y-91486029D01*
X158694728Y-91506433D01*
X158557522Y-91515000D01*
X157627929Y-91515000D01*
X157610000Y-91513234D01*
X157592071Y-91515000D01*
X157592069Y-91515000D01*
X157538448Y-91520281D01*
X157469645Y-91541152D01*
X157406236Y-91575045D01*
X157350657Y-91620657D01*
X157339226Y-91634586D01*
X156654588Y-92319225D01*
X156640657Y-92330658D01*
X156595045Y-92386237D01*
X156561152Y-92449646D01*
X156540281Y-92518449D01*
X156535000Y-92572069D01*
X156533234Y-92590000D01*
X156535000Y-92607929D01*
X156535001Y-93658811D01*
X150758813Y-99435000D01*
X135077929Y-99435000D01*
X135060000Y-99433234D01*
X135042071Y-99435000D01*
X135042069Y-99435000D01*
X134988448Y-99440281D01*
X134919645Y-99461152D01*
X134856236Y-99495045D01*
X134800657Y-99540657D01*
X134789226Y-99554586D01*
X133884588Y-100459225D01*
X133870657Y-100470658D01*
X133825045Y-100526237D01*
X133791152Y-100589646D01*
X133770281Y-100658449D01*
X133765232Y-100709719D01*
X133763234Y-100730000D01*
X133765000Y-100747929D01*
X133765000Y-101902959D01*
X133754563Y-102080720D01*
X133043324Y-102080720D01*
X132996276Y-102085354D01*
X132951036Y-102099077D01*
X132909342Y-102121363D01*
X132872797Y-102151354D01*
X132842806Y-102187899D01*
X132820520Y-102229593D01*
X132806797Y-102274833D01*
X132802163Y-102321881D01*
X132802163Y-105080000D01*
X131574640Y-105080000D01*
X131573324Y-103949381D01*
X131490824Y-103866881D01*
X130288324Y-103866881D01*
X130288324Y-103886881D01*
X130198324Y-103886881D01*
X130198324Y-103866881D01*
X128995824Y-103866881D01*
X128913324Y-103949381D01*
X128912008Y-105080000D01*
X127684485Y-105080000D01*
X127684485Y-102321881D01*
X128911727Y-102321881D01*
X128913324Y-103694381D01*
X128995824Y-103776881D01*
X130198324Y-103776881D01*
X130198324Y-102074381D01*
X130288324Y-102074381D01*
X130288324Y-103776881D01*
X131490824Y-103776881D01*
X131573324Y-103694381D01*
X131574921Y-102321881D01*
X131568549Y-102257190D01*
X131549680Y-102194984D01*
X131519037Y-102137656D01*
X131477798Y-102087407D01*
X131427549Y-102046168D01*
X131370221Y-102015525D01*
X131308015Y-101996656D01*
X131243324Y-101990284D01*
X130370824Y-101991881D01*
X130288324Y-102074381D01*
X130198324Y-102074381D01*
X130115824Y-101991881D01*
X129243324Y-101990284D01*
X129178633Y-101996656D01*
X129116427Y-102015525D01*
X129059099Y-102046168D01*
X129008850Y-102087407D01*
X128967611Y-102137656D01*
X128936968Y-102194984D01*
X128918099Y-102257190D01*
X128911727Y-102321881D01*
X127684485Y-102321881D01*
X127679851Y-102274833D01*
X127666128Y-102229593D01*
X127643842Y-102187899D01*
X127613851Y-102151354D01*
X127577306Y-102121363D01*
X127535612Y-102099077D01*
X127490372Y-102085354D01*
X127443324Y-102080720D01*
X126836566Y-102080720D01*
X126825000Y-101873308D01*
X126825000Y-101051187D01*
X126974297Y-100901890D01*
X128410000Y-100901890D01*
X128410000Y-101018110D01*
X128432673Y-101132097D01*
X128477149Y-101239470D01*
X128541717Y-101336103D01*
X128623897Y-101418283D01*
X128720530Y-101482851D01*
X128827903Y-101527327D01*
X128941890Y-101550000D01*
X129058110Y-101550000D01*
X129172097Y-101527327D01*
X129279470Y-101482851D01*
X129300368Y-101468887D01*
X129322208Y-101457669D01*
X129330637Y-101453125D01*
X129382359Y-101423893D01*
X129386560Y-101421462D01*
X129431579Y-101394803D01*
X129469045Y-101373073D01*
X129498488Y-101357698D01*
X129523467Y-101347025D01*
X129549423Y-101338852D01*
X129582598Y-101332061D01*
X129628361Y-101327075D01*
X129693819Y-101325000D01*
X132116181Y-101325000D01*
X132181638Y-101327075D01*
X132227401Y-101332061D01*
X132260576Y-101338852D01*
X132286532Y-101347025D01*
X132311511Y-101357698D01*
X132340954Y-101373073D01*
X132378420Y-101394803D01*
X132423439Y-101421462D01*
X132427640Y-101423893D01*
X132479362Y-101453125D01*
X132487792Y-101457670D01*
X132509637Y-101468891D01*
X132530530Y-101482851D01*
X132637903Y-101527327D01*
X132751890Y-101550000D01*
X132868110Y-101550000D01*
X132982097Y-101527327D01*
X133089470Y-101482851D01*
X133186103Y-101418283D01*
X133268283Y-101336103D01*
X133332851Y-101239470D01*
X133377327Y-101132097D01*
X133400000Y-101018110D01*
X133400000Y-100901890D01*
X133377327Y-100787903D01*
X133332851Y-100680530D01*
X133268283Y-100583897D01*
X133186103Y-100501717D01*
X133089470Y-100437149D01*
X132982097Y-100392673D01*
X132868110Y-100370000D01*
X132751890Y-100370000D01*
X132637903Y-100392673D01*
X132530530Y-100437149D01*
X132509637Y-100451109D01*
X132487795Y-100462328D01*
X132479362Y-100466874D01*
X132427640Y-100496106D01*
X132423439Y-100498537D01*
X132378420Y-100525196D01*
X132340954Y-100546926D01*
X132311511Y-100562301D01*
X132286532Y-100572974D01*
X132260576Y-100581147D01*
X132227401Y-100587938D01*
X132181625Y-100592926D01*
X132116209Y-100595000D01*
X129693791Y-100595000D01*
X129628374Y-100592926D01*
X129582598Y-100587938D01*
X129549423Y-100581147D01*
X129523467Y-100572974D01*
X129498488Y-100562301D01*
X129469045Y-100546926D01*
X129431579Y-100525196D01*
X129386560Y-100498537D01*
X129382359Y-100496106D01*
X129330637Y-100466874D01*
X129322205Y-100462328D01*
X129300361Y-100451108D01*
X129279470Y-100437149D01*
X129172097Y-100392673D01*
X129058110Y-100370000D01*
X128941890Y-100370000D01*
X128827903Y-100392673D01*
X128720530Y-100437149D01*
X128623897Y-100501717D01*
X128541717Y-100583897D01*
X128477149Y-100680530D01*
X128432673Y-100787903D01*
X128410000Y-100901890D01*
X126974297Y-100901890D01*
X128521188Y-99355000D01*
X150492071Y-99355000D01*
X150510000Y-99356766D01*
X150527929Y-99355000D01*
X150527931Y-99355000D01*
X150581552Y-99349719D01*
X150650355Y-99328848D01*
X150713764Y-99294955D01*
X150769343Y-99249343D01*
X150780779Y-99235408D01*
X155975413Y-94040775D01*
X155989343Y-94029343D01*
X156034955Y-93973764D01*
X156068848Y-93910355D01*
X156089719Y-93841552D01*
X156095000Y-93787931D01*
X156095000Y-93787929D01*
X156096766Y-93770000D01*
X156095000Y-93752071D01*
X156095000Y-91061187D01*
X157601188Y-89555000D01*
X158458917Y-89555000D01*
X158639835Y-89564176D01*
X158773769Y-89587620D01*
X158877685Y-89621794D01*
X158965534Y-89665927D01*
X159050228Y-89722472D01*
X159078839Y-89744857D01*
X159078839Y-90035000D01*
X159083473Y-90082048D01*
X159097196Y-90127288D01*
X159119482Y-90168982D01*
X159149473Y-90205527D01*
X159186018Y-90235518D01*
X159227712Y-90257804D01*
X159272952Y-90271527D01*
X159320000Y-90276161D01*
X160969510Y-90276161D01*
X160964291Y-90328447D01*
X160986771Y-90559797D01*
X161053953Y-90782316D01*
X161163256Y-90987453D01*
X161164981Y-90990035D01*
X161338742Y-91077618D01*
X162086360Y-90330000D01*
X162213640Y-90330000D01*
X162961258Y-91077618D01*
X163135019Y-90990035D01*
X163244859Y-90785186D01*
X163312624Y-90562843D01*
X163335709Y-90331553D01*
X163313229Y-90100203D01*
X163246047Y-89877684D01*
X163136744Y-89672547D01*
X163135019Y-89669965D01*
X162961258Y-89582382D01*
X162213640Y-90330000D01*
X162086360Y-90330000D01*
X161338742Y-89582382D01*
X161261161Y-89621486D01*
X161261161Y-88851258D01*
X161402382Y-88851258D01*
X161489965Y-89025019D01*
X161694814Y-89134859D01*
X161859577Y-89185075D01*
X161697684Y-89233953D01*
X161492547Y-89343256D01*
X161489965Y-89344981D01*
X161402382Y-89518742D01*
X162150000Y-90266360D01*
X162897618Y-89518742D01*
X162810035Y-89344981D01*
X162605186Y-89235141D01*
X162440423Y-89184925D01*
X162602316Y-89136047D01*
X162711925Y-89077644D01*
X163040000Y-89077644D01*
X163040000Y-89292356D01*
X163081888Y-89502941D01*
X163164055Y-89701309D01*
X163283342Y-89879834D01*
X163435166Y-90031658D01*
X163613691Y-90150945D01*
X163812059Y-90233112D01*
X164022644Y-90275000D01*
X164237356Y-90275000D01*
X164447941Y-90233112D01*
X164646309Y-90150945D01*
X164824834Y-90031658D01*
X164976658Y-89879834D01*
X165095945Y-89701309D01*
X165178112Y-89502941D01*
X165220000Y-89292356D01*
X165220000Y-89077644D01*
X165178112Y-88867059D01*
X165095945Y-88668691D01*
X164976658Y-88490166D01*
X164824834Y-88338342D01*
X164646309Y-88219055D01*
X164447941Y-88136888D01*
X164237356Y-88095000D01*
X164022644Y-88095000D01*
X163812059Y-88136888D01*
X163613691Y-88219055D01*
X163435166Y-88338342D01*
X163283342Y-88490166D01*
X163164055Y-88668691D01*
X163081888Y-88867059D01*
X163040000Y-89077644D01*
X162711925Y-89077644D01*
X162807453Y-89026744D01*
X162810035Y-89025019D01*
X162897618Y-88851258D01*
X162150000Y-88103640D01*
X161402382Y-88851258D01*
X161261161Y-88851258D01*
X161261161Y-88748514D01*
X161338742Y-88787618D01*
X162086360Y-88040000D01*
X162213640Y-88040000D01*
X162961258Y-88787618D01*
X163135019Y-88700035D01*
X163244859Y-88495186D01*
X163312624Y-88272843D01*
X163335709Y-88041553D01*
X163313229Y-87810203D01*
X163246047Y-87587684D01*
X163136744Y-87382547D01*
X163135019Y-87379965D01*
X162961258Y-87292382D01*
X162213640Y-88040000D01*
X162086360Y-88040000D01*
X161338742Y-87292382D01*
X161164981Y-87379965D01*
X161055141Y-87584814D01*
X160987376Y-87807157D01*
X160964291Y-88038447D01*
X160969673Y-88093839D01*
X159320000Y-88093839D01*
X159272952Y-88098473D01*
X159227712Y-88112196D01*
X159186018Y-88134482D01*
X159149473Y-88164473D01*
X159119482Y-88201018D01*
X159097196Y-88242712D01*
X159083473Y-88287952D01*
X159078839Y-88335000D01*
X159078839Y-88631347D01*
X159045616Y-88657710D01*
X158961847Y-88714273D01*
X158874939Y-88758321D01*
X158771949Y-88792423D01*
X158638915Y-88815832D01*
X158458900Y-88825000D01*
X157467928Y-88825000D01*
X157449999Y-88823234D01*
X157432070Y-88825000D01*
X157432069Y-88825000D01*
X157378448Y-88830281D01*
X157309645Y-88851152D01*
X157254423Y-88880669D01*
X157246234Y-88885046D01*
X157233747Y-88895294D01*
X157190657Y-88930657D01*
X157179226Y-88944586D01*
X155484588Y-90639225D01*
X155470657Y-90650658D01*
X155425045Y-90706237D01*
X155391152Y-90769646D01*
X155370281Y-90838449D01*
X155365000Y-90892069D01*
X155363234Y-90910000D01*
X155365000Y-90927929D01*
X155365001Y-93618811D01*
X150358813Y-98625000D01*
X128387929Y-98625000D01*
X128370000Y-98623234D01*
X128352071Y-98625000D01*
X128352069Y-98625000D01*
X128298448Y-98630281D01*
X128229645Y-98651152D01*
X128166236Y-98685045D01*
X128110657Y-98730657D01*
X128099226Y-98744586D01*
X126214588Y-100629225D01*
X126200657Y-100640658D01*
X126155045Y-100696237D01*
X126121152Y-100759646D01*
X126100281Y-100828449D01*
X126096189Y-100870000D01*
X126093234Y-100900000D01*
X126095000Y-100917929D01*
X126095000Y-101873239D01*
X126083449Y-102078455D01*
X126083007Y-102080720D01*
X125443324Y-102080720D01*
X125396276Y-102085354D01*
X125351036Y-102099077D01*
X125309342Y-102121363D01*
X125272797Y-102151354D01*
X125242806Y-102187899D01*
X125220520Y-102229593D01*
X125206797Y-102274833D01*
X125202163Y-102321881D01*
X125202163Y-105080000D01*
X123974640Y-105080000D01*
X123973324Y-103949381D01*
X123890824Y-103866881D01*
X122688324Y-103866881D01*
X122688324Y-103886881D01*
X122598324Y-103886881D01*
X122598324Y-103866881D01*
X121395824Y-103866881D01*
X121313324Y-103949381D01*
X121312008Y-105080000D01*
X120084485Y-105080000D01*
X120084485Y-102321881D01*
X121311727Y-102321881D01*
X121313324Y-103694381D01*
X121395824Y-103776881D01*
X122598324Y-103776881D01*
X122598324Y-102074381D01*
X122688324Y-102074381D01*
X122688324Y-103776881D01*
X123890824Y-103776881D01*
X123973324Y-103694381D01*
X123974921Y-102321881D01*
X123968549Y-102257190D01*
X123949680Y-102194984D01*
X123919037Y-102137656D01*
X123877798Y-102087407D01*
X123827549Y-102046168D01*
X123770221Y-102015525D01*
X123708015Y-101996656D01*
X123643324Y-101990284D01*
X122770824Y-101991881D01*
X122688324Y-102074381D01*
X122598324Y-102074381D01*
X122515824Y-101991881D01*
X121643324Y-101990284D01*
X121578633Y-101996656D01*
X121516427Y-102015525D01*
X121459099Y-102046168D01*
X121408850Y-102087407D01*
X121367611Y-102137656D01*
X121336968Y-102194984D01*
X121318099Y-102257190D01*
X121311727Y-102321881D01*
X120084485Y-102321881D01*
X120079851Y-102274833D01*
X120066128Y-102229593D01*
X120043842Y-102187899D01*
X120013851Y-102151354D01*
X119977306Y-102121363D01*
X119935612Y-102099077D01*
X119890372Y-102085354D01*
X119843324Y-102080720D01*
X119200296Y-102080720D01*
X119196498Y-102060956D01*
X119185000Y-101853354D01*
X119185000Y-101841187D01*
X120311187Y-100715000D01*
X124786327Y-100715000D01*
X124853538Y-100717055D01*
X124901095Y-100722062D01*
X124935882Y-100728954D01*
X124963170Y-100737286D01*
X124989119Y-100748068D01*
X125019255Y-100763421D01*
X125057074Y-100784911D01*
X125102868Y-100811614D01*
X125106540Y-100813712D01*
X125159202Y-100843189D01*
X125167057Y-100847396D01*
X125190053Y-100859169D01*
X125210530Y-100872851D01*
X125317903Y-100917327D01*
X125431890Y-100940000D01*
X125548110Y-100940000D01*
X125662097Y-100917327D01*
X125769470Y-100872851D01*
X125866103Y-100808283D01*
X125948283Y-100726103D01*
X126012851Y-100629470D01*
X126057327Y-100522097D01*
X126080000Y-100408110D01*
X126080000Y-100291890D01*
X126057327Y-100177903D01*
X126012851Y-100070530D01*
X125948283Y-99973897D01*
X125866103Y-99891717D01*
X125769470Y-99827149D01*
X125662097Y-99782673D01*
X125548110Y-99760000D01*
X125431890Y-99760000D01*
X125317903Y-99782673D01*
X125210530Y-99827149D01*
X125190057Y-99840829D01*
X125167059Y-99852602D01*
X125159202Y-99856810D01*
X125106540Y-99886287D01*
X125102868Y-99888385D01*
X125057074Y-99915088D01*
X125019255Y-99936578D01*
X124989119Y-99951931D01*
X124963170Y-99962713D01*
X124935882Y-99971045D01*
X124901095Y-99977937D01*
X124853538Y-99982944D01*
X124786323Y-99985000D01*
X120177928Y-99985000D01*
X120159999Y-99983234D01*
X120142070Y-99985000D01*
X120142069Y-99985000D01*
X120088448Y-99990281D01*
X120019645Y-100011152D01*
X119956236Y-100045045D01*
X119900657Y-100090657D01*
X119889221Y-100104592D01*
X118574588Y-101419225D01*
X118560658Y-101430657D01*
X118549227Y-101444586D01*
X118515046Y-101486236D01*
X118481153Y-101549645D01*
X118460282Y-101618448D01*
X118453234Y-101690000D01*
X118455001Y-101707939D01*
X118455001Y-101853423D01*
X118443426Y-102065272D01*
X118440512Y-102080720D01*
X117843324Y-102080720D01*
X117796276Y-102085354D01*
X117751036Y-102099077D01*
X117709342Y-102121363D01*
X117672797Y-102151354D01*
X117642806Y-102187899D01*
X117620520Y-102229593D01*
X117606797Y-102274833D01*
X117602163Y-102321881D01*
X117602163Y-105080000D01*
X116350000Y-105080000D01*
X116350000Y-102640121D01*
X120430121Y-98560000D01*
X150105762Y-98560000D01*
X150120000Y-98561402D01*
X150134238Y-98560000D01*
X150134245Y-98560000D01*
X150176850Y-98555804D01*
X150231515Y-98539221D01*
X150281895Y-98512293D01*
X150326053Y-98476053D01*
X150335138Y-98464983D01*
X155214988Y-93585134D01*
X155226053Y-93576053D01*
X155262293Y-93531895D01*
X155289221Y-93481515D01*
X155305804Y-93426850D01*
X155310000Y-93384245D01*
X155310000Y-93384236D01*
X155311402Y-93370001D01*
X155310000Y-93355766D01*
X155310000Y-87228742D01*
X161402382Y-87228742D01*
X162150000Y-87976360D01*
X162897618Y-87228742D01*
X162810035Y-87054981D01*
X162605186Y-86945141D01*
X162382843Y-86877376D01*
X162151553Y-86854291D01*
X161920203Y-86876771D01*
X161697684Y-86943953D01*
X161492547Y-87053256D01*
X161489965Y-87054981D01*
X161402382Y-87228742D01*
X155310000Y-87228742D01*
X155310000Y-82922149D01*
X160561490Y-82922149D01*
X160790999Y-83217063D01*
X161196966Y-83444779D01*
X161639556Y-83588919D01*
X162101763Y-83643944D01*
X162565823Y-83607740D01*
X163013903Y-83481698D01*
X163428785Y-83270662D01*
X163509001Y-83217063D01*
X163738510Y-82922149D01*
X162150000Y-81333640D01*
X160561490Y-82922149D01*
X155310000Y-82922149D01*
X155310000Y-81221763D01*
X159776056Y-81221763D01*
X159812260Y-81685823D01*
X159938302Y-82133903D01*
X160149338Y-82548785D01*
X160202937Y-82629001D01*
X160497851Y-82858510D01*
X162086360Y-81270000D01*
X162213640Y-81270000D01*
X163802149Y-82858510D01*
X164097063Y-82629001D01*
X164324779Y-82223034D01*
X164468919Y-81780444D01*
X164523944Y-81318237D01*
X164487740Y-80854177D01*
X164361698Y-80406097D01*
X164150662Y-79991215D01*
X164097063Y-79910999D01*
X163802149Y-79681490D01*
X162213640Y-81270000D01*
X162086360Y-81270000D01*
X160497851Y-79681490D01*
X160202937Y-79910999D01*
X159975221Y-80316966D01*
X159831081Y-80759556D01*
X159776056Y-81221763D01*
X155310000Y-81221763D01*
X155310000Y-79617851D01*
X160561490Y-79617851D01*
X162150000Y-81206360D01*
X163738510Y-79617851D01*
X163509001Y-79322937D01*
X163103034Y-79095221D01*
X162660444Y-78951081D01*
X162198237Y-78896056D01*
X161734177Y-78932260D01*
X161286097Y-79058302D01*
X160871215Y-79269338D01*
X160790999Y-79322937D01*
X160561490Y-79617851D01*
X155310000Y-79617851D01*
X155310000Y-78640000D01*
X166890001Y-78640000D01*
X166890000Y-108830000D01*
G04 #@! TA.AperFunction,Conductor*
D17*
G36*
X166890000Y-108830000D02*
G01*
X156560000Y-108830000D01*
X156560000Y-107912149D01*
X160561490Y-107912149D01*
X160790999Y-108207063D01*
X161196966Y-108434779D01*
X161639556Y-108578919D01*
X162101763Y-108633944D01*
X162565823Y-108597740D01*
X163013903Y-108471698D01*
X163428785Y-108260662D01*
X163509001Y-108207063D01*
X163738510Y-107912149D01*
X162150000Y-106323640D01*
X160561490Y-107912149D01*
X156560000Y-107912149D01*
X156560000Y-106211763D01*
X159776056Y-106211763D01*
X159812260Y-106675823D01*
X159938302Y-107123903D01*
X160149338Y-107538785D01*
X160202937Y-107619001D01*
X160497851Y-107848510D01*
X162086360Y-106260000D01*
X162213640Y-106260000D01*
X163802149Y-107848510D01*
X164097063Y-107619001D01*
X164324779Y-107213034D01*
X164468919Y-106770444D01*
X164523944Y-106308237D01*
X164487740Y-105844177D01*
X164361698Y-105396097D01*
X164150662Y-104981215D01*
X164097063Y-104900999D01*
X163802149Y-104671490D01*
X162213640Y-106260000D01*
X162086360Y-106260000D01*
X160497851Y-104671490D01*
X160202937Y-104900999D01*
X159975221Y-105306966D01*
X159831081Y-105749556D01*
X159776056Y-106211763D01*
X156560000Y-106211763D01*
X156560000Y-105384244D01*
X156561403Y-105370000D01*
X156555804Y-105313150D01*
X156539221Y-105258485D01*
X156512293Y-105208105D01*
X156476053Y-105163947D01*
X156431895Y-105127707D01*
X156381515Y-105100779D01*
X156326850Y-105084196D01*
X156284245Y-105080000D01*
X156270000Y-105078597D01*
X156255755Y-105080000D01*
X154284485Y-105080000D01*
X154284485Y-104607851D01*
X160561490Y-104607851D01*
X162150000Y-106196360D01*
X163738510Y-104607851D01*
X163509001Y-104312937D01*
X163103034Y-104085221D01*
X162660444Y-103941081D01*
X162198237Y-103886056D01*
X161734177Y-103922260D01*
X161286097Y-104048302D01*
X160871215Y-104259338D01*
X160790999Y-104312937D01*
X160561490Y-104607851D01*
X154284485Y-104607851D01*
X154284485Y-104434281D01*
X154303761Y-104417698D01*
X154400404Y-104345956D01*
X154500577Y-104289738D01*
X154618522Y-104246376D01*
X154770554Y-104216659D01*
X154976773Y-104205000D01*
X155126181Y-104205000D01*
X155191638Y-104207075D01*
X155237401Y-104212061D01*
X155270576Y-104218852D01*
X155296532Y-104227025D01*
X155321511Y-104237698D01*
X155350954Y-104253073D01*
X155388420Y-104274803D01*
X155433439Y-104301462D01*
X155437640Y-104303893D01*
X155489362Y-104333125D01*
X155497792Y-104337670D01*
X155519637Y-104348891D01*
X155540530Y-104362851D01*
X155647903Y-104407327D01*
X155761890Y-104430000D01*
X155878110Y-104430000D01*
X155992097Y-104407327D01*
X156099470Y-104362851D01*
X156196103Y-104298283D01*
X156278283Y-104216103D01*
X156342851Y-104119470D01*
X156387327Y-104012097D01*
X156410000Y-103898110D01*
X156410000Y-103781890D01*
X156387327Y-103667903D01*
X156342851Y-103560530D01*
X156278283Y-103463897D01*
X156196103Y-103381717D01*
X156099470Y-103317149D01*
X155992097Y-103272673D01*
X155878110Y-103250000D01*
X155761890Y-103250000D01*
X155647903Y-103272673D01*
X155540530Y-103317149D01*
X155519637Y-103331109D01*
X155497795Y-103342328D01*
X155489362Y-103346874D01*
X155437640Y-103376106D01*
X155433439Y-103378537D01*
X155388420Y-103405196D01*
X155350954Y-103426926D01*
X155321511Y-103442301D01*
X155296532Y-103452974D01*
X155270576Y-103461147D01*
X155237401Y-103467938D01*
X155191625Y-103472926D01*
X155126209Y-103475000D01*
X154976846Y-103475000D01*
X154774049Y-103463423D01*
X154625416Y-103433975D01*
X154510932Y-103391083D01*
X154414211Y-103335381D01*
X154321026Y-103263787D01*
X154284485Y-103230936D01*
X154284485Y-102321881D01*
X154279851Y-102274833D01*
X154266128Y-102229593D01*
X154243842Y-102187899D01*
X154213851Y-102151354D01*
X154177306Y-102121363D01*
X154135612Y-102099077D01*
X154090372Y-102085354D01*
X154043324Y-102080720D01*
X152043324Y-102080720D01*
X151996276Y-102085354D01*
X151951036Y-102099077D01*
X151909342Y-102121363D01*
X151872797Y-102151354D01*
X151842806Y-102187899D01*
X151820520Y-102229593D01*
X151806797Y-102274833D01*
X151802163Y-102321881D01*
X151802163Y-105080000D01*
X150484485Y-105080000D01*
X150484485Y-102446266D01*
X150517988Y-102408200D01*
X151211188Y-101715000D01*
X154832071Y-101715000D01*
X154850000Y-101716766D01*
X154867929Y-101715000D01*
X154867931Y-101715000D01*
X154921552Y-101709719D01*
X154990355Y-101688848D01*
X155053764Y-101654955D01*
X155109343Y-101609343D01*
X155120779Y-101595408D01*
X156494297Y-100221890D01*
X159200000Y-100221890D01*
X159200000Y-100338110D01*
X159222673Y-100452097D01*
X159267149Y-100559470D01*
X159331717Y-100656103D01*
X159413897Y-100738283D01*
X159510530Y-100802851D01*
X159617903Y-100847327D01*
X159731890Y-100870000D01*
X159848110Y-100870000D01*
X159962097Y-100847327D01*
X160069470Y-100802851D01*
X160090368Y-100788887D01*
X160112208Y-100777669D01*
X160120637Y-100773125D01*
X160172359Y-100743893D01*
X160176560Y-100741462D01*
X160221579Y-100714803D01*
X160259045Y-100693073D01*
X160288488Y-100677698D01*
X160313467Y-100667025D01*
X160339423Y-100658852D01*
X160372598Y-100652061D01*
X160418361Y-100647075D01*
X160483819Y-100645000D01*
X165002071Y-100645000D01*
X165020000Y-100646766D01*
X165037929Y-100645000D01*
X165037931Y-100645000D01*
X165091552Y-100639719D01*
X165160355Y-100618848D01*
X165223764Y-100584955D01*
X165279343Y-100539343D01*
X165290779Y-100525408D01*
X166335413Y-99480775D01*
X166349343Y-99469343D01*
X166394955Y-99413764D01*
X166410731Y-99384249D01*
X166428848Y-99350356D01*
X166445653Y-99294955D01*
X166449719Y-99281552D01*
X166455000Y-99227931D01*
X166455000Y-99227929D01*
X166456766Y-99210000D01*
X166455000Y-99192071D01*
X166455000Y-94427929D01*
X166456766Y-94410000D01*
X166452750Y-94369228D01*
X166449719Y-94338448D01*
X166428848Y-94269645D01*
X166394955Y-94206236D01*
X166385399Y-94194592D01*
X166360773Y-94164585D01*
X166360770Y-94164582D01*
X166349342Y-94150657D01*
X166335418Y-94139230D01*
X165700779Y-93504592D01*
X165689343Y-93490657D01*
X165633764Y-93445045D01*
X165570355Y-93411152D01*
X165501552Y-93390281D01*
X165476517Y-93387815D01*
X165465899Y-93381364D01*
X165457277Y-93376368D01*
X165361548Y-93323514D01*
X165360280Y-93322818D01*
X165269636Y-93273482D01*
X165184033Y-93223210D01*
X165098155Y-93165230D01*
X165005502Y-93091587D01*
X164897725Y-92991233D01*
X164824834Y-92918342D01*
X164646309Y-92799055D01*
X164447941Y-92716888D01*
X164237356Y-92675000D01*
X164022644Y-92675000D01*
X163812059Y-92716888D01*
X163613691Y-92799055D01*
X163435166Y-92918342D01*
X163283342Y-93070166D01*
X163164055Y-93248691D01*
X163081888Y-93447059D01*
X163040000Y-93657644D01*
X163040000Y-93872356D01*
X163081888Y-94082941D01*
X163164055Y-94281309D01*
X163283342Y-94459834D01*
X163435166Y-94611658D01*
X163613691Y-94730945D01*
X163812059Y-94813112D01*
X164022644Y-94855000D01*
X164237356Y-94855000D01*
X164447941Y-94813112D01*
X164646309Y-94730945D01*
X164751616Y-94660581D01*
X164770320Y-94649351D01*
X164792489Y-94634296D01*
X164803189Y-94626121D01*
X164824834Y-94611658D01*
X164833627Y-94602865D01*
X164913653Y-94541722D01*
X164925294Y-94532237D01*
X165037347Y-94434945D01*
X165039566Y-94432994D01*
X165141008Y-94342701D01*
X165226965Y-94272915D01*
X165291587Y-94232351D01*
X165328065Y-94219690D01*
X165346225Y-94219805D01*
X165381899Y-94234104D01*
X165463909Y-94300097D01*
X165725000Y-94561188D01*
X165725001Y-99058811D01*
X164868813Y-99915000D01*
X160483791Y-99915000D01*
X160418374Y-99912926D01*
X160372598Y-99907938D01*
X160339423Y-99901147D01*
X160313467Y-99892974D01*
X160288488Y-99882301D01*
X160259045Y-99866926D01*
X160221579Y-99845196D01*
X160176560Y-99818537D01*
X160172359Y-99816106D01*
X160120637Y-99786874D01*
X160112205Y-99782328D01*
X160090361Y-99771108D01*
X160069470Y-99757149D01*
X159962097Y-99712673D01*
X159848110Y-99690000D01*
X159731890Y-99690000D01*
X159617903Y-99712673D01*
X159510530Y-99757149D01*
X159413897Y-99821717D01*
X159331717Y-99903897D01*
X159267149Y-100000530D01*
X159222673Y-100107903D01*
X159200000Y-100221890D01*
X156494297Y-100221890D01*
X157559929Y-99156258D01*
X159422382Y-99156258D01*
X159509965Y-99330019D01*
X159714814Y-99439859D01*
X159937157Y-99507624D01*
X160168447Y-99530709D01*
X160399797Y-99508229D01*
X160622316Y-99441047D01*
X160827453Y-99331744D01*
X160830035Y-99330019D01*
X160917618Y-99156258D01*
X160170000Y-98408640D01*
X159422382Y-99156258D01*
X157559929Y-99156258D01*
X158335418Y-98380770D01*
X158349342Y-98369343D01*
X158368046Y-98346553D01*
X158370594Y-98343447D01*
X158984291Y-98343447D01*
X159006771Y-98574797D01*
X159073953Y-98797316D01*
X159183256Y-99002453D01*
X159184981Y-99005035D01*
X159358742Y-99092618D01*
X160106360Y-98345000D01*
X160233640Y-98345000D01*
X160981258Y-99092618D01*
X161155019Y-99005035D01*
X161264859Y-98800186D01*
X161332624Y-98577843D01*
X161355709Y-98346553D01*
X161333229Y-98115203D01*
X161301847Y-98011258D01*
X161402382Y-98011258D01*
X161489965Y-98185019D01*
X161694814Y-98294859D01*
X161917157Y-98362624D01*
X162148447Y-98385709D01*
X162379797Y-98363229D01*
X162602316Y-98296047D01*
X162711925Y-98237644D01*
X163040000Y-98237644D01*
X163040000Y-98452356D01*
X163081888Y-98662941D01*
X163164055Y-98861309D01*
X163283342Y-99039834D01*
X163435166Y-99191658D01*
X163613691Y-99310945D01*
X163812059Y-99393112D01*
X164022644Y-99435000D01*
X164237356Y-99435000D01*
X164447941Y-99393112D01*
X164646309Y-99310945D01*
X164824834Y-99191658D01*
X164976658Y-99039834D01*
X165095945Y-98861309D01*
X165178112Y-98662941D01*
X165220000Y-98452356D01*
X165220000Y-98237644D01*
X165178112Y-98027059D01*
X165095945Y-97828691D01*
X164976658Y-97650166D01*
X164824834Y-97498342D01*
X164646309Y-97379055D01*
X164447941Y-97296888D01*
X164237356Y-97255000D01*
X164022644Y-97255000D01*
X163812059Y-97296888D01*
X163613691Y-97379055D01*
X163435166Y-97498342D01*
X163283342Y-97650166D01*
X163164055Y-97828691D01*
X163081888Y-98027059D01*
X163040000Y-98237644D01*
X162711925Y-98237644D01*
X162807453Y-98186744D01*
X162810035Y-98185019D01*
X162897618Y-98011258D01*
X162150000Y-97263640D01*
X161402382Y-98011258D01*
X161301847Y-98011258D01*
X161272561Y-97914260D01*
X161338742Y-97947618D01*
X162086360Y-97200000D01*
X162213640Y-97200000D01*
X162961258Y-97947618D01*
X163135019Y-97860035D01*
X163244859Y-97655186D01*
X163312624Y-97432843D01*
X163335709Y-97201553D01*
X163313229Y-96970203D01*
X163246047Y-96747684D01*
X163136744Y-96542547D01*
X163135019Y-96539965D01*
X162961258Y-96452382D01*
X162213640Y-97200000D01*
X162086360Y-97200000D01*
X161338742Y-96452382D01*
X161164981Y-96539965D01*
X161055141Y-96744814D01*
X160987376Y-96967157D01*
X160964291Y-97198447D01*
X160986771Y-97429797D01*
X161047439Y-97630740D01*
X160981258Y-97597382D01*
X160233640Y-98345000D01*
X160106360Y-98345000D01*
X159358742Y-97597382D01*
X159184981Y-97684965D01*
X159075141Y-97889814D01*
X159007376Y-98112157D01*
X158984291Y-98343447D01*
X158370594Y-98343447D01*
X158394954Y-98313765D01*
X158394955Y-98313764D01*
X158428848Y-98250355D01*
X158449719Y-98181552D01*
X158455000Y-98127931D01*
X158455000Y-98127929D01*
X158456766Y-98110000D01*
X158455000Y-98092071D01*
X158455000Y-97533742D01*
X159422382Y-97533742D01*
X160170000Y-98281360D01*
X160917618Y-97533742D01*
X160830035Y-97359981D01*
X160625186Y-97250141D01*
X160402843Y-97182376D01*
X160171553Y-97159291D01*
X159940203Y-97181771D01*
X159717684Y-97248953D01*
X159512547Y-97358256D01*
X159509965Y-97359981D01*
X159422382Y-97533742D01*
X158455000Y-97533742D01*
X158455000Y-96653819D01*
X158457075Y-96588361D01*
X158462061Y-96542598D01*
X158468852Y-96509423D01*
X158477025Y-96483467D01*
X158487698Y-96458488D01*
X158503073Y-96429045D01*
X158524803Y-96391579D01*
X158551462Y-96346560D01*
X158553893Y-96342359D01*
X158583125Y-96290637D01*
X158587669Y-96282208D01*
X158598887Y-96260368D01*
X158612851Y-96239470D01*
X158657327Y-96132097D01*
X158680000Y-96018110D01*
X158680000Y-95947644D01*
X159080000Y-95947644D01*
X159080000Y-96162356D01*
X159121888Y-96372941D01*
X159204055Y-96571309D01*
X159323342Y-96749834D01*
X159475166Y-96901658D01*
X159653691Y-97020945D01*
X159852059Y-97103112D01*
X160062644Y-97145000D01*
X160277356Y-97145000D01*
X160487941Y-97103112D01*
X160686309Y-97020945D01*
X160864834Y-96901658D01*
X161016658Y-96749834D01*
X161135945Y-96571309D01*
X161211566Y-96388742D01*
X161402382Y-96388742D01*
X162150000Y-97136360D01*
X162897618Y-96388742D01*
X162810035Y-96214981D01*
X162605186Y-96105141D01*
X162382843Y-96037376D01*
X162151553Y-96014291D01*
X161920203Y-96036771D01*
X161697684Y-96103953D01*
X161492547Y-96213256D01*
X161489965Y-96214981D01*
X161402382Y-96388742D01*
X161211566Y-96388742D01*
X161218112Y-96372941D01*
X161260000Y-96162356D01*
X161260000Y-95947644D01*
X161218112Y-95737059D01*
X161135945Y-95538691D01*
X161016658Y-95360166D01*
X160864834Y-95208342D01*
X160686309Y-95089055D01*
X160487941Y-95006888D01*
X160277356Y-94965000D01*
X160062644Y-94965000D01*
X159852059Y-95006888D01*
X159653691Y-95089055D01*
X159475166Y-95208342D01*
X159323342Y-95360166D01*
X159204055Y-95538691D01*
X159121888Y-95737059D01*
X159080000Y-95947644D01*
X158680000Y-95947644D01*
X158680000Y-95901890D01*
X158657327Y-95787903D01*
X158612851Y-95680530D01*
X158548283Y-95583897D01*
X158466103Y-95501717D01*
X158369470Y-95437149D01*
X158262097Y-95392673D01*
X158148110Y-95370000D01*
X158031890Y-95370000D01*
X157917903Y-95392673D01*
X157810530Y-95437149D01*
X157713897Y-95501717D01*
X157631717Y-95583897D01*
X157567149Y-95680530D01*
X157522673Y-95787903D01*
X157500000Y-95901890D01*
X157500000Y-96018110D01*
X157522673Y-96132097D01*
X157567149Y-96239470D01*
X157581108Y-96260361D01*
X157592328Y-96282205D01*
X157596874Y-96290637D01*
X157626106Y-96342359D01*
X157628537Y-96346560D01*
X157655196Y-96391579D01*
X157676926Y-96429045D01*
X157692301Y-96458488D01*
X157702974Y-96483467D01*
X157711147Y-96509423D01*
X157717938Y-96542598D01*
X157722926Y-96588374D01*
X157725001Y-96653812D01*
X157725000Y-97958812D01*
X154698813Y-100985000D01*
X151077929Y-100985000D01*
X151060000Y-100983234D01*
X151042071Y-100985000D01*
X151042069Y-100985000D01*
X150988448Y-100990281D01*
X150919645Y-101011152D01*
X150856236Y-101045045D01*
X150800657Y-101090657D01*
X150789226Y-101104586D01*
X150000084Y-101893729D01*
X149816794Y-102061751D01*
X149791577Y-102080720D01*
X148243324Y-102080720D01*
X148196276Y-102085354D01*
X148151036Y-102099077D01*
X148109342Y-102121363D01*
X148072797Y-102151354D01*
X148042806Y-102187899D01*
X148020520Y-102229593D01*
X148006797Y-102274833D01*
X148002163Y-102321881D01*
X148002163Y-105080000D01*
X146774640Y-105080000D01*
X146773324Y-103949381D01*
X146690824Y-103866881D01*
X145488324Y-103866881D01*
X145488324Y-103886881D01*
X145398324Y-103886881D01*
X145398324Y-103866881D01*
X144195824Y-103866881D01*
X144113324Y-103949381D01*
X144112008Y-105080000D01*
X142884485Y-105080000D01*
X142884485Y-102321881D01*
X144111727Y-102321881D01*
X144113324Y-103694381D01*
X144195824Y-103776881D01*
X145398324Y-103776881D01*
X145398324Y-102074381D01*
X145488324Y-102074381D01*
X145488324Y-103776881D01*
X146690824Y-103776881D01*
X146773324Y-103694381D01*
X146774921Y-102321881D01*
X146768549Y-102257190D01*
X146749680Y-102194984D01*
X146719037Y-102137656D01*
X146677798Y-102087407D01*
X146627549Y-102046168D01*
X146570221Y-102015525D01*
X146508015Y-101996656D01*
X146443324Y-101990284D01*
X145570824Y-101991881D01*
X145488324Y-102074381D01*
X145398324Y-102074381D01*
X145315824Y-101991881D01*
X144443324Y-101990284D01*
X144378633Y-101996656D01*
X144316427Y-102015525D01*
X144259099Y-102046168D01*
X144208850Y-102087407D01*
X144167611Y-102137656D01*
X144136968Y-102194984D01*
X144118099Y-102257190D01*
X144111727Y-102321881D01*
X142884485Y-102321881D01*
X142879851Y-102274833D01*
X142866128Y-102229593D01*
X142843842Y-102187899D01*
X142813851Y-102151354D01*
X142777306Y-102121363D01*
X142735612Y-102099077D01*
X142690372Y-102085354D01*
X142643324Y-102080720D01*
X142086381Y-102080720D01*
X142075000Y-101873418D01*
X142075000Y-101811187D01*
X142951188Y-100935000D01*
X151342071Y-100935000D01*
X151360000Y-100936766D01*
X151377929Y-100935000D01*
X151377931Y-100935000D01*
X151431552Y-100929719D01*
X151500355Y-100908848D01*
X151563764Y-100874955D01*
X151619343Y-100829343D01*
X151630779Y-100815408D01*
X152344297Y-100101890D01*
X153469998Y-100101890D01*
X153469998Y-100218110D01*
X153492671Y-100332097D01*
X153537147Y-100439470D01*
X153601715Y-100536103D01*
X153683895Y-100618283D01*
X153780528Y-100682851D01*
X153887901Y-100727327D01*
X154001888Y-100750000D01*
X154118108Y-100750000D01*
X154232095Y-100727327D01*
X154339468Y-100682851D01*
X154436101Y-100618283D01*
X154518281Y-100536103D01*
X154582849Y-100439470D01*
X154627325Y-100332097D01*
X154649998Y-100218110D01*
X154649998Y-100101890D01*
X154648316Y-100093436D01*
X154648194Y-100089114D01*
X154648085Y-100085990D01*
X154645961Y-100034652D01*
X154644898Y-99993987D01*
X154645595Y-99965720D01*
X154647594Y-99948384D01*
X154650181Y-99937799D01*
X154654345Y-99927485D01*
X154663625Y-99911479D01*
X154682542Y-99886510D01*
X154717413Y-99848775D01*
X156775413Y-97790775D01*
X156789343Y-97779343D01*
X156818977Y-97743234D01*
X156834954Y-97723766D01*
X156854313Y-97687547D01*
X156868848Y-97660355D01*
X156889719Y-97591552D01*
X156895000Y-97537931D01*
X156895000Y-97537930D01*
X156896766Y-97520001D01*
X156895000Y-97502072D01*
X156895000Y-97495250D01*
X156903237Y-97460969D01*
X156911465Y-97433272D01*
X156919053Y-97415399D01*
X156929027Y-97399229D01*
X156953415Y-97370971D01*
X156988283Y-97336103D01*
X157052851Y-97239470D01*
X157097327Y-97132097D01*
X157120000Y-97018110D01*
X157120000Y-96901890D01*
X157097327Y-96787903D01*
X157052851Y-96680530D01*
X156988283Y-96583897D01*
X156906103Y-96501717D01*
X156809470Y-96437149D01*
X156702097Y-96392673D01*
X156588110Y-96370000D01*
X156471890Y-96370000D01*
X156357903Y-96392673D01*
X156250530Y-96437149D01*
X156153897Y-96501717D01*
X156071717Y-96583897D01*
X156007149Y-96680530D01*
X155962673Y-96787903D01*
X155940000Y-96901890D01*
X155940000Y-97018110D01*
X155962673Y-97132097D01*
X156007149Y-97239470D01*
X156034291Y-97280091D01*
X156046786Y-97299655D01*
X156056165Y-97312827D01*
X156071717Y-97336103D01*
X156075259Y-97339645D01*
X156078490Y-97344183D01*
X156085970Y-97354132D01*
X156119220Y-97396049D01*
X156119571Y-97396491D01*
X156127444Y-97406368D01*
X154199904Y-99333909D01*
X154141477Y-99389636D01*
X154093753Y-99430502D01*
X154052284Y-99461997D01*
X154013713Y-99487980D01*
X153974083Y-99512176D01*
X153930430Y-99537510D01*
X153929360Y-99538134D01*
X153882240Y-99565806D01*
X153876140Y-99569512D01*
X153826217Y-99600863D01*
X153817059Y-99606910D01*
X153762677Y-99644634D01*
X153752649Y-99651982D01*
X153716566Y-99679887D01*
X153683895Y-99701717D01*
X153601715Y-99783897D01*
X153537147Y-99880530D01*
X153492671Y-99987903D01*
X153469998Y-100101890D01*
X152344297Y-100101890D01*
X157441188Y-95005000D01*
X159352071Y-95005000D01*
X159370000Y-95006766D01*
X159387929Y-95005000D01*
X159387931Y-95005000D01*
X159441552Y-94999719D01*
X159510355Y-94978848D01*
X159573764Y-94944955D01*
X159601406Y-94922270D01*
X159691172Y-94903116D01*
X159791192Y-94884287D01*
X159898327Y-94869208D01*
X160021736Y-94858941D01*
X160173133Y-94855000D01*
X160277356Y-94855000D01*
X160487941Y-94813112D01*
X160513212Y-94802644D01*
X161060000Y-94802644D01*
X161060000Y-95017356D01*
X161101888Y-95227941D01*
X161184055Y-95426309D01*
X161303342Y-95604834D01*
X161455166Y-95756658D01*
X161633691Y-95875945D01*
X161832059Y-95958112D01*
X162042644Y-96000000D01*
X162257356Y-96000000D01*
X162467941Y-95958112D01*
X162493212Y-95947644D01*
X163040000Y-95947644D01*
X163040000Y-96162356D01*
X163081888Y-96372941D01*
X163164055Y-96571309D01*
X163283342Y-96749834D01*
X163435166Y-96901658D01*
X163613691Y-97020945D01*
X163812059Y-97103112D01*
X164022644Y-97145000D01*
X164237356Y-97145000D01*
X164447941Y-97103112D01*
X164646309Y-97020945D01*
X164824834Y-96901658D01*
X164976658Y-96749834D01*
X165095945Y-96571309D01*
X165178112Y-96372941D01*
X165220000Y-96162356D01*
X165220000Y-95947644D01*
X165178112Y-95737059D01*
X165095945Y-95538691D01*
X164976658Y-95360166D01*
X164824834Y-95208342D01*
X164646309Y-95089055D01*
X164447941Y-95006888D01*
X164237356Y-94965000D01*
X164022644Y-94965000D01*
X163812059Y-95006888D01*
X163613691Y-95089055D01*
X163435166Y-95208342D01*
X163283342Y-95360166D01*
X163164055Y-95538691D01*
X163081888Y-95737059D01*
X163040000Y-95947644D01*
X162493212Y-95947644D01*
X162666309Y-95875945D01*
X162844834Y-95756658D01*
X162996658Y-95604834D01*
X163115945Y-95426309D01*
X163198112Y-95227941D01*
X163240000Y-95017356D01*
X163240000Y-94802644D01*
X163198112Y-94592059D01*
X163115945Y-94393691D01*
X162996658Y-94215166D01*
X162844834Y-94063342D01*
X162666309Y-93944055D01*
X162467941Y-93861888D01*
X162257356Y-93820000D01*
X162042644Y-93820000D01*
X161832059Y-93861888D01*
X161633691Y-93944055D01*
X161455166Y-94063342D01*
X161303342Y-94215166D01*
X161184055Y-94393691D01*
X161101888Y-94592059D01*
X161060000Y-94802644D01*
X160513212Y-94802644D01*
X160686309Y-94730945D01*
X160864834Y-94611658D01*
X161016658Y-94459834D01*
X161135945Y-94281309D01*
X161218112Y-94082941D01*
X161260000Y-93872356D01*
X161260000Y-93657644D01*
X161218112Y-93447059D01*
X161211567Y-93431258D01*
X161402382Y-93431258D01*
X161489965Y-93605019D01*
X161694814Y-93714859D01*
X161917157Y-93782624D01*
X162148447Y-93805709D01*
X162379797Y-93783229D01*
X162602316Y-93716047D01*
X162807453Y-93606744D01*
X162810035Y-93605019D01*
X162897618Y-93431258D01*
X162150000Y-92683640D01*
X161402382Y-93431258D01*
X161211567Y-93431258D01*
X161135945Y-93248691D01*
X161016658Y-93070166D01*
X160864834Y-92918342D01*
X160686309Y-92799055D01*
X160487941Y-92716888D01*
X160277356Y-92675000D01*
X160062644Y-92675000D01*
X159852059Y-92716888D01*
X159653691Y-92799055D01*
X159475166Y-92918342D01*
X159323342Y-93070166D01*
X159204055Y-93248691D01*
X159121888Y-93447059D01*
X159089124Y-93611776D01*
X159086011Y-93625990D01*
X159083917Y-93637950D01*
X159080000Y-93657644D01*
X159080000Y-93665044D01*
X159064035Y-93786227D01*
X159062956Y-93795940D01*
X159050692Y-93931444D01*
X159039038Y-94052348D01*
X159023974Y-94147290D01*
X159005345Y-94209253D01*
X158988873Y-94237784D01*
X158974658Y-94250293D01*
X158937863Y-94264855D01*
X158839082Y-94275000D01*
X157307928Y-94275000D01*
X157289999Y-94273234D01*
X157272070Y-94275000D01*
X157272069Y-94275000D01*
X157218448Y-94280281D01*
X157149645Y-94301152D01*
X157149643Y-94301153D01*
X157086234Y-94335046D01*
X157082089Y-94338448D01*
X157030657Y-94380657D01*
X157019226Y-94394586D01*
X151208813Y-100205000D01*
X142817929Y-100205000D01*
X142800000Y-100203234D01*
X142782071Y-100205000D01*
X142782069Y-100205000D01*
X142728448Y-100210281D01*
X142659645Y-100231152D01*
X142596236Y-100265045D01*
X142540657Y-100310657D01*
X142529226Y-100324586D01*
X141464588Y-101389225D01*
X141450657Y-101400658D01*
X141405045Y-101456237D01*
X141371152Y-101519646D01*
X141350281Y-101588449D01*
X141345204Y-101640000D01*
X141343234Y-101660000D01*
X141345000Y-101677929D01*
X141345000Y-101873168D01*
X141333558Y-102073937D01*
X141332210Y-102080720D01*
X140643324Y-102080720D01*
X140596276Y-102085354D01*
X140551036Y-102099077D01*
X140509342Y-102121363D01*
X140472797Y-102151354D01*
X140442806Y-102187899D01*
X140420520Y-102229593D01*
X140406797Y-102274833D01*
X140402163Y-102321881D01*
X140402163Y-105080000D01*
X139174640Y-105080000D01*
X139173324Y-103949381D01*
X139090824Y-103866881D01*
X137888324Y-103866881D01*
X137888324Y-103886881D01*
X137798324Y-103886881D01*
X137798324Y-103866881D01*
X136595824Y-103866881D01*
X136513324Y-103949381D01*
X136512008Y-105080000D01*
X135284485Y-105080000D01*
X135284485Y-102321881D01*
X136511727Y-102321881D01*
X136513324Y-103694381D01*
X136595824Y-103776881D01*
X137798324Y-103776881D01*
X137798324Y-102074381D01*
X137888324Y-102074381D01*
X137888324Y-103776881D01*
X139090824Y-103776881D01*
X139173324Y-103694381D01*
X139174921Y-102321881D01*
X139168549Y-102257190D01*
X139149680Y-102194984D01*
X139119037Y-102137656D01*
X139077798Y-102087407D01*
X139027549Y-102046168D01*
X138970221Y-102015525D01*
X138908015Y-101996656D01*
X138843324Y-101990284D01*
X137970824Y-101991881D01*
X137888324Y-102074381D01*
X137798324Y-102074381D01*
X137715824Y-101991881D01*
X136843324Y-101990284D01*
X136778633Y-101996656D01*
X136716427Y-102015525D01*
X136659099Y-102046168D01*
X136608850Y-102087407D01*
X136567611Y-102137656D01*
X136536968Y-102194984D01*
X136518099Y-102257190D01*
X136511727Y-102321881D01*
X135284485Y-102321881D01*
X135279851Y-102274833D01*
X135266128Y-102229593D01*
X135243842Y-102187899D01*
X135213851Y-102151354D01*
X135177306Y-102121363D01*
X135135612Y-102099077D01*
X135090372Y-102085354D01*
X135043324Y-102080720D01*
X134504963Y-102080720D01*
X134495000Y-101903262D01*
X134495000Y-100881187D01*
X135211188Y-100165000D01*
X150892071Y-100165000D01*
X150910000Y-100166766D01*
X150927929Y-100165000D01*
X150927931Y-100165000D01*
X150981552Y-100159719D01*
X151050355Y-100138848D01*
X151113764Y-100104955D01*
X151169343Y-100059343D01*
X151180779Y-100045408D01*
X157145413Y-94080775D01*
X157159343Y-94069343D01*
X157199203Y-94020773D01*
X157204954Y-94013766D01*
X157226335Y-93973765D01*
X157238848Y-93950355D01*
X157259719Y-93881552D01*
X157265000Y-93827931D01*
X157265000Y-93827930D01*
X157266766Y-93810001D01*
X157265000Y-93792072D01*
X157265000Y-92741187D01*
X157387740Y-92618447D01*
X160964291Y-92618447D01*
X160986771Y-92849797D01*
X161053953Y-93072316D01*
X161163256Y-93277453D01*
X161164981Y-93280035D01*
X161338742Y-93367618D01*
X162086360Y-92620000D01*
X162213640Y-92620000D01*
X162961258Y-93367618D01*
X163135019Y-93280035D01*
X163244859Y-93075186D01*
X163312624Y-92852843D01*
X163335709Y-92621553D01*
X163313229Y-92390203D01*
X163246047Y-92167684D01*
X163136744Y-91962547D01*
X163135019Y-91959965D01*
X162961258Y-91872382D01*
X162213640Y-92620000D01*
X162086360Y-92620000D01*
X161338742Y-91872382D01*
X161164981Y-91959965D01*
X161055141Y-92164814D01*
X160987376Y-92387157D01*
X160964291Y-92618447D01*
X157387740Y-92618447D01*
X157761188Y-92245000D01*
X158560201Y-92245000D01*
X158769016Y-92253342D01*
X158934928Y-92274860D01*
X159073805Y-92306119D01*
X159197987Y-92344889D01*
X159319342Y-92389772D01*
X159443721Y-92436831D01*
X159452864Y-92440080D01*
X159583632Y-92483600D01*
X159601767Y-92488853D01*
X159746600Y-92524693D01*
X159769740Y-92529226D01*
X159937110Y-92553546D01*
X159960792Y-92555796D01*
X160032700Y-92559044D01*
X160062644Y-92565000D01*
X160277356Y-92565000D01*
X160487941Y-92523112D01*
X160686309Y-92440945D01*
X160864834Y-92321658D01*
X161016658Y-92169834D01*
X161135945Y-91991309D01*
X161218112Y-91792941D01*
X161260000Y-91582356D01*
X161260000Y-91367644D01*
X161218112Y-91157059D01*
X161211567Y-91141258D01*
X161402382Y-91141258D01*
X161489965Y-91315019D01*
X161694814Y-91424859D01*
X161859577Y-91475075D01*
X161697684Y-91523953D01*
X161492547Y-91633256D01*
X161489965Y-91634981D01*
X161402382Y-91808742D01*
X162150000Y-92556360D01*
X162897618Y-91808742D01*
X162810035Y-91634981D01*
X162605186Y-91525141D01*
X162440423Y-91474925D01*
X162602316Y-91426047D01*
X162711925Y-91367644D01*
X163040000Y-91367644D01*
X163040000Y-91582356D01*
X163081888Y-91792941D01*
X163164055Y-91991309D01*
X163283342Y-92169834D01*
X163435166Y-92321658D01*
X163613691Y-92440945D01*
X163812059Y-92523112D01*
X164022644Y-92565000D01*
X164237356Y-92565000D01*
X164447941Y-92523112D01*
X164646309Y-92440945D01*
X164824834Y-92321658D01*
X164976658Y-92169834D01*
X165095945Y-91991309D01*
X165178112Y-91792941D01*
X165220000Y-91582356D01*
X165220000Y-91367644D01*
X165178112Y-91157059D01*
X165095945Y-90958691D01*
X164976658Y-90780166D01*
X164824834Y-90628342D01*
X164646309Y-90509055D01*
X164447941Y-90426888D01*
X164237356Y-90385000D01*
X164022644Y-90385000D01*
X163812059Y-90426888D01*
X163613691Y-90509055D01*
X163435166Y-90628342D01*
X163283342Y-90780166D01*
X163164055Y-90958691D01*
X163081888Y-91157059D01*
X163040000Y-91367644D01*
X162711925Y-91367644D01*
X162807453Y-91316744D01*
X162810035Y-91315019D01*
X162897618Y-91141258D01*
X162150000Y-90393640D01*
X161402382Y-91141258D01*
X161211567Y-91141258D01*
X161135945Y-90958691D01*
X161016658Y-90780166D01*
X160864834Y-90628342D01*
X160686309Y-90509055D01*
X160487941Y-90426888D01*
X160277356Y-90385000D01*
X160062644Y-90385000D01*
X159852059Y-90426888D01*
X159653691Y-90509055D01*
X159475166Y-90628342D01*
X159323342Y-90780166D01*
X159204055Y-90958691D01*
X159204045Y-90958716D01*
X159197736Y-90968068D01*
X159191081Y-90978504D01*
X159118950Y-91098323D01*
X159116717Y-91102110D01*
X159053683Y-91211295D01*
X158997733Y-91302913D01*
X158947161Y-91372908D01*
X158899703Y-91422666D01*
X158850082Y-91458237D01*
X158786587Y-91486029D01*
X158694728Y-91506433D01*
X158557522Y-91515000D01*
X157627929Y-91515000D01*
X157610000Y-91513234D01*
X157592071Y-91515000D01*
X157592069Y-91515000D01*
X157538448Y-91520281D01*
X157469645Y-91541152D01*
X157406236Y-91575045D01*
X157350657Y-91620657D01*
X157339226Y-91634586D01*
X156654588Y-92319225D01*
X156640657Y-92330658D01*
X156595045Y-92386237D01*
X156561152Y-92449646D01*
X156540281Y-92518449D01*
X156535000Y-92572069D01*
X156533234Y-92590000D01*
X156535000Y-92607929D01*
X156535001Y-93658811D01*
X150758813Y-99435000D01*
X135077929Y-99435000D01*
X135060000Y-99433234D01*
X135042071Y-99435000D01*
X135042069Y-99435000D01*
X134988448Y-99440281D01*
X134919645Y-99461152D01*
X134856236Y-99495045D01*
X134800657Y-99540657D01*
X134789226Y-99554586D01*
X133884588Y-100459225D01*
X133870657Y-100470658D01*
X133825045Y-100526237D01*
X133791152Y-100589646D01*
X133770281Y-100658449D01*
X133765232Y-100709719D01*
X133763234Y-100730000D01*
X133765000Y-100747929D01*
X133765000Y-101902959D01*
X133754563Y-102080720D01*
X133043324Y-102080720D01*
X132996276Y-102085354D01*
X132951036Y-102099077D01*
X132909342Y-102121363D01*
X132872797Y-102151354D01*
X132842806Y-102187899D01*
X132820520Y-102229593D01*
X132806797Y-102274833D01*
X132802163Y-102321881D01*
X132802163Y-105080000D01*
X131574640Y-105080000D01*
X131573324Y-103949381D01*
X131490824Y-103866881D01*
X130288324Y-103866881D01*
X130288324Y-103886881D01*
X130198324Y-103886881D01*
X130198324Y-103866881D01*
X128995824Y-103866881D01*
X128913324Y-103949381D01*
X128912008Y-105080000D01*
X127684485Y-105080000D01*
X127684485Y-102321881D01*
X128911727Y-102321881D01*
X128913324Y-103694381D01*
X128995824Y-103776881D01*
X130198324Y-103776881D01*
X130198324Y-102074381D01*
X130288324Y-102074381D01*
X130288324Y-103776881D01*
X131490824Y-103776881D01*
X131573324Y-103694381D01*
X131574921Y-102321881D01*
X131568549Y-102257190D01*
X131549680Y-102194984D01*
X131519037Y-102137656D01*
X131477798Y-102087407D01*
X131427549Y-102046168D01*
X131370221Y-102015525D01*
X131308015Y-101996656D01*
X131243324Y-101990284D01*
X130370824Y-101991881D01*
X130288324Y-102074381D01*
X130198324Y-102074381D01*
X130115824Y-101991881D01*
X129243324Y-101990284D01*
X129178633Y-101996656D01*
X129116427Y-102015525D01*
X129059099Y-102046168D01*
X129008850Y-102087407D01*
X128967611Y-102137656D01*
X128936968Y-102194984D01*
X128918099Y-102257190D01*
X128911727Y-102321881D01*
X127684485Y-102321881D01*
X127679851Y-102274833D01*
X127666128Y-102229593D01*
X127643842Y-102187899D01*
X127613851Y-102151354D01*
X127577306Y-102121363D01*
X127535612Y-102099077D01*
X127490372Y-102085354D01*
X127443324Y-102080720D01*
X126836566Y-102080720D01*
X126825000Y-101873308D01*
X126825000Y-101051187D01*
X126974297Y-100901890D01*
X128410000Y-100901890D01*
X128410000Y-101018110D01*
X128432673Y-101132097D01*
X128477149Y-101239470D01*
X128541717Y-101336103D01*
X128623897Y-101418283D01*
X128720530Y-101482851D01*
X128827903Y-101527327D01*
X128941890Y-101550000D01*
X129058110Y-101550000D01*
X129172097Y-101527327D01*
X129279470Y-101482851D01*
X129300368Y-101468887D01*
X129322208Y-101457669D01*
X129330637Y-101453125D01*
X129382359Y-101423893D01*
X129386560Y-101421462D01*
X129431579Y-101394803D01*
X129469045Y-101373073D01*
X129498488Y-101357698D01*
X129523467Y-101347025D01*
X129549423Y-101338852D01*
X129582598Y-101332061D01*
X129628361Y-101327075D01*
X129693819Y-101325000D01*
X132116181Y-101325000D01*
X132181638Y-101327075D01*
X132227401Y-101332061D01*
X132260576Y-101338852D01*
X132286532Y-101347025D01*
X132311511Y-101357698D01*
X132340954Y-101373073D01*
X132378420Y-101394803D01*
X132423439Y-101421462D01*
X132427640Y-101423893D01*
X132479362Y-101453125D01*
X132487792Y-101457670D01*
X132509637Y-101468891D01*
X132530530Y-101482851D01*
X132637903Y-101527327D01*
X132751890Y-101550000D01*
X132868110Y-101550000D01*
X132982097Y-101527327D01*
X133089470Y-101482851D01*
X133186103Y-101418283D01*
X133268283Y-101336103D01*
X133332851Y-101239470D01*
X133377327Y-101132097D01*
X133400000Y-101018110D01*
X133400000Y-100901890D01*
X133377327Y-100787903D01*
X133332851Y-100680530D01*
X133268283Y-100583897D01*
X133186103Y-100501717D01*
X133089470Y-100437149D01*
X132982097Y-100392673D01*
X132868110Y-100370000D01*
X132751890Y-100370000D01*
X132637903Y-100392673D01*
X132530530Y-100437149D01*
X132509637Y-100451109D01*
X132487795Y-100462328D01*
X132479362Y-100466874D01*
X132427640Y-100496106D01*
X132423439Y-100498537D01*
X132378420Y-100525196D01*
X132340954Y-100546926D01*
X132311511Y-100562301D01*
X132286532Y-100572974D01*
X132260576Y-100581147D01*
X132227401Y-100587938D01*
X132181625Y-100592926D01*
X132116209Y-100595000D01*
X129693791Y-100595000D01*
X129628374Y-100592926D01*
X129582598Y-100587938D01*
X129549423Y-100581147D01*
X129523467Y-100572974D01*
X129498488Y-100562301D01*
X129469045Y-100546926D01*
X129431579Y-100525196D01*
X129386560Y-100498537D01*
X129382359Y-100496106D01*
X129330637Y-100466874D01*
X129322205Y-100462328D01*
X129300361Y-100451108D01*
X129279470Y-100437149D01*
X129172097Y-100392673D01*
X129058110Y-100370000D01*
X128941890Y-100370000D01*
X128827903Y-100392673D01*
X128720530Y-100437149D01*
X128623897Y-100501717D01*
X128541717Y-100583897D01*
X128477149Y-100680530D01*
X128432673Y-100787903D01*
X128410000Y-100901890D01*
X126974297Y-100901890D01*
X128521188Y-99355000D01*
X150492071Y-99355000D01*
X150510000Y-99356766D01*
X150527929Y-99355000D01*
X150527931Y-99355000D01*
X150581552Y-99349719D01*
X150650355Y-99328848D01*
X150713764Y-99294955D01*
X150769343Y-99249343D01*
X150780779Y-99235408D01*
X155975413Y-94040775D01*
X155989343Y-94029343D01*
X156034955Y-93973764D01*
X156068848Y-93910355D01*
X156089719Y-93841552D01*
X156095000Y-93787931D01*
X156095000Y-93787929D01*
X156096766Y-93770000D01*
X156095000Y-93752071D01*
X156095000Y-91061187D01*
X157601188Y-89555000D01*
X158458917Y-89555000D01*
X158639835Y-89564176D01*
X158773769Y-89587620D01*
X158877685Y-89621794D01*
X158965534Y-89665927D01*
X159050228Y-89722472D01*
X159078839Y-89744857D01*
X159078839Y-90035000D01*
X159083473Y-90082048D01*
X159097196Y-90127288D01*
X159119482Y-90168982D01*
X159149473Y-90205527D01*
X159186018Y-90235518D01*
X159227712Y-90257804D01*
X159272952Y-90271527D01*
X159320000Y-90276161D01*
X160969510Y-90276161D01*
X160964291Y-90328447D01*
X160986771Y-90559797D01*
X161053953Y-90782316D01*
X161163256Y-90987453D01*
X161164981Y-90990035D01*
X161338742Y-91077618D01*
X162086360Y-90330000D01*
X162213640Y-90330000D01*
X162961258Y-91077618D01*
X163135019Y-90990035D01*
X163244859Y-90785186D01*
X163312624Y-90562843D01*
X163335709Y-90331553D01*
X163313229Y-90100203D01*
X163246047Y-89877684D01*
X163136744Y-89672547D01*
X163135019Y-89669965D01*
X162961258Y-89582382D01*
X162213640Y-90330000D01*
X162086360Y-90330000D01*
X161338742Y-89582382D01*
X161261161Y-89621486D01*
X161261161Y-88851258D01*
X161402382Y-88851258D01*
X161489965Y-89025019D01*
X161694814Y-89134859D01*
X161859577Y-89185075D01*
X161697684Y-89233953D01*
X161492547Y-89343256D01*
X161489965Y-89344981D01*
X161402382Y-89518742D01*
X162150000Y-90266360D01*
X162897618Y-89518742D01*
X162810035Y-89344981D01*
X162605186Y-89235141D01*
X162440423Y-89184925D01*
X162602316Y-89136047D01*
X162711925Y-89077644D01*
X163040000Y-89077644D01*
X163040000Y-89292356D01*
X163081888Y-89502941D01*
X163164055Y-89701309D01*
X163283342Y-89879834D01*
X163435166Y-90031658D01*
X163613691Y-90150945D01*
X163812059Y-90233112D01*
X164022644Y-90275000D01*
X164237356Y-90275000D01*
X164447941Y-90233112D01*
X164646309Y-90150945D01*
X164824834Y-90031658D01*
X164976658Y-89879834D01*
X165095945Y-89701309D01*
X165178112Y-89502941D01*
X165220000Y-89292356D01*
X165220000Y-89077644D01*
X165178112Y-88867059D01*
X165095945Y-88668691D01*
X164976658Y-88490166D01*
X164824834Y-88338342D01*
X164646309Y-88219055D01*
X164447941Y-88136888D01*
X164237356Y-88095000D01*
X164022644Y-88095000D01*
X163812059Y-88136888D01*
X163613691Y-88219055D01*
X163435166Y-88338342D01*
X163283342Y-88490166D01*
X163164055Y-88668691D01*
X163081888Y-88867059D01*
X163040000Y-89077644D01*
X162711925Y-89077644D01*
X162807453Y-89026744D01*
X162810035Y-89025019D01*
X162897618Y-88851258D01*
X162150000Y-88103640D01*
X161402382Y-88851258D01*
X161261161Y-88851258D01*
X161261161Y-88748514D01*
X161338742Y-88787618D01*
X162086360Y-88040000D01*
X162213640Y-88040000D01*
X162961258Y-88787618D01*
X163135019Y-88700035D01*
X163244859Y-88495186D01*
X163312624Y-88272843D01*
X163335709Y-88041553D01*
X163313229Y-87810203D01*
X163246047Y-87587684D01*
X163136744Y-87382547D01*
X163135019Y-87379965D01*
X162961258Y-87292382D01*
X162213640Y-88040000D01*
X162086360Y-88040000D01*
X161338742Y-87292382D01*
X161164981Y-87379965D01*
X161055141Y-87584814D01*
X160987376Y-87807157D01*
X160964291Y-88038447D01*
X160969673Y-88093839D01*
X159320000Y-88093839D01*
X159272952Y-88098473D01*
X159227712Y-88112196D01*
X159186018Y-88134482D01*
X159149473Y-88164473D01*
X159119482Y-88201018D01*
X159097196Y-88242712D01*
X159083473Y-88287952D01*
X159078839Y-88335000D01*
X159078839Y-88631347D01*
X159045616Y-88657710D01*
X158961847Y-88714273D01*
X158874939Y-88758321D01*
X158771949Y-88792423D01*
X158638915Y-88815832D01*
X158458900Y-88825000D01*
X157467928Y-88825000D01*
X157449999Y-88823234D01*
X157432070Y-88825000D01*
X157432069Y-88825000D01*
X157378448Y-88830281D01*
X157309645Y-88851152D01*
X157254423Y-88880669D01*
X157246234Y-88885046D01*
X157233747Y-88895294D01*
X157190657Y-88930657D01*
X157179226Y-88944586D01*
X155484588Y-90639225D01*
X155470657Y-90650658D01*
X155425045Y-90706237D01*
X155391152Y-90769646D01*
X155370281Y-90838449D01*
X155365000Y-90892069D01*
X155363234Y-90910000D01*
X155365000Y-90927929D01*
X155365001Y-93618811D01*
X150358813Y-98625000D01*
X128387929Y-98625000D01*
X128370000Y-98623234D01*
X128352071Y-98625000D01*
X128352069Y-98625000D01*
X128298448Y-98630281D01*
X128229645Y-98651152D01*
X128166236Y-98685045D01*
X128110657Y-98730657D01*
X128099226Y-98744586D01*
X126214588Y-100629225D01*
X126200657Y-100640658D01*
X126155045Y-100696237D01*
X126121152Y-100759646D01*
X126100281Y-100828449D01*
X126096189Y-100870000D01*
X126093234Y-100900000D01*
X126095000Y-100917929D01*
X126095000Y-101873239D01*
X126083449Y-102078455D01*
X126083007Y-102080720D01*
X125443324Y-102080720D01*
X125396276Y-102085354D01*
X125351036Y-102099077D01*
X125309342Y-102121363D01*
X125272797Y-102151354D01*
X125242806Y-102187899D01*
X125220520Y-102229593D01*
X125206797Y-102274833D01*
X125202163Y-102321881D01*
X125202163Y-105080000D01*
X123974640Y-105080000D01*
X123973324Y-103949381D01*
X123890824Y-103866881D01*
X122688324Y-103866881D01*
X122688324Y-103886881D01*
X122598324Y-103886881D01*
X122598324Y-103866881D01*
X121395824Y-103866881D01*
X121313324Y-103949381D01*
X121312008Y-105080000D01*
X120084485Y-105080000D01*
X120084485Y-102321881D01*
X121311727Y-102321881D01*
X121313324Y-103694381D01*
X121395824Y-103776881D01*
X122598324Y-103776881D01*
X122598324Y-102074381D01*
X122688324Y-102074381D01*
X122688324Y-103776881D01*
X123890824Y-103776881D01*
X123973324Y-103694381D01*
X123974921Y-102321881D01*
X123968549Y-102257190D01*
X123949680Y-102194984D01*
X123919037Y-102137656D01*
X123877798Y-102087407D01*
X123827549Y-102046168D01*
X123770221Y-102015525D01*
X123708015Y-101996656D01*
X123643324Y-101990284D01*
X122770824Y-101991881D01*
X122688324Y-102074381D01*
X122598324Y-102074381D01*
X122515824Y-101991881D01*
X121643324Y-101990284D01*
X121578633Y-101996656D01*
X121516427Y-102015525D01*
X121459099Y-102046168D01*
X121408850Y-102087407D01*
X121367611Y-102137656D01*
X121336968Y-102194984D01*
X121318099Y-102257190D01*
X121311727Y-102321881D01*
X120084485Y-102321881D01*
X120079851Y-102274833D01*
X120066128Y-102229593D01*
X120043842Y-102187899D01*
X120013851Y-102151354D01*
X119977306Y-102121363D01*
X119935612Y-102099077D01*
X119890372Y-102085354D01*
X119843324Y-102080720D01*
X119200296Y-102080720D01*
X119196498Y-102060956D01*
X119185000Y-101853354D01*
X119185000Y-101841187D01*
X120311187Y-100715000D01*
X124786327Y-100715000D01*
X124853538Y-100717055D01*
X124901095Y-100722062D01*
X124935882Y-100728954D01*
X124963170Y-100737286D01*
X124989119Y-100748068D01*
X125019255Y-100763421D01*
X125057074Y-100784911D01*
X125102868Y-100811614D01*
X125106540Y-100813712D01*
X125159202Y-100843189D01*
X125167057Y-100847396D01*
X125190053Y-100859169D01*
X125210530Y-100872851D01*
X125317903Y-100917327D01*
X125431890Y-100940000D01*
X125548110Y-100940000D01*
X125662097Y-100917327D01*
X125769470Y-100872851D01*
X125866103Y-100808283D01*
X125948283Y-100726103D01*
X126012851Y-100629470D01*
X126057327Y-100522097D01*
X126080000Y-100408110D01*
X126080000Y-100291890D01*
X126057327Y-100177903D01*
X126012851Y-100070530D01*
X125948283Y-99973897D01*
X125866103Y-99891717D01*
X125769470Y-99827149D01*
X125662097Y-99782673D01*
X125548110Y-99760000D01*
X125431890Y-99760000D01*
X125317903Y-99782673D01*
X125210530Y-99827149D01*
X125190057Y-99840829D01*
X125167059Y-99852602D01*
X125159202Y-99856810D01*
X125106540Y-99886287D01*
X125102868Y-99888385D01*
X125057074Y-99915088D01*
X125019255Y-99936578D01*
X124989119Y-99951931D01*
X124963170Y-99962713D01*
X124935882Y-99971045D01*
X124901095Y-99977937D01*
X124853538Y-99982944D01*
X124786323Y-99985000D01*
X120177928Y-99985000D01*
X120159999Y-99983234D01*
X120142070Y-99985000D01*
X120142069Y-99985000D01*
X120088448Y-99990281D01*
X120019645Y-100011152D01*
X119956236Y-100045045D01*
X119900657Y-100090657D01*
X119889221Y-100104592D01*
X118574588Y-101419225D01*
X118560658Y-101430657D01*
X118549227Y-101444586D01*
X118515046Y-101486236D01*
X118481153Y-101549645D01*
X118460282Y-101618448D01*
X118453234Y-101690000D01*
X118455001Y-101707939D01*
X118455001Y-101853423D01*
X118443426Y-102065272D01*
X118440512Y-102080720D01*
X117843324Y-102080720D01*
X117796276Y-102085354D01*
X117751036Y-102099077D01*
X117709342Y-102121363D01*
X117672797Y-102151354D01*
X117642806Y-102187899D01*
X117620520Y-102229593D01*
X117606797Y-102274833D01*
X117602163Y-102321881D01*
X117602163Y-105080000D01*
X116350000Y-105080000D01*
X116350000Y-102640121D01*
X120430121Y-98560000D01*
X150105762Y-98560000D01*
X150120000Y-98561402D01*
X150134238Y-98560000D01*
X150134245Y-98560000D01*
X150176850Y-98555804D01*
X150231515Y-98539221D01*
X150281895Y-98512293D01*
X150326053Y-98476053D01*
X150335138Y-98464983D01*
X155214988Y-93585134D01*
X155226053Y-93576053D01*
X155262293Y-93531895D01*
X155289221Y-93481515D01*
X155305804Y-93426850D01*
X155310000Y-93384245D01*
X155310000Y-93384236D01*
X155311402Y-93370001D01*
X155310000Y-93355766D01*
X155310000Y-87228742D01*
X161402382Y-87228742D01*
X162150000Y-87976360D01*
X162897618Y-87228742D01*
X162810035Y-87054981D01*
X162605186Y-86945141D01*
X162382843Y-86877376D01*
X162151553Y-86854291D01*
X161920203Y-86876771D01*
X161697684Y-86943953D01*
X161492547Y-87053256D01*
X161489965Y-87054981D01*
X161402382Y-87228742D01*
X155310000Y-87228742D01*
X155310000Y-82922149D01*
X160561490Y-82922149D01*
X160790999Y-83217063D01*
X161196966Y-83444779D01*
X161639556Y-83588919D01*
X162101763Y-83643944D01*
X162565823Y-83607740D01*
X163013903Y-83481698D01*
X163428785Y-83270662D01*
X163509001Y-83217063D01*
X163738510Y-82922149D01*
X162150000Y-81333640D01*
X160561490Y-82922149D01*
X155310000Y-82922149D01*
X155310000Y-81221763D01*
X159776056Y-81221763D01*
X159812260Y-81685823D01*
X159938302Y-82133903D01*
X160149338Y-82548785D01*
X160202937Y-82629001D01*
X160497851Y-82858510D01*
X162086360Y-81270000D01*
X162213640Y-81270000D01*
X163802149Y-82858510D01*
X164097063Y-82629001D01*
X164324779Y-82223034D01*
X164468919Y-81780444D01*
X164523944Y-81318237D01*
X164487740Y-80854177D01*
X164361698Y-80406097D01*
X164150662Y-79991215D01*
X164097063Y-79910999D01*
X163802149Y-79681490D01*
X162213640Y-81270000D01*
X162086360Y-81270000D01*
X160497851Y-79681490D01*
X160202937Y-79910999D01*
X159975221Y-80316966D01*
X159831081Y-80759556D01*
X159776056Y-81221763D01*
X155310000Y-81221763D01*
X155310000Y-79617851D01*
X160561490Y-79617851D01*
X162150000Y-81206360D01*
X163738510Y-79617851D01*
X163509001Y-79322937D01*
X163103034Y-79095221D01*
X162660444Y-78951081D01*
X162198237Y-78896056D01*
X161734177Y-78932260D01*
X161286097Y-79058302D01*
X160871215Y-79269338D01*
X160790999Y-79322937D01*
X160561490Y-79617851D01*
X155310000Y-79617851D01*
X155310000Y-78640000D01*
X166890001Y-78640000D01*
X166890000Y-108830000D01*
G37*
G04 #@! TD.AperFunction*
D18*
X159996532Y-100007000D02*
X160047895Y-100036029D01*
X160093835Y-100063233D01*
X160093934Y-100063291D01*
X160136859Y-100088187D01*
X160137352Y-100088458D01*
X160179749Y-100110598D01*
X160180638Y-100111020D01*
X160225088Y-100130013D01*
X160226264Y-100130448D01*
X160275346Y-100145902D01*
X160276613Y-100146230D01*
X160332907Y-100157753D01*
X160334078Y-100157936D01*
X160400164Y-100165137D01*
X160401137Y-100165206D01*
X160467300Y-100167304D01*
X160467300Y-100392696D01*
X160401138Y-100394793D01*
X160400164Y-100394862D01*
X160334078Y-100402063D01*
X160332907Y-100402246D01*
X160276613Y-100413769D01*
X160275346Y-100414097D01*
X160226264Y-100429551D01*
X160225088Y-100429986D01*
X160180638Y-100448979D01*
X160179749Y-100449401D01*
X160137352Y-100471541D01*
X160136859Y-100471812D01*
X160093934Y-100496708D01*
X160093835Y-100496766D01*
X160047895Y-100523970D01*
X159996532Y-100552999D01*
X159944826Y-100579559D01*
X159633322Y-100280000D01*
X159944826Y-99980441D01*
X159996532Y-100007000D01*
G04 #@! TA.AperFunction,Conductor*
D17*
G36*
X159996532Y-100007000D02*
G01*
X160047895Y-100036029D01*
X160093835Y-100063233D01*
X160093934Y-100063291D01*
X160136859Y-100088187D01*
X160137352Y-100088458D01*
X160179749Y-100110598D01*
X160180638Y-100111020D01*
X160225088Y-100130013D01*
X160226264Y-100130448D01*
X160275346Y-100145902D01*
X160276613Y-100146230D01*
X160332907Y-100157753D01*
X160334078Y-100157936D01*
X160400164Y-100165137D01*
X160401137Y-100165206D01*
X160467300Y-100167304D01*
X160467300Y-100392696D01*
X160401138Y-100394793D01*
X160400164Y-100394862D01*
X160334078Y-100402063D01*
X160332907Y-100402246D01*
X160276613Y-100413769D01*
X160275346Y-100414097D01*
X160226264Y-100429551D01*
X160225088Y-100429986D01*
X160180638Y-100448979D01*
X160179749Y-100449401D01*
X160137352Y-100471541D01*
X160136859Y-100471812D01*
X160093934Y-100496708D01*
X160093835Y-100496766D01*
X160047895Y-100523970D01*
X159996532Y-100552999D01*
X159944826Y-100579559D01*
X159633322Y-100280000D01*
X159944826Y-99980441D01*
X159996532Y-100007000D01*
G37*
G04 #@! TD.AperFunction*
D18*
X164840163Y-93282920D02*
X164840915Y-93283567D01*
X164948226Y-93368861D01*
X164949022Y-93369445D01*
X165048894Y-93436872D01*
X165049569Y-93437297D01*
X165145033Y-93493361D01*
X165145393Y-93493565D01*
X165239475Y-93544772D01*
X165334891Y-93597453D01*
X165434739Y-93658122D01*
X165542124Y-93733276D01*
X165660261Y-93829527D01*
X165782983Y-93944742D01*
X165623535Y-94104190D01*
X165512409Y-94014768D01*
X165510326Y-94013404D01*
X165509172Y-94012874D01*
X165397987Y-93968310D01*
X165395596Y-93967614D01*
X165393342Y-93967398D01*
X165288416Y-93966734D01*
X165285937Y-93966963D01*
X165284172Y-93967436D01*
X165182945Y-94002570D01*
X165180357Y-94003812D01*
X165080266Y-94066640D01*
X165079013Y-94067536D01*
X164977496Y-94149955D01*
X164977057Y-94150329D01*
X164871625Y-94244174D01*
X164759920Y-94341164D01*
X164639632Y-94433069D01*
X164515591Y-94507542D01*
X163726162Y-93774752D01*
X164729343Y-93179733D01*
X164840163Y-93282920D01*
G04 #@! TA.AperFunction,Conductor*
D17*
G36*
X164840163Y-93282920D02*
G01*
X164840915Y-93283567D01*
X164948226Y-93368861D01*
X164949022Y-93369445D01*
X165048894Y-93436872D01*
X165049569Y-93437297D01*
X165145033Y-93493361D01*
X165145393Y-93493565D01*
X165239475Y-93544772D01*
X165334891Y-93597453D01*
X165434739Y-93658122D01*
X165542124Y-93733276D01*
X165660261Y-93829527D01*
X165782983Y-93944742D01*
X165623535Y-94104190D01*
X165512409Y-94014768D01*
X165510326Y-94013404D01*
X165509172Y-94012874D01*
X165397987Y-93968310D01*
X165395596Y-93967614D01*
X165393342Y-93967398D01*
X165288416Y-93966734D01*
X165285937Y-93966963D01*
X165284172Y-93967436D01*
X165182945Y-94002570D01*
X165180357Y-94003812D01*
X165080266Y-94066640D01*
X165079013Y-94067536D01*
X164977496Y-94149955D01*
X164977057Y-94150329D01*
X164871625Y-94244174D01*
X164759920Y-94341164D01*
X164639632Y-94433069D01*
X164515591Y-94507542D01*
X163726162Y-93774752D01*
X164729343Y-93179733D01*
X164840163Y-93282920D01*
G37*
G04 #@! TD.AperFunction*
D18*
X129206532Y-100687000D02*
X129257895Y-100716029D01*
X129303835Y-100743233D01*
X129303934Y-100743291D01*
X129346859Y-100768187D01*
X129347352Y-100768458D01*
X129389749Y-100790598D01*
X129390638Y-100791020D01*
X129435088Y-100810013D01*
X129436264Y-100810448D01*
X129485346Y-100825902D01*
X129486613Y-100826230D01*
X129542907Y-100837753D01*
X129544078Y-100837936D01*
X129610164Y-100845137D01*
X129611137Y-100845206D01*
X129677300Y-100847304D01*
X129677300Y-101072696D01*
X129611138Y-101074793D01*
X129610164Y-101074862D01*
X129544078Y-101082063D01*
X129542907Y-101082246D01*
X129486613Y-101093769D01*
X129485346Y-101094097D01*
X129436264Y-101109551D01*
X129435088Y-101109986D01*
X129390638Y-101128979D01*
X129389749Y-101129401D01*
X129347352Y-101151541D01*
X129346859Y-101151812D01*
X129303934Y-101176708D01*
X129303835Y-101176766D01*
X129257895Y-101203970D01*
X129206532Y-101232999D01*
X129154826Y-101259559D01*
X128843322Y-100960000D01*
X129154826Y-100660441D01*
X129206532Y-100687000D01*
G04 #@! TA.AperFunction,Conductor*
D17*
G36*
X129206532Y-100687000D02*
G01*
X129257895Y-100716029D01*
X129303835Y-100743233D01*
X129303934Y-100743291D01*
X129346859Y-100768187D01*
X129347352Y-100768458D01*
X129389749Y-100790598D01*
X129390638Y-100791020D01*
X129435088Y-100810013D01*
X129436264Y-100810448D01*
X129485346Y-100825902D01*
X129486613Y-100826230D01*
X129542907Y-100837753D01*
X129544078Y-100837936D01*
X129610164Y-100845137D01*
X129611137Y-100845206D01*
X129677300Y-100847304D01*
X129677300Y-101072696D01*
X129611138Y-101074793D01*
X129610164Y-101074862D01*
X129544078Y-101082063D01*
X129542907Y-101082246D01*
X129486613Y-101093769D01*
X129485346Y-101094097D01*
X129436264Y-101109551D01*
X129435088Y-101109986D01*
X129390638Y-101128979D01*
X129389749Y-101129401D01*
X129347352Y-101151541D01*
X129346859Y-101151812D01*
X129303934Y-101176708D01*
X129303835Y-101176766D01*
X129257895Y-101203970D01*
X129206532Y-101232999D01*
X129154826Y-101259559D01*
X128843322Y-100960000D01*
X129154826Y-100660441D01*
X129206532Y-100687000D01*
G37*
G04 #@! TD.AperFunction*
D18*
X132966678Y-100960000D02*
X132655174Y-101259559D01*
X132603467Y-101232999D01*
X132552104Y-101203970D01*
X132506164Y-101176766D01*
X132506065Y-101176708D01*
X132463140Y-101151812D01*
X132462647Y-101151541D01*
X132420250Y-101129401D01*
X132419361Y-101128979D01*
X132374911Y-101109986D01*
X132373735Y-101109551D01*
X132324653Y-101094097D01*
X132323386Y-101093769D01*
X132267092Y-101082246D01*
X132265921Y-101082063D01*
X132199835Y-101074862D01*
X132198861Y-101074793D01*
X132132700Y-101072696D01*
X132132700Y-100847304D01*
X132198862Y-100845206D01*
X132199835Y-100845137D01*
X132265921Y-100837936D01*
X132267092Y-100837753D01*
X132323386Y-100826230D01*
X132324653Y-100825902D01*
X132373735Y-100810448D01*
X132374911Y-100810013D01*
X132419361Y-100791020D01*
X132420250Y-100790598D01*
X132462647Y-100768458D01*
X132463140Y-100768187D01*
X132506065Y-100743291D01*
X132506164Y-100743233D01*
X132552104Y-100716029D01*
X132603467Y-100687000D01*
X132655174Y-100660441D01*
X132966678Y-100960000D01*
G04 #@! TA.AperFunction,Conductor*
D17*
G36*
X132966678Y-100960000D02*
G01*
X132655174Y-101259559D01*
X132603467Y-101232999D01*
X132552104Y-101203970D01*
X132506164Y-101176766D01*
X132506065Y-101176708D01*
X132463140Y-101151812D01*
X132462647Y-101151541D01*
X132420250Y-101129401D01*
X132419361Y-101128979D01*
X132374911Y-101109986D01*
X132373735Y-101109551D01*
X132324653Y-101094097D01*
X132323386Y-101093769D01*
X132267092Y-101082246D01*
X132265921Y-101082063D01*
X132199835Y-101074862D01*
X132198861Y-101074793D01*
X132132700Y-101072696D01*
X132132700Y-100847304D01*
X132198862Y-100845206D01*
X132199835Y-100845137D01*
X132265921Y-100837936D01*
X132267092Y-100837753D01*
X132323386Y-100826230D01*
X132324653Y-100825902D01*
X132373735Y-100810448D01*
X132374911Y-100810013D01*
X132419361Y-100791020D01*
X132420250Y-100790598D01*
X132462647Y-100768458D01*
X132463140Y-100768187D01*
X132506065Y-100743291D01*
X132506164Y-100743233D01*
X132552104Y-100716029D01*
X132603467Y-100687000D01*
X132655174Y-100660441D01*
X132966678Y-100960000D01*
G37*
G04 #@! TD.AperFunction*
D18*
X125646678Y-100350000D02*
X125335164Y-100649568D01*
X125282418Y-100622565D01*
X125230057Y-100593256D01*
X125183241Y-100565957D01*
X125183118Y-100565886D01*
X125139332Y-100541006D01*
X125138823Y-100540732D01*
X125095560Y-100518691D01*
X125094668Y-100518279D01*
X125049320Y-100499437D01*
X125048156Y-100499019D01*
X124998111Y-100483737D01*
X124996870Y-100483425D01*
X124939521Y-100472063D01*
X124938383Y-100471891D01*
X124871118Y-100464810D01*
X124870176Y-100464746D01*
X124802700Y-100462683D01*
X124802700Y-100237317D01*
X124870176Y-100235253D01*
X124871118Y-100235189D01*
X124938383Y-100228108D01*
X124939521Y-100227936D01*
X124996870Y-100216574D01*
X124998111Y-100216262D01*
X125048156Y-100200980D01*
X125049320Y-100200562D01*
X125094668Y-100181720D01*
X125095560Y-100181308D01*
X125138823Y-100159267D01*
X125139332Y-100158993D01*
X125183118Y-100134113D01*
X125183241Y-100134042D01*
X125230057Y-100106743D01*
X125282418Y-100077435D01*
X125335164Y-100050432D01*
X125646678Y-100350000D01*
G04 #@! TA.AperFunction,Conductor*
D17*
G36*
X125646678Y-100350000D02*
G01*
X125335164Y-100649568D01*
X125282418Y-100622565D01*
X125230057Y-100593256D01*
X125183241Y-100565957D01*
X125183118Y-100565886D01*
X125139332Y-100541006D01*
X125138823Y-100540732D01*
X125095560Y-100518691D01*
X125094668Y-100518279D01*
X125049320Y-100499437D01*
X125048156Y-100499019D01*
X124998111Y-100483737D01*
X124996870Y-100483425D01*
X124939521Y-100472063D01*
X124938383Y-100471891D01*
X124871118Y-100464810D01*
X124870176Y-100464746D01*
X124802700Y-100462683D01*
X124802700Y-100237317D01*
X124870176Y-100235253D01*
X124871118Y-100235189D01*
X124938383Y-100228108D01*
X124939521Y-100227936D01*
X124996870Y-100216574D01*
X124998111Y-100216262D01*
X125048156Y-100200980D01*
X125049320Y-100200562D01*
X125094668Y-100181720D01*
X125095560Y-100181308D01*
X125138823Y-100159267D01*
X125139332Y-100158993D01*
X125183118Y-100134113D01*
X125183241Y-100134042D01*
X125230057Y-100106743D01*
X125282418Y-100077435D01*
X125335164Y-100050432D01*
X125646678Y-100350000D01*
G37*
G04 #@! TD.AperFunction*
D18*
X118945078Y-102091072D02*
X118945287Y-102092767D01*
X118981395Y-102280666D01*
X118981930Y-102282606D01*
X119038130Y-102437298D01*
X119038979Y-102439154D01*
X119112015Y-102569906D01*
X119112924Y-102571308D01*
X119199538Y-102687383D01*
X119200164Y-102688156D01*
X119297100Y-102798821D01*
X119297252Y-102798991D01*
X119401094Y-102913331D01*
X119508456Y-103040438D01*
X119616169Y-103189557D01*
X119716818Y-103362612D01*
X118854999Y-104303417D01*
X117948601Y-103405494D01*
X118042185Y-103225299D01*
X118144061Y-103070070D01*
X118246940Y-102937914D01*
X118347557Y-102819252D01*
X118347652Y-102819139D01*
X118442397Y-102704741D01*
X118442952Y-102704020D01*
X118528208Y-102584608D01*
X118529046Y-102583263D01*
X118601364Y-102449365D01*
X118602161Y-102447571D01*
X118658088Y-102289716D01*
X118658597Y-102287829D01*
X118694684Y-102096542D01*
X118694885Y-102094881D01*
X118707025Y-101872700D01*
X118932984Y-101872700D01*
X118945078Y-102091072D01*
G04 #@! TA.AperFunction,Conductor*
D17*
G36*
X118945078Y-102091072D02*
G01*
X118945287Y-102092767D01*
X118981395Y-102280666D01*
X118981930Y-102282606D01*
X119038130Y-102437298D01*
X119038979Y-102439154D01*
X119112015Y-102569906D01*
X119112924Y-102571308D01*
X119199538Y-102687383D01*
X119200164Y-102688156D01*
X119297100Y-102798821D01*
X119297252Y-102798991D01*
X119401094Y-102913331D01*
X119508456Y-103040438D01*
X119616169Y-103189557D01*
X119716818Y-103362612D01*
X118854999Y-104303417D01*
X117948601Y-103405494D01*
X118042185Y-103225299D01*
X118144061Y-103070070D01*
X118246940Y-102937914D01*
X118347557Y-102819252D01*
X118347652Y-102819139D01*
X118442397Y-102704741D01*
X118442952Y-102704020D01*
X118528208Y-102584608D01*
X118529046Y-102583263D01*
X118601364Y-102449365D01*
X118602161Y-102447571D01*
X118658088Y-102289716D01*
X118658597Y-102287829D01*
X118694684Y-102096542D01*
X118694885Y-102094881D01*
X118707025Y-101872700D01*
X118932984Y-101872700D01*
X118945078Y-102091072D01*
G37*
G04 #@! TD.AperFunction*
D18*
X158389559Y-96114826D02*
X158362999Y-96166532D01*
X158333970Y-96217895D01*
X158306766Y-96263835D01*
X158306708Y-96263934D01*
X158281812Y-96306859D01*
X158281541Y-96307352D01*
X158259401Y-96349749D01*
X158258979Y-96350638D01*
X158239986Y-96395088D01*
X158239551Y-96396264D01*
X158224097Y-96445346D01*
X158223769Y-96446613D01*
X158212246Y-96502907D01*
X158212063Y-96504078D01*
X158204862Y-96570164D01*
X158204793Y-96571138D01*
X158202696Y-96637300D01*
X157977304Y-96637300D01*
X157975206Y-96571137D01*
X157975137Y-96570164D01*
X157967936Y-96504078D01*
X157967753Y-96502907D01*
X157956230Y-96446613D01*
X157955902Y-96445346D01*
X157940448Y-96396264D01*
X157940013Y-96395088D01*
X157921020Y-96350638D01*
X157920598Y-96349749D01*
X157898458Y-96307352D01*
X157898187Y-96306859D01*
X157873291Y-96263934D01*
X157873233Y-96263835D01*
X157846029Y-96217895D01*
X157817000Y-96166532D01*
X157790441Y-96114826D01*
X158090000Y-95803322D01*
X158389559Y-96114826D01*
G04 #@! TA.AperFunction,Conductor*
D17*
G36*
X158389559Y-96114826D02*
G01*
X158362999Y-96166532D01*
X158333970Y-96217895D01*
X158306766Y-96263835D01*
X158306708Y-96263934D01*
X158281812Y-96306859D01*
X158281541Y-96307352D01*
X158259401Y-96349749D01*
X158258979Y-96350638D01*
X158239986Y-96395088D01*
X158239551Y-96396264D01*
X158224097Y-96445346D01*
X158223769Y-96446613D01*
X158212246Y-96502907D01*
X158212063Y-96504078D01*
X158204862Y-96570164D01*
X158204793Y-96571138D01*
X158202696Y-96637300D01*
X157977304Y-96637300D01*
X157975206Y-96571137D01*
X157975137Y-96570164D01*
X157967936Y-96504078D01*
X157967753Y-96502907D01*
X157956230Y-96446613D01*
X157955902Y-96445346D01*
X157940448Y-96396264D01*
X157940013Y-96395088D01*
X157921020Y-96350638D01*
X157920598Y-96349749D01*
X157898458Y-96307352D01*
X157898187Y-96306859D01*
X157873291Y-96263934D01*
X157873233Y-96263835D01*
X157846029Y-96217895D01*
X157817000Y-96166532D01*
X157790441Y-96114826D01*
X158090000Y-95803322D01*
X158389559Y-96114826D01*
G37*
G04 #@! TD.AperFunction*
D18*
X150325468Y-102244457D02*
X150204197Y-102382247D01*
X150202983Y-102383872D01*
X150116602Y-102521098D01*
X150115479Y-102523351D01*
X150065670Y-102654359D01*
X150064985Y-102656968D01*
X150045559Y-102785050D01*
X150045424Y-102787425D01*
X150050190Y-102915872D01*
X150050366Y-102917558D01*
X150073136Y-103049661D01*
X150073326Y-103050569D01*
X150107908Y-103189619D01*
X150107970Y-103189857D01*
X150148132Y-103338983D01*
X150187654Y-103501322D01*
X150218813Y-103671540D01*
X149098016Y-104280919D01*
X148551706Y-103117876D01*
X148718815Y-102966370D01*
X148879872Y-102849264D01*
X149032229Y-102761664D01*
X149179880Y-102692804D01*
X149326657Y-102632042D01*
X149326748Y-102632004D01*
X149476137Y-102568785D01*
X149476781Y-102568491D01*
X149632213Y-102492243D01*
X149633196Y-102491706D01*
X149798362Y-102391749D01*
X149799420Y-102391033D01*
X149978015Y-102256688D01*
X149978963Y-102255901D01*
X150165716Y-102084705D01*
X150325468Y-102244457D01*
G04 #@! TA.AperFunction,Conductor*
D17*
G36*
X150325468Y-102244457D02*
G01*
X150204197Y-102382247D01*
X150202983Y-102383872D01*
X150116602Y-102521098D01*
X150115479Y-102523351D01*
X150065670Y-102654359D01*
X150064985Y-102656968D01*
X150045559Y-102785050D01*
X150045424Y-102787425D01*
X150050190Y-102915872D01*
X150050366Y-102917558D01*
X150073136Y-103049661D01*
X150073326Y-103050569D01*
X150107908Y-103189619D01*
X150107970Y-103189857D01*
X150148132Y-103338983D01*
X150187654Y-103501322D01*
X150218813Y-103671540D01*
X149098016Y-104280919D01*
X148551706Y-103117876D01*
X148718815Y-102966370D01*
X148879872Y-102849264D01*
X149032229Y-102761664D01*
X149179880Y-102692804D01*
X149326657Y-102632042D01*
X149326748Y-102632004D01*
X149476137Y-102568785D01*
X149476781Y-102568491D01*
X149632213Y-102492243D01*
X149633196Y-102491706D01*
X149798362Y-102391749D01*
X149799420Y-102391033D01*
X149978015Y-102256688D01*
X149978963Y-102255901D01*
X150165716Y-102084705D01*
X150325468Y-102244457D01*
G37*
G04 #@! TD.AperFunction*
D18*
X154526752Y-99682758D02*
X154488993Y-99723619D01*
X154488197Y-99724569D01*
X154453286Y-99770651D01*
X154452422Y-99771950D01*
X154427185Y-99815476D01*
X154426395Y-99817092D01*
X154409376Y-99859250D01*
X154408816Y-99860989D01*
X154398556Y-99902969D01*
X154398277Y-99904529D01*
X154393319Y-99947520D01*
X154393239Y-99948662D01*
X154392124Y-99993854D01*
X154392124Y-99994499D01*
X154393395Y-100043080D01*
X154393402Y-100043273D01*
X154395597Y-100096332D01*
X154397010Y-100146224D01*
X153993791Y-100302002D01*
X153853928Y-99893108D01*
X153906972Y-99852086D01*
X153960857Y-99814707D01*
X154010375Y-99783610D01*
X154057271Y-99756070D01*
X154103247Y-99729388D01*
X154103490Y-99729243D01*
X154149978Y-99700859D01*
X154150455Y-99700553D01*
X154199113Y-99667775D01*
X154199699Y-99667356D01*
X154252185Y-99627494D01*
X154252764Y-99627027D01*
X154310735Y-99577388D01*
X154311240Y-99576931D01*
X154367379Y-99523385D01*
X154526752Y-99682758D01*
G04 #@! TA.AperFunction,Conductor*
D17*
G36*
X154526752Y-99682758D02*
G01*
X154488993Y-99723619D01*
X154488197Y-99724569D01*
X154453286Y-99770651D01*
X154452422Y-99771950D01*
X154427185Y-99815476D01*
X154426395Y-99817092D01*
X154409376Y-99859250D01*
X154408816Y-99860989D01*
X154398556Y-99902969D01*
X154398277Y-99904529D01*
X154393319Y-99947520D01*
X154393239Y-99948662D01*
X154392124Y-99993854D01*
X154392124Y-99994499D01*
X154393395Y-100043080D01*
X154393402Y-100043273D01*
X154395597Y-100096332D01*
X154397010Y-100146224D01*
X153993791Y-100302002D01*
X153853928Y-99893108D01*
X153906972Y-99852086D01*
X153960857Y-99814707D01*
X154010375Y-99783610D01*
X154057271Y-99756070D01*
X154103247Y-99729388D01*
X154103490Y-99729243D01*
X154149978Y-99700859D01*
X154150455Y-99700553D01*
X154199113Y-99667775D01*
X154199699Y-99667356D01*
X154252185Y-99627494D01*
X154252764Y-99627027D01*
X154310735Y-99577388D01*
X154311240Y-99576931D01*
X154367379Y-99523385D01*
X154526752Y-99682758D01*
G37*
G04 #@! TD.AperFunction*
D18*
X156761937Y-97206067D02*
X156725201Y-97248631D01*
X156724006Y-97250262D01*
X156694432Y-97298212D01*
X156693551Y-97299916D01*
X156673569Y-97346980D01*
X156673085Y-97348327D01*
X156659188Y-97395110D01*
X156659013Y-97395759D01*
X156647704Y-97442824D01*
X156635610Y-97490259D01*
X156619319Y-97538663D01*
X156595407Y-97588872D01*
X156560319Y-97641837D01*
X156518817Y-97688846D01*
X156359671Y-97529700D01*
X156388648Y-97493811D01*
X156390480Y-97490741D01*
X156408121Y-97448641D01*
X156408854Y-97446262D01*
X156409092Y-97444363D01*
X156411089Y-97404180D01*
X156410969Y-97401694D01*
X156410646Y-97400167D01*
X156399863Y-97361147D01*
X156398815Y-97358530D01*
X156378118Y-97319918D01*
X156377270Y-97318550D01*
X156349523Y-97279591D01*
X156349109Y-97279043D01*
X156317197Y-97239006D01*
X156284150Y-97197345D01*
X156253008Y-97153606D01*
X156230734Y-97114521D01*
X156527523Y-96805897D01*
X156761937Y-97206067D01*
G04 #@! TA.AperFunction,Conductor*
D17*
G36*
X156761937Y-97206067D02*
G01*
X156725201Y-97248631D01*
X156724006Y-97250262D01*
X156694432Y-97298212D01*
X156693551Y-97299916D01*
X156673569Y-97346980D01*
X156673085Y-97348327D01*
X156659188Y-97395110D01*
X156659013Y-97395759D01*
X156647704Y-97442824D01*
X156635610Y-97490259D01*
X156619319Y-97538663D01*
X156595407Y-97588872D01*
X156560319Y-97641837D01*
X156518817Y-97688846D01*
X156359671Y-97529700D01*
X156388648Y-97493811D01*
X156390480Y-97490741D01*
X156408121Y-97448641D01*
X156408854Y-97446262D01*
X156409092Y-97444363D01*
X156411089Y-97404180D01*
X156410969Y-97401694D01*
X156410646Y-97400167D01*
X156399863Y-97361147D01*
X156398815Y-97358530D01*
X156378118Y-97319918D01*
X156377270Y-97318550D01*
X156349523Y-97279591D01*
X156349109Y-97279043D01*
X156317197Y-97239006D01*
X156284150Y-97197345D01*
X156253008Y-97153606D01*
X156230734Y-97114521D01*
X156527523Y-96805897D01*
X156761937Y-97206067D01*
G37*
G04 #@! TD.AperFunction*
D18*
X155976678Y-103840000D02*
X155665174Y-104139559D01*
X155613467Y-104112999D01*
X155562104Y-104083970D01*
X155516164Y-104056766D01*
X155516065Y-104056708D01*
X155473140Y-104031812D01*
X155472647Y-104031541D01*
X155430250Y-104009401D01*
X155429361Y-104008979D01*
X155384911Y-103989986D01*
X155383735Y-103989551D01*
X155334653Y-103974097D01*
X155333386Y-103973769D01*
X155277092Y-103962246D01*
X155275921Y-103962063D01*
X155209835Y-103954862D01*
X155208861Y-103954793D01*
X155142700Y-103952696D01*
X155142700Y-103727304D01*
X155208862Y-103725206D01*
X155209835Y-103725137D01*
X155275921Y-103717936D01*
X155277092Y-103717753D01*
X155333386Y-103706230D01*
X155334653Y-103705902D01*
X155383735Y-103690448D01*
X155384911Y-103690013D01*
X155429361Y-103671020D01*
X155430250Y-103670598D01*
X155472647Y-103648458D01*
X155473140Y-103648187D01*
X155516065Y-103623291D01*
X155516164Y-103623233D01*
X155562104Y-103596029D01*
X155613467Y-103567000D01*
X155665174Y-103540441D01*
X155976678Y-103840000D01*
G04 #@! TA.AperFunction,Conductor*
D17*
G36*
X155976678Y-103840000D02*
G01*
X155665174Y-104139559D01*
X155613467Y-104112999D01*
X155562104Y-104083970D01*
X155516164Y-104056766D01*
X155516065Y-104056708D01*
X155473140Y-104031812D01*
X155472647Y-104031541D01*
X155430250Y-104009401D01*
X155429361Y-104008979D01*
X155384911Y-103989986D01*
X155383735Y-103989551D01*
X155334653Y-103974097D01*
X155333386Y-103973769D01*
X155277092Y-103962246D01*
X155275921Y-103962063D01*
X155209835Y-103954862D01*
X155208861Y-103954793D01*
X155142700Y-103952696D01*
X155142700Y-103727304D01*
X155208862Y-103725206D01*
X155209835Y-103725137D01*
X155275921Y-103717936D01*
X155277092Y-103717753D01*
X155333386Y-103706230D01*
X155334653Y-103705902D01*
X155383735Y-103690448D01*
X155384911Y-103690013D01*
X155429361Y-103671020D01*
X155430250Y-103670598D01*
X155472647Y-103648458D01*
X155473140Y-103648187D01*
X155516065Y-103623291D01*
X155516164Y-103623233D01*
X155562104Y-103596029D01*
X155613467Y-103567000D01*
X155665174Y-103540441D01*
X155976678Y-103840000D01*
G37*
G04 #@! TD.AperFunction*
D18*
X153668610Y-103044642D02*
X153814945Y-103150827D01*
X153939327Y-103257302D01*
X154050946Y-103360785D01*
X154051089Y-103360916D01*
X154158976Y-103457908D01*
X154159730Y-103458535D01*
X154272887Y-103545473D01*
X154274286Y-103546407D01*
X154401917Y-103619910D01*
X154403799Y-103620798D01*
X154555105Y-103677486D01*
X154557093Y-103678051D01*
X154741274Y-103714542D01*
X154743018Y-103714763D01*
X154957300Y-103726995D01*
X154957300Y-103952997D01*
X154739904Y-103965288D01*
X154738185Y-103965504D01*
X154551243Y-104002045D01*
X154549297Y-104002589D01*
X154395422Y-104059161D01*
X154393589Y-104060006D01*
X154263411Y-104133063D01*
X154262056Y-104133941D01*
X154146207Y-104219940D01*
X154145494Y-104220509D01*
X154034604Y-104315907D01*
X154034507Y-104315992D01*
X153919423Y-104417054D01*
X153790974Y-104520111D01*
X153639751Y-104621764D01*
X153463891Y-104714625D01*
X152561738Y-103812465D01*
X153498471Y-102946256D01*
X153668610Y-103044642D01*
G04 #@! TA.AperFunction,Conductor*
D17*
G36*
X153668610Y-103044642D02*
G01*
X153814945Y-103150827D01*
X153939327Y-103257302D01*
X154050946Y-103360785D01*
X154051089Y-103360916D01*
X154158976Y-103457908D01*
X154159730Y-103458535D01*
X154272887Y-103545473D01*
X154274286Y-103546407D01*
X154401917Y-103619910D01*
X154403799Y-103620798D01*
X154555105Y-103677486D01*
X154557093Y-103678051D01*
X154741274Y-103714542D01*
X154743018Y-103714763D01*
X154957300Y-103726995D01*
X154957300Y-103952997D01*
X154739904Y-103965288D01*
X154738185Y-103965504D01*
X154551243Y-104002045D01*
X154549297Y-104002589D01*
X154395422Y-104059161D01*
X154393589Y-104060006D01*
X154263411Y-104133063D01*
X154262056Y-104133941D01*
X154146207Y-104219940D01*
X154145494Y-104220509D01*
X154034604Y-104315907D01*
X154034507Y-104315992D01*
X153919423Y-104417054D01*
X153790974Y-104520111D01*
X153639751Y-104621764D01*
X153463891Y-104714625D01*
X152561738Y-103812465D01*
X153498471Y-102946256D01*
X153668610Y-103044642D01*
G37*
G04 #@! TD.AperFunction*
D18*
X160576671Y-89182622D02*
X159801782Y-89936567D01*
X159649462Y-89854902D01*
X159516416Y-89767297D01*
X159402240Y-89680257D01*
X159299015Y-89596270D01*
X159298826Y-89596119D01*
X159198831Y-89517885D01*
X159198057Y-89517325D01*
X159093541Y-89447546D01*
X159092190Y-89446760D01*
X158975242Y-89388009D01*
X158973509Y-89387293D01*
X158836219Y-89342143D01*
X158834441Y-89341697D01*
X158668897Y-89312720D01*
X158667350Y-89312546D01*
X158477700Y-89302927D01*
X158477700Y-89077070D01*
X158666570Y-89067451D01*
X158668125Y-89067275D01*
X158832977Y-89038267D01*
X158834768Y-89037815D01*
X158971413Y-88992569D01*
X158973162Y-88991841D01*
X159089469Y-88932893D01*
X159090835Y-88932090D01*
X159194671Y-88861977D01*
X159195458Y-88861400D01*
X159294690Y-88782658D01*
X159294894Y-88782493D01*
X159397236Y-88697785D01*
X159510379Y-88609769D01*
X159642159Y-88520926D01*
X159793016Y-88437789D01*
X160576671Y-89182622D01*
G04 #@! TA.AperFunction,Conductor*
D17*
G36*
X160576671Y-89182622D02*
G01*
X159801782Y-89936567D01*
X159649462Y-89854902D01*
X159516416Y-89767297D01*
X159402240Y-89680257D01*
X159299015Y-89596270D01*
X159298826Y-89596119D01*
X159198831Y-89517885D01*
X159198057Y-89517325D01*
X159093541Y-89447546D01*
X159092190Y-89446760D01*
X158975242Y-89388009D01*
X158973509Y-89387293D01*
X158836219Y-89342143D01*
X158834441Y-89341697D01*
X158668897Y-89312720D01*
X158667350Y-89312546D01*
X158477700Y-89302927D01*
X158477700Y-89077070D01*
X158666570Y-89067451D01*
X158668125Y-89067275D01*
X158832977Y-89038267D01*
X158834768Y-89037815D01*
X158971413Y-88992569D01*
X158973162Y-88991841D01*
X159089469Y-88932893D01*
X159090835Y-88932090D01*
X159194671Y-88861977D01*
X159195458Y-88861400D01*
X159294690Y-88782658D01*
X159294894Y-88782493D01*
X159397236Y-88697785D01*
X159510379Y-88609769D01*
X159642159Y-88520926D01*
X159793016Y-88437789D01*
X160576671Y-89182622D01*
G37*
G04 #@! TD.AperFunction*
D18*
X126585210Y-102111848D02*
X126585420Y-102113545D01*
X126621767Y-102302085D01*
X126622297Y-102304010D01*
X126678613Y-102459345D01*
X126679441Y-102461166D01*
X126752237Y-102592692D01*
X126753104Y-102594047D01*
X126838893Y-102711164D01*
X126839462Y-102711884D01*
X126934756Y-102823987D01*
X126934849Y-102824096D01*
X127035982Y-102940380D01*
X127139329Y-103070031D01*
X127241546Y-103222487D01*
X127335296Y-103399658D01*
X126434797Y-104303483D01*
X125566854Y-103368345D01*
X125665672Y-103196374D01*
X125772069Y-103048346D01*
X125878579Y-102922391D01*
X125981977Y-102809249D01*
X125982112Y-102809099D01*
X126078917Y-102699719D01*
X126079538Y-102698961D01*
X126166238Y-102584281D01*
X126167155Y-102582885D01*
X126240406Y-102453661D01*
X126241273Y-102451794D01*
X126297735Y-102298779D01*
X126298285Y-102296817D01*
X126334612Y-102110766D01*
X126334827Y-102109046D01*
X126347005Y-101892700D01*
X126572989Y-101892700D01*
X126585210Y-102111848D01*
G04 #@! TA.AperFunction,Conductor*
D17*
G36*
X126585210Y-102111848D02*
G01*
X126585420Y-102113545D01*
X126621767Y-102302085D01*
X126622297Y-102304010D01*
X126678613Y-102459345D01*
X126679441Y-102461166D01*
X126752237Y-102592692D01*
X126753104Y-102594047D01*
X126838893Y-102711164D01*
X126839462Y-102711884D01*
X126934756Y-102823987D01*
X126934849Y-102824096D01*
X127035982Y-102940380D01*
X127139329Y-103070031D01*
X127241546Y-103222487D01*
X127335296Y-103399658D01*
X126434797Y-104303483D01*
X125566854Y-103368345D01*
X125665672Y-103196374D01*
X125772069Y-103048346D01*
X125878579Y-102922391D01*
X125981977Y-102809249D01*
X125982112Y-102809099D01*
X126078917Y-102699719D01*
X126079538Y-102698961D01*
X126166238Y-102584281D01*
X126167155Y-102582885D01*
X126240406Y-102453661D01*
X126241273Y-102451794D01*
X126297735Y-102298779D01*
X126298285Y-102296817D01*
X126334612Y-102110766D01*
X126334827Y-102109046D01*
X126347005Y-101892700D01*
X126572989Y-101892700D01*
X126585210Y-102111848D01*
G37*
G04 #@! TD.AperFunction*
D18*
X134255448Y-102144546D02*
X134255657Y-102146236D01*
X134292431Y-102337172D01*
X134292947Y-102339055D01*
X134349453Y-102496719D01*
X134350232Y-102498465D01*
X134422553Y-102632483D01*
X134423334Y-102633748D01*
X134507556Y-102753749D01*
X134508022Y-102754372D01*
X134600225Y-102869975D01*
X134696293Y-102990557D01*
X134792168Y-103125479D01*
X134884182Y-103284538D01*
X134965133Y-103469600D01*
X133997745Y-104301397D01*
X133204372Y-103302214D01*
X133311786Y-103144768D01*
X133425454Y-103009294D01*
X133537584Y-102894014D01*
X133645130Y-102790147D01*
X133645350Y-102789929D01*
X133745021Y-102688856D01*
X133745761Y-102688037D01*
X133834299Y-102581080D01*
X133835355Y-102579601D01*
X133909642Y-102457944D01*
X133910627Y-102455961D01*
X133967547Y-102310789D01*
X133968164Y-102308707D01*
X134004602Y-102131204D01*
X134004839Y-102129394D01*
X134016976Y-101922700D01*
X134242993Y-101922700D01*
X134255448Y-102144546D01*
G04 #@! TA.AperFunction,Conductor*
D17*
G36*
X134255448Y-102144546D02*
G01*
X134255657Y-102146236D01*
X134292431Y-102337172D01*
X134292947Y-102339055D01*
X134349453Y-102496719D01*
X134350232Y-102498465D01*
X134422553Y-102632483D01*
X134423334Y-102633748D01*
X134507556Y-102753749D01*
X134508022Y-102754372D01*
X134600225Y-102869975D01*
X134696293Y-102990557D01*
X134792168Y-103125479D01*
X134884182Y-103284538D01*
X134965133Y-103469600D01*
X133997745Y-104301397D01*
X133204372Y-103302214D01*
X133311786Y-103144768D01*
X133425454Y-103009294D01*
X133537584Y-102894014D01*
X133645130Y-102790147D01*
X133645350Y-102789929D01*
X133745021Y-102688856D01*
X133745761Y-102688037D01*
X133834299Y-102581080D01*
X133835355Y-102579601D01*
X133909642Y-102457944D01*
X133910627Y-102455961D01*
X133967547Y-102310789D01*
X133968164Y-102308707D01*
X134004602Y-102131204D01*
X134004839Y-102129394D01*
X134016976Y-101922700D01*
X134242993Y-101922700D01*
X134255448Y-102144546D01*
G37*
G04 #@! TD.AperFunction*
D18*
X160527988Y-91282653D02*
X160161190Y-92311889D01*
X159972824Y-92303381D01*
X159806695Y-92279242D01*
X159662951Y-92243671D01*
X159532904Y-92200391D01*
X159407970Y-92153122D01*
X159407881Y-92153089D01*
X159279829Y-92105729D01*
X159279209Y-92105517D01*
X159139807Y-92061996D01*
X159138811Y-92061729D01*
X158979587Y-92025890D01*
X158978431Y-92025685D01*
X158790914Y-92001365D01*
X158789788Y-92001270D01*
X158577700Y-91992797D01*
X158577700Y-91766931D01*
X158729225Y-91757470D01*
X158731188Y-91757193D01*
X158864181Y-91727653D01*
X158866519Y-91726889D01*
X158974507Y-91679622D01*
X158976814Y-91678310D01*
X159065233Y-91614927D01*
X159067024Y-91613370D01*
X159141312Y-91535481D01*
X159142416Y-91534154D01*
X159208010Y-91443367D01*
X159208555Y-91442548D01*
X159270891Y-91340474D01*
X159271051Y-91340205D01*
X159335510Y-91228551D01*
X159407418Y-91109102D01*
X159487281Y-90990714D01*
X160527988Y-91282653D01*
G04 #@! TA.AperFunction,Conductor*
D17*
G36*
X160527988Y-91282653D02*
G01*
X160161190Y-92311889D01*
X159972824Y-92303381D01*
X159806695Y-92279242D01*
X159662951Y-92243671D01*
X159532904Y-92200391D01*
X159407970Y-92153122D01*
X159407881Y-92153089D01*
X159279829Y-92105729D01*
X159279209Y-92105517D01*
X159139807Y-92061996D01*
X159138811Y-92061729D01*
X158979587Y-92025890D01*
X158978431Y-92025685D01*
X158790914Y-92001365D01*
X158789788Y-92001270D01*
X158577700Y-91992797D01*
X158577700Y-91766931D01*
X158729225Y-91757470D01*
X158731188Y-91757193D01*
X158864181Y-91727653D01*
X158866519Y-91726889D01*
X158974507Y-91679622D01*
X158976814Y-91678310D01*
X159065233Y-91614927D01*
X159067024Y-91613370D01*
X159141312Y-91535481D01*
X159142416Y-91534154D01*
X159208010Y-91443367D01*
X159208555Y-91442548D01*
X159270891Y-91340474D01*
X159271051Y-91340205D01*
X159335510Y-91228551D01*
X159407418Y-91109102D01*
X159487281Y-90990714D01*
X160527988Y-91282653D01*
G37*
G04 #@! TD.AperFunction*
D18*
X141835249Y-102116201D02*
X141835450Y-102117860D01*
X141871770Y-102310313D01*
X141872271Y-102312177D01*
X141928272Y-102471186D01*
X141929041Y-102472936D01*
X142001016Y-102608108D01*
X142001805Y-102609398D01*
X142086044Y-102730341D01*
X142086537Y-102731002D01*
X142179334Y-102847325D01*
X142179369Y-102847368D01*
X142276813Y-102968427D01*
X142375097Y-103103637D01*
X142470676Y-103262675D01*
X142556395Y-103447480D01*
X141609312Y-104302355D01*
X140792089Y-103322568D01*
X140898055Y-103158492D01*
X141010335Y-103017133D01*
X141121254Y-102896690D01*
X141227811Y-102788125D01*
X141228012Y-102787915D01*
X141326878Y-102682458D01*
X141327576Y-102681647D01*
X141415486Y-102570430D01*
X141416480Y-102568976D01*
X141490305Y-102442994D01*
X141491228Y-102441064D01*
X141547836Y-102291313D01*
X141548413Y-102289297D01*
X141584674Y-102106774D01*
X141584896Y-102105022D01*
X141596996Y-101892700D01*
X141822978Y-101892700D01*
X141835249Y-102116201D01*
G04 #@! TA.AperFunction,Conductor*
D17*
G36*
X141835249Y-102116201D02*
G01*
X141835450Y-102117860D01*
X141871770Y-102310313D01*
X141872271Y-102312177D01*
X141928272Y-102471186D01*
X141929041Y-102472936D01*
X142001016Y-102608108D01*
X142001805Y-102609398D01*
X142086044Y-102730341D01*
X142086537Y-102731002D01*
X142179334Y-102847325D01*
X142179369Y-102847368D01*
X142276813Y-102968427D01*
X142375097Y-103103637D01*
X142470676Y-103262675D01*
X142556395Y-103447480D01*
X141609312Y-104302355D01*
X140792089Y-103322568D01*
X140898055Y-103158492D01*
X141010335Y-103017133D01*
X141121254Y-102896690D01*
X141227811Y-102788125D01*
X141228012Y-102787915D01*
X141326878Y-102682458D01*
X141327576Y-102681647D01*
X141415486Y-102570430D01*
X141416480Y-102568976D01*
X141490305Y-102442994D01*
X141491228Y-102441064D01*
X141547836Y-102291313D01*
X141548413Y-102289297D01*
X141584674Y-102106774D01*
X141584896Y-102105022D01*
X141596996Y-101892700D01*
X141822978Y-101892700D01*
X141835249Y-102116201D01*
G37*
G04 #@! TD.AperFunction*
D18*
X160159933Y-94602557D02*
X160008322Y-94606504D01*
X160007599Y-94606544D01*
X159870576Y-94617944D01*
X159869859Y-94618024D01*
X159750496Y-94634824D01*
X159749917Y-94634919D01*
X159641548Y-94655319D01*
X159641247Y-94655380D01*
X159537264Y-94677568D01*
X159431083Y-94699728D01*
X159316206Y-94720040D01*
X159185801Y-94736760D01*
X159033114Y-94748110D01*
X158864071Y-94752004D01*
X158864071Y-94526463D01*
X158996660Y-94512846D01*
X159000037Y-94512021D01*
X159106505Y-94469883D01*
X159108719Y-94468744D01*
X159110221Y-94467608D01*
X159185403Y-94401452D01*
X159187102Y-94399632D01*
X159188012Y-94398268D01*
X159238146Y-94311429D01*
X159239309Y-94308736D01*
X159270634Y-94204548D01*
X159271015Y-94202881D01*
X159289769Y-94084678D01*
X159289867Y-94083906D01*
X159302290Y-93955022D01*
X159302297Y-93954949D01*
X159314603Y-93818979D01*
X159332975Y-93679525D01*
X159361712Y-93548303D01*
X160434839Y-93460501D01*
X160159933Y-94602557D01*
G04 #@! TA.AperFunction,Conductor*
D17*
G36*
X160159933Y-94602557D02*
G01*
X160008322Y-94606504D01*
X160007599Y-94606544D01*
X159870576Y-94617944D01*
X159869859Y-94618024D01*
X159750496Y-94634824D01*
X159749917Y-94634919D01*
X159641548Y-94655319D01*
X159641247Y-94655380D01*
X159537264Y-94677568D01*
X159431083Y-94699728D01*
X159316206Y-94720040D01*
X159185801Y-94736760D01*
X159033114Y-94748110D01*
X158864071Y-94752004D01*
X158864071Y-94526463D01*
X158996660Y-94512846D01*
X159000037Y-94512021D01*
X159106505Y-94469883D01*
X159108719Y-94468744D01*
X159110221Y-94467608D01*
X159185403Y-94401452D01*
X159187102Y-94399632D01*
X159188012Y-94398268D01*
X159238146Y-94311429D01*
X159239309Y-94308736D01*
X159270634Y-94204548D01*
X159271015Y-94202881D01*
X159289769Y-94084678D01*
X159289867Y-94083906D01*
X159302290Y-93955022D01*
X159302297Y-93954949D01*
X159314603Y-93818979D01*
X159332975Y-93679525D01*
X159361712Y-93548303D01*
X160434839Y-93460501D01*
X160159933Y-94602557D01*
G37*
G04 #@! TD.AperFunction*
M02*
