G04 #@! TF.GenerationSoftware,KiCad,Pcbnew,(5.1.10-1-10_14)*
G04 #@! TF.CreationDate,2021-10-24T13:43:18-04:00*
G04 #@! TF.ProjectId,gscartsw2VGA,67736361-7274-4737-9732-5647412e6b69,1*
G04 #@! TF.SameCoordinates,Original*
G04 #@! TF.FileFunction,Legend,Bot*
G04 #@! TF.FilePolarity,Positive*
%FSLAX46Y46*%
G04 Gerber Fmt 4.6, Leading zero omitted, Abs format (unit mm)*
G04 Created by KiCad (PCBNEW (5.1.10-1-10_14)) date 2021-10-24 13:43:18*
%MOMM*%
%LPD*%
G01*
G04 APERTURE LIST*
%ADD10C,0.200000*%
%ADD11C,0.127000*%
%ADD12C,0.120000*%
%ADD13C,1.801600*%
%ADD14C,4.167600*%
%ADD15C,0.152400*%
G04 APERTURE END LIST*
D10*
X138084285Y-100802857D02*
X138084285Y-101774285D01*
X138141428Y-101888571D01*
X138198571Y-101945714D01*
X138312857Y-102002857D01*
X138484285Y-102002857D01*
X138598571Y-101945714D01*
X138084285Y-101545714D02*
X138198571Y-101602857D01*
X138427142Y-101602857D01*
X138541428Y-101545714D01*
X138598571Y-101488571D01*
X138655714Y-101374285D01*
X138655714Y-101031428D01*
X138598571Y-100917142D01*
X138541428Y-100860000D01*
X138427142Y-100802857D01*
X138198571Y-100802857D01*
X138084285Y-100860000D01*
X137570000Y-101545714D02*
X137455714Y-101602857D01*
X137227142Y-101602857D01*
X137112857Y-101545714D01*
X137055714Y-101431428D01*
X137055714Y-101374285D01*
X137112857Y-101260000D01*
X137227142Y-101202857D01*
X137398571Y-101202857D01*
X137512857Y-101145714D01*
X137570000Y-101031428D01*
X137570000Y-100974285D01*
X137512857Y-100860000D01*
X137398571Y-100802857D01*
X137227142Y-100802857D01*
X137112857Y-100860000D01*
X136027142Y-101545714D02*
X136141428Y-101602857D01*
X136370000Y-101602857D01*
X136484285Y-101545714D01*
X136541428Y-101488571D01*
X136598571Y-101374285D01*
X136598571Y-101031428D01*
X136541428Y-100917142D01*
X136484285Y-100860000D01*
X136370000Y-100802857D01*
X136141428Y-100802857D01*
X136027142Y-100860000D01*
X134998571Y-101602857D02*
X134998571Y-100974285D01*
X135055714Y-100860000D01*
X135170000Y-100802857D01*
X135398571Y-100802857D01*
X135512857Y-100860000D01*
X134998571Y-101545714D02*
X135112857Y-101602857D01*
X135398571Y-101602857D01*
X135512857Y-101545714D01*
X135570000Y-101431428D01*
X135570000Y-101317142D01*
X135512857Y-101202857D01*
X135398571Y-101145714D01*
X135112857Y-101145714D01*
X134998571Y-101088571D01*
X134427142Y-101602857D02*
X134427142Y-100802857D01*
X134427142Y-101031428D02*
X134370000Y-100917142D01*
X134312857Y-100860000D01*
X134198571Y-100802857D01*
X134084285Y-100802857D01*
X133855714Y-100802857D02*
X133398571Y-100802857D01*
X133684285Y-100402857D02*
X133684285Y-101431428D01*
X133627142Y-101545714D01*
X133512857Y-101602857D01*
X133398571Y-101602857D01*
X133055714Y-101545714D02*
X132941428Y-101602857D01*
X132712857Y-101602857D01*
X132598571Y-101545714D01*
X132541428Y-101431428D01*
X132541428Y-101374285D01*
X132598571Y-101260000D01*
X132712857Y-101202857D01*
X132884285Y-101202857D01*
X132998571Y-101145714D01*
X133055714Y-101031428D01*
X133055714Y-100974285D01*
X132998571Y-100860000D01*
X132884285Y-100802857D01*
X132712857Y-100802857D01*
X132598571Y-100860000D01*
X132141428Y-100802857D02*
X131912857Y-101602857D01*
X131684285Y-101031428D01*
X131455714Y-101602857D01*
X131227142Y-100802857D01*
X130827142Y-100517142D02*
X130770000Y-100460000D01*
X130655714Y-100402857D01*
X130370000Y-100402857D01*
X130255714Y-100460000D01*
X130198571Y-100517142D01*
X130141428Y-100631428D01*
X130141428Y-100745714D01*
X130198571Y-100917142D01*
X130884285Y-101602857D01*
X130141428Y-101602857D01*
X129798571Y-100402857D02*
X129398571Y-101602857D01*
X128998571Y-100402857D01*
X127970000Y-100460000D02*
X128084285Y-100402857D01*
X128255714Y-100402857D01*
X128427142Y-100460000D01*
X128541428Y-100574285D01*
X128598571Y-100688571D01*
X128655714Y-100917142D01*
X128655714Y-101088571D01*
X128598571Y-101317142D01*
X128541428Y-101431428D01*
X128427142Y-101545714D01*
X128255714Y-101602857D01*
X128141428Y-101602857D01*
X127970000Y-101545714D01*
X127912857Y-101488571D01*
X127912857Y-101088571D01*
X128141428Y-101088571D01*
X127455714Y-101260000D02*
X126884285Y-101260000D01*
X127570000Y-101602857D02*
X127170000Y-100402857D01*
X126770000Y-101602857D01*
X139484285Y-102402857D02*
X139484285Y-103260000D01*
X139541428Y-103431428D01*
X139655714Y-103545714D01*
X139827142Y-103602857D01*
X139941428Y-103602857D01*
X138455714Y-103545714D02*
X138570000Y-103602857D01*
X138798571Y-103602857D01*
X138912857Y-103545714D01*
X138970000Y-103431428D01*
X138970000Y-102974285D01*
X138912857Y-102860000D01*
X138798571Y-102802857D01*
X138570000Y-102802857D01*
X138455714Y-102860000D01*
X138398571Y-102974285D01*
X138398571Y-103088571D01*
X138970000Y-103202857D01*
X138055714Y-102802857D02*
X137598571Y-102802857D01*
X137884285Y-103602857D02*
X137884285Y-102574285D01*
X137827142Y-102460000D01*
X137712857Y-102402857D01*
X137598571Y-102402857D01*
X137370000Y-102802857D02*
X136912857Y-102802857D01*
X137198571Y-103602857D02*
X137198571Y-102574285D01*
X137141428Y-102460000D01*
X137027142Y-102402857D01*
X136912857Y-102402857D01*
X134912857Y-103488571D02*
X134970000Y-103545714D01*
X135141428Y-103602857D01*
X135255714Y-103602857D01*
X135427142Y-103545714D01*
X135541428Y-103431428D01*
X135598571Y-103317142D01*
X135655714Y-103088571D01*
X135655714Y-102917142D01*
X135598571Y-102688571D01*
X135541428Y-102574285D01*
X135427142Y-102460000D01*
X135255714Y-102402857D01*
X135141428Y-102402857D01*
X134970000Y-102460000D01*
X134912857Y-102517142D01*
X134398571Y-103602857D02*
X134398571Y-102402857D01*
X133884285Y-103602857D02*
X133884285Y-102974285D01*
X133941428Y-102860000D01*
X134055714Y-102802857D01*
X134227142Y-102802857D01*
X134341428Y-102860000D01*
X134398571Y-102917142D01*
X132855714Y-103545714D02*
X132970000Y-103602857D01*
X133198571Y-103602857D01*
X133312857Y-103545714D01*
X133370000Y-103431428D01*
X133370000Y-102974285D01*
X133312857Y-102860000D01*
X133198571Y-102802857D01*
X132970000Y-102802857D01*
X132855714Y-102860000D01*
X132798571Y-102974285D01*
X132798571Y-103088571D01*
X133370000Y-103202857D01*
X132284285Y-102802857D02*
X132284285Y-103602857D01*
X132284285Y-102917142D02*
X132227142Y-102860000D01*
X132112857Y-102802857D01*
X131941428Y-102802857D01*
X131827142Y-102860000D01*
X131770000Y-102974285D01*
X131770000Y-103602857D01*
X131141428Y-103545714D02*
X131141428Y-103602857D01*
X131198571Y-103717142D01*
X131255714Y-103774285D01*
X129770000Y-102517142D02*
X129712857Y-102460000D01*
X129598571Y-102402857D01*
X129312857Y-102402857D01*
X129198571Y-102460000D01*
X129141428Y-102517142D01*
X129084285Y-102631428D01*
X129084285Y-102745714D01*
X129141428Y-102917142D01*
X129827142Y-103602857D01*
X129084285Y-103602857D01*
X128341428Y-102402857D02*
X128227142Y-102402857D01*
X128112857Y-102460000D01*
X128055714Y-102517142D01*
X127998571Y-102631428D01*
X127941428Y-102860000D01*
X127941428Y-103145714D01*
X127998571Y-103374285D01*
X128055714Y-103488571D01*
X128112857Y-103545714D01*
X128227142Y-103602857D01*
X128341428Y-103602857D01*
X128455714Y-103545714D01*
X128512857Y-103488571D01*
X128570000Y-103374285D01*
X128627142Y-103145714D01*
X128627142Y-102860000D01*
X128570000Y-102631428D01*
X128512857Y-102517142D01*
X128455714Y-102460000D01*
X128341428Y-102402857D01*
X127484285Y-102517142D02*
X127427142Y-102460000D01*
X127312857Y-102402857D01*
X127027142Y-102402857D01*
X126912857Y-102460000D01*
X126855714Y-102517142D01*
X126798571Y-102631428D01*
X126798571Y-102745714D01*
X126855714Y-102917142D01*
X127541428Y-103602857D01*
X126798571Y-103602857D01*
X125655714Y-103602857D02*
X126341428Y-103602857D01*
X125998571Y-103602857D02*
X125998571Y-102402857D01*
X126112857Y-102574285D01*
X126227142Y-102688571D01*
X126341428Y-102745714D01*
D11*
X165595571Y-102162714D02*
X165595571Y-102344142D01*
X165777000Y-102271571D02*
X165595571Y-102344142D01*
X165414142Y-102271571D01*
X165704428Y-102489285D02*
X165595571Y-102344142D01*
X165486714Y-102489285D01*
X164543285Y-102525571D02*
X163962714Y-102525571D01*
X163962714Y-102743285D02*
X164543285Y-102743285D01*
X163019285Y-102924714D02*
X163019285Y-102162714D01*
X162656428Y-102416714D02*
X162656428Y-102924714D01*
X162656428Y-102489285D02*
X162620142Y-102453000D01*
X162547571Y-102416714D01*
X162438714Y-102416714D01*
X162366142Y-102453000D01*
X162329857Y-102525571D01*
X162329857Y-102924714D01*
X161967000Y-102416714D02*
X161967000Y-103178714D01*
X161967000Y-102453000D02*
X161894428Y-102416714D01*
X161749285Y-102416714D01*
X161676714Y-102453000D01*
X161640428Y-102489285D01*
X161604142Y-102561857D01*
X161604142Y-102779571D01*
X161640428Y-102852142D01*
X161676714Y-102888428D01*
X161749285Y-102924714D01*
X161894428Y-102924714D01*
X161967000Y-102888428D01*
X160951000Y-102416714D02*
X160951000Y-102924714D01*
X161277571Y-102416714D02*
X161277571Y-102815857D01*
X161241285Y-102888428D01*
X161168714Y-102924714D01*
X161059857Y-102924714D01*
X160987285Y-102888428D01*
X160951000Y-102852142D01*
X160697000Y-102416714D02*
X160406714Y-102416714D01*
X160588142Y-102162714D02*
X160588142Y-102815857D01*
X160551857Y-102888428D01*
X160479285Y-102924714D01*
X160406714Y-102924714D01*
X158190000Y-81778571D02*
X158190000Y-82135714D01*
X157832857Y-81992857D02*
X158190000Y-82135714D01*
X158547142Y-81992857D01*
X157975714Y-82421428D02*
X158190000Y-82135714D01*
X158404285Y-82421428D01*
X157690000Y-99528571D02*
X157690000Y-99885714D01*
X157332857Y-99742857D02*
X157690000Y-99885714D01*
X158047142Y-99742857D01*
X157475714Y-100171428D02*
X157690000Y-99885714D01*
X157904285Y-100171428D01*
X120170000Y-99368571D02*
X120170000Y-99725714D01*
X119812857Y-99582857D02*
X120170000Y-99725714D01*
X120527142Y-99582857D01*
X119955714Y-100011428D02*
X120170000Y-99725714D01*
X120384285Y-100011428D01*
D12*
X124240000Y-99350000D02*
X121440000Y-99350000D01*
X120790000Y-100050000D02*
X120790000Y-100650000D01*
X121440000Y-101350000D02*
X124240000Y-101350000D01*
X124890000Y-100650000D02*
X124890000Y-100050000D01*
X124040000Y-101550000D02*
X124340000Y-101850000D01*
X124340000Y-101850000D02*
X123740000Y-101850000D01*
X124040000Y-101550000D02*
X123740000Y-101850000D01*
X121490000Y-99350000D02*
G75*
G03*
X120790000Y-100050000I0J-700000D01*
G01*
X120790000Y-100650000D02*
G75*
G03*
X121490000Y-101350000I700000J0D01*
G01*
X124190000Y-101350000D02*
G75*
G03*
X124890000Y-100650000I0J700000D01*
G01*
X124890000Y-100050000D02*
G75*
G03*
X124190000Y-99350000I-700000J0D01*
G01*
X158540000Y-86880000D02*
G75*
G03*
X159240000Y-86180000I0J700000D01*
G01*
X157240000Y-86180000D02*
G75*
G03*
X157940000Y-86880000I700000J0D01*
G01*
X157940000Y-82780000D02*
G75*
G03*
X157240000Y-83480000I0J-700000D01*
G01*
X159240000Y-83480000D02*
G75*
G03*
X158540000Y-82780000I-700000J0D01*
G01*
X157040000Y-86030000D02*
X156740000Y-85730000D01*
X156740000Y-86330000D02*
X156740000Y-85730000D01*
X157040000Y-86030000D02*
X156740000Y-86330000D01*
X157940000Y-86880000D02*
X158540000Y-86880000D01*
X157240000Y-83430000D02*
X157240000Y-86230000D01*
X158540000Y-82780000D02*
X157940000Y-82780000D01*
X159240000Y-86230000D02*
X159240000Y-83430000D01*
X158710000Y-103940000D02*
X158710000Y-101140000D01*
X158010000Y-100490000D02*
X157410000Y-100490000D01*
X156710000Y-101140000D02*
X156710000Y-103940000D01*
X157410000Y-104590000D02*
X158010000Y-104590000D01*
X156510000Y-103740000D02*
X156210000Y-104040000D01*
X156210000Y-104040000D02*
X156210000Y-103440000D01*
X156510000Y-103740000D02*
X156210000Y-103440000D01*
X158710000Y-101190000D02*
G75*
G03*
X158010000Y-100490000I-700000J0D01*
G01*
X157410000Y-100490000D02*
G75*
G03*
X156710000Y-101190000I0J-700000D01*
G01*
X156710000Y-103890000D02*
G75*
G03*
X157410000Y-104590000I700000J0D01*
G01*
X158010000Y-104590000D02*
G75*
G03*
X158710000Y-103890000I0J700000D01*
G01*
%LPC*%
D13*
X164130000Y-98345000D03*
X164130000Y-96055000D03*
X164130000Y-93765000D03*
X164130000Y-91475000D03*
X164130000Y-89185000D03*
X162150000Y-97200000D03*
X162150000Y-94910000D03*
X162150000Y-92620000D03*
X162150000Y-90330000D03*
X162150000Y-88040000D03*
X160170000Y-98345000D03*
X160170000Y-96055000D03*
X160170000Y-93765000D03*
X160170000Y-91475000D03*
D14*
X162150000Y-106260000D03*
X162150000Y-81270000D03*
G36*
G01*
X159320000Y-88284200D02*
X161020000Y-88284200D01*
G75*
G02*
X161070800Y-88335000I0J-50800D01*
G01*
X161070800Y-90035000D01*
G75*
G02*
X161020000Y-90085800I-50800J0D01*
G01*
X159320000Y-90085800D01*
G75*
G02*
X159269200Y-90035000I0J50800D01*
G01*
X159269200Y-88335000D01*
G75*
G02*
X159320000Y-88284200I50800J0D01*
G01*
G37*
G36*
G01*
X124392524Y-105321881D02*
X124392524Y-102321881D01*
G75*
G02*
X124443324Y-102271081I50800J0D01*
G01*
X126443324Y-102271081D01*
G75*
G02*
X126494124Y-102321881I0J-50800D01*
G01*
X126494124Y-105321881D01*
G75*
G02*
X126443324Y-105372681I-50800J0D01*
G01*
X124443324Y-105372681D01*
G75*
G02*
X124392524Y-105321881I0J50800D01*
G01*
G37*
G36*
G01*
X150992524Y-105321881D02*
X150992524Y-102321881D01*
G75*
G02*
X151043324Y-102271081I50800J0D01*
G01*
X153043324Y-102271081D01*
G75*
G02*
X153094124Y-102321881I0J-50800D01*
G01*
X153094124Y-105321881D01*
G75*
G02*
X153043324Y-105372681I-50800J0D01*
G01*
X151043324Y-105372681D01*
G75*
G02*
X150992524Y-105321881I0J50800D01*
G01*
G37*
G36*
G01*
X147192524Y-105321881D02*
X147192524Y-102321881D01*
G75*
G02*
X147243324Y-102271081I50800J0D01*
G01*
X149243324Y-102271081D01*
G75*
G02*
X149294124Y-102321881I0J-50800D01*
G01*
X149294124Y-105321881D01*
G75*
G02*
X149243324Y-105372681I-50800J0D01*
G01*
X147243324Y-105372681D01*
G75*
G02*
X147192524Y-105321881I0J50800D01*
G01*
G37*
G36*
G01*
X143392524Y-105321881D02*
X143392524Y-102321881D01*
G75*
G02*
X143443324Y-102271081I50800J0D01*
G01*
X145443324Y-102271081D01*
G75*
G02*
X145494124Y-102321881I0J-50800D01*
G01*
X145494124Y-105321881D01*
G75*
G02*
X145443324Y-105372681I-50800J0D01*
G01*
X143443324Y-105372681D01*
G75*
G02*
X143392524Y-105321881I0J50800D01*
G01*
G37*
G36*
G01*
X120592524Y-105321881D02*
X120592524Y-102321881D01*
G75*
G02*
X120643324Y-102271081I50800J0D01*
G01*
X122643324Y-102271081D01*
G75*
G02*
X122694124Y-102321881I0J-50800D01*
G01*
X122694124Y-105321881D01*
G75*
G02*
X122643324Y-105372681I-50800J0D01*
G01*
X120643324Y-105372681D01*
G75*
G02*
X120592524Y-105321881I0J50800D01*
G01*
G37*
G36*
G01*
X116792524Y-105321881D02*
X116792524Y-102321881D01*
G75*
G02*
X116843324Y-102271081I50800J0D01*
G01*
X118843324Y-102271081D01*
G75*
G02*
X118894124Y-102321881I0J-50800D01*
G01*
X118894124Y-105321881D01*
G75*
G02*
X118843324Y-105372681I-50800J0D01*
G01*
X116843324Y-105372681D01*
G75*
G02*
X116792524Y-105321881I0J50800D01*
G01*
G37*
D15*
G36*
X123580089Y-101149824D02*
G01*
X123570560Y-101146933D01*
X123561777Y-101142239D01*
X123554079Y-101135921D01*
X123547761Y-101128223D01*
X123543067Y-101119440D01*
X123540176Y-101109911D01*
X123539200Y-101100000D01*
X123539200Y-99600000D01*
X123540176Y-99590089D01*
X123543067Y-99580560D01*
X123547761Y-99571777D01*
X123554079Y-99564079D01*
X123561777Y-99557761D01*
X123570560Y-99553067D01*
X123580089Y-99550176D01*
X123590000Y-99549200D01*
X124140000Y-99549200D01*
X124146113Y-99549802D01*
X124164534Y-99549802D01*
X124169514Y-99550047D01*
X124218345Y-99554857D01*
X124223275Y-99555588D01*
X124271400Y-99565160D01*
X124276237Y-99566372D01*
X124323192Y-99580616D01*
X124327885Y-99582295D01*
X124373218Y-99601072D01*
X124377726Y-99603204D01*
X124420999Y-99626335D01*
X124425273Y-99628897D01*
X124466072Y-99656157D01*
X124470077Y-99659127D01*
X124508006Y-99690255D01*
X124511700Y-99693603D01*
X124546397Y-99728300D01*
X124549745Y-99731994D01*
X124580873Y-99769923D01*
X124583843Y-99773928D01*
X124611103Y-99814727D01*
X124613665Y-99819001D01*
X124636796Y-99862274D01*
X124638928Y-99866782D01*
X124657705Y-99912115D01*
X124659384Y-99916808D01*
X124673628Y-99963763D01*
X124674840Y-99968600D01*
X124684412Y-100016725D01*
X124685143Y-100021655D01*
X124689953Y-100070486D01*
X124690198Y-100075466D01*
X124690198Y-100093887D01*
X124690800Y-100100000D01*
X124690800Y-100600000D01*
X124690198Y-100606113D01*
X124690198Y-100624534D01*
X124689953Y-100629514D01*
X124685143Y-100678345D01*
X124684412Y-100683275D01*
X124674840Y-100731400D01*
X124673628Y-100736237D01*
X124659384Y-100783192D01*
X124657705Y-100787885D01*
X124638928Y-100833218D01*
X124636796Y-100837726D01*
X124613665Y-100880999D01*
X124611103Y-100885273D01*
X124583843Y-100926072D01*
X124580873Y-100930077D01*
X124549745Y-100968006D01*
X124546397Y-100971700D01*
X124511700Y-101006397D01*
X124508006Y-101009745D01*
X124470077Y-101040873D01*
X124466072Y-101043843D01*
X124425273Y-101071103D01*
X124420999Y-101073665D01*
X124377726Y-101096796D01*
X124373218Y-101098928D01*
X124327885Y-101117705D01*
X124323192Y-101119384D01*
X124276237Y-101133628D01*
X124271400Y-101134840D01*
X124223275Y-101144412D01*
X124218345Y-101145143D01*
X124169514Y-101149953D01*
X124164534Y-101150198D01*
X124146113Y-101150198D01*
X124140000Y-101150800D01*
X123590000Y-101150800D01*
X123580089Y-101149824D01*
G37*
G36*
X121533887Y-101150198D02*
G01*
X121515466Y-101150198D01*
X121510486Y-101149953D01*
X121461655Y-101145143D01*
X121456725Y-101144412D01*
X121408600Y-101134840D01*
X121403763Y-101133628D01*
X121356808Y-101119384D01*
X121352115Y-101117705D01*
X121306782Y-101098928D01*
X121302274Y-101096796D01*
X121259001Y-101073665D01*
X121254727Y-101071103D01*
X121213928Y-101043843D01*
X121209923Y-101040873D01*
X121171994Y-101009745D01*
X121168300Y-101006397D01*
X121133603Y-100971700D01*
X121130255Y-100968006D01*
X121099127Y-100930077D01*
X121096157Y-100926072D01*
X121068897Y-100885273D01*
X121066335Y-100880999D01*
X121043204Y-100837726D01*
X121041072Y-100833218D01*
X121022295Y-100787885D01*
X121020616Y-100783192D01*
X121006372Y-100736237D01*
X121005160Y-100731400D01*
X120995588Y-100683275D01*
X120994857Y-100678345D01*
X120990047Y-100629514D01*
X120989802Y-100624534D01*
X120989802Y-100606113D01*
X120989200Y-100600000D01*
X120989200Y-100100000D01*
X120989802Y-100093887D01*
X120989802Y-100075466D01*
X120990047Y-100070486D01*
X120994857Y-100021655D01*
X120995588Y-100016725D01*
X121005160Y-99968600D01*
X121006372Y-99963763D01*
X121020616Y-99916808D01*
X121022295Y-99912115D01*
X121041072Y-99866782D01*
X121043204Y-99862274D01*
X121066335Y-99819001D01*
X121068897Y-99814727D01*
X121096157Y-99773928D01*
X121099127Y-99769923D01*
X121130255Y-99731994D01*
X121133603Y-99728300D01*
X121168300Y-99693603D01*
X121171994Y-99690255D01*
X121209923Y-99659127D01*
X121213928Y-99656157D01*
X121254727Y-99628897D01*
X121259001Y-99626335D01*
X121302274Y-99603204D01*
X121306782Y-99601072D01*
X121352115Y-99582295D01*
X121356808Y-99580616D01*
X121403763Y-99566372D01*
X121408600Y-99565160D01*
X121456725Y-99555588D01*
X121461655Y-99554857D01*
X121510486Y-99550047D01*
X121515466Y-99549802D01*
X121533887Y-99549802D01*
X121540000Y-99549200D01*
X122090000Y-99549200D01*
X122099911Y-99550176D01*
X122109440Y-99553067D01*
X122118223Y-99557761D01*
X122125921Y-99564079D01*
X122132239Y-99571777D01*
X122136933Y-99580560D01*
X122139824Y-99590089D01*
X122140800Y-99600000D01*
X122140800Y-101100000D01*
X122139824Y-101109911D01*
X122136933Y-101119440D01*
X122132239Y-101128223D01*
X122125921Y-101135921D01*
X122118223Y-101142239D01*
X122109440Y-101146933D01*
X122099911Y-101149824D01*
X122090000Y-101150800D01*
X121540000Y-101150800D01*
X121533887Y-101150198D01*
G37*
G36*
G01*
X123390800Y-99600000D02*
X123390800Y-101100000D01*
G75*
G02*
X123340000Y-101150800I-50800J0D01*
G01*
X122340000Y-101150800D01*
G75*
G02*
X122289200Y-101100000I0J50800D01*
G01*
X122289200Y-99600000D01*
G75*
G02*
X122340000Y-99549200I50800J0D01*
G01*
X123340000Y-99549200D01*
G75*
G02*
X123390800Y-99600000I0J-50800D01*
G01*
G37*
G36*
G01*
X158990000Y-85380800D02*
X157490000Y-85380800D01*
G75*
G02*
X157439200Y-85330000I0J50800D01*
G01*
X157439200Y-84330000D01*
G75*
G02*
X157490000Y-84279200I50800J0D01*
G01*
X158990000Y-84279200D01*
G75*
G02*
X159040800Y-84330000I0J-50800D01*
G01*
X159040800Y-85330000D01*
G75*
G02*
X158990000Y-85380800I-50800J0D01*
G01*
G37*
G36*
X157439802Y-83523887D02*
G01*
X157439802Y-83505466D01*
X157440047Y-83500486D01*
X157444857Y-83451655D01*
X157445588Y-83446725D01*
X157455160Y-83398600D01*
X157456372Y-83393763D01*
X157470616Y-83346808D01*
X157472295Y-83342115D01*
X157491072Y-83296782D01*
X157493204Y-83292274D01*
X157516335Y-83249001D01*
X157518897Y-83244727D01*
X157546157Y-83203928D01*
X157549127Y-83199923D01*
X157580255Y-83161994D01*
X157583603Y-83158300D01*
X157618300Y-83123603D01*
X157621994Y-83120255D01*
X157659923Y-83089127D01*
X157663928Y-83086157D01*
X157704727Y-83058897D01*
X157709001Y-83056335D01*
X157752274Y-83033204D01*
X157756782Y-83031072D01*
X157802115Y-83012295D01*
X157806808Y-83010616D01*
X157853763Y-82996372D01*
X157858600Y-82995160D01*
X157906725Y-82985588D01*
X157911655Y-82984857D01*
X157960486Y-82980047D01*
X157965466Y-82979802D01*
X157983887Y-82979802D01*
X157990000Y-82979200D01*
X158490000Y-82979200D01*
X158496113Y-82979802D01*
X158514534Y-82979802D01*
X158519514Y-82980047D01*
X158568345Y-82984857D01*
X158573275Y-82985588D01*
X158621400Y-82995160D01*
X158626237Y-82996372D01*
X158673192Y-83010616D01*
X158677885Y-83012295D01*
X158723218Y-83031072D01*
X158727726Y-83033204D01*
X158770999Y-83056335D01*
X158775273Y-83058897D01*
X158816072Y-83086157D01*
X158820077Y-83089127D01*
X158858006Y-83120255D01*
X158861700Y-83123603D01*
X158896397Y-83158300D01*
X158899745Y-83161994D01*
X158930873Y-83199923D01*
X158933843Y-83203928D01*
X158961103Y-83244727D01*
X158963665Y-83249001D01*
X158986796Y-83292274D01*
X158988928Y-83296782D01*
X159007705Y-83342115D01*
X159009384Y-83346808D01*
X159023628Y-83393763D01*
X159024840Y-83398600D01*
X159034412Y-83446725D01*
X159035143Y-83451655D01*
X159039953Y-83500486D01*
X159040198Y-83505466D01*
X159040198Y-83523887D01*
X159040800Y-83530000D01*
X159040800Y-84080000D01*
X159039824Y-84089911D01*
X159036933Y-84099440D01*
X159032239Y-84108223D01*
X159025921Y-84115921D01*
X159018223Y-84122239D01*
X159009440Y-84126933D01*
X158999911Y-84129824D01*
X158990000Y-84130800D01*
X157490000Y-84130800D01*
X157480089Y-84129824D01*
X157470560Y-84126933D01*
X157461777Y-84122239D01*
X157454079Y-84115921D01*
X157447761Y-84108223D01*
X157443067Y-84099440D01*
X157440176Y-84089911D01*
X157439200Y-84080000D01*
X157439200Y-83530000D01*
X157439802Y-83523887D01*
G37*
G36*
X157440176Y-85570089D02*
G01*
X157443067Y-85560560D01*
X157447761Y-85551777D01*
X157454079Y-85544079D01*
X157461777Y-85537761D01*
X157470560Y-85533067D01*
X157480089Y-85530176D01*
X157490000Y-85529200D01*
X158990000Y-85529200D01*
X158999911Y-85530176D01*
X159009440Y-85533067D01*
X159018223Y-85537761D01*
X159025921Y-85544079D01*
X159032239Y-85551777D01*
X159036933Y-85560560D01*
X159039824Y-85570089D01*
X159040800Y-85580000D01*
X159040800Y-86130000D01*
X159040198Y-86136113D01*
X159040198Y-86154534D01*
X159039953Y-86159514D01*
X159035143Y-86208345D01*
X159034412Y-86213275D01*
X159024840Y-86261400D01*
X159023628Y-86266237D01*
X159009384Y-86313192D01*
X159007705Y-86317885D01*
X158988928Y-86363218D01*
X158986796Y-86367726D01*
X158963665Y-86410999D01*
X158961103Y-86415273D01*
X158933843Y-86456072D01*
X158930873Y-86460077D01*
X158899745Y-86498006D01*
X158896397Y-86501700D01*
X158861700Y-86536397D01*
X158858006Y-86539745D01*
X158820077Y-86570873D01*
X158816072Y-86573843D01*
X158775273Y-86601103D01*
X158770999Y-86603665D01*
X158727726Y-86626796D01*
X158723218Y-86628928D01*
X158677885Y-86647705D01*
X158673192Y-86649384D01*
X158626237Y-86663628D01*
X158621400Y-86664840D01*
X158573275Y-86674412D01*
X158568345Y-86675143D01*
X158519514Y-86679953D01*
X158514534Y-86680198D01*
X158496113Y-86680198D01*
X158490000Y-86680800D01*
X157990000Y-86680800D01*
X157983887Y-86680198D01*
X157965466Y-86680198D01*
X157960486Y-86679953D01*
X157911655Y-86675143D01*
X157906725Y-86674412D01*
X157858600Y-86664840D01*
X157853763Y-86663628D01*
X157806808Y-86649384D01*
X157802115Y-86647705D01*
X157756782Y-86628928D01*
X157752274Y-86626796D01*
X157709001Y-86603665D01*
X157704727Y-86601103D01*
X157663928Y-86573843D01*
X157659923Y-86570873D01*
X157621994Y-86539745D01*
X157618300Y-86536397D01*
X157583603Y-86501700D01*
X157580255Y-86498006D01*
X157549127Y-86460077D01*
X157546157Y-86456072D01*
X157518897Y-86415273D01*
X157516335Y-86410999D01*
X157493204Y-86367726D01*
X157491072Y-86363218D01*
X157472295Y-86317885D01*
X157470616Y-86313192D01*
X157456372Y-86266237D01*
X157455160Y-86261400D01*
X157445588Y-86213275D01*
X157444857Y-86208345D01*
X157440047Y-86159514D01*
X157439802Y-86154534D01*
X157439802Y-86136113D01*
X157439200Y-86130000D01*
X157439200Y-85580000D01*
X157440176Y-85570089D01*
G37*
G36*
X156910176Y-103280089D02*
G01*
X156913067Y-103270560D01*
X156917761Y-103261777D01*
X156924079Y-103254079D01*
X156931777Y-103247761D01*
X156940560Y-103243067D01*
X156950089Y-103240176D01*
X156960000Y-103239200D01*
X158460000Y-103239200D01*
X158469911Y-103240176D01*
X158479440Y-103243067D01*
X158488223Y-103247761D01*
X158495921Y-103254079D01*
X158502239Y-103261777D01*
X158506933Y-103270560D01*
X158509824Y-103280089D01*
X158510800Y-103290000D01*
X158510800Y-103840000D01*
X158510198Y-103846113D01*
X158510198Y-103864534D01*
X158509953Y-103869514D01*
X158505143Y-103918345D01*
X158504412Y-103923275D01*
X158494840Y-103971400D01*
X158493628Y-103976237D01*
X158479384Y-104023192D01*
X158477705Y-104027885D01*
X158458928Y-104073218D01*
X158456796Y-104077726D01*
X158433665Y-104120999D01*
X158431103Y-104125273D01*
X158403843Y-104166072D01*
X158400873Y-104170077D01*
X158369745Y-104208006D01*
X158366397Y-104211700D01*
X158331700Y-104246397D01*
X158328006Y-104249745D01*
X158290077Y-104280873D01*
X158286072Y-104283843D01*
X158245273Y-104311103D01*
X158240999Y-104313665D01*
X158197726Y-104336796D01*
X158193218Y-104338928D01*
X158147885Y-104357705D01*
X158143192Y-104359384D01*
X158096237Y-104373628D01*
X158091400Y-104374840D01*
X158043275Y-104384412D01*
X158038345Y-104385143D01*
X157989514Y-104389953D01*
X157984534Y-104390198D01*
X157966113Y-104390198D01*
X157960000Y-104390800D01*
X157460000Y-104390800D01*
X157453887Y-104390198D01*
X157435466Y-104390198D01*
X157430486Y-104389953D01*
X157381655Y-104385143D01*
X157376725Y-104384412D01*
X157328600Y-104374840D01*
X157323763Y-104373628D01*
X157276808Y-104359384D01*
X157272115Y-104357705D01*
X157226782Y-104338928D01*
X157222274Y-104336796D01*
X157179001Y-104313665D01*
X157174727Y-104311103D01*
X157133928Y-104283843D01*
X157129923Y-104280873D01*
X157091994Y-104249745D01*
X157088300Y-104246397D01*
X157053603Y-104211700D01*
X157050255Y-104208006D01*
X157019127Y-104170077D01*
X157016157Y-104166072D01*
X156988897Y-104125273D01*
X156986335Y-104120999D01*
X156963204Y-104077726D01*
X156961072Y-104073218D01*
X156942295Y-104027885D01*
X156940616Y-104023192D01*
X156926372Y-103976237D01*
X156925160Y-103971400D01*
X156915588Y-103923275D01*
X156914857Y-103918345D01*
X156910047Y-103869514D01*
X156909802Y-103864534D01*
X156909802Y-103846113D01*
X156909200Y-103840000D01*
X156909200Y-103290000D01*
X156910176Y-103280089D01*
G37*
G36*
X156909802Y-101233887D02*
G01*
X156909802Y-101215466D01*
X156910047Y-101210486D01*
X156914857Y-101161655D01*
X156915588Y-101156725D01*
X156925160Y-101108600D01*
X156926372Y-101103763D01*
X156940616Y-101056808D01*
X156942295Y-101052115D01*
X156961072Y-101006782D01*
X156963204Y-101002274D01*
X156986335Y-100959001D01*
X156988897Y-100954727D01*
X157016157Y-100913928D01*
X157019127Y-100909923D01*
X157050255Y-100871994D01*
X157053603Y-100868300D01*
X157088300Y-100833603D01*
X157091994Y-100830255D01*
X157129923Y-100799127D01*
X157133928Y-100796157D01*
X157174727Y-100768897D01*
X157179001Y-100766335D01*
X157222274Y-100743204D01*
X157226782Y-100741072D01*
X157272115Y-100722295D01*
X157276808Y-100720616D01*
X157323763Y-100706372D01*
X157328600Y-100705160D01*
X157376725Y-100695588D01*
X157381655Y-100694857D01*
X157430486Y-100690047D01*
X157435466Y-100689802D01*
X157453887Y-100689802D01*
X157460000Y-100689200D01*
X157960000Y-100689200D01*
X157966113Y-100689802D01*
X157984534Y-100689802D01*
X157989514Y-100690047D01*
X158038345Y-100694857D01*
X158043275Y-100695588D01*
X158091400Y-100705160D01*
X158096237Y-100706372D01*
X158143192Y-100720616D01*
X158147885Y-100722295D01*
X158193218Y-100741072D01*
X158197726Y-100743204D01*
X158240999Y-100766335D01*
X158245273Y-100768897D01*
X158286072Y-100796157D01*
X158290077Y-100799127D01*
X158328006Y-100830255D01*
X158331700Y-100833603D01*
X158366397Y-100868300D01*
X158369745Y-100871994D01*
X158400873Y-100909923D01*
X158403843Y-100913928D01*
X158431103Y-100954727D01*
X158433665Y-100959001D01*
X158456796Y-101002274D01*
X158458928Y-101006782D01*
X158477705Y-101052115D01*
X158479384Y-101056808D01*
X158493628Y-101103763D01*
X158494840Y-101108600D01*
X158504412Y-101156725D01*
X158505143Y-101161655D01*
X158509953Y-101210486D01*
X158510198Y-101215466D01*
X158510198Y-101233887D01*
X158510800Y-101240000D01*
X158510800Y-101790000D01*
X158509824Y-101799911D01*
X158506933Y-101809440D01*
X158502239Y-101818223D01*
X158495921Y-101825921D01*
X158488223Y-101832239D01*
X158479440Y-101836933D01*
X158469911Y-101839824D01*
X158460000Y-101840800D01*
X156960000Y-101840800D01*
X156950089Y-101839824D01*
X156940560Y-101836933D01*
X156931777Y-101832239D01*
X156924079Y-101825921D01*
X156917761Y-101818223D01*
X156913067Y-101809440D01*
X156910176Y-101799911D01*
X156909200Y-101790000D01*
X156909200Y-101240000D01*
X156909802Y-101233887D01*
G37*
G36*
G01*
X158460000Y-103090800D02*
X156960000Y-103090800D01*
G75*
G02*
X156909200Y-103040000I0J50800D01*
G01*
X156909200Y-102040000D01*
G75*
G02*
X156960000Y-101989200I50800J0D01*
G01*
X158460000Y-101989200D01*
G75*
G02*
X158510800Y-102040000I0J-50800D01*
G01*
X158510800Y-103040000D01*
G75*
G02*
X158460000Y-103090800I-50800J0D01*
G01*
G37*
M02*
